<svg width="24" height="24" viewBox="0 0 24 24" fill="none" xmlns="http://www.w3.org/2000/svg">
<path opacity="0.98" fill-rule="evenodd" clip-rule="evenodd" d="M2.78992 0.960938C7.24309 0.953124 11.6962 0.960938 16.1493 0.984376C16.2471 1.02151 16.3331 1.07619 16.4071 1.14844C16.4612 1.96463 16.4846 2.78494 16.4774 3.60938C16.4618 4.39844 16.4462 5.18752 16.4305 5.97656C15.6024 6.35939 14.7743 6.74217 13.9462 7.125C12.8837 7.14061 11.8212 7.15627 10.7587 7.17188C10.6556 7.18936 10.5541 7.2128 10.454 7.24219C10.3529 7.17258 10.2513 7.10227 10.1493 7.03125C8.36805 6.99999 6.5868 6.99999 4.80555 7.03125C4.54657 7.16808 4.46063 7.37902 4.54773 7.66406C4.60242 7.78125 4.68836 7.86717 4.80555 7.92188C6.28994 7.93749 7.77428 7.95314 9.25867 7.96875C8.7407 8.54602 8.50633 9.2257 8.55555 10.0078C7.30544 9.99998 6.05547 10.0078 4.80555 10.0313C4.52232 10.2069 4.45201 10.4491 4.59461 10.7578C4.65151 10.8304 4.72183 10.8851 4.80555 10.9219C6.05547 10.9453 7.30544 10.9531 8.55555 10.9453C8.54772 11.5705 8.55555 12.1955 8.57898 12.8203C8.86042 14.0393 9.61042 14.7893 10.829 15.0703C10.8682 15.6739 10.962 16.2676 11.1102 16.8516C11.6967 18.0779 12.642 18.4763 13.9462 18.0469C14.5665 17.8172 14.9805 17.3875 15.1884 16.7578C15.2656 16.402 15.3203 16.0426 15.3524 15.6797C15.7061 15.8643 16.0655 16.0362 16.4305 16.1953C16.4462 16.7812 16.4618 17.3672 16.4774 17.9531C16.4844 18.5746 16.461 19.1917 16.4071 19.8047C16.3331 19.8769 16.2471 19.9316 16.1493 19.9688C11.6962 20 7.24305 20 2.78992 19.9688C2.69037 19.9162 2.60443 19.8458 2.53211 19.7578C2.45415 13.6053 2.43853 7.44909 2.48523 1.28906C2.56464 1.15511 2.6662 1.04574 2.78992 0.960938ZM4.80555 4.00781C7.91495 4 11.0244 4.00781 14.1337 4.03125C14.3966 4.18486 14.4825 4.41142 14.3915 4.71094C14.3192 4.79897 14.2332 4.86928 14.1337 4.92188C11.0243 4.95314 7.91491 4.95314 4.80555 4.92188C4.37881 4.62682 4.37881 4.32213 4.80555 4.00781ZM4.80555 13.0078C5.57134 13 6.33695 13.0078 7.10242 13.0312C7.43064 13.219 7.50095 13.4768 7.31336 13.8047C7.25847 13.87 7.18816 13.9091 7.10242 13.9219C6.33681 13.9531 5.57116 13.9531 4.80555 13.9219C4.50508 13.7812 4.41914 13.5547 4.54773 13.2422C4.62881 13.153 4.71475 13.0749 4.80555 13.0078ZM4.80555 16.0078C6.57123 16 8.33687 16.0078 10.1024 16.0312C10.4187 16.188 10.5047 16.4302 10.3602 16.7578C10.3033 16.8304 10.233 16.8851 10.1493 16.9219C8.36805 16.9531 6.5868 16.9531 4.80555 16.9219C4.37881 16.6268 4.37881 16.3221 4.80555 16.0078Z" fill="#027DDB"/>
<path opacity="0.934" fill-rule="evenodd" clip-rule="evenodd" d="M17.4609 3.96093C18.0237 3.95313 18.5862 3.96094 19.1484 3.98437C19.4537 4.12718 19.563 4.36156 19.4766 4.6875C19.2819 4.7055 19.0944 4.75237 18.9141 4.82812C18.4268 5.04075 17.9424 5.25168 17.4609 5.46093C17.4609 4.96092 17.4609 4.46094 17.4609 3.96093Z" fill="#027DDB"/>
<path opacity="0.989" fill-rule="evenodd" clip-rule="evenodd" d="M19.6172 5.60156C20.5946 5.5702 21.2118 6.02334 21.4688 6.96093C21.4922 7.92956 21.5 8.89832 21.4922 9.86718C22.6664 9.87782 23.1117 10.4559 22.8281 11.6016C22.5423 12.1235 22.097 12.3579 21.4922 12.3047C21.5 13.2892 21.4922 14.2736 21.4688 15.2578C21.1859 16.1655 20.5687 16.5952 19.6172 16.5469C19.4053 16.5127 19.2022 16.4502 19.0078 16.3594C17.3615 15.5947 15.713 14.8369 14.0625 14.0859C14.0312 12.0859 14.0312 10.0859 14.0625 8.08593C15.8994 7.21022 17.7509 6.38207 19.6172 5.60156Z" fill="#027DDB"/>
<path opacity="0.971" fill-rule="evenodd" clip-rule="evenodd" d="M10.8047 8.08594C11.5703 8.08594 12.336 8.08594 13.1016 8.08594C13.1016 10.086 13.1016 12.0859 13.1016 14.0859C12.3177 14.1066 11.5364 14.0832 10.7578 14.0156C10.064 13.8061 9.64993 13.3452 9.51564 12.6328C9.48437 11.586 9.48437 10.539 9.51564 9.49219C9.66221 8.75986 10.0919 8.29111 10.8047 8.08594Z" fill="#027DDB"/>
<path opacity="0.952" fill-rule="evenodd" clip-rule="evenodd" d="M11.7891 15.0234C12.5236 15.0156 13.258 15.0234 13.9922 15.0469C14.0703 15.0859 14.1484 15.125 14.2266 15.1641C14.4633 15.7583 14.4086 16.3208 14.0625 16.8516C13.5405 17.3484 12.9701 17.4031 12.3516 17.0156C12.1617 16.8412 12.0289 16.6303 11.9531 16.3828C11.8727 15.9329 11.8181 15.4798 11.7891 15.0234Z" fill="#027DDB"/>
<path opacity="0.988" fill-rule="evenodd" clip-rule="evenodd" d="M17.46 16.7109C18.1105 17.0088 18.7746 17.2744 19.4522 17.5078C19.4834 19.2422 19.4834 20.9766 19.4522 22.7109C19.3935 22.846 19.292 22.9319 19.1475 22.9688C14.6943 23 10.2412 23 5.78809 22.9688C5.6553 22.8984 5.55372 22.7969 5.48341 22.6641C5.45997 22.1018 5.45214 21.5393 5.45997 20.9766C8.97564 20.9844 12.4913 20.9766 16.0068 20.9531C16.6895 20.8894 17.1505 20.5379 17.3897 19.8984C17.4575 18.838 17.4809 17.7755 17.46 16.7109Z" fill="#027DDB"/>
</svg>
