<svg width="24" height="24" viewBox="0 0 24 24" fill="none" xmlns="http://www.w3.org/2000/svg">
<rect width="24" height="24" rx="5" fill="#FF1414"/>
<path fill-rule="evenodd" clip-rule="evenodd" d="M16.1436 8.62148C16.3381 8.62148 16.5 8.78298 16.5 8.98848V9.17848C16.5 9.37898 16.3381 9.54547 16.1436 9.54547H7.85693C7.66193 9.54547 7.5 9.37898 7.5 9.17848V8.98848C7.5 8.78298 7.66193 8.62148 7.85693 8.62148H9.31478C9.61092 8.62148 9.86865 8.41099 9.93527 8.11399L10.0116 7.77299C10.1303 7.3085 10.5207 7 10.9676 7H13.0324C13.4744 7 13.8692 7.3085 13.9835 7.74849L14.0652 8.11349C14.1313 8.41099 14.3891 8.62148 14.6857 8.62148H16.1436ZM15.4029 15.567C15.5551 14.1485 15.8216 10.7786 15.8216 10.7446C15.8313 10.6416 15.7978 10.5441 15.7312 10.4656C15.6597 10.3921 15.5692 10.3486 15.4695 10.3486H8.53426C8.43409 10.3486 8.33878 10.3921 8.27265 10.4656C8.20554 10.5441 8.17247 10.6416 8.17734 10.7446C8.17823 10.7508 8.18779 10.8695 8.20378 11.068C8.27479 11.9496 8.47259 14.4051 8.6004 15.567C8.69084 16.423 9.25249 16.961 10.066 16.9805C10.6938 16.995 11.3406 17 12.0019 17C12.6248 17 13.2575 16.995 13.9047 16.9805C14.7464 16.966 15.3076 16.4375 15.4029 15.567Z" fill="white"/>
</svg>
