<svg width="24" height="24" viewBox="0 0 24 24" fill="none" xmlns="http://www.w3.org/2000/svg">
<g clip-path="url(#clip0_1153_10659)">
<path opacity="0.991" fill-rule="evenodd" clip-rule="evenodd" d="M0.398438 -0.0234375C6.07031 -0.0234375 11.7422 -0.0234375 17.4141 -0.0234375C17.666 0.119825 17.8144 0.338575 17.8594 0.632812C17.8906 8.1953 17.8906 15.7578 17.8594 23.3203C17.8144 23.6145 17.666 23.8333 17.4141 23.9766C11.7422 23.9766 6.07031 23.9766 0.398438 23.9766C0.328738 23.9154 0.250612 23.8608 0.164062 23.8125C0.107973 23.718 0.0454726 23.6321 -0.0234375 23.5547C-0.0234375 15.8359 -0.0234375 8.1172 -0.0234375 0.398438C0.0376665 0.328738 0.0923541 0.250612 0.140625 0.164062C0.235094 0.107973 0.321031 0.0454726 0.398438 -0.0234375ZM6.63281 4.05469C7.2952 3.99052 7.58428 4.28739 7.5 4.94531C6.74367 5.811 5.93902 6.63131 5.08594 7.40625C4.83736 7.55841 4.58735 7.55841 4.33594 7.40625C3.95312 7.02342 3.57031 6.64064 3.1875 6.25781C2.97137 5.91 3.01043 5.58966 3.30469 5.29688C3.54615 5.1607 3.79615 5.14509 4.05469 5.25C4.26757 5.47073 4.48632 5.68167 4.71094 5.88281C5.33958 5.25403 5.98022 4.64464 6.63281 4.05469ZM9.44531 5.32031C11.0235 5.31248 12.6016 5.32031 14.1797 5.34375C14.722 5.56453 14.8548 5.9317 14.5781 6.44531C14.4866 6.55753 14.3694 6.62784 14.2266 6.65625C12.6172 6.68752 11.0078 6.68752 9.39844 6.65625C8.92683 6.42375 8.80964 6.07219 9.04688 5.60156C9.17208 5.48897 9.30492 5.39522 9.44531 5.32031ZM6.63281 8.32031C7.2952 8.25614 7.58428 8.553 7.5 9.21094C6.76069 10.0441 5.98725 10.8488 5.17969 11.625C4.90809 11.8223 4.62683 11.838 4.33594 11.6719C3.95312 11.289 3.57031 10.9063 3.1875 10.5234C2.97137 10.1756 3.01043 9.85528 3.30469 9.5625C3.54615 9.42633 3.79615 9.41072 4.05469 9.51562C4.26632 9.73509 4.48507 9.94603 4.71094 10.1484C5.33958 9.51966 5.98022 8.91028 6.63281 8.32031ZM9.44531 9.58594C11.0235 9.57811 12.6016 9.58594 14.1797 9.60938C14.722 9.83016 14.8548 10.1973 14.5781 10.7109C14.4866 10.8232 14.3694 10.8935 14.2266 10.9219C12.6172 10.9531 11.0078 10.9531 9.39844 10.9219C8.92683 10.6894 8.80964 10.3378 9.04688 9.86719C9.17208 9.75459 9.30492 9.66084 9.44531 9.58594ZM6.63281 12.5859C7.2952 12.5218 7.58428 12.8186 7.5 13.4766C6.76069 14.3097 5.98725 15.1144 5.17969 15.8906C4.90809 16.0879 4.62683 16.1036 4.33594 15.9375C3.95312 15.5547 3.57031 15.1719 3.1875 14.7891C2.97137 14.4412 3.01043 14.1209 3.30469 13.8281C3.54615 13.692 3.79615 13.6763 4.05469 13.7812C4.26632 14.0007 4.48507 14.2117 4.71094 14.4141C5.33958 13.7853 5.98022 13.1759 6.63281 12.5859ZM9.44531 13.8516C11.0235 13.8437 12.6016 13.8516 14.1797 13.875C14.722 14.0958 14.8548 14.463 14.5781 14.9766C14.4866 15.0888 14.3694 15.1591 14.2266 15.1875C12.6172 15.2188 11.0078 15.2188 9.39844 15.1875C8.92683 14.955 8.80964 14.6034 9.04688 14.1328C9.17208 14.0202 9.30492 13.9265 9.44531 13.8516ZM9.39844 18.3047C11.0235 18.2969 12.6485 18.3047 14.2734 18.3281C14.7171 18.5497 14.8343 18.8857 14.625 19.3359C14.5084 19.5152 14.3443 19.6168 14.1328 19.6406C12.5859 19.6719 11.0391 19.6719 9.49219 19.6406C8.961 19.4538 8.81259 19.1023 9.04688 18.5859C9.14597 18.4631 9.26316 18.3693 9.39844 18.3047Z" fill="#027DDB"/>
<path opacity="0.989" fill-rule="evenodd" clip-rule="evenodd" d="M21.1162 -0.0234375C21.4287 -0.0234375 21.7412 -0.0234375 22.0537 -0.0234375C23.0692 0.242008 23.7098 0.882633 23.9756 1.89844C23.9756 2.74219 23.9756 3.58594 23.9756 4.42969C22.3818 4.42969 20.7881 4.42969 19.1943 4.42969C19.1865 3.60142 19.1943 2.77329 19.2178 1.94531C19.4632 0.910945 20.096 0.254693 21.1162 -0.0234375Z" fill="#027DDB"/>
<path opacity="0.991" fill-rule="evenodd" clip-rule="evenodd" d="M23.9773 5.78906C23.9773 9.30469 23.9773 12.8203 23.9773 16.3359C23.8623 16.5973 23.6592 16.7457 23.3679 16.7812C22.1804 16.8125 20.9929 16.8125 19.8054 16.7812C19.5752 16.738 19.3955 16.6208 19.2664 16.4297C19.1965 12.8855 19.173 9.33862 19.1961 5.78906C20.7898 5.78906 22.3836 5.78906 23.9773 5.78906Z" fill="#027DDB"/>
<path opacity="0.979" fill-rule="evenodd" clip-rule="evenodd" d="M23.9766 19.3359C23.9766 19.5078 23.9766 19.6797 23.9766 19.8516C23.3929 21.1129 22.807 22.3786 22.2188 23.6484C22.1243 23.7849 22.0071 23.8943 21.8672 23.9766C21.6797 23.9766 21.4922 23.9766 21.3047 23.9766C21.1648 23.8943 21.0476 23.7849 20.9531 23.6484C20.375 22.3828 19.7969 21.1172 19.2188 19.8516C19.1875 19.6953 19.1875 19.5391 19.2188 19.3828C19.3481 18.976 19.4965 18.5776 19.6641 18.1875C20.9609 18.1641 22.2577 18.1562 23.5547 18.1641C23.6686 18.5684 23.8092 18.959 23.9766 19.3359Z" fill="#027DDB"/>
</g>
<defs>
<clipPath id="clip0_1153_10659">
<rect width="24" height="24" fill="#027DDB"/>
</clipPath>
</defs>
</svg>
