<svg width="17" height="16" viewBox="0 0 17 16" fill="none" xmlns="http://www.w3.org/2000/svg">
<g id="turkey" clip-path="url(#clip0_347_7609)">
<g id="Group">
<path id="Vector" opacity="0.997" fill-rule="evenodd" clip-rule="evenodd" d="M8.09766 -0.015625C8.57681 -0.015625 9.056 -0.015625 9.53516 -0.015625C12.3365 0.324622 14.4459 1.71004 15.8633 4.14062C16.385 5.12409 16.7027 6.16575 16.8164 7.26562C16.8164 7.74478 16.8164 8.22397 16.8164 8.70312C16.4762 11.5045 15.0907 13.6139 12.6602 15.0312C11.6767 15.553 10.635 15.8707 9.53516 15.9844C9.056 15.9844 8.57681 15.9844 8.09766 15.9844C5.29628 15.6441 3.18691 14.2587 1.76953 11.8281C1.24782 10.8447 0.930113 9.803 0.816406 8.70312C0.816406 8.22397 0.816406 7.74478 0.816406 7.26562C1.15664 4.46428 2.54206 2.35492 4.97266 0.9375C5.95613 0.415791 6.99778 0.0980813 8.09766 -0.015625Z" fill="#D80027"/>
</g>
<g id="Group_2">
<path id="Vector_2" fill-rule="evenodd" clip-rule="evenodd" d="M5.47196 5.20313C6.32743 5.13934 7.07743 5.38413 7.72196 5.9375C6.61774 5.49613 5.67506 5.72009 4.89384 6.60938C4.29137 7.52353 4.29137 8.44019 4.89384 9.35938C5.69453 10.2632 6.64765 10.4768 7.75321 10C6.9314 10.7158 5.9939 10.9242 4.94071 10.625C3.45129 9.97456 2.85233 8.84434 3.14384 7.23438C3.52213 6.09563 4.29818 5.41853 5.47196 5.20313Z" fill="#EFEEEE"/>
</g>
<g id="Group_3">
<path id="Vector_3" fill-rule="evenodd" clip-rule="evenodd" d="M8.53516 6.57812C8.51432 6.93228 8.4935 7.28647 8.47266 7.64062C8.46744 7.26547 8.47266 6.89047 8.48829 6.51562C8.51069 6.53263 8.52632 6.55347 8.53516 6.57812Z" fill="#E37387"/>
</g>
<g id="Group_4">
<path id="Vector_4" fill-rule="evenodd" clip-rule="evenodd" d="M8.53516 6.57812C8.73594 6.86522 8.94428 7.14647 9.16016 7.42188C9.49841 7.30394 9.83694 7.18934 10.1758 7.07812C10.1966 7.09897 10.1966 7.11978 10.1758 7.14062C9.96016 7.40822 9.75703 7.68425 9.56641 7.96875C9.75603 8.27828 9.96438 8.57516 10.1914 8.85938C9.85022 8.78137 9.50647 8.67722 9.16016 8.54688C8.92897 8.83169 8.70503 9.12337 8.48828 9.42188C8.47787 9.05728 8.46744 8.69272 8.45703 8.32812C8.12594 8.22297 7.79781 8.10837 7.47266 7.98438C7.80225 7.85716 8.13559 7.74256 8.47266 7.64062C8.4935 7.28647 8.51431 6.93228 8.53516 6.57812Z" fill="#EFEBEC"/>
</g>
</g>
<defs>
<clipPath id="clip0_347_7609">
<rect width="16" height="16" fill="white" transform="translate(0.832031)"/>
</clipPath>
</defs>
</svg>
