<svg width="17" height="16" viewBox="0 0 17 16" fill="none" xmlns="http://www.w3.org/2000/svg">
<g id="usa" clip-path="url(#clip0_347_7553)">
<g id="Group">
<path id="Vector" fill-rule="evenodd" clip-rule="evenodd" d="M7.76562 -0.015625C8.00522 -0.015625 8.24478 -0.015625 8.48438 -0.015625C8.48438 0.557291 8.48438 1.13021 8.48438 1.70312C8.48438 2.40104 8.48438 3.09896 8.48438 3.79688C8.48438 3.80728 8.48438 3.81772 8.48438 3.82812C8.48438 4.51562 8.48438 5.20312 8.48438 5.89062C8.48438 5.90103 8.48438 5.91147 8.48438 5.92188C8.48438 6.60938 8.48438 7.29688 8.48438 7.98438C5.81772 7.98438 3.15104 7.98438 0.484375 7.98438C0.484375 7.74478 0.484375 7.50522 0.484375 7.26562C0.505208 7.17188 0.526042 7.07812 0.546875 6.98438C0.686832 6.89866 0.82225 6.80491 0.953125 6.70312C1.16146 6.84897 1.36979 6.99478 1.57812 7.14062C1.58854 7.125 1.59896 7.10938 1.60938 7.09375C1.51523 6.85344 1.44752 6.60862 1.40625 6.35938C1.61216 6.21216 1.81529 6.06109 2.01562 5.90625C1.74419 5.901 1.47336 5.88538 1.20312 5.85938C1.12603 5.65413 1.05832 5.44578 1 5.23438C0.988044 5.217 0.972419 5.20659 0.953125 5.20312C1.03527 4.98728 1.12902 4.77897 1.23438 4.57812C1.35599 4.65731 1.47578 4.74062 1.59375 4.82812C1.5671 4.63297 1.52022 4.44025 1.45312 4.25C1.46165 4.20209 1.47207 4.15522 1.48438 4.10938C1.50246 4.02091 1.54412 3.948 1.60938 3.89062C1.75021 3.776 1.89604 3.66663 2.04688 3.5625C1.98438 3.55209 1.92188 3.54166 1.85938 3.53125C1.88289 3.51028 1.89331 3.48425 1.89062 3.45312C1.99432 3.26703 2.11411 3.08995 2.25 2.92188C2.57416 2.50916 2.94395 2.14458 3.35938 1.82812C3.28124 2.05703 3.21353 2.2862 3.15625 2.51562C3.37533 2.35892 3.59408 2.20267 3.8125 2.04688C4.03856 2.17392 4.25213 2.31975 4.45312 2.48438C4.42038 2.2291 4.34744 1.9791 4.23438 1.73438C4.44872 1.56689 4.66747 1.40543 4.89062 1.25C4.65128 1.23438 4.41169 1.22917 4.17188 1.23438C5.26919 0.531788 6.46709 0.115121 7.76562 -0.015625Z" fill="#0352B4"/>
</g>
<g id="Group_2">
<path id="Vector_2" opacity="0.989" fill-rule="evenodd" clip-rule="evenodd" d="M8.48438 -0.015625C8.72397 -0.015625 8.96353 -0.015625 9.20312 -0.015625C10.7915 0.14348 12.2082 0.716397 13.4531 1.70312C11.7969 1.70312 10.1406 1.70312 8.48438 1.70312C8.48438 1.13021 8.48438 0.557291 8.48438 -0.015625Z" fill="#F0F0F0"/>
</g>
<g id="Group_3">
<path id="Vector_3" fill-rule="evenodd" clip-rule="evenodd" d="M6.67188 0.453125C6.69116 0.456584 6.70678 0.467 6.71875 0.484375C6.7875 0.727044 6.86563 0.966628 6.95312 1.20312C7.22337 1.22912 7.49419 1.24475 7.76562 1.25C7.56528 1.40485 7.36216 1.55589 7.15625 1.70312C7.20897 1.97651 7.27147 2.24734 7.34375 2.51562C7.13853 2.34792 6.925 2.19167 6.70312 2.04688C6.47569 2.191 6.25694 2.34725 6.04688 2.51562C6.03647 2.50521 6.02603 2.49479 6.01562 2.48438C6.11681 2.22793 6.19494 1.96751 6.25 1.70312C6.03647 1.55208 5.82291 1.40104 5.60938 1.25C5.89044 1.23438 6.17169 1.22917 6.45312 1.23438C6.51963 0.972337 6.59253 0.711922 6.67188 0.453125Z" fill="#E9EBEE"/>
</g>
<g id="Group_4">
<path id="Vector_4" opacity="0.985" fill-rule="evenodd" clip-rule="evenodd" d="M4.17188 1.23437C4.41169 1.22917 4.65128 1.23438 4.89062 1.25C4.66747 1.40543 4.44872 1.56688 4.23438 1.73437C4.34744 1.9791 4.42037 2.2291 4.45312 2.48437C4.25213 2.31975 4.03856 2.17391 3.8125 2.04687C3.59408 2.20266 3.37533 2.35891 3.15625 2.51562C3.21353 2.2862 3.28124 2.05703 3.35938 1.82812C3.61194 1.60704 3.88278 1.40913 4.17188 1.23437Z" fill="#EBECEE"/>
</g>
<g id="Group_5">
<path id="Vector_5" fill-rule="evenodd" clip-rule="evenodd" d="M8.48438 1.70312C10.1406 1.70312 11.7969 1.70312 13.4531 1.70312C14.1926 2.26521 14.7968 2.94229 15.2656 3.73438C13.0159 3.79678 10.7554 3.81763 8.48438 3.79688C8.48438 3.09896 8.48438 2.40104 8.48438 1.70312Z" fill="#D80628"/>
</g>
<g id="Group_6">
<path id="Vector_6" fill-rule="evenodd" clip-rule="evenodd" d="M5.64062 3.60938C5.91147 3.58853 6.18228 3.56772 6.45312 3.54688C6.50906 3.29044 6.58719 3.04045 6.6875 2.79688C6.79122 3.04027 6.87975 3.29028 6.95312 3.54688C7.22337 3.57288 7.49419 3.5885 7.76562 3.59375C7.53666 3.73991 7.32831 3.90656 7.14062 4.09375C7.20722 4.32475 7.28013 4.55394 7.35938 4.78125C7.34897 4.79688 7.33853 4.8125 7.32812 4.82812C7.12713 4.6635 6.91356 4.51766 6.6875 4.39062C6.45828 4.53138 6.23953 4.68763 6.03125 4.85938C6.08619 4.59534 6.16431 4.33491 6.26562 4.07812C6.06875 3.90675 5.86041 3.7505 5.64062 3.60938Z" fill="#EAECEE"/>
</g>
<g id="Group_7">
<path id="Vector_7" fill-rule="evenodd" clip-rule="evenodd" d="M2.76562 3.60938C3.03646 3.58853 3.30729 3.56772 3.57812 3.54688C3.64669 3.29425 3.72481 3.04426 3.8125 2.79688C3.92266 3.04922 4.01119 3.30963 4.07812 3.57812C4.34916 3.57294 4.62 3.57812 4.89062 3.59375C4.67912 3.73338 4.476 3.88441 4.28125 4.04688C4.33888 4.30859 4.40138 4.569 4.46875 4.82812C4.25872 4.67509 4.04519 4.52925 3.82812 4.39062C3.59176 4.52722 3.3678 4.68347 3.15625 4.85938C3.22382 4.59906 3.30195 4.33866 3.39062 4.07812C3.19374 3.90675 2.98541 3.7505 2.76562 3.60938Z" fill="#EAECEE"/>
</g>
<g id="Group_8">
<path id="Vector_8" fill-rule="evenodd" clip-rule="evenodd" d="M3.57812 3.54688C3.30729 3.56772 3.03646 3.58854 2.76562 3.60938C2.74865 3.6075 2.73824 3.5971 2.73438 3.57813C3.01486 3.54694 3.29611 3.5365 3.57812 3.54688Z" fill="#5288C8"/>
</g>
<g id="Group_9">
<path id="Vector_9" fill-rule="evenodd" clip-rule="evenodd" d="M6.45312 3.54688C6.18228 3.56772 5.91147 3.58854 5.64062 3.60938C5.62366 3.6075 5.61325 3.5971 5.60938 3.57813C5.88984 3.54694 6.17109 3.5365 6.45312 3.54688Z" fill="#5388C8"/>
</g>
<g id="Group_10">
<path id="Vector_10" opacity="0.869" fill-rule="evenodd" clip-rule="evenodd" d="M1.89062 3.45312C1.89331 3.48425 1.88289 3.51028 1.85938 3.53125C1.92188 3.54166 1.98438 3.55209 2.04688 3.5625C1.89604 3.66662 1.75021 3.776 1.60938 3.89062C1.67872 3.72784 1.77247 3.582 1.89062 3.45312Z" fill="#D0D9E7"/>
</g>
<g id="Group_11">
<path id="Vector_11" fill-rule="evenodd" clip-rule="evenodd" d="M15.2656 3.73438C15.2865 3.73438 15.2969 3.74478 15.2969 3.76562C13.0367 3.82803 10.7659 3.84888 8.48438 3.82812C8.48438 3.81772 8.48438 3.80728 8.48438 3.79688C10.7554 3.81763 13.0159 3.79678 15.2656 3.73438Z" fill="#E89FAC"/>
</g>
<g id="Group_12">
<path id="Vector_12" opacity="0.998" fill-rule="evenodd" clip-rule="evenodd" d="M15.2969 3.76562C15.7104 4.42631 16.0229 5.13462 16.2344 5.89062C13.651 5.89062 11.0677 5.89062 8.48438 5.89062C8.48438 5.20312 8.48438 4.51562 8.48438 3.82812C10.7659 3.84888 13.0367 3.82803 15.2969 3.76562Z" fill="#F0F0F0"/>
</g>
<g id="Group_13">
<path id="Vector_13" opacity="0.932" fill-rule="evenodd" clip-rule="evenodd" d="M1.48438 4.10938C1.47207 4.15522 1.46165 4.20209 1.45312 4.25C1.52022 4.44025 1.5671 4.63297 1.59375 4.82812C1.47578 4.74063 1.35599 4.65731 1.23438 4.57812C1.29396 4.40675 1.37729 4.2505 1.48438 4.10938Z" fill="#DEE3EB"/>
</g>
<g id="Group_14">
<path id="Vector_14" fill-rule="evenodd" clip-rule="evenodd" d="M3.79688 5.10938C3.902 5.35144 3.99575 5.60144 4.07812 5.85938C4.34837 5.88538 4.61919 5.901 4.89062 5.90625C4.69028 6.06109 4.48716 6.21216 4.28125 6.35938C4.33397 6.63275 4.39647 6.90359 4.46875 7.17188C4.26353 7.00416 4.05 6.84791 3.82812 6.70312C3.60067 6.84725 3.38192 7.0035 3.17188 7.17188C3.16146 7.16147 3.15104 7.15103 3.14062 7.14062C3.22716 6.89666 3.31049 6.65188 3.39062 6.40625C3.18136 6.22837 2.96261 6.06172 2.73438 5.90625C3.01543 5.89062 3.29668 5.88544 3.57812 5.89062C3.64463 5.62859 3.71753 5.36819 3.79688 5.10938Z" fill="#E9EBEE"/>
</g>
<g id="Group_15">
<path id="Vector_15" fill-rule="evenodd" clip-rule="evenodd" d="M6.67188 5.10938C6.69116 5.11284 6.70678 5.12325 6.71875 5.14062C6.7875 5.38328 6.86563 5.62287 6.95312 5.85938C7.22337 5.88538 7.49419 5.901 7.76562 5.90625C7.56528 6.06109 7.36216 6.21216 7.15625 6.35938C7.20897 6.63275 7.27147 6.90359 7.34375 7.17188C7.12744 7.01944 6.91391 6.86319 6.70312 6.70312C6.47569 6.84725 6.25694 7.0035 6.04688 7.17188C6.03647 7.16147 6.02603 7.15103 6.01562 7.14062C6.10203 6.897 6.18537 6.65222 6.26562 6.40625C6.05637 6.22837 5.83762 6.06172 5.60938 5.90625C5.89044 5.89062 6.17169 5.88544 6.45312 5.89062C6.51963 5.62859 6.59253 5.36819 6.67188 5.10938Z" fill="#E9EBEE"/>
</g>
<g id="Group_16">
<path id="Vector_16" opacity="0.978" fill-rule="evenodd" clip-rule="evenodd" d="M0.953125 5.20312C0.972419 5.20659 0.988044 5.217 1 5.23438C1.05832 5.44578 1.12603 5.65413 1.20312 5.85938C1.47336 5.88538 1.74419 5.901 2.01562 5.90625C1.81529 6.06109 1.61216 6.21216 1.40625 6.35938C1.44752 6.60862 1.51523 6.85344 1.60938 7.09375C1.59896 7.10938 1.58854 7.125 1.57812 7.14062C1.36979 6.99478 1.16146 6.84897 0.953125 6.70312C0.82225 6.80491 0.686832 6.89866 0.546875 6.98438C0.608378 6.37378 0.743794 5.78003 0.953125 5.20312Z" fill="#ECEDEF"/>
</g>
<g id="Group_17">
<path id="Vector_17" fill-rule="evenodd" clip-rule="evenodd" d="M8.48438 5.92188C8.48438 5.91147 8.48438 5.90103 8.48438 5.89062C11.0677 5.89062 13.651 5.89062 16.2344 5.89062C16.2344 5.92188 16.2344 5.95312 16.2344 5.98438C13.6577 5.92209 11.0743 5.90125 8.48438 5.92188Z" fill="#DD304F"/>
</g>
<g id="Group_18">
<path id="Vector_18" fill-rule="evenodd" clip-rule="evenodd" d="M8.48438 5.92188C11.0743 5.90125 13.6577 5.9221 16.2344 5.98438C16.3548 6.40463 16.4381 6.83172 16.4844 7.26563C16.4844 7.50522 16.4844 7.74478 16.4844 7.98438C13.8177 7.98438 11.151 7.98438 8.48438 7.98438C8.48438 7.29688 8.48438 6.60938 8.48438 5.92188Z" fill="#D80027"/>
</g>
<g id="Group_19">
<path id="Vector_19" opacity="0.999" fill-rule="evenodd" clip-rule="evenodd" d="M0.484375 7.98438C3.15104 7.98438 5.81772 7.98438 8.48438 7.98438C11.151 7.98438 13.8177 7.98438 16.4844 7.98438C16.4844 8.22397 16.4844 8.46353 16.4844 8.70312C16.4286 9.16237 16.3453 9.62072 16.2344 10.0781C11.0677 10.0781 5.90103 10.0781 0.734375 10.0781C0.623477 9.62072 0.540144 9.16237 0.484375 8.70312C0.484375 8.46353 0.484375 8.22397 0.484375 7.98438Z" fill="#EFEFEF"/>
</g>
<g id="Group_20">
<path id="Vector_20" fill-rule="evenodd" clip-rule="evenodd" d="M0.734375 10.0781C5.90103 10.0781 11.0677 10.0781 16.2344 10.0781C16.026 10.8177 15.7239 11.5156 15.3281 12.1719C10.7656 12.1719 6.20312 12.1719 1.64062 12.1719C1.24484 11.5156 0.942762 10.8177 0.734375 10.0781Z" fill="#D80328"/>
</g>
<g id="Group_21">
<path id="Vector_21" opacity="0.997" fill-rule="evenodd" clip-rule="evenodd" d="M1.64062 12.1719C6.20312 12.1719 10.7656 12.1719 15.3281 12.1719C14.8377 12.9855 14.2127 13.6834 13.4531 14.2656C10.1406 14.224 6.82812 14.224 3.51562 14.2656C2.7561 13.6834 2.1311 12.9855 1.64062 12.1719Z" fill="#F0F0F0"/>
</g>
<g id="Group_22">
<path id="Vector_22" fill-rule="evenodd" clip-rule="evenodd" d="M13.4531 14.2656C13.4531 14.2865 13.4427 14.2969 13.4219 14.2969C10.1458 14.2604 6.86459 14.2552 3.57812 14.2812C3.5955 14.2932 3.60592 14.3088 3.60938 14.3281C3.56166 14.3304 3.53041 14.3096 3.51562 14.2656C6.82812 14.224 10.1406 14.224 13.4531 14.2656Z" fill="#E26076"/>
</g>
<g id="Group_23">
<path id="Vector_23" fill-rule="evenodd" clip-rule="evenodd" d="M13.4219 14.2969C12.181 15.2628 10.7747 15.8253 9.20312 15.9844C8.72397 15.9844 8.24478 15.9844 7.76562 15.9844C6.31228 15.8385 4.98937 15.3437 3.79688 14.5C3.72616 14.4495 3.66366 14.3922 3.60938 14.3281C3.60592 14.3088 3.5955 14.2932 3.57812 14.2812C6.86459 14.2552 10.1458 14.2604 13.4219 14.2969Z" fill="#D80628"/>
</g>
</g>
<defs>
<clipPath id="clip0_347_7553">
<rect width="16" height="16" fill="white" transform="translate(0.5)"/>
</clipPath>
</defs>
</svg>
