<svg width="24" height="24" viewBox="0 0 24 24" fill="none" xmlns="http://www.w3.org/2000/svg">
<g clip-path="url(#clip0_876_1812)">
<path opacity="0.993" fill-rule="evenodd" clip-rule="evenodd" d="M11.5078 -0.0234375C11.8203 -0.0234375 12.1328 -0.0234375 12.4453 -0.0234375C12.7948 0.0887878 13.1229 0.25285 13.4297 0.46875C16.7812 3.82031 20.1328 7.17188 23.4844 10.5234C23.7003 10.8302 23.8643 11.1584 23.9766 11.5078C23.9766 11.8203 23.9766 12.1328 23.9766 12.4453C23.5909 13.6729 22.7471 14.2667 21.4453 14.2266C21.4669 16.7902 21.4435 19.3527 21.375 21.9141C21.0877 23.0217 20.3924 23.7092 19.2891 23.9766C17.7735 23.9766 16.2578 23.9766 14.7422 23.9766C14.5413 23.8771 14.3929 23.7209 14.2969 23.5078C14.2957 21.4279 14.2644 19.3498 14.2031 17.2734C14.089 16.925 13.8624 16.6828 13.5234 16.5469C13.0104 16.4944 12.4948 16.4709 11.9766 16.4766C11.4584 16.4709 10.9427 16.4944 10.4297 16.5469C10.0368 16.7308 9.79458 17.0355 9.70312 17.4609C9.68752 19.4766 9.67186 21.4922 9.65625 23.5078C9.56147 23.7197 9.41302 23.8759 9.21094 23.9766C7.67967 23.9766 6.14845 23.9766 4.61719 23.9766C3.56044 23.6933 2.88075 23.0214 2.57812 21.9609C2.50962 19.3839 2.48618 16.8058 2.50781 14.2266C1.20491 14.2653 0.361159 13.6715 -0.0234375 12.4453C-0.0234375 12.1328 -0.0234375 11.8203 -0.0234375 11.5078C0.0730528 11.1494 0.237115 10.8213 0.46875 10.5234C3.82031 7.17188 7.17188 3.82031 10.5234 0.46875C10.8302 0.25285 11.1584 0.0887878 11.5078 -0.0234375Z" fill="#027DDB"/>
</g>
<defs>
<clipPath id="clip0_876_1812">
<rect width="24" height="24" fill="white"/>
</clipPath>
</defs>
</svg>
