<svg width="24" height="24" viewBox="0 0 24 24" fill="none" xmlns="http://www.w3.org/2000/svg">
<path opacity="0.989" fill-rule="evenodd" clip-rule="evenodd" d="M5.03906 1.47656C6.71123 1.46094 8.38312 1.47656 10.0547 1.52343C9.85158 2.49219 9.64842 3.46093 9.44531 4.42968C7.38281 4.49218 5.32031 4.49218 3.25781 4.42968C3.85283 3.4445 4.44658 2.46012 5.03906 1.47656Z" fill="#027DDB"/>
<path opacity="0.98" fill-rule="evenodd" clip-rule="evenodd" d="M10.7578 1.47655C11.5709 1.46095 12.3834 1.47657 13.1953 1.52342C13.3984 2.49218 13.6016 3.46092 13.8047 4.42967C12.5859 4.49217 11.3672 4.49217 10.1484 4.42967C10.3576 3.44622 10.5608 2.46185 10.7578 1.47655Z" fill="#027DDB"/>
<path opacity="0.988" fill-rule="evenodd" clip-rule="evenodd" d="M13.8984 1.47656C15.5862 1.46094 17.2737 1.47656 18.9609 1.52343C19.539 2.49219 20.1172 3.46093 20.6953 4.42968C18.6328 4.49218 16.5703 4.49218 14.5078 4.42968C14.2986 3.44623 14.0955 2.46186 13.8984 1.47656Z" fill="#027DDB"/>
<path opacity="0.995" fill-rule="evenodd" clip-rule="evenodd" d="M2.97656 5.22656C5.10155 5.22656 7.22658 5.22656 9.35156 5.22656C9.34373 6.60164 9.35156 7.97667 9.375 9.35156C9.39844 9.5625 9.51562 9.67969 9.72656 9.70312C11.2266 9.73439 12.7266 9.73439 14.2266 9.70312C14.4375 9.67969 14.5547 9.5625 14.5781 9.35156C14.6016 7.97667 14.6094 6.60164 14.6016 5.22656C16.7265 5.22656 18.8516 5.22656 20.9766 5.22656C20.9922 9.07045 20.9766 12.9142 20.9297 16.7578C20.4817 17.0752 20.2395 17.5128 20.2031 18.0703C20.0738 18.131 19.9567 18.2091 19.8516 18.3047C19.3515 17.9297 18.8516 17.9297 18.3516 18.3047C17.7494 17.8542 17.1947 17.9167 16.6875 18.4922C16.6214 18.593 16.5823 18.7024 16.5703 18.8203C15.5018 18.6697 14.9705 19.1385 14.9766 20.2266C12.9765 20.2266 10.9766 20.2266 8.97656 20.2266C8.98261 19.1385 8.45133 18.6697 7.38281 18.8203C7.22714 18.329 6.89119 18.0478 6.375 17.9766C6.08442 18.0083 5.82661 18.1177 5.60156 18.3047C5.10155 17.9297 4.60156 17.9297 4.10156 18.3047C3.99647 18.2091 3.87929 18.131 3.75 18.0703C3.71364 17.5128 3.47146 17.0752 3.02344 16.7578C2.97656 12.9142 2.96094 9.07045 2.97656 5.22656ZM4.85156 11.9766C7.35159 11.9687 9.85162 11.9766 12.3516 12C12.5625 12.0234 12.6797 12.1406 12.7031 12.3516C12.7344 13.8516 12.7344 15.3516 12.7031 16.8516C12.6797 17.0625 12.5625 17.1797 12.3516 17.2031C9.85158 17.2344 7.35155 17.2344 4.85156 17.2031C4.64062 17.1797 4.52344 17.0625 4.5 16.8516C4.46875 15.3516 4.46875 13.8516 4.5 12.3516C4.53189 12.1401 4.64908 12.0151 4.85156 11.9766ZM17.8359 12.0234C17.9681 12.0116 18.0931 12.0351 18.2109 12.0938C18.5938 12.4766 18.9765 12.8594 19.3594 13.2422C19.5151 13.6427 19.3823 13.8224 18.9609 13.7812C18.7515 13.6188 18.5563 13.4392 18.375 13.2422C18.3594 14.4453 18.3437 15.6484 18.3281 16.8516C18.2407 17.1725 18.0454 17.2584 17.7422 17.1094C17.6851 17.0321 17.6461 16.9462 17.625 16.8516C17.6094 15.6484 17.5937 14.4453 17.5781 13.2422C17.3969 13.4392 17.2016 13.6188 16.9922 13.7812C16.5708 13.8224 16.438 13.6427 16.5938 13.2422C17.0029 12.8252 17.417 12.4189 17.8359 12.0234ZM6.35156 13.4766C6.56625 13.4584 6.76941 13.4975 6.96094 13.5938C7.14623 14.0111 7.00561 14.2221 6.53906 14.2266C6.07252 14.2221 5.93189 14.0111 6.11719 13.5938C6.20227 13.5583 6.28036 13.5192 6.35156 13.4766ZM7.85156 13.4766C8.85169 13.4687 9.85167 13.4766 10.8516 13.5C11.1725 13.5875 11.2584 13.7828 11.1094 14.0859C11.0321 14.143 10.9462 14.182 10.8516 14.2031C9.85158 14.2344 8.85155 14.2344 7.85156 14.2031C7.53061 14.1157 7.44469 13.9204 7.59375 13.6172C7.68169 13.5652 7.76761 13.5183 7.85156 13.4766ZM6.35156 14.9766C6.56625 14.9584 6.76941 14.9975 6.96094 15.0938C7.14623 15.5111 7.00561 15.7221 6.53906 15.7266C6.07252 15.7221 5.93189 15.5111 6.11719 15.0938C6.20227 15.0583 6.28036 15.0192 6.35156 14.9766ZM7.85156 14.9766C8.85169 14.9687 9.85167 14.9766 10.8516 15C11.1725 15.0875 11.2584 15.2828 11.1094 15.5859C11.0321 15.643 10.9462 15.682 10.8516 15.7031C9.85158 15.7344 8.85155 15.7344 7.85156 15.7031C7.53061 15.6157 7.44469 15.4204 7.59375 15.1172C7.68169 15.0652 7.76761 15.0183 7.85156 14.9766Z" fill="#027DDB"/>
<path fill-rule="evenodd" clip-rule="evenodd" d="M10.1016 5.22656C11.3516 5.22656 12.6015 5.22656 13.8516 5.22656C13.8516 6.47658 13.8516 7.72655 13.8516 8.97656C12.6015 8.97656 11.3516 8.97656 10.1016 8.97656C10.1016 7.72655 10.1016 6.47658 10.1016 5.22656Z" fill="#027DDB"/>
<path opacity="0.983" fill-rule="evenodd" clip-rule="evenodd" d="M5.22656 12.7266C7.47656 12.7266 9.72656 12.7266 11.9766 12.7266C11.9766 13.9766 11.9766 15.2265 11.9766 16.4766C9.72656 16.4766 7.47656 16.4766 5.22656 16.4766C5.22656 15.2265 5.22656 13.9766 5.22656 12.7266ZM6.35156 13.4766C6.28036 13.5192 6.20227 13.5583 6.11719 13.5938C5.93189 14.0111 6.07252 14.2221 6.53906 14.2266C7.00561 14.2221 7.14623 14.0111 6.96094 13.5938C6.76941 13.4975 6.56625 13.4584 6.35156 13.4766ZM7.85156 13.4766C7.76761 13.5183 7.68169 13.5652 7.59375 13.6172C7.44469 13.9204 7.53061 14.1157 7.85156 14.2031C8.85155 14.2344 9.85158 14.2344 10.8516 14.2031C10.9462 14.182 11.0321 14.143 11.1094 14.0859C11.2584 13.7828 11.1725 13.5875 10.8516 13.5C9.85167 13.4766 8.85169 13.4687 7.85156 13.4766ZM6.35156 14.9766C6.28036 15.0192 6.20227 15.0583 6.11719 15.0938C5.93189 15.5111 6.07252 15.7221 6.53906 15.7266C7.00561 15.7221 7.14623 15.5111 6.96094 15.0938C6.76941 14.9975 6.56625 14.9584 6.35156 14.9766ZM7.85156 14.9766C7.76761 15.0183 7.68169 15.0652 7.59375 15.1172C7.44469 15.4204 7.53061 15.6157 7.85156 15.7031C8.85155 15.7344 9.85158 15.7344 10.8516 15.7031C10.9462 15.682 11.0321 15.643 11.1094 15.5859C11.2584 15.2827 11.1725 15.0875 10.8516 15C9.85167 14.9766 8.85169 14.9687 7.85156 14.9766Z" fill="#027DDB"/>
<path opacity="0.96" fill-rule="evenodd" clip-rule="evenodd" d="M1.94531 17.2267C2.62517 17.1184 2.9611 17.3996 2.95313 18.0704C2.63375 18.2335 2.415 18.4835 2.29688 18.8204C2.2313 19.5371 2.20786 20.2559 2.22656 20.9767C1.8741 20.9918 1.63191 20.8356 1.5 20.5079C1.46875 19.5704 1.46875 18.6329 1.5 17.6954C1.5948 17.4836 1.74324 17.3273 1.94531 17.2267Z" fill="#027DDB"/>
<path opacity="0.96" fill-rule="evenodd" clip-rule="evenodd" d="M21.4449 17.2264C21.9071 17.1256 22.243 17.2819 22.4527 17.6952C22.484 18.6327 22.484 19.5702 22.4527 20.5077C22.3208 20.8353 22.0786 20.9916 21.7261 20.9764C21.7448 20.2556 21.7214 19.5369 21.6558 18.8202C21.5377 18.4832 21.3189 18.2332 20.9996 18.0702C20.9388 17.676 21.0872 17.3947 21.4449 17.2264Z" fill="#027DDB"/>
<path opacity="0.98" fill-rule="evenodd" clip-rule="evenodd" d="M3.16406 18.7265C3.29003 18.7188 3.41503 18.7266 3.53906 18.7499C3.625 18.7734 3.67969 18.8281 3.70313 18.914C3.73438 20.039 3.73438 21.164 3.70313 22.289C3.63147 22.4304 3.51429 22.4928 3.35156 22.4765C3.18884 22.4928 3.07165 22.4304 3 22.289C2.96875 21.164 2.96875 20.039 3 18.914C3.03233 18.8273 3.08702 18.7647 3.16406 18.7265Z" fill="#027DDB"/>
<path opacity="0.98" fill-rule="evenodd" clip-rule="evenodd" d="M4.66406 18.7265C4.79002 18.7188 4.91503 18.7266 5.03906 18.7499C5.12499 18.7734 5.17969 18.8281 5.20313 18.914C5.23439 20.039 5.23439 21.164 5.20313 22.289C5.13145 22.4304 5.01427 22.4928 4.85156 22.4765C4.68886 22.4928 4.57165 22.4304 4.5 22.289C4.46875 21.164 4.46875 20.039 4.5 18.914C4.53233 18.8273 4.58702 18.7647 4.66406 18.7265Z" fill="#027DDB"/>
<path opacity="0.981" fill-rule="evenodd" clip-rule="evenodd" d="M6.16407 18.7265C6.29003 18.7188 6.41504 18.7266 6.53907 18.7499C6.625 18.7734 6.6797 18.8281 6.70314 18.914C6.7344 20.039 6.7344 21.164 6.70314 22.289C6.63146 22.4304 6.51428 22.4928 6.35157 22.4765C6.18887 22.4928 6.07168 22.4304 6.00001 22.289C5.96875 21.164 5.96875 20.039 6.00001 18.914C6.03236 18.8273 6.08701 18.7647 6.16407 18.7265Z" fill="#027DDB"/>
<path opacity="0.981" fill-rule="evenodd" clip-rule="evenodd" d="M17.4141 18.7265C17.54 18.7188 17.665 18.7266 17.7891 18.7499C17.875 18.7734 17.9297 18.8281 17.9531 18.914C17.9844 20.039 17.9844 21.164 17.9531 22.289C17.8815 22.4304 17.7643 22.4928 17.6016 22.4765C17.4389 22.4928 17.3217 22.4304 17.25 22.289C17.2187 21.164 17.2187 20.039 17.25 18.914C17.2824 18.8273 17.337 18.7647 17.4141 18.7265Z" fill="#027DDB"/>
<path opacity="0.98" fill-rule="evenodd" clip-rule="evenodd" d="M18.9141 18.7265C19.04 18.7188 19.165 18.7266 19.2891 18.7499C19.375 18.7734 19.4297 18.8281 19.4531 18.914C19.4844 20.039 19.4844 21.164 19.4531 22.289C19.3815 22.4304 19.2643 22.4928 19.1016 22.4765C18.9389 22.4928 18.8217 22.4304 18.75 22.289C18.7187 21.164 18.7187 20.039 18.75 18.914C18.7824 18.8273 18.837 18.7647 18.9141 18.7265Z" fill="#027DDB"/>
<path opacity="0.98" fill-rule="evenodd" clip-rule="evenodd" d="M20.4141 18.7265C20.54 18.7188 20.665 18.7266 20.7891 18.7499C20.875 18.7734 20.9297 18.8281 20.9531 18.914C20.9844 20.039 20.9844 21.164 20.9531 22.289C20.8815 22.4304 20.7643 22.4928 20.6016 22.4765C20.4389 22.4928 20.3217 22.4304 20.25 22.289C20.2187 21.164 20.2187 20.039 20.25 18.914C20.2824 18.8273 20.337 18.7647 20.4141 18.7265Z" fill="#027DDB"/>
<path opacity="0.976" fill-rule="evenodd" clip-rule="evenodd" d="M7.66407 19.4765C7.79003 19.4688 7.91504 19.4766 8.03907 19.4999C8.125 19.5234 8.1797 19.5781 8.20314 19.664C8.2344 20.539 8.2344 21.414 8.20314 22.289C8.13146 22.4304 8.01428 22.4928 7.85157 22.4765C7.68887 22.4928 7.57168 22.4304 7.50001 22.289C7.46875 21.414 7.46875 20.539 7.50001 19.664C7.53236 19.5773 7.58701 19.5147 7.66407 19.4765Z" fill="#027DDB"/>
<path opacity="0.976" fill-rule="evenodd" clip-rule="evenodd" d="M15.9141 19.4765C16.04 19.4688 16.165 19.4766 16.2891 19.4999C16.375 19.5234 16.4297 19.5781 16.4531 19.664C16.4844 20.539 16.4844 21.414 16.4531 22.289C16.3815 22.4304 16.2643 22.4928 16.1016 22.4765C15.9389 22.4928 15.8217 22.4304 15.75 22.289C15.7187 21.414 15.7187 20.539 15.75 19.664C15.7824 19.5773 15.837 19.5147 15.9141 19.4765Z" fill="#027DDB"/>
</svg>
