<svg width="24" height="24" viewBox="0 0 24 24" fill="none" xmlns="http://www.w3.org/2000/svg">
<g clip-path="url(#clip0_876_1861)">
<path opacity="0.997" fill-rule="evenodd" clip-rule="evenodd" d="M1.75781 -0.0234375C4.32031 -0.0234375 6.8828 -0.0234375 9.44531 -0.0234375C10.3665 0.23368 10.9524 0.827428 11.2031 1.75781C11.2344 4.32031 11.2344 6.8828 11.2031 9.44531C10.9609 10.375 10.375 10.9609 9.44531 11.2031C6.8828 11.2344 4.32031 11.2344 1.75781 11.2031C0.827428 10.9524 0.23368 10.3665 -0.0234375 9.44531C-0.0234375 6.8828 -0.0234375 4.32031 -0.0234375 1.75781C0.242188 0.835936 0.835936 0.242188 1.75781 -0.0234375Z" fill="#027DDB"/>
<path opacity="0.997" fill-rule="evenodd" clip-rule="evenodd" d="M14.5078 -0.0234375C17.0703 -0.0234375 19.6328 -0.0234375 22.1953 -0.0234375C23.1172 0.242188 23.7109 0.835936 23.9766 1.75781C23.9766 4.32031 23.9766 6.8828 23.9766 9.44531C23.7195 10.3665 23.1257 10.9524 22.1953 11.2031C19.6328 11.2344 17.0703 11.2344 14.5078 11.2031C13.5782 10.9609 12.9922 10.375 12.75 9.44531C12.7187 6.8828 12.7187 4.32031 12.75 1.75781C13.0007 0.827428 13.5867 0.23368 14.5078 -0.0234375Z" fill="#027DDB"/>
<path opacity="0.997" fill-rule="evenodd" clip-rule="evenodd" d="M9.44531 23.9766C6.8828 23.9766 4.32031 23.9766 1.75781 23.9766C0.835936 23.7109 0.242188 23.1172 -0.0234375 22.1953C-0.0234375 19.6328 -0.0234375 17.0703 -0.0234375 14.5078C0.23368 13.5867 0.827428 13.0007 1.75781 12.75C4.32031 12.7187 6.8828 12.7187 9.44531 12.75C10.375 12.9922 10.9609 13.5782 11.2031 14.5078C11.2344 17.0703 11.2344 19.6328 11.2031 22.1953C10.9524 23.1257 10.3665 23.7195 9.44531 23.9766Z" fill="#027DDB"/>
<path opacity="0.997" fill-rule="evenodd" clip-rule="evenodd" d="M23.9766 14.5078C23.9766 17.0703 23.9766 19.6328 23.9766 22.1953C23.7109 23.1172 23.1172 23.7109 22.1953 23.9766C19.6328 23.9766 17.0703 23.9766 14.5078 23.9766C13.5867 23.7195 13.0007 23.1257 12.75 22.1953C12.7187 19.6328 12.7187 17.0703 12.75 14.5078C12.9922 13.5782 13.5782 12.9922 14.5078 12.75C17.0703 12.7187 19.6328 12.7187 22.1953 12.75C23.1257 13.0007 23.7195 13.5867 23.9766 14.5078Z" fill="#027DDB"/>
</g>
<defs>
<clipPath id="clip0_876_1861">
<rect width="24" height="24" fill="white"/>
</clipPath>
</defs>
</svg>
