<svg width="24" height="24" viewBox="0 0 24 24" fill="none" xmlns="http://www.w3.org/2000/svg">
<g clip-path="url(#clip0_876_1839)">
<path opacity="0.983" fill-rule="evenodd" clip-rule="evenodd" d="M11.5547 0.0234375C11.8245 0.03195 12.0902 0.0710123 12.3516 0.140625C16.0454 1.9797 19.7173 3.8547 23.3672 5.76562C21.5761 6.669 19.7792 7.55963 17.9766 8.4375C17.9297 8.46877 17.8828 8.46877 17.8359 8.4375C14.1098 6.47288 10.391 4.49631 6.67969 2.50781C8.01595 1.76933 9.35972 1.04277 10.7109 0.328125C10.9829 0.18295 11.2641 0.0813877 11.5547 0.0234375Z" fill="#027DDB"/>
<path opacity="0.981" fill-rule="evenodd" clip-rule="evenodd" d="M5.17962 3.25781C8.92015 5.22966 12.6545 7.21402 16.3827 9.21094C14.8686 9.96802 13.3529 10.7258 11.8359 11.4844C11.7577 11.5156 11.6796 11.5156 11.6015 11.4844C7.96085 9.58594 4.32024 7.6875 0.679616 5.78906C0.631757 5.76553 0.623943 5.73431 0.656179 5.69531C2.17062 4.88742 3.67844 4.07493 5.17962 3.25781Z" fill="#027DDB"/>
<path opacity="0.992" fill-rule="evenodd" clip-rule="evenodd" d="M-0.0234375 6.96094C3.6533 8.85403 7.32516 10.7602 10.9922 12.6797C11.0469 16.4296 11.0547 20.1796 11.0156 23.9297C7.58222 22.1153 4.15253 20.295 0.726562 18.4688C0.353932 18.1987 0.103933 17.8471 -0.0234375 17.4141C-0.0234375 13.9297 -0.0234375 10.4453 -0.0234375 6.96094Z" fill="#027DDB"/>
<path opacity="0.991" fill-rule="evenodd" clip-rule="evenodd" d="M23.9766 7.00781C23.9766 10.4766 23.9766 13.9453 23.9766 17.4141C23.837 17.9341 23.5244 18.3169 23.0391 18.5625C19.5005 20.3396 15.9693 22.1287 12.4453 23.9297C12.3828 20.1797 12.3828 16.4297 12.4453 12.6797C13.9667 11.9424 15.4823 11.1924 16.9922 10.4297C17.018 11.3223 17.0571 12.2129 17.1094 13.1016C17.4485 13.5982 17.8391 13.6451 18.2812 13.2422C18.3125 13.1797 18.3437 13.1172 18.375 13.0547C18.3828 11.945 18.4063 10.8356 18.4453 9.72656C20.2785 8.79431 22.1223 7.88803 23.9766 7.00781Z" fill="#027DDB"/>
</g>
<defs>
<clipPath id="clip0_876_1839">
<rect width="24" height="24" fill="white"/>
</clipPath>
</defs>
</svg>
