<svg xmlns="http://www.w3.org/2000/svg" xmlns:xlink="http://www.w3.org/1999/xlink" width="500" zoomAndPan="magnify" viewBox="0 0 375 374.999991" height="500" preserveAspectRatio="xMidYMid meet" version="1.0"><defs><clipPath id="7dadb6bd7e"><path d="M 0 187.5 C 0 181.359375 0.300781 175.234375 0.902344 169.121094 C 1.503906 163.011719 2.40625 156.945312 3.601562 150.921875 C 4.800781 144.898438 6.292969 138.949219 8.074219 133.070312 C 9.855469 127.195312 11.921875 121.421875 14.273438 115.746094 C 16.621094 110.074219 19.246094 104.527344 22.140625 99.113281 C 25.035156 93.699219 28.1875 88.4375 31.597656 83.332031 C 35.011719 78.226562 38.664062 73.296875 42.558594 68.550781 C 46.457031 63.804688 50.574219 59.257812 54.917969 54.917969 C 59.257812 50.574219 63.804688 46.457031 68.550781 42.558594 C 73.296875 38.664062 78.226562 35.011719 83.332031 31.597656 C 88.4375 28.1875 93.699219 25.035156 99.113281 22.140625 C 104.527344 19.246094 110.074219 16.621094 115.746094 14.273438 C 121.421875 11.921875 127.195312 9.855469 133.070312 8.074219 C 138.949219 6.292969 144.898438 4.800781 150.921875 3.601562 C 156.945312 2.40625 163.011719 1.503906 169.121094 0.902344 C 175.234375 0.300781 181.359375 0 187.5 0 C 193.640625 0 199.765625 0.300781 205.878906 0.902344 C 211.988281 1.503906 218.054688 2.40625 224.078125 3.601562 C 230.101562 4.800781 236.050781 6.292969 241.929688 8.074219 C 247.804688 9.855469 253.578125 11.921875 259.253906 14.273438 C 264.925781 16.621094 270.472656 19.246094 275.886719 22.140625 C 281.300781 25.035156 286.5625 28.1875 291.667969 31.597656 C 296.773438 35.011719 301.703125 38.664062 306.449219 42.558594 C 311.195312 46.457031 315.742188 50.574219 320.082031 54.917969 C 324.425781 59.257812 328.542969 63.804688 332.4375 68.550781 C 336.335938 73.296875 339.988281 78.226562 343.402344 83.332031 C 346.8125 88.4375 349.964844 93.699219 352.859375 99.113281 C 355.753906 104.527344 358.378906 110.074219 360.726562 115.746094 C 363.078125 121.421875 365.144531 127.195312 366.925781 133.070312 C 368.707031 138.949219 370.199219 144.898438 371.398438 150.921875 C 372.59375 156.945312 373.496094 163.011719 374.097656 169.121094 C 374.699219 175.234375 375 181.359375 375 187.5 C 375 193.640625 374.699219 199.765625 374.097656 205.878906 C 373.496094 211.988281 372.59375 218.054688 371.398438 224.078125 C 370.199219 230.101562 368.707031 236.050781 366.925781 241.929688 C 365.144531 247.804688 363.078125 253.578125 360.726562 259.253906 C 358.378906 264.925781 355.753906 270.472656 352.859375 275.886719 C 349.964844 281.300781 346.8125 286.5625 343.402344 291.667969 C 339.988281 296.773438 336.335938 301.703125 332.4375 306.449219 C 328.542969 311.195312 324.425781 315.742188 320.082031 320.082031 C 315.742188 324.425781 311.195312 328.542969 306.449219 332.4375 C 301.703125 336.335938 296.773438 339.988281 291.667969 343.402344 C 286.5625 346.8125 281.300781 349.964844 275.886719 352.859375 C 270.472656 355.753906 264.925781 358.378906 259.253906 360.726562 C 253.578125 363.078125 247.804688 365.144531 241.929688 366.925781 C 236.050781 368.707031 230.101562 370.199219 224.078125 371.398438 C 218.054688 372.59375 211.988281 373.496094 205.878906 374.097656 C 199.765625 374.699219 193.640625 375 187.5 375 C 181.359375 375 175.234375 374.699219 169.121094 374.097656 C 163.011719 373.496094 156.945312 372.59375 150.921875 371.398438 C 144.898438 370.199219 138.949219 368.707031 133.070312 366.925781 C 127.195312 365.144531 121.421875 363.078125 115.746094 360.726562 C 110.074219 358.378906 104.527344 355.753906 99.113281 352.859375 C 93.699219 349.964844 88.4375 346.8125 83.332031 343.402344 C 78.226562 339.988281 73.296875 336.335938 68.550781 332.4375 C 63.804688 328.542969 59.257812 324.425781 54.917969 320.082031 C 50.574219 315.742188 46.457031 311.195312 42.558594 306.449219 C 38.664062 301.703125 35.011719 296.773438 31.597656 291.667969 C 28.1875 286.5625 25.035156 281.300781 22.140625 275.886719 C 19.246094 270.472656 16.621094 264.925781 14.273438 259.253906 C 11.921875 253.578125 9.855469 247.804688 8.074219 241.929688 C 6.292969 236.050781 4.800781 230.101562 3.601562 224.078125 C 2.40625 218.054688 1.503906 211.988281 0.902344 205.878906 C 0.300781 199.765625 0 193.640625 0 187.5 Z M 0 187.5 " clip-rule="nonzero"/></clipPath><clipPath id="b92044b4d1"><path d="M 75 78 L 301 78 L 301 304 L 75 304 Z M 75 78 " clip-rule="nonzero"/></clipPath><clipPath id="7a06de09a3"><path d="M 0 187.5 C 0 181.359375 0.300781 175.234375 0.902344 169.121094 C 1.503906 163.011719 2.40625 156.945312 3.601562 150.921875 C 4.800781 144.898438 6.292969 138.949219 8.074219 133.070312 C 9.855469 127.195312 11.921875 121.421875 14.273438 115.746094 C 16.621094 110.074219 19.246094 104.527344 22.140625 99.113281 C 25.035156 93.699219 28.1875 88.4375 31.597656 83.332031 C 35.011719 78.226562 38.664062 73.296875 42.558594 68.550781 C 46.457031 63.804688 50.574219 59.257812 54.917969 54.917969 C 59.257812 50.574219 63.804688 46.457031 68.550781 42.558594 C 73.296875 38.664062 78.226562 35.011719 83.332031 31.597656 C 88.4375 28.1875 93.699219 25.035156 99.113281 22.140625 C 104.527344 19.246094 110.074219 16.621094 115.746094 14.273438 C 121.421875 11.921875 127.195312 9.855469 133.070312 8.074219 C 138.949219 6.292969 144.898438 4.800781 150.921875 3.601562 C 156.945312 2.40625 163.011719 1.503906 169.121094 0.902344 C 175.234375 0.300781 181.359375 0 187.5 0 C 193.640625 0 199.765625 0.300781 205.878906 0.902344 C 211.988281 1.503906 218.054688 2.40625 224.078125 3.601562 C 230.101562 4.800781 236.050781 6.292969 241.929688 8.074219 C 247.804688 9.855469 253.578125 11.921875 259.253906 14.273438 C 264.925781 16.621094 270.472656 19.246094 275.886719 22.140625 C 281.300781 25.035156 286.5625 28.1875 291.667969 31.597656 C 296.773438 35.011719 301.703125 38.664062 306.449219 42.558594 C 311.195312 46.457031 315.742188 50.574219 320.082031 54.917969 C 324.425781 59.257812 328.542969 63.804688 332.4375 68.550781 C 336.335938 73.296875 339.988281 78.226562 343.402344 83.332031 C 346.8125 88.4375 349.964844 93.699219 352.859375 99.113281 C 355.753906 104.527344 358.378906 110.074219 360.726562 115.746094 C 363.078125 121.421875 365.144531 127.195312 366.925781 133.070312 C 368.707031 138.949219 370.199219 144.898438 371.398438 150.921875 C 372.59375 156.945312 373.496094 163.011719 374.097656 169.121094 C 374.699219 175.234375 375 181.359375 375 187.5 C 375 193.640625 374.699219 199.765625 374.097656 205.878906 C 373.496094 211.988281 372.59375 218.054688 371.398438 224.078125 C 370.199219 230.101562 368.707031 236.050781 366.925781 241.929688 C 365.144531 247.804688 363.078125 253.578125 360.726562 259.253906 C 358.378906 264.925781 355.753906 270.472656 352.859375 275.886719 C 349.964844 281.300781 346.8125 286.5625 343.402344 291.667969 C 339.988281 296.773438 336.335938 301.703125 332.4375 306.449219 C 328.542969 311.195312 324.425781 315.742188 320.082031 320.082031 C 315.742188 324.425781 311.195312 328.542969 306.449219 332.4375 C 301.703125 336.335938 296.773438 339.988281 291.667969 343.402344 C 286.5625 346.8125 281.300781 349.964844 275.886719 352.859375 C 270.472656 355.753906 264.925781 358.378906 259.253906 360.726562 C 253.578125 363.078125 247.804688 365.144531 241.929688 366.925781 C 236.050781 368.707031 230.101562 370.199219 224.078125 371.398438 C 218.054688 372.59375 211.988281 373.496094 205.878906 374.097656 C 199.765625 374.699219 193.640625 375 187.5 375 C 181.359375 375 175.234375 374.699219 169.121094 374.097656 C 163.011719 373.496094 156.945312 372.59375 150.921875 371.398438 C 144.898438 370.199219 138.949219 368.707031 133.070312 366.925781 C 127.195312 365.144531 121.421875 363.078125 115.746094 360.726562 C 110.074219 358.378906 104.527344 355.753906 99.113281 352.859375 C 93.699219 349.964844 88.4375 346.8125 83.332031 343.402344 C 78.226562 339.988281 73.296875 336.335938 68.550781 332.4375 C 63.804688 328.542969 59.257812 324.425781 54.917969 320.082031 C 50.574219 315.742188 46.457031 311.195312 42.558594 306.449219 C 38.664062 301.703125 35.011719 296.773438 31.597656 291.667969 C 28.1875 286.5625 25.035156 281.300781 22.140625 275.886719 C 19.246094 270.472656 16.621094 264.925781 14.273438 259.253906 C 11.921875 253.578125 9.855469 247.804688 8.074219 241.929688 C 6.292969 236.050781 4.800781 230.101562 3.601562 224.078125 C 2.40625 218.054688 1.503906 211.988281 0.902344 205.878906 C 0.300781 199.765625 0 193.640625 0 187.5 Z M 0 187.5 " clip-rule="nonzero"/></clipPath></defs><g clip-path="url(#7dadb6bd7e)"><rect x="-37.5" width="450" fill="#ff0000" y="-37.499999" height="449.999989" fill-opacity="1"/></g><g clip-path="url(#b92044b4d1)"><g clip-path="url(#7a06de09a3)"><path fill="#ffff00" d="M 181.40625 152.71875 L 177 155.0625 C 167.367188 151.328125 157.398438 149.078125 147.09375 148.3125 L 149.625 145.96875 C 155.097656 145.988281 160.511719 146.566406 165.863281 147.703125 C 171.21875 148.839844 176.398438 150.511719 181.40625 152.71875 Z M 140.0625 157.21875 C 138.902344 159.042969 137.847656 160.929688 136.902344 162.878906 C 135.960938 164.824219 135.128906 166.820312 134.414062 168.863281 C 133.699219 170.902344 133.105469 172.980469 132.628906 175.089844 C 132.152344 177.203125 131.800781 179.332031 131.566406 181.484375 C 131.335938 183.636719 131.230469 185.792969 131.246094 187.957031 C 131.265625 190.121094 131.40625 192.277344 131.671875 194.425781 C 131.9375 196.570312 132.324219 198.695312 132.832031 200.800781 C 133.34375 202.902344 133.972656 204.96875 134.71875 207 C 136.144531 202.796875 137.851562 198.710938 139.84375 194.742188 C 141.835938 190.777344 144.09375 186.964844 146.613281 183.3125 C 149.132812 179.660156 151.894531 176.195312 154.894531 172.925781 C 157.894531 169.65625 161.109375 166.605469 164.53125 163.78125 C 156.769531 160.121094 148.613281 157.933594 140.0625 157.21875 Z M 187.5 131.25 C 184.554688 131.242188 181.625 131.464844 178.714844 131.917969 C 175.804688 132.375 172.949219 133.054688 170.148438 133.964844 C 167.347656 134.871094 164.632812 135.992188 162.007812 137.332031 C 159.382812 138.667969 156.882812 140.203125 154.5 141.9375 C 165.933594 142.742188 176.933594 145.367188 187.5 149.8125 C 198.066406 145.367188 209.066406 142.742188 220.5 141.9375 C 218.117188 140.203125 215.617188 138.667969 212.992188 137.332031 C 210.367188 135.992188 207.652344 134.871094 204.851562 133.964844 C 202.050781 133.054688 199.195312 132.375 196.285156 131.917969 C 193.375 131.464844 190.445312 131.242188 187.5 131.25 Z M 234.9375 157.21875 C 226.386719 157.933594 218.230469 160.121094 210.46875 163.78125 C 213.890625 166.605469 217.105469 169.65625 220.105469 172.925781 C 223.105469 176.195312 225.867188 179.660156 228.386719 183.3125 C 230.90625 186.964844 233.164062 190.777344 235.15625 194.742188 C 237.148438 198.710938 238.855469 202.796875 240.28125 207 C 241.027344 204.96875 241.65625 202.902344 242.167969 200.800781 C 242.675781 198.695312 243.0625 196.570312 243.328125 194.425781 C 243.59375 192.277344 243.734375 190.121094 243.753906 187.957031 C 243.769531 185.792969 243.664062 183.636719 243.433594 181.484375 C 243.199219 179.332031 242.847656 177.203125 242.371094 175.089844 C 241.894531 172.980469 241.300781 170.902344 240.585938 168.863281 C 239.871094 166.820312 239.039062 164.824219 238.097656 162.878906 C 237.152344 160.929688 236.097656 159.042969 234.9375 157.21875 Z M 187.5 180.09375 C 185.597656 182.015625 183.796875 184.023438 182.09375 186.125 C 180.394531 188.226562 178.800781 190.40625 177.320312 192.667969 C 175.835938 194.929688 174.46875 197.257812 173.21875 199.652344 C 171.972656 202.050781 170.84375 204.503906 169.839844 207.015625 C 168.835938 209.523438 167.960938 212.078125 167.210938 214.675781 C 166.464844 217.273438 165.847656 219.902344 165.363281 222.5625 C 164.875 225.21875 164.527344 227.898438 164.308594 230.589844 C 164.089844 233.285156 164.007812 235.984375 164.0625 238.6875 C 165.898438 239.519531 167.773438 240.25 169.6875 240.882812 C 171.601562 241.515625 173.542969 242.042969 175.511719 242.46875 C 177.480469 242.894531 179.46875 243.210938 181.472656 243.425781 C 183.476562 243.640625 185.484375 243.746094 187.5 243.746094 C 189.515625 243.746094 191.523438 243.640625 193.527344 243.425781 C 195.53125 243.210938 197.519531 242.894531 199.488281 242.46875 C 201.457031 242.042969 203.398438 241.515625 205.3125 240.882812 C 207.226562 240.25 209.101562 239.519531 210.9375 238.6875 C 210.992188 235.984375 210.910156 233.285156 210.691406 230.589844 C 210.472656 227.898438 210.125 225.21875 209.636719 222.5625 C 209.152344 219.902344 208.535156 217.273438 207.789062 214.675781 C 207.039062 212.078125 206.164062 209.523438 205.160156 207.015625 C 204.15625 204.503906 203.027344 202.050781 201.78125 199.652344 C 200.53125 197.257812 199.164062 194.929688 197.679688 192.667969 C 196.199219 190.40625 194.605469 188.226562 192.90625 186.125 C 191.203125 184.023438 189.402344 182.015625 187.5 180.09375 Z M 170.625 166.96875 C 154.59375 180.375 143.25 198.75 139.96875 217.59375 C 141.339844 219.804688 142.871094 221.898438 144.5625 223.875 C 148.5 200.90625 158.90625 182.25 174.28125 169.21875 Z M 179.71875 173.15625 C 163.59375 187.875 153.09375 208.6875 152.15625 231.28125 C 153.660156 232.488281 155.222656 233.613281 156.84375 234.65625 C 156.855469 231.890625 157.011719 229.136719 157.308594 226.386719 C 157.601562 223.640625 158.039062 220.914062 158.613281 218.210938 C 159.191406 215.507812 159.902344 212.839844 160.753906 210.210938 C 161.601562 207.582031 162.582031 205 163.695312 202.472656 C 164.8125 199.941406 166.050781 197.476562 167.417969 195.074219 C 168.785156 192.671875 170.269531 190.347656 171.875 188.097656 C 173.484375 185.847656 175.199219 183.683594 177.027344 181.613281 C 178.855469 179.539062 180.78125 177.5625 182.8125 175.6875 Z M 195.28125 173.15625 L 192.1875 175.6875 C 194.21875 177.5625 196.144531 179.539062 197.972656 181.613281 C 199.800781 183.683594 201.515625 185.847656 203.121094 188.097656 C 204.730469 190.347656 206.214844 192.671875 207.582031 195.074219 C 208.949219 197.476562 210.1875 199.941406 211.304688 202.472656 C 212.417969 205 213.398438 207.582031 214.246094 210.210938 C 215.097656 212.839844 215.808594 215.507812 216.386719 218.210938 C 216.960938 220.914062 217.398438 223.640625 217.691406 226.386719 C 217.988281 229.136719 218.144531 231.890625 218.15625 234.65625 C 219.777344 233.617188 221.339844 232.492188 222.84375 231.28125 C 221.90625 208.6875 211.40625 187.875 195.28125 173.15625 Z M 204.375 166.96875 L 200.71875 169.21875 C 216.09375 182.25 226.5 200.90625 230.4375 223.875 C 232.128906 221.898438 233.660156 219.804688 235.03125 217.59375 C 231.75 198.75 220.40625 180.375 204.375 166.96875 Z M 231 151.78125 C 221.261719 152.21875 211.917969 154.375 202.96875 158.25 L 206.0625 160.40625 C 214.484375 156.640625 223.296875 154.421875 232.5 153.75 Z M 225.375 145.96875 C 219.902344 145.988281 214.488281 146.566406 209.136719 147.703125 C 203.78125 148.839844 198.601562 150.511719 193.59375 152.71875 L 198 155.0625 C 207.632812 151.328125 217.601562 149.078125 227.90625 148.3125 Z M 144 151.78125 L 142.5 153.75 C 151.703125 154.421875 160.515625 156.640625 168.9375 160.40625 L 172.03125 158.25 C 163.082031 154.375 153.738281 152.21875 144 151.78125 Z M 187.5 166.875 L 184.40625 169.21875 L 187.5 171.65625 L 190.59375 169.21875 Z M 178.21875 161.15625 L 175.125 163.40625 L 178.875 165.5625 L 182.15625 163.40625 Z M 187.5 155.625 C 186.09375 156.28125 184.6875 157.125 183.375 157.875 L 187.5 160.125 L 191.625 157.875 C 190.3125 157.125 188.90625 156.28125 187.5 155.625 Z M 196.78125 161.15625 L 192.84375 163.40625 L 196.125 165.5625 L 199.875 163.40625 Z M 192.84375 123.9375 L 198.09375 124.5 L 203.25 125.53125 C 204.46875 109.5 212.71875 94.875 205.125 80.15625 C 205.03125 98.0625 194.8125 111.1875 192.84375 123.9375 Z M 203.25 125.53125 C 204.996094 125.902344 206.714844 126.371094 208.40625 126.9375 L 213.375 128.8125 C 217.03125 113.0625 227.4375 99.9375 222.28125 84.1875 C 219.46875 101.90625 207.28125 113.34375 203.25 125.53125 Z M 213.375 128.8125 L 218.15625 130.96875 C 219.75 131.8125 221.34375 132.65625 222.75 133.59375 L 222.84375 133.59375 C 228.9375 118.59375 241.21875 107.25 238.59375 90.9375 C 233.0625 108 219.1875 117.28125 213.375 128.71875 Z M 222.84375 133.5 L 227.25 136.5 L 231.375 139.78125 C 239.8125 126 253.78125 116.71875 253.6875 100.125 C 245.53125 116.0625 230.34375 123.1875 222.84375 133.5 Z M 231.46875 139.78125 C 232.820312 140.894531 234.101562 142.082031 235.3125 143.34375 C 236.53125 144.5625 237.75 145.875 238.875 147.1875 C 249.375 134.90625 264.5625 127.875 267.09375 111.5625 C 256.59375 126 240.46875 130.6875 231.46875 139.6875 Z M 238.96875 147.1875 C 240.09375 148.5 241.21875 149.90625 242.25 151.3125 L 245.15625 155.71875 C 257.4375 145.21875 273.5625 140.71875 278.625 124.96875 C 265.875 137.625 249.375 139.6875 238.96875 147.1875 Z M 245.25 155.71875 C 246.09375 157.21875 247.03125 158.8125 247.78125 160.40625 C 248.625 161.957031 249.375 163.550781 250.03125 165.1875 C 263.71875 156.65625 280.40625 154.78125 287.8125 139.96875 C 273.375 150.46875 256.6875 149.90625 245.25 155.71875 Z M 250.03125 165.1875 C 250.6875 166.78125 251.34375 168.46875 251.90625 170.15625 C 252.460938 171.820312 252.929688 173.507812 253.3125 175.21875 C 268.21875 169.03125 285 169.6875 294.65625 156.28125 C 278.625 164.34375 262.3125 161.15625 250.03125 165.1875 Z M 253.40625 175.21875 C 253.78125 176.90625 254.15625 178.6875 254.4375 180.375 C 254.71875 182.144531 254.90625 183.925781 255 185.71875 C 270.75 181.875 287.15625 185.15625 298.78125 173.4375 C 281.71875 178.875 266.0625 173.25 253.40625 175.21875 Z M 255.09375 185.71875 C 255.1875 187.40625 255.28125 189.1875 255.28125 190.96875 C 255.28125 192.75 255.1875 194.53125 255.09375 196.3125 C 271.125 195 286.875 200.8125 300.1875 190.96875 C 282.5625 193.78125 267.9375 185.71875 255.09375 185.71875 Z M 255.09375 196.3125 C 255 198 254.71875 199.78125 254.53125 201.5625 C 254.34375 203.34375 253.875 205.03125 253.5 206.71875 C 269.53125 207.9375 284.15625 216.1875 298.875 208.59375 C 280.96875 208.5 267.84375 198.28125 255.09375 196.3125 Z M 253.5 206.8125 C 253.125 208.5 252.5625 210.1875 252.09375 211.875 C 251.625 213.5625 250.875 215.15625 250.21875 216.84375 C 265.96875 220.5 279.09375 230.90625 294.84375 225.75 C 277.125 222.9375 265.6875 210.75 253.5 206.71875 Z M 250.21875 216.84375 C 249.5625 218.4375 248.8125 220.03125 248.0625 221.625 C 247.3125 223.21875 246.375 224.8125 245.4375 226.3125 C 260.34375 232.40625 271.78125 244.6875 288.09375 242.0625 C 271.03125 236.53125 261.75 222.65625 250.21875 216.84375 Z M 245.4375 226.3125 C 244.554688 227.839844 243.585938 229.308594 242.53125 230.71875 C 241.5 232.125 240.375 233.53125 239.25 234.84375 C 253.03125 243.28125 262.3125 257.25 278.90625 257.15625 C 262.96875 249 255.84375 233.8125 245.53125 226.3125 Z M 239.25 234.9375 C 238.136719 236.289062 236.949219 237.570312 235.6875 238.78125 L 231.84375 242.34375 C 244.125 252.84375 251.15625 268.03125 267.46875 270.5625 C 253.03125 260.0625 248.34375 244.03125 239.25 234.9375 Z M 231.84375 242.4375 L 227.71875 245.71875 L 223.3125 248.625 L 223.21875 248.625 C 233.8125 260.90625 238.3125 277.03125 254.0625 282.09375 C 241.40625 269.34375 239.34375 252.84375 231.84375 242.4375 Z M 223.3125 248.71875 C 221.8125 249.5625 220.21875 250.5 218.625 251.25 C 217.03125 252 215.4375 252.84375 213.84375 253.5 C 222.375 267.1875 224.25 283.875 239.0625 291.28125 C 228.5625 276.84375 229.125 260.15625 223.3125 248.71875 Z M 213.84375 253.5 L 208.875 255.375 C 207.210938 255.929688 205.523438 256.398438 203.8125 256.78125 C 210 271.6875 209.34375 288.46875 222.75 298.125 C 214.6875 282.1875 217.875 265.78125 213.84375 253.5 Z M 203.8125 256.875 L 198.5625 257.90625 C 196.824219 258.191406 195.074219 258.378906 193.3125 258.46875 C 197.15625 274.21875 193.875 290.625 205.59375 302.25 C 200.15625 285.1875 205.78125 269.53125 203.8125 256.875 Z M 193.3125 258.5625 L 188.0625 258.75 L 182.71875 258.5625 C 184.03125 274.59375 178.21875 290.34375 188.0625 303.65625 C 185.25 286.03125 193.3125 271.40625 193.3125 258.5625 Z M 182.71875 258.5625 L 177.46875 258 L 172.3125 256.96875 C 171.09375 273 162.84375 287.625 170.4375 302.34375 C 170.4375 284.4375 180.75 271.3125 182.71875 258.5625 Z M 172.21875 256.96875 L 167.15625 255.5625 L 162.1875 253.6875 C 158.4375 269.4375 148.125 282.5625 153.28125 298.3125 C 156.09375 280.59375 168.28125 269.15625 172.3125 256.96875 Z M 162.1875 253.6875 L 157.40625 251.53125 C 155.8125 250.6875 154.21875 249.84375 152.71875 248.90625 C 146.625 263.90625 134.25 275.25 136.96875 291.5625 C 142.5 274.5 156.375 265.21875 162.1875 253.78125 Z M 152.71875 249 L 148.3125 246 L 144.1875 242.71875 C 135.75 256.5 121.78125 265.78125 121.875 282.375 C 130.03125 266.4375 145.125 259.3125 152.71875 249 Z M 144.09375 242.71875 C 141.4375 240.4375 138.96875 237.96875 136.6875 235.3125 L 136.59375 235.3125 C 126.1875 247.59375 111 254.625 108.46875 270.9375 C 118.96875 256.5 135 251.8125 144.09375 242.8125 Z M 136.59375 235.3125 C 135.46875 234 134.34375 232.59375 133.3125 231.1875 L 130.40625 226.78125 C 118.125 237.28125 102 241.78125 96.9375 257.53125 C 109.6875 244.875 126.1875 242.8125 136.59375 235.3125 Z M 130.3125 226.78125 C 129.46875 225.28125 128.53125 223.6875 127.78125 222.09375 C 126.9375 220.542969 126.1875 218.949219 125.53125 217.3125 C 111.75 225.84375 95.15625 227.71875 87.75 242.53125 C 102.1875 232.03125 118.875 232.59375 130.3125 226.78125 Z M 125.53125 217.3125 C 124.808594 215.691406 124.183594 214.035156 123.65625 212.34375 C 123.101562 210.679688 122.632812 208.992188 122.25 207.28125 C 107.34375 213.46875 90.5625 212.8125 80.90625 226.21875 C 96.84375 218.15625 113.25 221.34375 125.53125 217.3125 Z M 122.15625 207.28125 C 121.78125 205.59375 121.40625 203.8125 121.125 202.125 C 120.84375 200.351562 120.65625 198.570312 120.5625 196.78125 C 104.8125 200.625 88.40625 197.34375 76.78125 209.0625 C 93.75 203.625 109.5 209.25 122.15625 207.28125 Z M 120.46875 196.78125 C 120.375 195.09375 120.28125 193.3125 120.28125 191.53125 C 120.28125 189.75 120.375 187.96875 120.46875 186.1875 C 104.34375 187.5 88.6875 181.6875 75.375 191.53125 C 93 188.71875 107.625 196.78125 120.46875 196.78125 Z M 120.46875 186.1875 C 120.570312 184.429688 120.757812 182.679688 121.03125 180.9375 C 121.3125 179.25 121.6875 177.46875 122.0625 175.78125 C 106.03125 174.5625 91.40625 166.3125 76.6875 173.90625 C 94.59375 174 107.71875 184.21875 120.46875 186.1875 Z M 122.0625 175.6875 C 122.445312 173.976562 122.914062 172.289062 123.46875 170.625 C 124.03125 168.9375 124.6875 167.34375 125.34375 165.65625 C 109.59375 162 96.46875 151.59375 80.71875 156.75 C 98.4375 159.5625 109.875 171.75 122.0625 175.78125 Z M 125.25 165.65625 C 126 164.0625 126.65625 162.46875 127.5 160.875 C 128.34375 159.28125 129.1875 157.6875 130.125 156.1875 C 115.125 150.09375 103.78125 137.8125 87.46875 140.4375 C 104.4375 145.96875 113.8125 159.84375 125.25 165.65625 Z M 130.03125 156.1875 C 130.96875 154.6875 132 153.1875 133.03125 151.78125 C 134.0625 150.375 135.1875 148.96875 136.3125 147.65625 C 122.53125 139.21875 113.15625 125.25 96.65625 125.34375 C 112.59375 133.5 119.71875 148.6875 130.03125 156.1875 Z M 136.21875 147.5625 C 137.4375 146.25 138.5625 144.9375 139.875 143.71875 L 143.71875 140.15625 C 131.4375 129.65625 124.40625 114.46875 108.09375 111.9375 C 122.53125 122.4375 127.21875 138.46875 136.21875 147.5625 Z M 143.71875 140.0625 L 147.84375 136.78125 L 152.25 133.875 C 141.75 121.59375 137.25 105.46875 121.5 100.40625 C 134.0625 113.15625 136.125 129.65625 143.71875 140.0625 Z M 152.25 133.78125 L 156.84375 131.25 C 158.425781 130.40625 160.050781 129.65625 161.71875 129 C 153.1875 115.3125 151.3125 98.625 136.5 91.21875 C 147 105.65625 146.4375 122.34375 152.25 133.78125 Z M 161.71875 129 L 166.6875 127.125 L 171.75 125.71875 C 165.5625 110.8125 166.21875 94.03125 152.8125 84.375 C 160.875 100.3125 157.6875 116.71875 161.71875 129 Z M 171.75 125.625 L 176.90625 124.59375 C 178.675781 124.3125 180.457031 124.125 182.25 124.03125 C 178.40625 108.28125 181.6875 91.875 169.875 80.25 C 175.40625 97.3125 169.78125 112.96875 171.75 125.625 Z M 182.25 123.9375 L 187.5 123.75 L 192.75 123.9375 L 192.84375 123.9375 C 191.4375 107.90625 197.34375 92.15625 187.5 78.84375 C 190.3125 96.46875 182.25 111.09375 182.25 123.9375 Z M 182.25 123.9375 " fill-opacity="1" fill-rule="nonzero"/></g></g></svg>