<svg width="48" height="48" viewBox="0 0 48 48" fill="none" xmlns="http://www.w3.org/2000/svg">
<path d="M38.0444 41.3828L39.5827 42.9567C39.8663 43.2468 40.2827 43.3712 40.6604 43.2233C42.1188 42.6525 44.6799 41.062 46.7802 37.8169L46.5318 36.031C46.4558 35.4847 45.9064 35.1934 45.473 35.4698L38.1721 40.1258C37.7573 40.3904 37.693 41.0232 38.0444 41.3828Z" fill="#027DDB"/>
<path fill-rule="evenodd" clip-rule="evenodd" d="M43.3631 37.9958C43.1915 37.7281 42.8354 37.6501 42.5677 37.8217L38.5929 40.3685C38.3252 40.54 38.2472 40.8961 38.4188 41.1639C38.5903 41.4316 38.9464 41.5096 39.2142 41.338L43.1889 38.7912C43.4566 38.6197 43.5346 38.2636 43.3631 37.9958Z" fill="#E7EFFF"/>
<path d="M11.0745 41.3828L9.23648 43.0545C8.97914 43.2885 8.62814 43.3979 8.28833 43.3236C4.49271 42.4936 2.02841 39.3505 1.24684 37.8169L1.52625 36.0311C1.61174 35.4847 2.22984 35.1935 2.7174 35.4699L10.9308 40.1259C11.3976 40.3905 11.4699 41.0232 11.0745 41.3828Z" fill="#027DDB"/>
<path fill-rule="evenodd" clip-rule="evenodd" d="M7.10471 38.9451C7.26152 38.6685 7.16439 38.3171 6.88776 38.1603L2.78104 35.8323C2.50441 35.6755 2.15304 35.7726 1.99623 36.0493C1.83942 36.3259 1.93655 36.6773 2.21317 36.8341L6.3199 39.1621C6.59652 39.3189 6.94789 39.2218 7.10471 38.9451Z" fill="#E7EFFF"/>
<path d="M44.3253 27.9358C44.5385 30.9204 44.3207 32.7302 44.9778 35.6873L38.8244 39.6816C34.3559 37.0531 33.975 32.208 34.4682 30.2357C34.7967 28.9215 35.5933 27.4407 35.5933 25.0604C35.5933 22.515 37.6085 22.2233 38.457 23.0718C38.457 23.0718 38.4039 20.2612 37.3698 17.9809C36.3357 15.7006 35.2664 13.2438 36.7682 12.4929C38.0825 11.8358 38.5205 13.3691 39.0682 14.1358C40.0497 16.0412 41.453 18.3119 42.3539 20.7072C43.1618 22.8554 44.1699 25.7609 44.3253 27.9358Z" fill="#FFDDB6"/>
<path d="M3.81173 27.9357C3.59854 30.9204 3.8201 32.6942 3.16295 35.6513L9.82018 39.5017C14.2887 36.8731 14.1876 32.3104 13.6689 30.2357C13.3403 28.9214 12.5437 27.4407 12.5437 25.0604C12.5437 22.515 10.5285 22.2233 9.68006 23.0718C9.68006 23.0718 9.7331 20.2612 10.7672 17.9809C11.8013 15.7006 12.8706 13.2438 11.3689 12.4929C10.0546 11.8358 9.61648 13.3691 9.06886 14.1358C8.08728 16.0412 6.68399 18.3119 5.78316 20.7072C4.97526 22.8553 3.96708 25.7608 3.81173 27.9357Z" fill="#FFDDB6"/>
<path d="M15.9375 10.0303H32.0587V21.5454C32.0587 22.1814 31.5432 22.6969 30.9072 22.6969H17.089C16.4531 22.6969 15.9375 22.1814 15.9375 21.5454V10.0303Z" fill="#FF7C00"/>
<path fill-rule="evenodd" clip-rule="evenodd" d="M16.5127 10.9659C16.5127 10.6479 16.7705 10.3901 17.0885 10.3901H29.7551C30.0731 10.3901 30.3309 10.6479 30.3309 10.9659C30.3309 11.2839 30.0731 11.5417 29.7551 11.5417H17.6642V20.178C17.6642 20.496 17.4064 20.7538 17.0885 20.7538C16.7705 20.7538 16.5127 20.496 16.5127 20.178V10.9659Z" fill="#AED5F3"/>
<path d="M21.6953 10.0303H26.3014V13.4848L25.1499 12.8268L23.9983 13.4848L22.8468 12.8268L21.6953 13.4848V10.0303Z" fill="#FF7C00"/>
<path d="M14.7861 7.7272C14.7861 7.09123 15.3017 6.57568 15.9376 6.57568H32.0589C32.6948 6.57568 33.2104 7.09123 33.2104 7.7272V8.87871C33.2104 9.51468 32.6948 10.0302 32.0589 10.0302H15.9376C15.3017 10.0302 14.7861 9.51468 14.7861 8.87871V7.7272Z" fill="#FF7C00"/>
<path fill-rule="evenodd" clip-rule="evenodd" d="M15.3613 7.5113C15.3613 7.19332 15.6191 6.93555 15.9371 6.93555H30.9068C31.2248 6.93555 31.4825 7.19332 31.4825 7.5113C31.4825 7.82929 31.2248 8.08706 30.9068 8.08706H15.9371C15.6191 8.08706 15.3613 7.82929 15.3613 7.5113Z" fill="#AED5F3"/>
<path fill-rule="evenodd" clip-rule="evenodd" d="M12.2487 13.5723C12.3909 13.2878 12.2756 12.942 11.9912 12.7998C11.587 12.5977 11.1841 12.5343 10.7982 12.6385C10.4252 12.7392 10.1499 12.9751 9.94858 13.2086C9.74874 13.4405 9.58721 13.7112 9.45662 13.9386C9.42923 13.9863 9.40335 14.0317 9.37867 14.075C9.2754 14.2564 9.19296 14.4012 9.10674 14.5219C9.0906 14.5445 9.07613 14.5682 9.06341 14.5928C8.81843 15.0684 8.53831 15.5799 8.24299 16.1191C7.46308 17.5432 6.5772 19.1607 5.95286 20.8208C5.19905 22.8252 4.22006 25.6285 4.06738 27.7661C3.99936 28.7184 3.97691 29.5231 3.95606 30.2709C3.91337 31.8015 3.87734 33.0935 3.47077 34.923C3.40179 35.2334 3.59751 35.541 3.90792 35.6099C4.21833 35.6789 4.52589 35.4832 4.59487 35.1728C5.02529 33.2359 5.06691 31.7825 5.1125 30.1906C5.13345 29.4591 5.15523 28.6984 5.21596 27.8482C5.35486 25.9037 6.26813 23.2537 7.03067 21.2262C7.62426 19.6478 8.44592 18.1477 9.21346 16.7464C9.5124 16.2006 9.80313 15.6699 10.069 15.1553C10.1842 14.9888 10.2945 14.7944 10.3919 14.623C10.4137 14.5847 10.4348 14.5476 10.4551 14.5122C10.5847 14.2866 10.6994 14.1013 10.8207 13.9605C10.9406 13.8215 11.0315 13.7683 11.0985 13.7502C11.1526 13.7355 11.2637 13.7235 11.4762 13.8297C11.7606 13.972 12.1065 13.8567 12.2487 13.5723Z" fill="#FFF0DF"/>
<path fill-rule="evenodd" clip-rule="evenodd" d="M11.6699 23.0435C11.6699 22.7255 11.4121 22.4678 11.0942 22.4678C10.4623 22.4678 10.0088 22.7805 9.73025 23.2319C9.47517 23.6452 9.37097 24.1617 9.32611 24.6334C9.28015 25.1166 9.29109 25.6218 9.31126 26.0532C9.31962 26.2321 9.329 26.3914 9.33733 26.5329C9.35034 26.7539 9.36078 26.9312 9.36078 27.0715C9.36078 27.0959 9.36232 27.1203 9.36541 27.1444L9.67743 29.5892C9.4256 30.3556 9.19053 31.1719 9.01492 31.9116C8.83303 32.6777 8.70363 33.4072 8.70363 33.9174C8.70363 34.2354 8.96141 34.4932 9.27939 34.4932C9.59737 34.4932 9.85515 34.2354 9.85515 33.9174C9.85515 33.5514 9.95575 32.9338 10.1353 32.1775C10.3115 31.4353 10.553 30.603 10.8113 29.8281C10.8387 29.746 10.8472 29.6589 10.8362 29.5731L10.5121 27.0333C10.5103 26.866 10.4974 26.6445 10.4838 26.4104C10.476 26.275 10.4679 26.1353 10.4615 25.9994C10.442 25.5831 10.4344 25.143 10.4725 24.7424C10.5116 24.3303 10.5942 24.0246 10.7102 23.8367C10.8026 23.6868 10.9046 23.6193 11.0942 23.6193C11.4121 23.6193 11.6699 23.3615 11.6699 23.0435Z" fill="#FFF0DF"/>
<path fill-rule="evenodd" clip-rule="evenodd" d="M39.1257 39.5481C34.6151 36.8948 34.2569 32.7649 34.6824 30.137C34.7573 29.6747 34.8884 29.1751 35.0213 28.6689C35.0891 28.4106 35.1573 28.1507 35.2187 27.8931C35.4084 27.0981 35.5674 26.211 35.5674 25.1437C35.5674 23.753 36.1059 22.847 36.99 22.534C37.422 22.3811 37.8777 22.3951 38.2898 22.5217C38.2915 22.2894 38.288 22.0232 38.2743 21.7348C38.2271 20.7368 38.0612 19.5266 37.6157 18.5444C37.1256 17.4635 36.6727 16.4165 36.3704 15.4833C36.074 14.5685 35.8913 13.6743 36.0263 12.9318C36.0832 12.6189 36.3829 12.4114 36.6958 12.4683C37.0086 12.5252 37.2161 12.8249 37.1592 13.1378C37.0783 13.5828 37.1795 14.2444 37.4658 15.1285C37.7463 15.9942 38.175 16.9894 38.6645 18.0688C39.1987 19.2469 39.3747 20.6275 39.4246 21.6804C39.4498 22.213 39.4432 22.6752 39.4302 23.0051C39.4238 23.1702 39.4157 23.3028 39.4091 23.3952C39.4058 23.4414 39.4029 23.4775 39.4008 23.5027L39.3982 23.5322L39.3974 23.5405L39.3972 23.543L39.3971 23.5442C39.3971 23.5444 39.397 23.5445 38.824 23.4884L39.3971 23.5442C39.3754 23.7659 39.2278 23.9554 39.0182 24.0304C38.8085 24.1055 38.5744 24.053 38.4169 23.8955C38.145 23.6236 37.7012 23.5038 37.3743 23.6195C37.1189 23.7099 36.7189 24.0335 36.7189 25.1437C36.7189 26.3314 36.5409 27.3132 36.3388 28.1602C36.262 28.4825 36.1858 28.7715 36.1149 29.0403C35.9924 29.5052 35.8857 29.9096 35.8191 30.3211C35.4385 32.6721 35.7533 36.2284 39.7095 38.5556C39.9836 38.7168 40.0751 39.0697 39.9139 39.3438C39.7526 39.6178 39.3997 39.7093 39.1257 39.5481Z" fill="#FFF0DF"/>
<path fill-rule="evenodd" clip-rule="evenodd" d="M38.5317 40.1781C33.7829 37.3847 33.3725 32.241 33.9088 30.0963C34.0142 29.6748 34.1508 29.2683 34.2918 28.8485C34.6406 27.8106 35.0168 26.691 35.0168 25.0606C35.0168 23.6305 35.5962 22.6768 36.4624 22.272C36.8953 22.0696 37.3705 22.0228 37.811 22.1109C37.7906 21.916 37.7644 21.6982 37.7305 21.4639C37.5918 20.5021 37.3301 19.2892 36.8447 18.2189C36.3345 17.0937 35.7783 15.849 35.5539 14.7821C35.4413 14.2469 35.3985 13.6985 35.5245 13.2044C35.6577 12.6823 35.9748 12.2457 36.5099 11.9781C36.9343 11.7659 37.354 11.7008 37.7543 11.8089C38.1418 11.9136 38.4291 12.1589 38.641 12.4047C38.8513 12.6487 39.0219 12.9344 39.161 13.1766C39.19 13.227 39.2174 13.2751 39.2436 13.3211C39.3537 13.5146 39.4428 13.671 39.5359 13.8013C39.552 13.8239 39.5665 13.8476 39.5792 13.8723C39.8411 14.3806 40.1401 14.9267 40.4552 15.5019C41.2859 17.0187 42.2277 18.7384 42.892 20.5047C43.6955 22.6413 44.7365 25.6234 44.8988 27.8949C44.9708 28.9028 44.9952 29.7605 45.0179 30.5599C45.0647 32.207 45.1045 33.6067 45.5391 35.5626C45.5912 35.7972 45.4921 36.0396 45.2905 36.1704L39.1371 40.1647C38.9541 40.2835 38.7198 40.2887 38.5317 40.1781ZM38.4562 23.072L39.0318 23.0611C39.0363 23.2959 38.8976 23.5099 38.6815 23.6018C38.4654 23.6937 38.2151 23.6452 38.049 23.4791C37.8003 23.2303 37.3458 23.1302 36.95 23.3152C36.5964 23.4804 36.1683 23.9453 36.1683 25.0606C36.1683 26.8951 35.6991 28.2933 35.3382 29.3686C35.2131 29.7415 35.1009 30.0756 35.026 30.3756L35.0259 30.3756C34.5869 32.1313 34.9106 36.501 38.815 39.001L44.3315 35.4201C43.9507 33.5477 43.9079 32.0781 43.8614 30.4804C43.8387 29.6975 43.815 28.8839 43.7502 27.9769C43.6018 25.8986 42.6264 23.0698 41.8142 20.91C41.1807 19.2256 40.303 17.6233 39.4847 16.1292C39.1661 15.5475 38.8564 14.9822 38.5737 14.4349C38.4516 14.2587 38.3345 14.0526 38.2303 13.8691C38.2071 13.8282 38.1844 13.7883 38.1626 13.7502C38.0244 13.5098 37.9007 13.3095 37.7688 13.1565C37.6384 13.0053 37.5355 12.9426 37.4541 12.9206C37.3855 12.9021 37.2576 12.8917 37.0249 13.0081C36.8091 13.116 36.6967 13.268 36.6403 13.489C36.5768 13.738 36.5844 14.0871 36.6807 14.545C36.8741 15.4643 37.3696 16.5881 37.8934 17.7433C38.4421 18.9532 38.724 20.2858 38.8702 21.2994C38.9439 21.8095 38.9841 22.2462 39.0061 22.5566C39.017 22.7119 39.0234 22.836 39.0271 22.9222C39.0289 22.9653 39.0301 22.999 39.0308 23.0224L39.0316 23.0498L39.0318 23.0575L39.0318 23.0598L39.0318 23.0606L39.0318 23.0609C39.0318 23.061 39.0318 23.0611 38.4562 23.072Z" fill="#0040A0"/>
<path fill-rule="evenodd" clip-rule="evenodd" d="M37.0059 22.6478C37.0059 22.3298 37.2636 22.072 37.5816 22.072C38.2135 22.072 38.6669 22.3847 38.9455 22.8361C39.2006 23.2494 39.3048 23.7659 39.3497 24.2376C39.3956 24.7208 39.3847 25.2261 39.3645 25.6575C39.3562 25.8364 39.3468 25.9957 39.3385 26.1371C39.3254 26.3581 39.315 26.5355 39.315 26.6758C39.315 26.7002 39.3135 26.7245 39.3104 26.7487L38.9984 29.1935C39.2502 29.9599 39.4853 30.7761 39.6609 31.5158C39.8427 32.2819 39.9721 33.0115 39.9721 33.5217C39.9721 33.8396 39.7144 34.0974 39.3964 34.0974C39.0784 34.0974 38.8206 33.8396 38.8206 33.5217C38.8206 33.1556 38.72 32.5381 38.5405 31.7818C38.3643 31.0396 38.1228 30.2072 37.8645 29.4323C37.8371 29.3503 37.8286 29.2631 37.8396 29.1773L38.1637 26.6375C38.1655 26.4702 38.1784 26.2488 38.1919 26.0147C38.1998 25.8793 38.2079 25.7396 38.2143 25.6037C38.2337 25.1874 38.2414 24.7472 38.2033 24.3466C38.1641 23.9345 38.0816 23.6289 37.9656 23.4409C37.8731 23.2911 37.7711 23.2235 37.5816 23.2235C37.2636 23.2235 37.0059 22.9657 37.0059 22.6478Z" fill="#0040A0"/>
<path fill-rule="evenodd" clip-rule="evenodd" d="M38.393 40.7767C38.3842 40.8631 38.4125 40.9362 38.4555 40.9801L40.451 43.0218C40.6732 43.2492 40.6691 43.6137 40.4417 43.836C40.2142 44.0583 39.8497 44.0541 39.6275 43.8267L37.632 41.785C37.0365 41.1757 37.1253 40.1099 37.8618 39.6402L45.1627 34.9842C46.0143 34.441 46.9785 35.0683 47.1013 35.9515L47.3497 37.7374C47.3935 38.0523 47.1737 38.3431 46.8587 38.3869C46.5438 38.4307 46.253 38.2109 46.2092 37.896L45.9608 36.1101C45.9475 36.0147 45.8991 35.9679 45.8661 35.9504C45.849 35.9413 45.835 35.9392 45.8252 35.9394C45.8169 35.9396 45.8029 35.9416 45.7819 35.9551L38.481 40.611C38.4424 40.6357 38.4018 40.69 38.393 40.7767Z" fill="#0040A0"/>
<path d="M40.6834 40.3333C41.152 40.3333 41.5319 40.7132 41.5319 41.1818C41.5319 41.6504 41.152 42.0303 40.6834 42.0303C40.2148 42.0303 39.835 41.6504 39.835 41.1818C39.835 40.7132 40.2148 40.3333 40.6834 40.3333Z" fill="#E7EFFF"/>
<path fill-rule="evenodd" clip-rule="evenodd" d="M10.1113 39.9981C14.8993 37.1817 14.7739 32.285 14.2266 30.0962C14.1263 29.6951 13.9935 29.3001 13.8547 28.8873C13.5054 27.8491 13.1187 26.6991 13.1187 25.0606C13.1187 23.6304 12.5392 22.6768 11.6731 22.2719C11.2402 22.0696 10.765 22.0228 10.3244 22.1109C10.3448 21.9159 10.3711 21.6982 10.4049 21.4638C10.5437 20.5021 10.8054 19.2892 11.2908 18.2188C11.801 17.0937 12.3572 15.849 12.5816 14.782C12.6941 14.2469 12.7369 13.6984 12.6109 13.2044C12.4777 12.6823 12.1606 12.2457 11.6256 11.9781C11.2011 11.7659 10.7815 11.7008 10.3811 11.8089C9.99362 11.9135 9.70634 12.1589 9.49449 12.4046C9.28411 12.6487 9.11353 12.9344 8.97441 13.1766C8.94548 13.227 8.91808 13.2751 8.89188 13.3211C8.78172 13.5146 8.69267 13.6709 8.59956 13.8013C8.58343 13.8239 8.56895 13.8476 8.55624 13.8723C8.29437 14.3806 7.99532 14.9266 7.68028 15.5019C6.84957 17.0187 5.90773 18.7384 5.24346 20.5047C4.43993 22.6412 3.3989 25.6234 3.23665 27.8949C3.16442 28.9061 3.14052 29.7623 3.11829 30.5586C3.0727 32.1918 3.03412 33.5736 2.60012 35.5266C2.54562 35.7718 2.65643 36.0241 2.8739 36.1499L9.53113 40.0003C9.71078 40.1042 9.93244 40.1034 10.1113 39.9981ZM9.67928 23.072L9.10362 23.0611C9.09919 23.2959 9.23782 23.5099 9.45394 23.6018C9.67005 23.6937 9.92033 23.6451 10.0864 23.4791C10.3352 23.2303 10.7897 23.1301 11.1855 23.3151C11.539 23.4804 11.9672 23.9453 11.9672 25.0606C11.9672 26.9049 12.4487 28.3375 12.8086 29.408C12.9308 29.7716 13.039 30.0935 13.1095 30.3755C13.5883 32.2905 13.6728 36.3689 9.81103 38.8319L3.81216 35.3623C4.18811 33.5051 4.22954 32.0573 4.27473 30.4783C4.29705 29.6983 4.32029 28.8862 4.38524 27.9769C4.53369 25.8986 5.50901 23.0698 6.32127 20.91C6.95479 19.2255 7.83242 17.6232 8.65075 16.1292C8.96937 15.5475 9.279 14.9822 9.56174 14.4348C9.68383 14.2586 9.80091 14.0525 9.90511 13.8691C9.92838 13.8281 9.951 13.7883 9.9729 13.7502C10.111 13.5098 10.2348 13.3095 10.3667 13.1565C10.4971 13.0053 10.6 12.9426 10.6814 12.9206C10.7499 12.9021 10.8779 12.8917 11.1106 13.0081C11.3264 13.1159 11.4388 13.268 11.4951 13.489C11.5586 13.738 11.5511 14.0871 11.4547 14.545C11.2614 15.4643 10.7659 16.5881 10.242 17.7433C9.69334 18.9532 9.41146 20.2858 9.2652 21.2994C9.19159 21.8095 9.15132 22.2462 9.12939 22.5566C9.11842 22.7119 9.11202 22.836 9.10834 22.9222C9.1065 22.9653 9.10534 22.999 9.10463 23.0224L9.10388 23.0497L9.1037 23.0574L9.10365 23.0598C9.10365 23.0599 9.10362 23.0611 9.67928 23.072Z" fill="#0040A0"/>
<path fill-rule="evenodd" clip-rule="evenodd" d="M11.1299 22.6478C11.1299 22.3298 10.8721 22.072 10.5541 22.072C9.92223 22.072 9.4688 22.3847 9.19021 22.8361C8.93514 23.2494 8.83093 23.7659 8.78607 24.2376C8.74011 24.7208 8.75105 25.2261 8.77122 25.6575C8.77959 25.8364 8.78896 25.9957 8.79729 26.1371C8.8103 26.3581 8.82074 26.5355 8.82074 26.6758C8.82074 26.7002 8.82228 26.7245 8.82537 26.7487L9.13739 29.1935C8.88556 29.9599 8.65049 30.7761 8.47488 31.5158C8.29299 32.2819 8.1636 33.0115 8.16359 33.5217C8.16359 33.8396 8.42137 34.0974 8.73935 34.0974C9.05733 34.0974 9.31511 33.8396 9.31511 33.5217C9.31511 33.1556 9.41571 32.5381 9.59525 31.7818C9.77147 31.0396 10.013 30.2072 10.2713 29.4323C10.2986 29.3503 10.3071 29.2631 10.2962 29.1773L9.97204 26.6375C9.97024 26.4702 9.95739 26.2488 9.9438 26.0147C9.93594 25.8793 9.92783 25.7396 9.92148 25.6037C9.90201 25.1874 9.89432 24.7472 9.93241 24.3466C9.9716 23.9345 10.0541 23.6289 10.1701 23.4409C10.2626 23.2911 10.3646 23.2235 10.5541 23.2235C10.8721 23.2235 11.1299 22.9657 11.1299 22.6478Z" fill="#0040A0"/>
<path fill-rule="evenodd" clip-rule="evenodd" d="M10.6462 40.6265C10.7751 40.6995 10.7894 40.863 10.6865 40.9566L8.44151 42.9983C8.20627 43.2122 8.189 43.5764 8.40294 43.8116C8.61689 44.0469 8.98103 44.0641 9.21627 43.8502L11.4612 41.8085C12.1491 41.1829 12.0187 40.0808 11.2141 39.6247L3.00064 34.9687C2.17438 34.5003 1.10642 34.985 0.95672 35.9418L0.677304 37.7277C0.62815 38.0418 0.842981 38.3364 1.15714 38.3855C1.4713 38.4347 1.76582 38.2198 1.81498 37.9057L2.09439 36.1198C2.11566 35.9839 2.28391 35.8861 2.43277 35.9705L10.6462 40.6265Z" fill="#0040A0"/>
<path d="M7.4523 40.3333C6.98369 40.3333 6.60381 40.7132 6.60381 41.1818C6.60381 41.6504 6.98369 42.0303 7.4523 42.0303C7.9209 42.0303 8.30078 41.6504 8.30078 41.1818C8.30078 40.7132 7.9209 40.3333 7.4523 40.3333Z" fill="#E7EFFF"/>
<path fill-rule="evenodd" clip-rule="evenodd" d="M15.3613 10.0303C15.3613 9.71237 15.6191 9.45459 15.9371 9.45459H32.0583C32.3763 9.45459 32.6341 9.71237 32.6341 10.0303V21.5455C32.6341 22.4994 31.8607 23.2728 30.9068 23.2728H17.0886C16.1347 23.2728 15.3613 22.4994 15.3613 21.5455V10.0303ZM16.5128 10.6061V21.5455C16.5128 21.8635 16.7706 22.1213 17.0886 22.1213H30.9068C31.2248 22.1213 31.4825 21.8635 31.4825 21.5455V10.6061H16.5128Z" fill="#0040A0"/>
<path fill-rule="evenodd" clip-rule="evenodd" d="M21.1191 10.0303C21.1191 9.71237 21.3769 9.45459 21.6949 9.45459H26.301C26.6189 9.45459 26.8767 9.71237 26.8767 10.0303V13.4849C26.8767 13.6901 26.7675 13.8799 26.5899 13.9829C26.4124 14.0859 26.1935 14.0866 26.0153 13.9848L25.1494 13.49L24.2836 13.9848C24.1066 14.0859 23.8893 14.0859 23.7123 13.9848L22.8464 13.49L21.9806 13.9848C21.8024 14.0866 21.5834 14.0859 21.4059 13.9829C21.2284 13.8799 21.1191 13.6901 21.1191 13.4849V10.0303ZM22.2707 10.6061V12.4928L22.5608 12.327C22.7378 12.2258 22.9551 12.2258 23.1321 12.327L23.9979 12.8218L24.8638 12.327C25.0408 12.2258 25.2581 12.2258 25.4351 12.327L25.7252 12.4928V10.6061H22.2707Z" fill="#0040A0"/>
<path fill-rule="evenodd" clip-rule="evenodd" d="M14.21 7.72727C14.21 6.77333 14.9833 6 15.9372 6H32.0584C33.0124 6 33.7857 6.77333 33.7857 7.72727V8.87879C33.7857 9.83273 33.0124 10.6061 32.0584 10.6061H15.9372C14.9833 10.6061 14.21 9.83273 14.21 8.87879V7.72727ZM15.9372 7.15151C15.6193 7.15151 15.3615 7.40929 15.3615 7.72727V8.87879C15.3615 9.19677 15.6193 9.45454 15.9372 9.45454H32.0584C32.3764 9.45454 32.6342 9.19677 32.6342 8.87879V7.72727C32.6342 7.40929 32.3764 7.15151 32.0584 7.15151H15.9372Z" fill="#0040A0"/>
</svg>
