<svg width="32" height="32" viewBox="0 0 32 32" fill="none" xmlns="http://www.w3.org/2000/svg">
<rect width="32" height="32" rx="16" fill="#027DDB"/>
<path opacity="0.997" fill-rule="evenodd" clip-rule="evenodd" d="M14.3862 9C16.6284 9 18.8706 9 21.1128 9C21.8441 9.19821 22.277 9.67216 22.4116 10.4219C22.4299 12.9739 22.4299 15.526 22.4116 18.0781C22.299 18.7832 21.9025 19.2435 21.2222 19.459C20.0611 19.4905 18.899 19.5042 17.7359 19.5C16.5727 19.5042 15.4106 19.4905 14.2495 19.459C13.67 19.2805 13.2918 18.9023 13.1148 18.3242C13.0695 15.6546 13.0604 12.984 13.0874 10.3125C13.2519 9.60574 13.6848 9.16824 14.3862 9Z" fill="white"/>
<path opacity="0.996" fill-rule="evenodd" clip-rule="evenodd" d="M18.7617 23C16.1367 23 13.5117 23 10.8867 23C10.1846 22.831 9.75161 22.3935 9.58789 21.6875C9.56966 18.862 9.56966 16.0365 9.58789 13.2109C9.77741 12.4745 10.2468 12.0416 10.9961 11.9121C11.397 11.8984 11.7981 11.8939 12.1992 11.8984C12.1947 13.8946 12.1992 15.8907 12.2129 17.8867C12.2699 19.0175 12.8214 19.7968 13.8672 20.2246C14.0109 20.2696 14.1567 20.3061 14.3047 20.334C16.2274 20.3738 18.1506 20.3875 20.0742 20.375C20.0788 20.8126 20.0742 21.2501 20.0605 21.6875C19.8954 22.395 19.4624 22.8325 18.7617 23Z" fill="white"/>
</svg>
