<svg width="48" height="48" viewBox="0 0 48 48" fill="none" xmlns="http://www.w3.org/2000/svg">
<path d="M9.96613 29.5993C10.1875 29.212 10.5994 28.9729 11.0456 28.9729H36.954C37.4001 28.9729 37.812 29.212 38.0334 29.5993L46.5585 44.5182C47.0321 45.3471 46.4336 46.3783 45.4791 46.3783H2.52047C1.56588 46.3783 0.967424 45.3471 1.44103 44.5182L9.96613 29.5993Z" fill="#FF7C00"/>
<path fill-rule="evenodd" clip-rule="evenodd" d="M23.9997 31.4594C23.9997 31.4594 33.9456 23.3218 33.9456 12.4717C33.9456 7.04664 30.8375 1.62158 23.9997 1.62158C17.1618 1.62158 14.0537 7.04664 14.0537 12.4717C14.0537 23.3218 23.9997 31.4594 23.9997 31.4594ZM23.9996 14.8829C25.8306 14.8829 27.3149 13.3986 27.3149 11.5676C27.3149 9.73658 25.8306 8.25226 23.9996 8.25226C22.1686 8.25226 20.6842 9.73658 20.6842 11.5676C20.6842 13.3986 22.1686 14.8829 23.9996 14.8829Z" fill="#027DDB"/>
<path fill-rule="evenodd" clip-rule="evenodd" d="M18.3405 6.79457C17.1169 8.32002 16.5138 10.3845 16.5138 12.4859C16.5138 15.7727 17.6846 18.7634 19.1442 21.2116C19.32 21.5065 19.2235 21.888 18.9286 22.0638C18.6337 22.2397 18.2522 22.1431 18.0764 21.8482C16.5448 19.2793 15.2705 16.0678 15.2705 12.4859C15.2705 10.1652 15.9341 7.80773 17.3706 6.01669C18.8216 4.20771 21.0285 3.02026 23.9991 3.02026C24.3424 3.02026 24.6207 3.29857 24.6207 3.64189C24.6207 3.9852 24.3424 4.26351 23.9991 4.26351C21.3962 4.26351 19.5496 5.28706 18.3405 6.79457Z" fill="#AED5F3"/>
<path fill-rule="evenodd" clip-rule="evenodd" d="M11.0213 30.9975C11.3194 31.1679 11.423 31.5476 11.2526 31.8457L4.32462 43.9697H44.2805C44.6238 43.9697 44.9021 44.248 44.9021 44.5913C44.9021 44.9346 44.6238 45.2129 44.2805 45.2129H3.25346C3.03187 45.2129 2.82703 45.095 2.71581 44.9033C2.60459 44.7117 2.6038 44.4753 2.71374 44.2829L10.1732 31.2288C10.3435 30.9308 10.7232 30.8272 11.0213 30.9975Z" fill="#AED5F3"/>
<path fill-rule="evenodd" clip-rule="evenodd" d="M11.046 29.5946C10.823 29.5946 10.617 29.7141 10.5063 29.9078L1.98122 44.8267C1.74442 45.2411 2.04365 45.7567 2.52094 45.7567H45.4795C45.9568 45.7567 46.2561 45.2411 46.0192 44.8267L37.4941 29.9078C37.3835 29.7141 37.1775 29.5946 36.9544 29.5946H30.4884C30.1451 29.5946 29.8668 29.3163 29.8668 28.9729C29.8668 28.6296 30.1451 28.3513 30.4884 28.3513H36.9544C37.6236 28.3513 38.2416 28.7099 38.5736 29.291L47.0987 44.2099C47.8091 45.4531 46.9114 47 45.4795 47H2.52094C1.08905 47 0.191371 45.4531 0.901785 44.2099L9.42688 29.2909C9.75891 28.7099 10.3768 28.3513 11.046 28.3513H17.6189C17.9622 28.3513 18.2405 28.6296 18.2405 28.9729C18.2405 29.3163 17.9622 29.5946 17.6189 29.5946H11.046Z" fill="#0040A0"/>
<path fill-rule="evenodd" clip-rule="evenodd" d="M13.7341 31.5378C13.434 31.3711 13.0556 31.4792 12.8889 31.7793L9.78074 37.3739C9.67378 37.5665 9.67669 37.8012 9.78838 37.991C9.90008 38.1809 10.1039 38.2974 10.3241 38.2974H33.9458C34.2891 38.2974 34.5674 38.0191 34.5674 37.6758C34.5674 37.3325 34.2891 37.0542 33.9458 37.0542H11.3806L13.9756 32.3831C14.1424 32.083 14.0342 31.7045 13.7341 31.5378Z" fill="#AED5F3"/>
<path fill-rule="evenodd" clip-rule="evenodd" d="M32.0811 33.3243C32.0811 32.9809 31.8027 32.7026 31.4594 32.7026H15.2973C14.954 32.7026 14.6756 32.9809 14.6756 33.3243C14.6756 33.6676 14.954 33.9459 15.2973 33.9459H31.4594C31.8027 33.9459 32.0811 33.6676 32.0811 33.3243Z" fill="#AED5F3"/>
<path fill-rule="evenodd" clip-rule="evenodd" d="M34.8814 32.1631C35.1795 31.9927 35.5592 32.0963 35.7296 32.3944L40.7025 41.0971C40.8125 41.2895 40.8117 41.5258 40.7005 41.7175C40.5892 41.9091 40.3844 42.0271 40.1628 42.0271H6.59525C6.25194 42.0271 5.97363 41.7488 5.97363 41.4055C5.97363 41.0622 6.25194 40.7839 6.59525 40.7839H39.0917L34.6501 33.0112C34.4798 32.7131 34.5834 32.3334 34.8814 32.1631Z" fill="#AED5F3"/>
<path fill-rule="evenodd" clip-rule="evenodd" d="M16.9479 5.40122C15.4227 7.30283 14.6759 9.86886 14.6759 12.4717C14.6759 17.7098 17.0799 22.3279 19.5285 25.6668C20.749 27.3311 21.9703 28.6635 22.8857 29.5789C23.3431 30.0363 23.7233 30.3887 23.9877 30.6257C23.9919 30.6294 23.996 30.6332 24.0002 30.6369C24.0043 30.6332 24.0085 30.6294 24.0127 30.6257C24.2771 30.3887 24.6573 30.0363 25.1147 29.5789C26.0301 28.6635 27.2514 27.3311 28.4719 25.6668C30.9204 22.3279 33.3245 17.7098 33.3245 12.4717C33.3245 9.86886 32.5777 7.30283 31.0524 5.40122C29.5416 3.51756 27.2353 2.24324 24.0002 2.24324C20.7651 2.24324 18.4588 3.51756 16.9479 5.40122ZM24.0002 31.4595C23.6065 31.9406 23.6064 31.9404 23.6061 31.9402L23.6035 31.9381L23.5969 31.9326L23.573 31.9128C23.5525 31.8956 23.5228 31.8706 23.4846 31.838C23.4083 31.7727 23.2978 31.6768 23.158 31.5515C22.8785 31.3011 22.4816 30.933 22.0066 30.458C21.0571 29.5085 19.7919 28.1283 18.5259 26.402C16.0015 22.9596 13.4326 18.0838 13.4326 12.4717C13.4326 9.64957 14.2398 6.79054 15.9781 4.62335C17.7308 2.43821 20.3974 1 24.0002 1C27.6029 1 30.2696 2.43821 32.0223 4.62335C33.7605 6.79054 34.5678 9.64957 34.5678 12.4717C34.5678 18.0838 31.9989 22.9596 29.4744 26.402C28.2085 28.1283 26.9432 29.5085 25.9938 30.458C25.5188 30.933 25.1219 31.3011 24.8424 31.5515C24.7026 31.6768 24.5921 31.7727 24.5157 31.838C24.4775 31.8706 24.4479 31.8956 24.4274 31.9128L24.4035 31.9326L24.3969 31.9381L24.3949 31.9397C24.3947 31.9399 24.3938 31.9406 24.0002 31.4595ZM24.0002 31.4595L24.3938 31.9406C24.1648 32.1279 23.8351 32.1276 23.6061 31.9402L24.0002 31.4595Z" fill="#0040A0"/>
<path fill-rule="evenodd" clip-rule="evenodd" d="M24.0004 8.8741C22.5127 8.8741 21.3067 10.0801 21.3067 11.5678C21.3067 13.0555 22.5127 14.2615 24.0004 14.2615C25.4881 14.2615 26.6941 13.0555 26.6941 11.5678C26.6941 10.0801 25.4881 8.8741 24.0004 8.8741ZM20.0635 11.5678C20.0635 9.39349 21.8261 7.63086 24.0004 7.63086C26.1747 7.63086 27.9374 9.39349 27.9374 11.5678C27.9374 13.7421 26.1747 15.5047 24.0004 15.5047C21.8261 15.5047 20.0635 13.7421 20.0635 11.5678Z" fill="#0040A0"/>
</svg>
