<svg width="20" height="21" viewBox="0 0 20 21" fill="none" xmlns="http://www.w3.org/2000/svg">
<g id="email" clip-path="url(#clip0_852_10852)">
<g id="Group">
<path id="Vector" opacity="0.992" fill-rule="evenodd" clip-rule="evenodd" d="M19.9805 4.38379C19.9805 4.64422 19.9805 4.90461 19.9805 5.16504C19.8677 5.59793 19.6333 5.95602 19.2773 6.23926C16.543 8.06219 13.8086 9.88508 11.0742 11.708C10.345 12.1507 9.6159 12.1507 8.88672 11.708C6.15234 9.88508 3.41797 8.06219 0.683594 6.23926C0.327627 5.95602 0.0932523 5.59793 -0.0195312 5.16504C-0.0195312 4.90461 -0.0195312 4.64422 -0.0195312 4.38379C0.203217 3.60776 0.711031 3.1325 1.50391 2.95801C7.15496 2.93197 12.806 2.93197 18.457 2.95801C19.2495 3.13229 19.7573 3.60755 19.9805 4.38379Z" fill="white"/>
</g>
<g id="Group_2">
<path id="Vector_2" opacity="0.994" fill-rule="evenodd" clip-rule="evenodd" d="M-0.0195312 7.11816C2.81061 8.99102 5.63613 10.8725 8.45703 12.7627C9.47266 13.3096 10.4883 13.3096 11.5039 12.7627C14.3248 10.8725 17.1503 8.99102 19.9805 7.11816C19.9805 10.2432 19.9805 13.3682 19.9805 16.4932C19.7573 17.2694 19.2495 17.7446 18.457 17.9189C12.806 17.945 7.15496 17.945 1.50391 17.9189C0.711031 17.7445 0.203217 17.2692 -0.0195312 16.4932C-0.0195312 13.3682 -0.0195312 10.2432 -0.0195312 7.11816Z" fill="white"/>
</g>
</g>
<defs>
<clipPath id="clip0_852_10852">
<rect width="20" height="20" fill="white" transform="translate(0 0.458008)"/>
</clipPath>
</defs>
</svg>
