<svg width="24" height="24" viewBox="0 0 24 24" fill="none" xmlns="http://www.w3.org/2000/svg">
<g id="instagram (1)">
<g id="Group">
<path id="Vector" opacity="0.998" fill-rule="evenodd" clip-rule="evenodd" d="M11.2266 1.42969C11.4765 1.42969 11.7266 1.42969 11.9766 1.42969C15.4766 4.96092 18.9922 8.47655 22.5234 11.9766C22.5234 12.2109 22.5234 12.4453 22.5234 12.6797C18.7289 8.96325 14.9632 5.21325 11.2266 1.42969Z" fill="#AB08C5"/>
</g>
<g id="Group_2">
<path id="Vector_2" opacity="0.999" fill-rule="evenodd" clip-rule="evenodd" d="M11.9766 1.42969C12.1328 1.42969 12.2891 1.42969 12.4453 1.42969C15.7461 4.8008 19.0742 8.15236 22.4297 11.4844C22.4575 11.5061 22.4888 11.514 22.5234 11.5078C22.5234 11.664 22.5234 11.8203 22.5234 11.9766C18.9922 8.47655 15.4766 4.96092 11.9766 1.42969Z" fill="#A706C8"/>
</g>
<g id="Group_3">
<path id="Vector_3" opacity="0.996" fill-rule="evenodd" clip-rule="evenodd" d="M12.4453 1.4297C12.6268 1.41493 12.7987 1.43056 12.9609 1.47657C16.0842 4.67029 19.2483 7.85781 22.4531 11.0391C22.4718 11.0284 22.4796 11.0127 22.4766 10.9922C22.5226 11.1545 22.5382 11.3264 22.5234 11.5078C22.4888 11.514 22.4575 11.5061 22.4297 11.4844C19.0742 8.15237 15.7461 4.80081 12.4453 1.4297Z" fill="#A405CB"/>
</g>
<g id="Group_4">
<path id="Vector_4" opacity="0.997" fill-rule="evenodd" clip-rule="evenodd" d="M12.9609 1.47656C13.2464 1.47719 13.5277 1.50844 13.8047 1.57031C16.6485 4.44531 19.5078 7.30467 22.3828 10.1484C22.4447 10.4255 22.476 10.7067 22.4766 10.9922C22.4796 11.0127 22.4718 11.0284 22.4531 11.0391C19.2483 7.8578 16.0842 4.67028 12.9609 1.47656Z" fill="#9F04CF"/>
</g>
<g id="Group_5">
<path id="Vector_5" opacity="0.997" fill-rule="evenodd" clip-rule="evenodd" d="M10.3359 1.52344C11.8672 3.07031 13.3984 4.61719 14.9297 6.16406C14.7262 6.15286 14.523 6.1372 14.3203 6.11719C12.8359 4.61719 11.3516 3.11719 9.86719 1.61719C10.0249 1.59189 10.1812 1.56064 10.3359 1.52344Z" fill="#B80CBB"/>
</g>
<g id="Group_6">
<path id="Vector_6" opacity="0.995" fill-rule="evenodd" clip-rule="evenodd" d="M13.8047 1.57031C14.0199 1.5882 14.223 1.63508 14.4141 1.71094C17.0078 4.33594 19.6172 6.94533 22.2422 9.53906C22.318 9.73008 22.3649 9.93319 22.3828 10.1484C19.5078 7.30467 16.6485 4.44531 13.8047 1.57031Z" fill="#9A03D3"/>
</g>
<g id="Group_7">
<path id="Vector_7" opacity="0.994" fill-rule="evenodd" clip-rule="evenodd" d="M14.4141 1.71094C14.6629 1.73792 14.8973 1.80042 15.1172 1.89844C17.3983 4.25781 19.7265 6.60155 22.1016 8.92969C22.1705 9.12741 22.2174 9.33052 22.2422 9.53906C19.6172 6.94533 17.0078 4.33594 14.4141 1.71094Z" fill="#9702D5"/>
</g>
<g id="Group_8">
<path id="Vector_8" opacity="0.997" fill-rule="evenodd" clip-rule="evenodd" d="M9.86719 1.61719C11.3516 3.11719 12.8359 4.61719 14.3203 6.11719C13.9609 6.11719 13.6016 6.11719 13.2422 6.11719C11.8359 4.69533 10.4297 3.27344 9.02344 1.85156C9.29175 1.74528 9.573 1.66716 9.86719 1.61719Z" fill="#BE0EB5"/>
</g>
<g id="Group_9">
<path id="Vector_9" opacity="0.997" fill-rule="evenodd" clip-rule="evenodd" d="M9.02347 1.85156C10.4297 3.27344 11.836 4.69533 13.2422 6.11719C12.9766 6.11719 12.711 6.11719 12.4453 6.11719C11.1345 4.78289 9.81416 3.45475 8.48441 2.13281C8.46177 2.08838 8.45399 2.0415 8.46097 1.99219C8.64364 1.9261 8.83114 1.87922 9.02347 1.85156Z" fill="#C40FB0"/>
</g>
<g id="Group_10">
<path id="Vector_10" opacity="0.993" fill-rule="evenodd" clip-rule="evenodd" d="M15.1172 1.89844C15.3734 1.9578 15.6234 2.03592 15.8672 2.13281C17.8007 4.13671 19.7617 6.12108 21.75 8.08594C21.7687 8.07525 21.7765 8.05959 21.7734 8.03906C21.9094 8.32158 22.0188 8.61848 22.1016 8.92969C19.7265 6.60155 17.3983 4.25781 15.1172 1.89844Z" fill="#9301D8"/>
</g>
<g id="Group_11">
<path id="Vector_11" opacity="0.998" fill-rule="evenodd" clip-rule="evenodd" d="M8.46094 1.99219C8.45395 2.0415 8.46173 2.08838 8.48438 2.13281C9.81413 3.45475 11.1345 4.78289 12.4453 6.11719C12.1328 6.11719 11.8203 6.11719 11.5078 6.11719C10.2578 4.83595 8.99217 3.57031 7.71094 2.32031C7.94981 2.19351 8.1998 2.08413 8.46094 1.99219Z" fill="#CA11AB"/>
</g>
<g id="Group_12">
<path id="Vector_12" opacity="0.977" fill-rule="evenodd" clip-rule="evenodd" d="M15.8672 2.13281C18.6651 3.27446 20.6339 5.2432 21.7734 8.03906C21.7765 8.05959 21.7687 8.07525 21.75 8.08594C19.7617 6.12108 17.8007 4.13671 15.8672 2.13281Z" fill="#9000DB"/>
</g>
<g id="Group_13">
<path id="Vector_13" opacity="0.997" fill-rule="evenodd" clip-rule="evenodd" d="M7.71101 2.32031C8.99224 3.57031 10.2579 4.83595 11.5079 6.11719C11.2266 6.11719 10.9454 6.11719 10.6641 6.11719C9.52517 4.95473 8.37673 3.7985 7.21882 2.64844C7.19707 2.62058 7.18924 2.58932 7.19538 2.55469C7.35359 2.44973 7.52543 2.3716 7.71101 2.32031Z" fill="#D113A5"/>
</g>
<g id="Group_14">
<path id="Vector_14" opacity="0.996" fill-rule="evenodd" clip-rule="evenodd" d="M7.19531 2.55469C7.18917 2.58932 7.197 2.62058 7.21875 2.64844C8.37666 3.7985 9.52509 4.95473 10.6641 6.11719C10.3984 6.11719 10.1328 6.11719 9.86719 6.11719C8.80467 5.02345 7.72655 3.94531 6.63281 2.88281C6.80325 2.75048 6.99075 2.64111 7.19531 2.55469Z" fill="#D715A0"/>
</g>
<g id="Group_15">
<path id="Vector_15" opacity="0.997" fill-rule="evenodd" clip-rule="evenodd" d="M6.63281 2.88281C7.72655 3.94531 8.80467 5.02345 9.86719 6.11719C9.54994 6.10716 9.23742 6.13842 8.92969 6.21094C7.99458 5.19769 7.02581 4.2133 6.02344 3.25781C6.20264 3.0977 6.4058 2.9727 6.63281 2.88281Z" fill="#DE189B"/>
</g>
<g id="Group_16">
<path id="Vector_16" opacity="0.995" fill-rule="evenodd" clip-rule="evenodd" d="M6.02344 3.25781C7.02581 4.2133 7.99458 5.19769 8.92969 6.21094C8.72039 6.25467 8.51728 6.31716 8.32031 6.39844C7.43208 5.43206 6.51023 4.49455 5.55469 3.58594C5.69278 3.45407 5.84902 3.3447 6.02344 3.25781Z" fill="#E51A95"/>
</g>
<g id="Group_17">
<path id="Vector_17" opacity="0.997" fill-rule="evenodd" clip-rule="evenodd" d="M5.55469 3.58594C6.51023 4.49455 7.43208 5.43206 8.32031 6.39844C8.14092 6.48028 7.96908 6.57403 7.80469 6.67969C6.95719 5.76178 6.08222 4.86338 5.17969 3.98438C5.15184 3.96261 5.12058 3.9548 5.08594 3.96094C5.2275 3.81955 5.38378 3.69455 5.55469 3.58594Z" fill="#EA1B91"/>
</g>
<g id="Group_18">
<path id="Vector_18" opacity="0.997" fill-rule="evenodd" clip-rule="evenodd" d="M5.08594 3.96101C5.12058 3.95487 5.15184 3.96268 5.17969 3.98445C6.08222 4.86345 6.95719 5.76185 7.80469 6.67976C7.64845 6.78912 7.49217 6.89853 7.33594 7.00789C6.46092 6.11726 5.58595 5.22664 4.71094 4.33601C4.8203 4.19539 4.94531 4.07038 5.08594 3.96101Z" fill="#F01D8C"/>
</g>
<g id="Group_19">
<path id="Vector_19" opacity="0.997" fill-rule="evenodd" clip-rule="evenodd" d="M4.71094 4.33594C5.58595 5.22656 6.46092 6.11719 7.33594 7.00781C7.22658 7.14844 7.10156 7.27345 6.96094 7.38281C6.08592 6.49219 5.21095 5.60156 4.33594 4.71094C4.41406 4.53906 4.53906 4.41406 4.71094 4.33594Z" fill="#F61E87"/>
</g>
<g id="Group_20">
<path id="Vector_20" opacity="0.996" fill-rule="evenodd" clip-rule="evenodd" d="M4.33594 4.71094C5.21095 5.60156 6.08592 6.49219 6.96094 7.38281C6.83986 7.54673 6.7305 7.71863 6.63281 7.89844C6.59817 7.90458 6.56691 7.89675 6.53906 7.875C5.65462 6.98273 4.764 6.09994 3.86719 5.22656C3.99015 5.02542 4.14639 4.85358 4.33594 4.71094Z" fill="#FC2182"/>
</g>
<g id="Group_21">
<path id="Vector_21" opacity="0.995" fill-rule="evenodd" clip-rule="evenodd" d="M3.86726 5.22656C4.76407 6.09994 5.6547 6.98273 6.53914 7.875C6.56698 7.89675 6.59825 7.90458 6.63289 7.89844C6.53014 8.04141 6.45204 8.19764 6.39851 8.36719C5.44934 7.48842 4.51967 6.58219 3.60945 5.64844C3.58768 5.62059 3.57987 5.58933 3.58601 5.55469C3.64693 5.41725 3.74068 5.30784 3.86726 5.22656Z" fill="#FE2C7A"/>
</g>
<g id="Group_22">
<path id="Vector_22" opacity="0.994" fill-rule="evenodd" clip-rule="evenodd" d="M3.58594 5.55469C3.5798 5.58933 3.58761 5.62059 3.60938 5.64844C4.5196 6.58219 5.44927 7.48842 6.39844 8.36719C6.31003 8.57048 6.23189 8.77359 6.16406 8.97656C5.17842 8.00653 4.19406 7.03777 3.21094 6.07031C3.32504 5.88834 3.45003 5.7165 3.58594 5.55469Z" fill="#FE3973"/>
</g>
<g id="Group_23">
<path id="Vector_23" fill-rule="evenodd" clip-rule="evenodd" d="M9.86719 6.11706C10.1328 6.11706 10.3984 6.11706 10.6641 6.11706C10.9453 6.11706 11.2266 6.11706 11.5078 6.11706C11.8203 6.11706 12.1328 6.11706 12.4453 6.11706C12.711 6.11706 12.9765 6.11706 13.2422 6.11706C13.6016 6.11706 13.9609 6.11706 14.3203 6.11706C14.523 6.13708 14.7262 6.15273 14.9297 6.16394C16.4132 6.5537 17.3507 7.4912 17.7422 8.97644C17.8118 9.18892 17.843 9.40769 17.8359 9.63269C17.8359 9.99208 17.8359 10.3514 17.8359 10.7108C17.8359 10.9765 17.8359 11.242 17.8359 11.5077C17.8359 11.8202 17.8359 12.1327 17.8359 12.4452C17.8359 12.7264 17.8359 13.0077 17.8359 13.2889C17.8359 13.5546 17.8359 13.8202 17.8359 14.0858C17.8372 14.3372 17.8216 14.5871 17.7891 14.8358C17.7192 15.0987 17.6411 15.3643 17.5547 15.6327C17.4742 15.8089 17.3805 15.9808 17.2734 16.1483C17.1484 16.3202 17.0235 16.492 16.8984 16.6639C16.7734 16.7577 16.6641 16.867 16.5703 16.9921C16.4137 17.1016 16.2574 17.2109 16.1016 17.3202C15.9053 17.4261 15.7021 17.5199 15.4922 17.6014C15.3352 17.6485 15.1789 17.6953 15.0234 17.7421C14.7908 17.7855 14.5564 17.8167 14.3203 17.8358C14.0547 17.8358 13.7891 17.8358 13.5234 17.8358C13.3984 17.8358 13.2735 17.8358 13.1484 17.8358C13.0234 17.8358 12.8985 17.8358 12.7734 17.8358C12.6172 17.8358 12.4609 17.8358 12.3047 17.8358C12.039 17.8358 11.7735 17.8358 11.5078 17.8358C11.3672 17.8358 11.2266 17.8358 11.0859 17.8358C10.9297 17.8358 10.7734 17.8358 10.6172 17.8358C10.4766 17.8358 10.3359 17.8358 10.1953 17.8358C10.0703 17.8358 9.94533 17.8358 9.82031 17.8358C9.67969 17.8358 9.53906 17.8358 9.39844 17.8358C9.19622 17.7995 8.99311 17.7683 8.78906 17.7421C8.54203 17.6344 8.29205 17.525 8.03906 17.4139C7.41506 17.0555 6.91505 16.5711 6.53906 15.9608C6.43223 15.7002 6.33848 15.4346 6.25781 15.1639C6.21675 14.9584 6.16987 14.7553 6.11719 14.5546C6.11719 14.4139 6.11719 14.2733 6.11719 14.1327C6.11719 14.0077 6.11719 13.8827 6.11719 13.7577C6.11719 13.6171 6.11719 13.4764 6.11719 13.3358C6.11719 13.1796 6.11719 13.0233 6.11719 12.8671C6.11719 12.7264 6.11719 12.5858 6.11719 12.4452C6.11719 12.1795 6.11719 11.914 6.11719 11.6483C6.11719 11.4921 6.11719 11.3358 6.11719 11.1796C6.11719 11.0545 6.11719 10.9296 6.11719 10.8046C6.11719 10.5546 6.11719 10.3045 6.11719 10.0546C6.11719 9.91394 6.11719 9.77331 6.11719 9.63269C6.1328 9.41392 6.14845 9.1952 6.16406 8.97644C6.23189 8.77347 6.31003 8.57036 6.39844 8.36706C6.45197 8.19752 6.53006 8.04128 6.63281 7.89831C6.7305 7.7185 6.83986 7.54661 6.96094 7.38269C7.10156 7.27333 7.22658 7.14831 7.33594 7.00769C7.49217 6.89833 7.64845 6.78892 7.80469 6.67956C7.96908 6.57391 8.14092 6.48016 8.32031 6.39831C8.51728 6.31703 8.72039 6.25455 8.92969 6.21081C9.23742 6.1383 9.54994 6.10703 9.86719 6.11706Z" fill="#FEFDFD"/>
</g>
<g id="Group_24">
<path id="Vector_24" opacity="0.994" fill-rule="evenodd" clip-rule="evenodd" d="M3.21094 6.07031C4.19406 7.03777 5.17842 8.00653 6.16406 8.97656C6.14845 9.19533 6.1328 9.41405 6.11719 9.63281C5.07975 8.61881 4.0485 7.59539 3.02344 6.5625C2.99558 6.54075 2.96432 6.53292 2.92969 6.53906C3.00516 6.37031 3.09891 6.21403 3.21094 6.07031Z" fill="#FE456C"/>
</g>
<g id="Group_25">
<path id="Vector_25" opacity="0.997" fill-rule="evenodd" clip-rule="evenodd" d="M2.92969 6.53913C2.96432 6.53299 2.99557 6.54082 3.02344 6.56257C4.0485 7.59546 5.07975 8.61888 6.11719 9.63288C6.11719 9.77351 6.11719 9.91413 6.11719 10.0548C5.0078 8.96102 3.89844 7.86724 2.78906 6.77351C2.81767 6.68285 2.86455 6.60471 2.92969 6.53913Z" fill="#FE4D67"/>
</g>
<g id="Group_26">
<path id="Vector_26" opacity="0.996" fill-rule="evenodd" clip-rule="evenodd" d="M2.78906 6.77344C3.89844 7.86717 5.0078 8.96095 6.11719 10.0547C6.11719 10.3047 6.11719 10.5547 6.11719 10.8047C4.89605 9.63047 3.70857 8.42733 2.55469 7.19531C2.62166 7.0455 2.69978 6.90487 2.78906 6.77344Z" fill="#FE5861"/>
</g>
<g id="Group_27">
<path id="Vector_27" opacity="0.997" fill-rule="evenodd" clip-rule="evenodd" d="M2.55469 7.19531C3.70857 8.42733 4.89605 9.63047 6.11719 10.8047C6.11719 10.9297 6.11719 11.0547 6.11719 11.1797C4.88283 9.96094 3.64844 8.74219 2.41406 7.52344C2.42378 7.39495 2.47065 7.28559 2.55469 7.19531Z" fill="#FE605C"/>
</g>
<g id="Group_28">
<path id="Vector_28" fill-rule="evenodd" clip-rule="evenodd" d="M9.30469 7.47632C9.60839 7.42987 9.92091 7.41426 10.2422 7.42944C10.7422 7.94507 11.2422 8.46069 11.7422 8.97632C11.5178 8.99929 11.2991 9.04616 11.0859 9.11694C10.5642 8.57169 10.0329 8.03263 9.49219 7.49976C9.43158 7.47679 9.36905 7.46896 9.30469 7.47632Z" fill="#E41B96"/>
</g>
<g id="Group_29">
<path id="Vector_29" fill-rule="evenodd" clip-rule="evenodd" d="M10.2422 7.42969C10.5703 7.42969 10.8984 7.42969 11.2266 7.42969C11.7483 7.97494 12.2796 8.514 12.8203 9.04688C12.8096 9.06558 12.794 9.07336 12.7734 9.07031C12.4335 9.00291 12.0897 8.97164 11.7422 8.97656C11.2422 8.46094 10.7422 7.94531 10.2422 7.42969Z" fill="#DE189B"/>
</g>
<g id="Group_30">
<path id="Vector_30" fill-rule="evenodd" clip-rule="evenodd" d="M11.2266 7.42969C11.4922 7.42969 11.7578 7.42969 12.0234 7.42969C13.5078 8.9453 15.0078 10.4453 16.5234 11.9297C16.5234 12.1953 16.5234 12.4609 16.5234 12.7266C15.9782 12.2048 15.4391 11.6735 14.9062 11.1328C14.8875 11.1435 14.8798 11.1592 14.8828 11.1797C14.5391 10.1172 13.836 9.41405 12.7734 9.07031C12.794 9.07336 12.8096 9.06558 12.8203 9.04688C12.2796 8.514 11.7483 7.97494 11.2266 7.42969Z" fill="#D719A1"/>
</g>
<g id="Group_31">
<path id="Vector_31" fill-rule="evenodd" clip-rule="evenodd" d="M12.0234 7.42969C12.3047 7.42969 12.5859 7.42969 12.8672 7.42969C14.0703 8.66405 15.2891 9.8828 16.5234 11.0859C16.5234 11.3672 16.5234 11.6484 16.5234 11.9297C15.0078 10.4453 13.5078 8.9453 12.0234 7.42969Z" fill="#D113A5"/>
</g>
<g id="Group_32">
<path id="Vector_32" fill-rule="evenodd" clip-rule="evenodd" d="M13.8047 7.42971C15.2137 7.33263 16.1122 7.95762 16.5 9.30471C16.5234 9.58554 16.5312 9.86679 16.5234 10.1485C16.1614 9.83337 15.8333 9.48963 15.5391 9.11721C15.7254 8.67555 15.5848 8.40996 15.1172 8.32034C14.9963 8.31762 14.887 8.34888 14.7891 8.41409C14.4453 8.10157 14.1172 7.77345 13.8047 7.42971Z" fill="#C417B2"/>
</g>
<g id="Group_33">
<path id="Vector_33" fill-rule="evenodd" clip-rule="evenodd" d="M9.30469 7.4768C9.36905 7.46944 9.43158 7.47727 9.49219 7.50023C10.0329 8.03311 10.5642 8.57217 11.0859 9.11742C10.8908 9.17723 10.7033 9.25537 10.5234 9.3518C9.98602 8.79094 9.43917 8.23627 8.88281 7.68773C8.83838 7.66509 8.7915 7.65731 8.74219 7.6643C8.91023 7.5562 9.09773 7.49372 9.30469 7.4768Z" fill="#EA1E91"/>
</g>
<g id="Group_34">
<path id="Vector_34" opacity="0.997" fill-rule="evenodd" clip-rule="evenodd" d="M2.41406 7.52344C3.64844 8.74219 4.88283 9.96094 6.11719 11.1797C6.11719 11.3359 6.11719 11.4922 6.11719 11.6484C4.84538 10.4001 3.57975 9.14227 2.32031 7.875C2.29245 7.85325 2.2612 7.84542 2.22656 7.85156C2.27792 7.73287 2.34043 7.62352 2.41406 7.52344Z" fill="#FE6759"/>
</g>
<g id="Group_35">
<path id="Vector_35" fill-rule="evenodd" clip-rule="evenodd" d="M8.74219 7.6641C8.7915 7.65711 8.83837 7.66489 8.88281 7.68754C9.43917 8.23607 9.98602 8.79074 10.5234 9.3516C10.3527 9.47511 10.1808 9.60008 10.0078 9.7266C9.48858 9.13691 8.94169 8.56658 8.36719 8.01566C8.32275 7.99302 8.27588 7.98524 8.22656 7.99222C8.37422 7.84789 8.54611 7.73849 8.74219 7.6641Z" fill="#F0208C"/>
</g>
<g id="Group_36">
<path id="Vector_36" opacity="0.997" fill-rule="evenodd" clip-rule="evenodd" d="M11.2266 1.42969C14.9632 5.21325 18.7289 8.96325 22.5234 12.6797C22.499 12.9774 22.4678 13.2743 22.4297 13.5703C22.395 13.5765 22.3638 13.5686 22.3359 13.5469C20.8109 12.014 19.2796 10.4906 17.7422 8.97656C17.3507 7.49133 16.4132 6.55383 14.9297 6.16406C13.3984 4.61719 11.8672 3.07031 10.3359 1.52344C10.6328 1.49219 10.9297 1.46094 11.2266 1.42969Z" fill="#B20BBF"/>
</g>
<g id="Group_37">
<path id="Vector_37" fill-rule="evenodd" clip-rule="evenodd" d="M8.22656 7.99222C8.27588 7.98524 8.32275 7.99302 8.36719 8.01566C8.94169 8.56658 9.48858 9.13691 10.0078 9.7266C9.86719 9.83596 9.74217 9.96097 9.63281 10.1016C9.11358 9.51191 8.56669 8.94158 7.99219 8.39066C7.96434 8.36891 7.93308 8.36108 7.89844 8.36722C7.97423 8.21329 8.08359 8.08827 8.22656 7.99222Z" fill="#F62188"/>
</g>
<g id="Group_38">
<path id="Vector_38" opacity="0.998" fill-rule="evenodd" clip-rule="evenodd" d="M2.22656 7.85163C2.2612 7.84549 2.29245 7.85332 2.32031 7.87507C3.57975 9.14234 4.84538 10.4001 6.11719 11.6485C6.11719 11.9141 6.11719 12.1797 6.11719 12.4454C4.75781 11.1016 3.39844 9.7579 2.03906 8.41413C2.09212 8.22373 2.15461 8.03623 2.22656 7.85163Z" fill="#FE7153"/>
</g>
<g id="Group_39">
<path id="Vector_39" fill-rule="evenodd" clip-rule="evenodd" d="M15.5391 9.11735C15.0855 9.44444 14.773 9.34287 14.6016 8.81266C14.6332 8.6636 14.6957 8.53076 14.7891 8.41423C14.887 8.34902 14.9963 8.31776 15.1172 8.32048C15.5848 8.4101 15.7254 8.67569 15.5391 9.11735Z" fill="#FEFAFD"/>
</g>
<g id="Group_40">
<path id="Vector_40" opacity="0.997" fill-rule="evenodd" clip-rule="evenodd" d="M2.03906 8.41406C3.39844 9.75783 4.75781 11.1015 6.11719 12.4453C6.11719 12.5859 6.11719 12.7266 6.11719 12.8672C4.73602 11.5095 3.361 10.1423 1.99219 8.76562C1.96433 8.74387 1.93307 8.73605 1.89844 8.74219C1.93701 8.62561 1.98388 8.5162 2.03906 8.41406Z" fill="#FE794E"/>
</g>
<g id="Group_41">
<path id="Vector_41" fill-rule="evenodd" clip-rule="evenodd" d="M7.89844 8.36726C7.93308 8.36112 7.96434 8.36895 7.99219 8.3907C8.56669 8.94162 9.11358 9.51195 9.63281 10.1016C9.50719 10.2909 9.38222 10.4784 9.25781 10.6641C8.72906 10.0572 8.16656 9.47909 7.57031 8.92976C7.63256 8.71109 7.74192 8.52359 7.89844 8.36726Z" fill="#FC2382"/>
</g>
<g id="Group_42">
<path id="Vector_42" opacity="0.995" fill-rule="evenodd" clip-rule="evenodd" d="M1.89844 8.74226C1.93307 8.73612 1.96433 8.74395 1.99219 8.7657C3.361 10.1423 4.73602 11.5095 6.11719 12.8673C6.11719 13.0235 6.11719 13.1798 6.11719 13.336C4.66171 11.9274 3.23984 10.4899 1.85156 9.02351C1.85237 8.92671 1.86799 8.83296 1.89844 8.74226Z" fill="#FE7F4B"/>
</g>
<g id="Group_43">
<path id="Vector_43" opacity="0.996" fill-rule="evenodd" clip-rule="evenodd" d="M1.85156 9.02344C3.23984 10.4899 4.66171 11.9273 6.11719 13.3359C6.11719 13.4766 6.11719 13.6172 6.11719 13.7578C4.6735 12.3376 3.236 10.9079 1.80469 9.46875C1.77683 9.447 1.74557 9.43917 1.71094 9.44531C1.73691 9.29316 1.78379 9.15253 1.85156 9.02344Z" fill="#FE8647"/>
</g>
<g id="Group_44">
<path id="Vector_44" fill-rule="evenodd" clip-rule="evenodd" d="M11.7422 8.97658C12.0897 8.97165 12.4335 9.00292 12.7734 9.07033C13.836 9.41406 14.5391 10.1172 14.8828 11.1797C14.9584 11.5187 14.9896 11.8624 14.9766 12.211C14.9094 12.6362 14.7844 13.0425 14.6016 13.4297C14.4886 13.6081 14.3636 13.78 14.2266 13.9453C14.1172 14.086 13.9922 14.211 13.8516 14.3203C13.6623 14.446 13.4748 14.5709 13.2891 14.6953C13.0865 14.7576 12.8834 14.8202 12.6797 14.8828C12.3875 14.9534 12.0907 14.9847 11.7891 14.9766C11.4843 14.9492 11.1874 14.8867 10.8984 14.7891C9.81872 14.3028 9.17808 13.4747 8.97656 12.3047C8.97656 12.1328 8.97656 11.961 8.97656 11.7891C9.00783 11.5703 9.03905 11.3516 9.07031 11.1328C9.15684 10.9903 9.21933 10.8341 9.25781 10.6641C9.38222 10.4783 9.50719 10.2908 9.63281 10.1016C9.74217 9.96095 9.86719 9.83594 10.0078 9.72658C10.1808 9.60006 10.3527 9.47509 10.5234 9.35158C10.7033 9.25515 10.8908 9.17701 11.0859 9.1172C11.2991 9.04642 11.5178 8.99955 11.7422 8.97658Z" fill="#FFFDFD"/>
</g>
<g id="Group_45">
<path id="Vector_45" fill-rule="evenodd" clip-rule="evenodd" d="M12.8672 7.42969C13.1797 7.42969 13.4922 7.42969 13.8047 7.42969C14.1172 7.77342 14.4453 8.10155 14.7891 8.41406C14.6957 8.53059 14.6332 8.66344 14.6016 8.8125C14.773 9.3427 15.0855 9.44428 15.5391 9.11719C15.8333 9.48961 16.1614 9.83334 16.5234 10.1484C16.5234 10.461 16.5234 10.7734 16.5234 11.0859C15.2891 9.8828 14.0703 8.66405 12.8672 7.42969Z" fill="#CB13AB"/>
</g>
<g id="Group_46">
<path id="Vector_46" fill-rule="evenodd" clip-rule="evenodd" d="M7.57033 8.92969C8.16658 9.47902 8.72908 10.0571 9.25783 10.6641C9.21935 10.8341 9.15686 10.9903 9.07033 11.1328C8.55227 10.5678 8.00538 10.0365 7.42971 9.53906C7.42858 9.32391 7.47546 9.1208 7.57033 8.92969Z" fill="#FE2F7B"/>
</g>
<g id="Group_47">
<path id="Vector_47" opacity="0.999" fill-rule="evenodd" clip-rule="evenodd" d="M17.7422 8.97656C19.2796 10.4906 20.8109 12.014 22.3359 13.5469C22.3638 13.5686 22.395 13.5765 22.4297 13.5703C22.3984 13.7422 22.3672 13.914 22.3359 14.0859C20.8359 12.6015 19.3359 11.1172 17.8359 9.63281C17.843 9.40781 17.8117 9.18905 17.7422 8.97656Z" fill="#B80CBB"/>
</g>
<g id="Group_48">
<path id="Vector_48" opacity="0.997" fill-rule="evenodd" clip-rule="evenodd" d="M1.71094 9.44538C1.74557 9.43924 1.77683 9.44707 1.80469 9.46882C3.236 10.908 4.6735 12.3377 6.11719 13.7579C6.11719 13.8829 6.11719 14.0079 6.11719 14.1329C4.63281 12.6641 3.14844 11.1954 1.66406 9.72663C1.66487 9.62984 1.68049 9.53609 1.71094 9.44538Z" fill="#FE8C43"/>
</g>
<g id="Group_49">
<path id="Vector_49" opacity="0.997" fill-rule="evenodd" clip-rule="evenodd" d="M1.66427 9.72656C3.14865 11.1953 4.63302 12.6641 6.1174 14.1328C6.1174 14.2734 6.1174 14.4141 6.1174 14.5547C4.61902 13.0798 3.12683 11.5954 1.64084 10.1016C1.6182 10.0571 1.61039 10.0103 1.6174 9.96094C1.60406 9.87117 1.61969 9.79308 1.66427 9.72656Z" fill="#FE9240"/>
</g>
<g id="Group_50">
<path id="Vector_50" fill-rule="evenodd" clip-rule="evenodd" d="M7.42969 9.53906C8.00536 10.0365 8.55225 10.5678 9.07031 11.1328C9.03905 11.3516 9.00783 11.5703 8.97656 11.7891C8.46094 11.289 7.94531 10.7891 7.42969 10.2891C7.42969 10.0391 7.42969 9.78905 7.42969 9.53906Z" fill="#FE3973"/>
</g>
<g id="Group_51">
<path id="Vector_51" opacity="0.996" fill-rule="evenodd" clip-rule="evenodd" d="M1.61719 9.96094C1.61018 10.0102 1.61799 10.0571 1.64062 10.1016C3.12662 11.5954 4.61881 13.0798 6.11719 14.5547C6.16988 14.7555 6.21675 14.9586 6.25781 15.1641C6.22317 15.1702 6.19191 15.1624 6.16406 15.1406C4.62337 13.5921 3.0765 12.0531 1.52344 10.5234C1.52525 10.325 1.5565 10.1375 1.61719 9.96094Z" fill="#FE993C"/>
</g>
<g id="Group_52">
<path id="Vector_52" fill-rule="evenodd" clip-rule="evenodd" d="M13.6641 12.5859C13.671 12.5365 13.6633 12.4897 13.6406 12.4452C12.9297 11.7343 12.2188 11.0234 11.5078 10.3124C11.4634 10.2898 11.4165 10.282 11.3672 10.289C12.4911 9.97979 13.2802 10.3704 13.7344 11.4609C13.8399 11.8495 13.8165 12.2245 13.6641 12.5859Z" fill="#E92093"/>
</g>
<g id="Group_53">
<path id="Vector_53" fill-rule="evenodd" clip-rule="evenodd" d="M11.3672 10.2891C11.4165 10.2821 11.4634 10.2899 11.5078 10.3125C12.2188 11.0235 12.9297 11.7344 13.6406 12.4453C13.6633 12.4898 13.671 12.5367 13.6641 12.586C13.6306 12.7938 13.5368 12.9657 13.3828 13.1016C12.5978 12.2462 11.7854 11.4103 10.9453 10.5938C10.9175 10.572 10.8862 10.5642 10.8516 10.5703C10.9875 10.4163 11.1594 10.3226 11.3672 10.2891Z" fill="#F01F8C"/>
</g>
<g id="Group_54">
<path id="Vector_54" opacity="0.999" fill-rule="evenodd" clip-rule="evenodd" d="M17.8359 9.63281C19.3359 11.1172 20.8359 12.6015 22.3359 14.0859C22.286 14.3801 22.2078 14.6614 22.1016 14.9297C20.6797 13.5234 19.2578 12.1172 17.8359 10.7109C17.8359 10.3515 17.8359 9.9922 17.8359 9.63281Z" fill="#BE0EB5"/>
</g>
<g id="Group_55">
<path id="Vector_55" fill-rule="evenodd" clip-rule="evenodd" d="M10.8516 10.5704C10.8862 10.5642 10.9175 10.5721 10.9453 10.5938C11.7854 11.4103 12.5978 12.2463 13.3828 13.1016C13.2735 13.2423 13.1484 13.3673 13.0078 13.4766C12.2228 12.6213 11.4104 11.7853 10.5703 10.9688C10.5425 10.9471 10.5112 10.9392 10.4766 10.9454C10.5859 10.8048 10.7109 10.6797 10.8516 10.5704Z" fill="#F61F87"/>
</g>
<g id="Group_56">
<path id="Vector_56" fill-rule="evenodd" clip-rule="evenodd" d="M7.42969 10.2891C7.94531 10.7891 8.46094 11.289 8.97656 11.7891C8.97656 11.961 8.97656 12.1328 8.97656 12.3047C8.98392 12.369 8.97609 12.4316 8.95312 12.4922C8.45147 11.9827 7.94367 11.4827 7.42969 10.9922C7.42969 10.7578 7.42969 10.5234 7.42969 10.2891Z" fill="#FE456C"/>
</g>
<g id="Group_57">
<path id="Vector_57" opacity="0.997" fill-rule="evenodd" clip-rule="evenodd" d="M17.8359 10.7109C19.2578 12.1172 20.6797 13.5234 22.1016 14.9297C22.0755 15.1484 22.013 15.3515 21.9141 15.5391C20.556 14.1966 19.1966 12.8528 17.8359 11.5078C17.8359 11.2422 17.8359 10.9766 17.8359 10.7109Z" fill="#C40FB0"/>
</g>
<g id="Group_58">
<path id="Vector_58" opacity="0.998" fill-rule="evenodd" clip-rule="evenodd" d="M1.52346 10.5234C3.07652 12.0531 4.62339 13.5921 6.16408 15.1406C6.19192 15.1624 6.22319 15.1702 6.25783 15.1641C6.3385 15.4347 6.43225 15.7003 6.53908 15.9609C4.85158 14.289 3.16408 12.6172 1.47658 10.9453C1.46552 10.7996 1.48115 10.659 1.52346 10.5234Z" fill="#FEA038"/>
</g>
<g id="Group_59">
<path id="Vector_59" opacity="0.997" fill-rule="evenodd" clip-rule="evenodd" d="M1.47635 10.9453C3.16385 12.6172 4.85135 14.289 6.53885 15.9609C6.91484 16.5713 7.41485 17.0557 8.03885 17.4141C8.03271 17.4487 8.04054 17.48 8.06229 17.5078C9.72017 19.1579 11.3686 20.8141 13.0076 22.4766C12.8563 22.5194 12.7001 22.535 12.5389 22.5234C8.85134 18.8047 5.14821 15.1016 1.42948 11.4141C1.4179 11.2529 1.43352 11.0966 1.47635 10.9453Z" fill="#FEA535"/>
</g>
<g id="Group_60">
<path id="Vector_60" fill-rule="evenodd" clip-rule="evenodd" d="M10.4766 10.9454C10.5112 10.9392 10.5425 10.9471 10.5703 10.9688C11.4104 11.7853 12.2228 12.6213 13.0078 13.4766C12.8094 13.6158 12.5906 13.7095 12.3516 13.7579C11.6916 13.0275 11.0041 12.3166 10.2891 11.6251C10.2612 11.6033 10.23 11.5955 10.1953 11.6016C10.2381 11.36 10.3318 11.1412 10.4766 10.9454Z" fill="#FC2382"/>
</g>
<g id="Group_61">
<path id="Vector_61" opacity="0.996" fill-rule="evenodd" clip-rule="evenodd" d="M17.8359 11.5078C19.1966 12.8528 20.556 14.1966 21.9141 15.5391C21.8562 15.7914 21.7625 16.0258 21.6328 16.2422C20.3828 14.961 19.1172 13.6953 17.8359 12.4453C17.8359 12.1328 17.8359 11.8203 17.8359 11.5078Z" fill="#CA11AB"/>
</g>
<g id="Group_62">
<path id="Vector_62" fill-rule="evenodd" clip-rule="evenodd" d="M16.5236 12.7266C16.5236 13.0547 16.5236 13.3828 16.5236 13.7109C16.008 13.2109 15.4923 12.711 14.9767 12.2109C14.9898 11.8624 14.9585 11.5186 14.883 11.1797C14.8799 11.1592 14.8877 11.1435 14.9064 11.1328C15.4393 11.6735 15.9783 12.2048 16.5236 12.7266Z" fill="#DE179B"/>
</g>
<g id="Group_63">
<path id="Vector_63" opacity="0.999" fill-rule="evenodd" clip-rule="evenodd" d="M1.42969 11.4141C5.14842 15.1016 8.85155 18.8047 12.5391 22.5234C12.3828 22.5234 12.2265 22.5234 12.0703 22.5234C8.53908 18.9609 4.99219 15.414 1.42969 11.8828C1.42969 11.7266 1.42969 11.5703 1.42969 11.4141Z" fill="#FEAC31"/>
</g>
<g id="Group_64">
<path id="Vector_64" fill-rule="evenodd" clip-rule="evenodd" d="M7.42969 11.7891C9.02344 13.3515 10.6016 14.9297 12.1641 16.5234C12.039 16.5234 11.9141 16.5234 11.7891 16.5234C10.3515 15.0547 8.89842 13.6016 7.42969 12.1641C7.42969 12.039 7.42969 11.9141 7.42969 11.7891Z" fill="#FE5A60"/>
</g>
<g id="Group_65">
<path id="Vector_65" opacity="0.999" fill-rule="evenodd" clip-rule="evenodd" d="M1.42969 11.8828C4.99219 15.414 8.53908 18.9609 12.0703 22.5234C11.8672 22.5234 11.664 22.5234 11.4609 22.5234C8.15072 19.1351 4.80698 15.7757 1.42969 12.4453C1.42969 12.2578 1.42969 12.0703 1.42969 11.8828Z" fill="#FEB12D"/>
</g>
<g id="Group_66">
<path id="Vector_66" fill-rule="evenodd" clip-rule="evenodd" d="M10.1955 11.6016C10.2302 11.5955 10.2614 11.6033 10.2893 11.6251C11.0044 12.3166 11.6918 13.0275 12.3518 13.7579C11.1733 13.8832 10.4468 13.3676 10.1721 12.211C10.1361 12.0038 10.1439 11.8007 10.1955 11.6016Z" fill="#FE337B"/>
</g>
<g id="Group_67">
<path id="Vector_67" fill-rule="evenodd" clip-rule="evenodd" d="M7.42969 12.1641C8.89842 13.6016 10.3515 15.0547 11.7891 16.5234C11.664 16.5234 11.5391 16.5234 11.4141 16.5234C10.1016 15.1797 8.77345 13.8516 7.42969 12.5391C7.42969 12.414 7.42969 12.2891 7.42969 12.1641Z" fill="#FE605C"/>
</g>
<g id="Group_68">
<path id="Vector_68" opacity="0.998" fill-rule="evenodd" clip-rule="evenodd" d="M17.8359 12.4453C19.1172 13.6953 20.3828 14.961 21.6328 16.2422C21.5896 16.4203 21.5115 16.5765 21.3984 16.7109C21.3695 16.7161 21.3461 16.7318 21.3281 16.7578C20.1703 15.5921 19.0062 14.4359 17.8359 13.2891C17.8359 13.0078 17.8359 12.7266 17.8359 12.4453Z" fill="#D113A5"/>
</g>
<g id="Group_69">
<path id="Vector_69" opacity="0.995" fill-rule="evenodd" clip-rule="evenodd" d="M1.4297 12.4453C4.80699 15.7757 8.15073 19.1351 11.4609 22.5234C11.2949 22.5381 11.1387 22.5225 10.9922 22.4766C7.83596 19.2891 4.66407 16.1172 1.47657 12.9609C1.43056 12.7987 1.41493 12.6268 1.4297 12.4453Z" fill="#FEB82A"/>
</g>
<g id="Group_70">
<path id="Vector_70" fill-rule="evenodd" clip-rule="evenodd" d="M7.42969 12.5391C8.77345 13.8516 10.1016 15.1797 11.4141 16.5234C11.2578 16.5234 11.1015 16.5234 10.9453 16.5234C9.78905 15.336 8.61717 14.1641 7.42969 13.0078C7.42969 12.8516 7.42969 12.6953 7.42969 12.5391Z" fill="#FE6659"/>
</g>
<g id="Group_71">
<path id="Vector_71" fill-rule="evenodd" clip-rule="evenodd" d="M14.9766 12.2109C15.4922 12.711 16.0078 13.2109 16.5234 13.7109C16.5312 13.977 16.5234 14.2426 16.5 14.5078C16.4795 14.7628 16.4092 14.9971 16.2891 15.2109C16.296 15.1616 16.2883 15.1147 16.2656 15.0703C15.7171 14.514 15.1624 13.9671 14.6016 13.4297C14.7844 13.0425 14.9094 12.6362 14.9766 12.2109Z" fill="#E81D93"/>
</g>
<g id="Group_72">
<path id="Vector_72" opacity="0.997" fill-rule="evenodd" clip-rule="evenodd" d="M1.47648 12.9609C4.66398 16.1172 7.83587 19.2891 10.9921 22.4766C10.7569 22.4713 10.5225 22.4556 10.289 22.4297C10.3086 22.3958 10.3398 22.3724 10.3827 22.3594C7.43579 19.4046 4.48267 16.4593 1.52335 13.5234C1.48716 13.3382 1.47154 13.1507 1.47648 12.9609Z" fill="#FEBE26"/>
</g>
<g id="Group_73">
<path id="Vector_73" fill-rule="evenodd" clip-rule="evenodd" d="M7.42969 13.0078C8.61717 14.1641 9.78905 15.336 10.9453 16.5234C10.6797 16.5234 10.4141 16.5234 10.1484 16.5234C9.25781 15.6015 8.35158 14.6953 7.42969 13.8047C7.42969 13.539 7.42969 13.2735 7.42969 13.0078Z" fill="#FE7153"/>
</g>
<g id="Group_74">
<path id="Vector_74" fill-rule="evenodd" clip-rule="evenodd" d="M14.6016 13.4297C15.1624 13.9671 15.7171 14.514 16.2656 15.0703C16.2883 15.1148 16.296 15.1616 16.2891 15.2109C16.23 15.3762 16.1363 15.5168 16.0078 15.6328C15.4391 15.0876 14.8766 14.5329 14.3203 13.9688C14.2925 13.947 14.2612 13.9392 14.2266 13.9453C14.3636 13.78 14.4886 13.6081 14.6016 13.4297Z" fill="#F01F8C"/>
</g>
<g id="Group_75">
<path id="Vector_75" opacity="0.996" fill-rule="evenodd" clip-rule="evenodd" d="M17.8359 13.2891C19.0062 14.4359 20.1703 15.5921 21.3281 16.7578C21.3461 16.7318 21.3695 16.7161 21.3984 16.7109C21.3247 16.9369 21.2153 17.14 21.0703 17.3203C20.0078 16.2266 18.9297 15.1485 17.8359 14.0859C17.8359 13.8203 17.8359 13.5547 17.8359 13.2891Z" fill="#D715A0"/>
</g>
<g id="Group_76">
<path id="Vector_76" opacity="0.996" fill-rule="evenodd" clip-rule="evenodd" d="M1.52344 13.5234C4.48275 16.4593 7.43587 19.4046 10.3828 22.3594C10.3399 22.3724 10.3087 22.3958 10.2891 22.4297C10.0972 22.3824 9.9097 22.3356 9.72656 22.2891C7.04034 19.6185 4.35283 16.9466 1.66406 14.2734C1.5972 14.0287 1.55032 13.7787 1.52344 13.5234Z" fill="#FEC422"/>
</g>
<g id="Group_77">
<path id="Vector_77" fill-rule="evenodd" clip-rule="evenodd" d="M7.42969 13.8047C8.35158 14.6953 9.25781 15.6015 10.1484 16.5234C10.0078 16.5234 9.86719 16.5234 9.72656 16.5234C8.97656 15.7422 8.21095 14.9766 7.42969 14.2266C7.42969 14.0859 7.42969 13.9453 7.42969 13.8047Z" fill="#FE794E"/>
</g>
<g id="Group_78">
<path id="Vector_78" fill-rule="evenodd" clip-rule="evenodd" d="M14.2266 13.9454C14.2612 13.9392 14.2925 13.9471 14.3203 13.9688C14.8766 14.533 15.4391 15.0877 16.0078 15.6329C15.9151 15.8194 15.7745 15.96 15.5859 16.0548C15.0667 15.4651 14.5198 14.8947 13.9453 14.3438C13.9175 14.3221 13.8862 14.3142 13.8516 14.3204C13.9922 14.211 14.1172 14.086 14.2266 13.9454Z" fill="#F62188"/>
</g>
<g id="Group_79">
<path id="Vector_79" fill-rule="evenodd" clip-rule="evenodd" d="M7.42969 14.2266C8.21095 14.9766 8.97656 15.7422 9.72656 16.5234C8.32045 16.3986 7.55484 15.633 7.42969 14.2266Z" fill="#FE824B"/>
</g>
<g id="Group_80">
<path id="Vector_80" fill-rule="evenodd" clip-rule="evenodd" d="M13.8516 14.3204C13.8862 14.3142 13.9175 14.3221 13.9453 14.3438C14.5198 14.8947 15.0667 15.4651 15.5859 16.0548C15.4294 16.2114 15.2419 16.3207 15.0234 16.3829C14.4741 15.7866 13.896 15.2241 13.2891 14.6954C13.4748 14.571 13.6623 14.446 13.8516 14.3204Z" fill="#FC2382"/>
</g>
<g id="Group_81">
<path id="Vector_81" opacity="0.998" fill-rule="evenodd" clip-rule="evenodd" d="M17.8362 14.0859C18.9299 15.1485 20.008 16.2266 21.0705 17.3203C20.9806 17.5473 20.8557 17.7505 20.6955 17.9297C19.7441 16.9547 18.7831 15.986 17.8127 15.0234C17.7898 14.9628 17.7819 14.9003 17.7893 14.8359C17.8218 14.5873 17.8375 14.3373 17.8362 14.0859Z" fill="#DE179B"/>
</g>
<g id="Group_82">
<path id="Vector_82" fill-rule="evenodd" clip-rule="evenodd" d="M7.42969 10.9922C7.94367 11.4827 8.45147 11.9827 8.95312 12.4922C8.97609 12.4316 8.98392 12.369 8.97656 12.3047C9.17808 13.4747 9.81872 14.3028 10.8984 14.7891C10.8779 14.786 10.8623 14.7938 10.8516 14.8125C11.4235 15.3766 11.986 15.947 12.5391 16.5234C12.414 16.5234 12.2891 16.5234 12.1641 16.5234C10.6016 14.9297 9.02344 13.3515 7.42969 11.7891C7.42969 11.5234 7.42969 11.2578 7.42969 10.9922Z" fill="#FE5465"/>
</g>
<g id="Group_83">
<path id="Vector_83" opacity="0.993" fill-rule="evenodd" clip-rule="evenodd" d="M1.66406 14.2734C4.35283 16.9466 7.04034 19.6185 9.72656 22.2891C9.39295 22.233 9.06483 22.1549 8.74219 22.0547C6.51956 19.7617 4.26958 17.4883 1.99219 15.2344C1.96433 15.2126 1.93307 15.2048 1.89844 15.2109C1.80567 14.9024 1.72755 14.5898 1.66406 14.2734Z" fill="#FECB1F"/>
</g>
<g id="Group_84">
<path id="Vector_84" fill-rule="evenodd" clip-rule="evenodd" d="M13.2891 14.6953C13.896 15.2241 14.4741 15.7866 15.0234 16.3828C14.7964 16.4595 14.562 16.5063 14.3203 16.5234C13.7878 15.9597 13.2409 15.4128 12.6797 14.8828C12.8834 14.8201 13.0865 14.7576 13.2891 14.6953Z" fill="#FE2F7A"/>
</g>
<g id="Group_85">
<path id="Vector_85" fill-rule="evenodd" clip-rule="evenodd" d="M10.8984 14.7892C11.1874 14.8869 11.4843 14.9494 11.7891 14.9767C12.2891 15.4923 12.789 16.008 13.2891 16.5236C13.0391 16.5236 12.789 16.5236 12.5391 16.5236C11.986 15.9471 11.4235 15.3768 10.8516 14.8127C10.8623 14.794 10.8779 14.7862 10.8984 14.7892Z" fill="#FE4A6A"/>
</g>
<g id="Group_86">
<path id="Vector_86" fill-rule="evenodd" clip-rule="evenodd" d="M12.6797 14.8828C13.2409 15.4128 13.7878 15.9597 14.3203 16.5234C13.9766 16.5234 13.6328 16.5234 13.2891 16.5234C12.789 16.0078 12.2891 15.4922 11.7891 14.9766C12.0907 14.9847 12.3875 14.9534 12.6797 14.8828Z" fill="#FE3C72"/>
</g>
<g id="Group_87">
<path id="Vector_87" opacity="0.992" fill-rule="evenodd" clip-rule="evenodd" d="M1.89844 15.211C1.93307 15.2049 1.96433 15.2127 1.99219 15.2344C4.26958 17.4883 6.51956 19.7618 8.74219 22.0548C8.41617 21.9539 8.10366 21.8289 7.80469 21.6798C5.98987 19.8181 4.14613 17.9899 2.27344 16.1954C2.13542 15.8724 2.01042 15.5443 1.89844 15.211Z" fill="#FED11B"/>
</g>
<g id="Group_88">
<path id="Vector_88" opacity="0.997" fill-rule="evenodd" clip-rule="evenodd" d="M17.7891 14.8359C17.7817 14.9003 17.7895 14.9628 17.8125 15.0234C18.7829 15.986 19.7438 16.9547 20.6953 17.9297C20.6084 18.1041 20.499 18.2603 20.3672 18.3984C19.4586 17.4429 18.5211 16.521 17.5547 15.6328C17.6411 15.3644 17.7192 15.0988 17.7891 14.8359Z" fill="#E51B95"/>
</g>
<g id="Group_89">
<path id="Vector_89" opacity="0.997" fill-rule="evenodd" clip-rule="evenodd" d="M17.5547 15.6328C18.5211 16.521 19.4586 17.4429 20.3672 18.3984C20.2586 18.5693 20.1336 18.7256 19.9922 18.8672C19.1447 17.9493 18.2697 17.0509 17.3672 16.1719C17.3393 16.1501 17.3081 16.1423 17.2734 16.1484C17.3805 15.981 17.4743 15.8091 17.5547 15.6328Z" fill="#EA1B91"/>
</g>
<g id="Group_90">
<path id="Vector_90" opacity="0.997" fill-rule="evenodd" clip-rule="evenodd" d="M17.2734 16.1485C17.3081 16.1424 17.3393 16.1502 17.3672 16.1719C18.2697 17.0509 19.1447 17.9494 19.9922 18.8673C19.8828 19.0079 19.7578 19.1329 19.6172 19.2423C18.7516 18.4001 17.8922 17.5486 17.0391 16.6876C16.9946 16.6649 16.9478 16.6572 16.8984 16.6641C17.0235 16.4922 17.1484 16.3204 17.2734 16.1485Z" fill="#F01D8C"/>
</g>
<g id="Group_91">
<path id="Vector_91" opacity="0.982" fill-rule="evenodd" clip-rule="evenodd" d="M2.27344 16.1953C4.14613 17.9899 5.98988 19.818 7.80469 21.6797C5.24602 20.5741 3.40224 18.746 2.27344 16.1953Z" fill="#FED817"/>
</g>
<g id="Group_92">
<path id="Vector_92" opacity="0.997" fill-rule="evenodd" clip-rule="evenodd" d="M16.8984 16.6641C16.9478 16.6571 16.9946 16.6649 17.0391 16.6875C17.8922 17.5485 18.7516 18.4001 19.6172 19.2422C19.539 19.4141 19.4141 19.5391 19.2422 19.6172C18.3516 18.7422 17.4609 17.8672 16.5703 16.9922C16.6641 16.8672 16.7734 16.7578 16.8984 16.6641Z" fill="#F61E87"/>
</g>
<g id="Group_93">
<path id="Vector_93" opacity="0.995" fill-rule="evenodd" clip-rule="evenodd" d="M16.5703 16.9922C17.4609 17.8672 18.3516 18.7422 19.2422 19.6172C19.1142 19.7922 18.9579 19.9328 18.7734 20.0391C17.8477 19.1838 16.9415 18.3009 16.0547 17.3906C16.0807 17.3727 16.0964 17.3492 16.1016 17.3203C16.2574 17.211 16.4137 17.1017 16.5703 16.9922Z" fill="#FC2182"/>
</g>
<g id="Group_94">
<path id="Vector_94" opacity="0.994" fill-rule="evenodd" clip-rule="evenodd" d="M16.1016 17.3203C16.0964 17.3492 16.0808 17.3727 16.0548 17.3906C16.9415 18.3009 17.8478 19.1838 18.7735 20.0391C18.6293 20.2128 18.4575 20.3535 18.2579 20.4609C17.3533 19.5329 16.4392 18.611 15.5157 17.6953C15.4939 17.6675 15.4861 17.6362 15.4923 17.6016C15.7022 17.52 15.9054 17.4262 16.1016 17.3203Z" fill="#FE2D7A"/>
</g>
<g id="Group_95">
<path id="Vector_95" opacity="0.996" fill-rule="evenodd" clip-rule="evenodd" d="M8.03913 17.4141C8.29212 17.5251 8.5421 17.6345 8.78913 17.7422C10.336 19.3047 11.8829 20.8672 13.4298 22.4297C13.2942 22.472 13.1536 22.4876 13.0079 22.4766C11.3689 20.8141 9.72045 19.1579 8.06257 17.5078C8.04082 17.48 8.03299 17.4487 8.03913 17.4141Z" fill="#FE9F39"/>
</g>
<g id="Group_96">
<path id="Vector_96" opacity="0.997" fill-rule="evenodd" clip-rule="evenodd" d="M15.4922 17.6016C15.486 17.6362 15.4939 17.6675 15.5156 17.6953C16.4392 18.611 17.3532 19.5329 18.2578 20.4609C18.1626 20.5557 18.0532 20.6339 17.9297 20.6953C16.9259 19.7619 15.9415 18.801 14.9766 17.8125C15.0026 17.7945 15.0182 17.7711 15.0234 17.7422C15.1789 17.6955 15.3352 17.6486 15.4922 17.6016Z" fill="#FE3A73"/>
</g>
<g id="Group_97">
<path id="Vector_97" opacity="0.997" fill-rule="evenodd" clip-rule="evenodd" d="M8.78906 17.7422C8.99311 17.7684 9.19622 17.7996 9.39844 17.8359C10.8656 19.3265 12.3421 20.8109 13.8281 22.2891C13.8499 22.3169 13.8577 22.3482 13.8516 22.3828C13.713 22.4137 13.5724 22.4293 13.4297 22.4297C11.8828 20.8672 10.3359 19.3047 8.78906 17.7422Z" fill="#FE993C"/>
</g>
<g id="Group_98">
<path id="Vector_98" opacity="0.998" fill-rule="evenodd" clip-rule="evenodd" d="M9.39844 17.8359C9.53906 17.8359 9.67969 17.8359 9.82031 17.8359C11.289 19.3203 12.7578 20.8047 14.2266 22.2891C14.1112 22.3374 13.9862 22.3687 13.8516 22.3828C13.8577 22.3482 13.8499 22.3169 13.8281 22.2891C12.3421 20.8109 10.8656 19.3265 9.39844 17.8359Z" fill="#FE9240"/>
</g>
<g id="Group_99">
<path id="Vector_99" opacity="0.997" fill-rule="evenodd" clip-rule="evenodd" d="M9.82031 17.8359C9.94533 17.8359 10.0703 17.8359 10.1953 17.8359C11.6484 19.3047 13.1016 20.7735 14.5547 22.2422C14.4466 22.2653 14.3372 22.2809 14.2266 22.2891C12.7578 20.8047 11.289 19.3203 9.82031 17.8359Z" fill="#FE8C43"/>
</g>
<g id="Group_100">
<path id="Vector_100" opacity="0.995" fill-rule="evenodd" clip-rule="evenodd" d="M10.1953 17.8359C10.3359 17.8359 10.4766 17.8359 10.6172 17.8359C12.0258 19.2914 13.4632 20.7133 14.9297 22.1016C14.8135 22.1623 14.6885 22.2091 14.5547 22.2422C13.1016 20.7735 11.6484 19.3047 10.1953 17.8359Z" fill="#FE8647"/>
</g>
<g id="Group_101">
<path id="Vector_101" opacity="0.995" fill-rule="evenodd" clip-rule="evenodd" d="M10.6172 17.8359C10.7734 17.8359 10.9297 17.8359 11.0859 17.8359C12.4609 19.2422 13.8516 20.6328 15.2578 22.0078C15.1634 22.0746 15.054 22.1058 14.9297 22.1016C13.4632 20.7133 12.0258 19.2914 10.6172 17.8359Z" fill="#FE7F4B"/>
</g>
<g id="Group_102">
<path id="Vector_102" opacity="0.997" fill-rule="evenodd" clip-rule="evenodd" d="M11.0859 17.8359C11.2266 17.8359 11.3672 17.8359 11.5078 17.8359C12.8528 19.2122 14.2122 20.5716 15.5859 21.9141C15.4828 21.964 15.3734 21.9953 15.2578 22.0078C13.8516 20.6328 12.4609 19.2422 11.0859 17.8359Z" fill="#FE794E"/>
</g>
<g id="Group_103">
<path id="Vector_103" opacity="0.998" fill-rule="evenodd" clip-rule="evenodd" d="M11.5078 17.8359C11.7735 17.8359 12.039 17.8359 12.3047 17.8359C13.5703 19.1328 14.8515 20.4141 16.1484 21.6797C15.9721 21.7752 15.7846 21.8533 15.5859 21.9141C14.2122 20.5716 12.8528 19.2122 11.5078 17.8359Z" fill="#FE6F54"/>
</g>
<g id="Group_104">
<path id="Vector_104" opacity="0.996" fill-rule="evenodd" clip-rule="evenodd" d="M12.3047 17.8359C12.4609 17.8359 12.6172 17.8359 12.7734 17.8359C13.9922 19.0703 15.2109 20.3047 16.4297 21.5391C16.3509 21.6098 16.2571 21.6566 16.1484 21.6797C14.8515 20.4141 13.5703 19.1328 12.3047 17.8359Z" fill="#FE6759"/>
</g>
<g id="Group_105">
<path id="Vector_105" opacity="0.997" fill-rule="evenodd" clip-rule="evenodd" d="M12.7734 17.8359C12.8985 17.8359 13.0234 17.8359 13.1484 17.8359C14.3203 19.0391 15.5078 20.2266 16.7109 21.3984C16.6448 21.494 16.551 21.5409 16.4297 21.5391C15.2109 20.3047 13.9922 19.0703 12.7734 17.8359Z" fill="#FE605C"/>
</g>
<g id="Group_106">
<path id="Vector_106" opacity="0.997" fill-rule="evenodd" clip-rule="evenodd" d="M13.1484 17.8359C13.2735 17.8359 13.3984 17.8359 13.5234 17.8359C14.664 18.9922 15.8047 20.1484 16.9453 21.3047C16.8727 21.3488 16.7946 21.38 16.7109 21.3984C15.5078 20.2266 14.3203 19.0391 13.1484 17.8359Z" fill="#FE5A60"/>
</g>
<g id="Group_107">
<path id="Vector_107" opacity="0.997" fill-rule="evenodd" clip-rule="evenodd" d="M13.5234 17.8359C13.7891 17.8359 14.0547 17.8359 14.3203 17.8359C15.3343 18.8734 16.3577 19.9046 17.3906 20.9297C17.4124 20.9575 17.4202 20.9888 17.4141 21.0234C17.275 21.1401 17.1188 21.2338 16.9453 21.3047C15.8047 20.1484 14.664 18.9922 13.5234 17.8359Z" fill="#FE4F66"/>
</g>
<g id="Group_108">
<path id="Vector_108" opacity="0.994" fill-rule="evenodd" clip-rule="evenodd" d="M15.0234 17.7422C15.0182 17.7711 15.0026 17.7945 14.9766 17.8125C15.9415 18.801 16.9259 19.7619 17.9297 20.6953C17.7706 20.8229 17.5987 20.9322 17.4141 21.0234C17.4202 20.9888 17.4124 20.9575 17.3906 20.9297C16.3577 19.9046 15.3343 18.8734 14.3203 17.8359C14.5564 17.8168 14.7908 17.7856 15.0234 17.7422Z" fill="#FE456C"/>
</g>
</g>
</svg>
