<svg width="20" height="21" viewBox="0 0 20 21" fill="none" xmlns="http://www.w3.org/2000/svg">
<g id="maps-and-flags" clip-path="url(#clip0_852_10965)">
<g id="Group">
<path id="Vector" opacity="0.989" fill-rule="evenodd" clip-rule="evenodd" d="M9.23811 0.438477C9.73292 0.438477 10.2277 0.438477 10.7225 0.438477C13.5009 0.840673 15.4866 2.31203 16.6795 4.85254C17.244 6.25887 17.3743 7.70418 17.0701 9.18848C16.6776 10.7434 16.0787 12.2148 15.2733 13.6025C13.9971 15.79 12.5387 17.8473 10.8983 19.7744C10.7003 20.031 10.4725 20.2523 10.2147 20.4385C10.0584 20.4385 9.90217 20.4385 9.74592 20.4385C9.48811 20.2523 9.26026 20.031 9.06233 19.7744C7.4219 17.8473 5.96354 15.79 4.68733 13.6025C3.88189 12.2148 3.28294 10.7434 2.89046 9.18848C2.38489 6.34074 3.21172 3.96445 5.37092 2.05957C6.50604 1.15351 7.7951 0.613143 9.23811 0.438477ZM9.51155 4.07129C11.1114 3.96941 12.3288 4.59441 13.1639 5.94629C13.9267 7.60102 13.6728 9.07887 12.4022 10.3799C11.1118 11.423 9.71858 11.5792 8.22249 10.8486C6.7669 9.9225 6.17444 8.6009 6.44514 6.88379C6.89014 5.3123 7.91229 4.3748 9.51155 4.07129Z" fill="white"/>
</g>
</g>
<defs>
<clipPath id="clip0_852_10965">
<rect width="20" height="20" fill="white" transform="translate(0 0.458008)"/>
</clipPath>
</defs>
</svg>
