<svg width="20" height="21" viewBox="0 0 20 21" fill="none" xmlns="http://www.w3.org/2000/svg">
<path opacity="0.963" fill-rule="evenodd" clip-rule="evenodd" d="M9.74629 1.06354C12.9992 1.05272 15.6098 2.32876 17.5783 4.89167C18.8338 6.64034 19.4198 8.59347 19.3361 10.751C19.1711 11.0842 18.9041 11.208 18.5353 11.1221C18.2581 11.0175 18.1084 10.8157 18.0861 10.5167C17.9895 7.28605 16.5507 4.87069 13.7697 3.27058C12.5057 2.63231 11.1646 2.30679 9.74629 2.29401C9.39543 2.11928 9.27172 1.83934 9.37519 1.45417C9.45418 1.27761 9.57789 1.1474 9.74629 1.06354Z" fill="white"/>
<path opacity="0.989" fill-rule="evenodd" clip-rule="evenodd" d="M3.57422 3.44625C4.05492 3.41123 4.49762 3.52191 4.90234 3.77829C5.67707 4.50094 6.42578 5.24965 7.14844 6.02438C7.60992 6.79879 7.58387 7.55403 7.07031 8.29C6.7182 8.63563 6.37313 8.98719 6.03516 9.34469C7.33723 11.402 9.01692 13.0817 11.0742 14.3838C11.4317 14.0458 11.7833 13.7007 12.1289 13.3486C12.9669 12.7834 13.7872 12.8094 14.5898 13.4267C15.2876 14.1114 15.9712 14.8081 16.6406 15.5166C17.1216 16.3459 17.0696 17.1402 16.4844 17.8994C16.1393 18.2444 15.7943 18.5895 15.4492 18.9345C14.7259 19.51 13.899 19.816 12.9688 19.8525C11.809 19.8443 10.6957 19.6034 9.62891 19.1298C7.75547 18.2813 6.09531 17.129 4.64844 15.6728C3.23923 14.2613 2.11944 12.6466 1.28906 10.8291C0.841477 9.78739 0.58757 8.70016 0.527344 7.56735C0.559953 6.57055 0.891984 5.69164 1.52344 4.93063C1.9087 4.53231 2.30584 4.1482 2.71484 3.77829C2.98706 3.61618 3.27352 3.50551 3.57422 3.44625Z" fill="white"/>
<path opacity="0.96" fill-rule="evenodd" clip-rule="evenodd" d="M10.1757 5.009C12.145 4.98111 13.6619 5.78837 14.7265 7.43087C15.2371 8.31447 15.4584 9.26498 15.3906 10.2824C15.2004 10.6799 14.8945 10.8036 14.4726 10.6535C14.2798 10.5482 14.1691 10.3854 14.1406 10.1652C14.0865 8.41916 13.2597 7.20169 11.6601 6.51291C11.1775 6.35435 10.6827 6.26322 10.1757 6.23947C9.75981 6.00177 9.66215 5.66974 9.88274 5.24337C9.96532 5.14099 10.063 5.06287 10.1757 5.009Z" fill="white"/>
</svg>
