<svg width="24" height="24" viewBox="0 0 24 24" fill="none" xmlns="http://www.w3.org/2000/svg">
<g id="tik-tok" clip-path="url(#clip0_834_9625)">
<g id="Group">
<path id="Vector" opacity="0.998" fill-rule="evenodd" clip-rule="evenodd" d="M10.8984 -0.0234375C11.2422 -0.0234375 11.586 -0.0234375 11.9297 -0.0234375C11.9297 1.50781 11.9297 3.03906 11.9297 4.57031C12.7504 4.55484 13.5629 4.57047 14.3672 4.61719C13.5703 4.61719 12.7734 4.61719 11.9766 4.61719C11.9452 7.95638 11.9139 11.3001 11.8828 14.6484C11.4053 16.0748 10.4366 16.5904 8.97656 16.1953C8.92969 16.1797 8.89842 16.1484 8.88281 16.1016C8.35833 15.122 8.46769 14.2236 9.21094 13.4062C9.74039 13.0174 10.3342 12.8689 10.9922 12.9609C11.0422 13.0047 11.1047 13.0204 11.1797 13.0078C11.1797 12.5859 11.1797 12.1641 11.1797 11.7422C11.1797 11.3203 11.1797 10.8984 11.1797 10.4766C10.9609 10.4766 10.7422 10.4766 10.5234 10.4766C10.5234 10.2735 10.5234 10.0703 10.5234 9.86719C7.9912 9.66019 6.31148 10.754 5.48438 13.1484C5.06817 14.9297 5.51348 16.4531 6.82031 17.7188C6.92503 17.8008 7.03444 17.8711 7.14844 17.9297C7.27153 18.0386 7.39655 18.148 7.52344 18.2578C8.09995 18.8588 8.80308 19.2416 9.63281 19.4062C10.4088 19.5237 11.1744 19.4846 11.9297 19.2891C11.9297 20.8515 11.9297 22.4141 11.9297 23.9766C11.586 23.9766 11.2422 23.9766 10.8984 23.9766C6.69628 23.4661 3.5322 21.388 1.40625 17.7422C0.623686 16.267 0.147122 14.7045 -0.0234375 13.0547C-0.0234375 12.336 -0.0234375 11.6172 -0.0234375 10.8984C0.486914 6.69642 2.56504 3.53237 6.21094 1.40625C7.68614 0.623686 9.24862 0.147122 10.8984 -0.0234375Z" fill="#0C0C0C"/>
</g>
<g id="Group_2">
<path id="Vector_2" opacity="0.994" fill-rule="evenodd" clip-rule="evenodd" d="M11.9297 -0.0234375C12.3047 -0.0234375 12.6797 -0.0234375 13.0547 -0.0234375C17.2568 0.486933 20.4208 2.56506 22.5469 6.21094C23.3295 7.68614 23.806 9.24862 23.9766 10.8984C23.9766 11.6172 23.9766 12.336 23.9766 13.0547C23.4662 17.2568 21.3881 20.4208 17.7422 22.5469C16.267 23.3295 14.7045 23.806 13.0547 23.9766C12.6797 23.9766 12.3047 23.9766 11.9297 23.9766C11.9297 22.4141 11.9297 20.8515 11.9297 19.2891C11.9453 19.2891 11.961 19.2891 11.9766 19.2891C13.7941 18.6034 14.8176 17.2909 15.0469 15.3516C15.0703 15.149 15.0781 14.9459 15.0703 14.7422C15.1016 13.1797 15.1328 11.6172 15.1641 10.0547C16.1628 10.7417 17.2722 11.1011 18.4922 11.1328C18.5 10.3045 18.4922 9.47644 18.4688 8.64844C18.241 8.59336 18.0145 8.53088 17.7891 8.46094C17.7891 8.42967 17.7735 8.41406 17.7422 8.41406C17.7422 8.27344 17.7422 8.13281 17.7422 7.99219C17.161 7.97034 16.6297 7.79845 16.1484 7.47656C15.9147 7.32089 15.7116 7.13339 15.5391 6.91406C15.5279 6.82481 15.481 6.76228 15.3984 6.72656C15.09 6.26583 14.8557 5.76581 14.6953 5.22656C14.6229 5.18194 14.5447 5.16633 14.4609 5.17969C14.3999 4.99772 14.3686 4.81022 14.3672 4.61719C13.5629 4.57047 12.7504 4.55484 11.9297 4.57031C11.9297 3.03906 11.9297 1.50781 11.9297 -0.0234375Z" fill="black"/>
</g>
<g id="Group_3">
<path id="Vector_3" fill-rule="evenodd" clip-rule="evenodd" d="M11.9766 4.61719C11.9766 8.53908 11.9766 12.4609 11.9766 16.3828C11.9766 16.3984 11.9766 16.4141 11.9766 16.4297C11.961 16.4297 11.9453 16.4297 11.9297 16.4297C11.9451 15.8276 11.9295 15.2339 11.8828 14.6484C11.9139 11.3001 11.9452 7.95638 11.9766 4.61719Z" fill="#21E1E4"/>
</g>
<g id="Group_4">
<path id="Vector_4" fill-rule="evenodd" clip-rule="evenodd" d="M11.9766 4.61719C12.7734 4.61719 13.5703 4.61719 14.3672 4.61719C14.3686 4.81022 14.3999 4.99772 14.4609 5.17969C14.4609 5.1953 14.4609 5.21095 14.4609 5.22656C13.8516 5.22656 13.2422 5.22656 12.6328 5.22656C12.6406 8.57034 12.6328 11.9141 12.6094 15.2578C12.5059 15.6997 12.295 16.0747 11.9766 16.3828C11.9766 12.4609 11.9766 8.53908 11.9766 4.61719Z" fill="#1FCCCF"/>
</g>
<g id="Group_5">
<path id="Vector_5" fill-rule="evenodd" clip-rule="evenodd" d="M14.4609 5.22656C14.7024 5.77233 15.015 6.27234 15.3984 6.72656C15.4096 6.81581 15.4565 6.87834 15.5391 6.91406C15.7116 7.13339 15.9147 7.32089 16.1484 7.47656C16.6027 7.9073 17.134 8.21981 17.7422 8.41406C17.7735 8.41406 17.7891 8.42967 17.7891 8.46094C17.7891 9.1328 17.7891 9.8047 17.7891 10.4766C16.5458 10.497 15.4286 10.1376 14.4375 9.39844C14.4219 11.211 14.4062 13.0234 14.3906 14.8359C14.1423 16.4023 13.3376 17.5741 11.9766 18.3516C11.9766 17.7109 11.9766 17.0703 11.9766 16.4297C11.9766 16.4141 11.9766 16.3984 11.9766 16.3828C12.295 16.0747 12.5059 15.6997 12.6094 15.2578C12.6328 11.9141 12.6406 8.57034 12.6328 5.22656C13.2422 5.22656 13.8516 5.22656 14.4609 5.22656Z" fill="#D3D3D3"/>
</g>
<g id="Group_6">
<path id="Vector_6" fill-rule="evenodd" clip-rule="evenodd" d="M14.4609 5.22679C14.4609 5.21118 14.4609 5.19552 14.4609 5.17991C14.5447 5.16655 14.6229 5.18216 14.6953 5.22679C14.8557 5.76604 15.09 6.26605 15.3984 6.72679C15.015 6.27257 14.7024 5.77255 14.4609 5.22679Z" fill="#C02544"/>
</g>
<g id="Group_7">
<path id="Vector_7" fill-rule="evenodd" clip-rule="evenodd" d="M15.3984 6.72656C15.481 6.76228 15.5279 6.82481 15.5391 6.91406C15.4565 6.87834 15.4096 6.81581 15.3984 6.72656Z" fill="#B15764"/>
</g>
<g id="Group_8">
<path id="Vector_8" fill-rule="evenodd" clip-rule="evenodd" d="M16.1484 7.47656C16.6297 7.79845 17.161 7.97034 17.7422 7.99219C17.7422 8.13281 17.7422 8.27344 17.7422 8.41406C17.134 8.21981 16.6027 7.9073 16.1484 7.47656Z" fill="#2CC8CB"/>
</g>
<g id="Group_9">
<path id="Vector_9" fill-rule="evenodd" clip-rule="evenodd" d="M17.7891 8.46094C18.0145 8.53087 18.241 8.59336 18.4688 8.64844C18.4922 9.47644 18.5 10.3045 18.4922 11.1328C17.2722 11.1011 16.1628 10.7417 15.1641 10.0547C15.1613 10.0292 15.1456 10.0136 15.1172 10.0078C15.0703 11.5856 15.0547 13.1638 15.0703 14.7422C15.0781 14.9459 15.0703 15.149 15.0469 15.3516C14.8176 17.2909 13.7941 18.6034 11.9766 19.2891C11.9917 18.9833 11.9761 18.6865 11.9297 18.3984C11.9297 18.3672 11.9453 18.3516 11.9766 18.3516C13.3376 17.5741 14.1423 16.4023 14.3906 14.8359C14.4062 13.0234 14.4219 11.211 14.4375 9.39844C15.4286 10.1376 16.5458 10.497 17.7891 10.4766C17.7891 9.8047 17.7891 9.1328 17.7891 8.46094Z" fill="#D02246"/>
</g>
<g id="Group_10">
<path id="Vector_10" fill-rule="evenodd" clip-rule="evenodd" d="M10.5234 10.4764C8.2158 10.589 6.77045 11.7608 6.18742 13.992C5.99111 15.2361 6.19422 16.408 6.7968 17.5076C6.90625 17.656 7.02344 17.7966 7.14836 17.9295C7.03436 17.8709 6.92495 17.8006 6.82024 17.7186C5.51341 16.4529 5.0681 14.9295 5.4843 13.1482C6.31141 10.7538 7.99113 9.65999 10.5234 9.86699C10.5234 10.0701 10.5234 10.2733 10.5234 10.4764Z" fill="#28F3F6"/>
</g>
<g id="Group_11">
<path id="Vector_11" fill-rule="evenodd" clip-rule="evenodd" d="M10.5235 10.4766C10.5241 11.1021 10.5085 11.727 10.4767 12.3516C9.06132 12.1567 8.17847 12.7505 7.82822 14.1328C7.75093 15.0255 8.10249 15.6817 8.88291 16.1016C8.89852 16.1484 8.92979 16.1797 8.97666 16.1953C9.23185 16.5894 9.59124 16.8472 10.0548 16.9688C10.7758 17.0934 11.4008 16.9138 11.9298 16.4297C11.9454 16.4297 11.9611 16.4297 11.9767 16.4297C11.9767 17.0703 11.9767 17.7109 11.9767 18.3516C11.9454 18.3516 11.9298 18.3672 11.9298 18.3984C10.7172 18.897 9.48286 18.9517 8.22666 18.5625C7.9913 18.4604 7.75693 18.3588 7.52354 18.2578C7.39665 18.148 7.27163 18.0386 7.14854 17.9297C7.02361 17.7968 6.90643 17.6562 6.79697 17.5078C6.1944 16.4082 5.99129 15.2363 6.1876 13.9922C6.77063 11.761 8.21597 10.5892 10.5235 10.4766Z" fill="#FEFEFE"/>
</g>
<g id="Group_12">
<path id="Vector_12" fill-rule="evenodd" clip-rule="evenodd" d="M10.5236 10.4766C10.7424 10.4766 10.9611 10.4766 11.1799 10.4766C11.1799 10.8984 11.1799 11.3203 11.1799 11.7422C11.1333 12.1399 11.1177 12.5461 11.133 12.9609C11.0861 12.9609 11.0393 12.9609 10.9924 12.9609C10.3344 12.8689 9.74059 13.0174 9.21113 13.4062C8.46788 14.2236 8.35852 15.122 8.88301 16.1016C8.10259 15.6817 7.75102 15.0255 7.82832 14.1328C8.17857 12.7505 9.06141 12.1567 10.4768 12.3516C10.5086 11.727 10.5242 11.1021 10.5236 10.4766Z" fill="#FB2A54"/>
</g>
<g id="Group_13">
<path id="Vector_13" fill-rule="evenodd" clip-rule="evenodd" d="M15.1641 10.0547C15.1328 11.6172 15.1016 13.1797 15.0703 14.7422C15.0547 13.1638 15.0703 11.5856 15.1172 10.0078C15.1456 10.0136 15.1612 10.0292 15.1641 10.0547Z" fill="#3B0A13"/>
</g>
<g id="Group_14">
<path id="Vector_14" fill-rule="evenodd" clip-rule="evenodd" d="M11.1797 11.7422C11.1797 12.1641 11.1797 12.5859 11.1797 13.0078C11.1047 13.0204 11.0422 13.0047 10.9922 12.9609C11.0391 12.9609 11.0859 12.9609 11.1328 12.9609C11.1175 12.5461 11.1331 12.1399 11.1797 11.7422Z" fill="#C12142"/>
</g>
<g id="Group_15">
<path id="Vector_15" fill-rule="evenodd" clip-rule="evenodd" d="M11.8828 14.6484C11.9295 15.2339 11.9451 15.8276 11.9297 16.4297C11.4007 16.9138 10.7757 17.0934 10.0547 16.9688C9.59114 16.8472 9.23175 16.5894 8.97656 16.1953C10.4366 16.5904 11.4053 16.0748 11.8828 14.6484Z" fill="#29F3F7"/>
</g>
<g id="Group_16">
<path id="Vector_16" fill-rule="evenodd" clip-rule="evenodd" d="M7.52344 18.2578C7.75683 18.3588 7.9912 18.4604 8.22656 18.5625C9.48277 18.9517 10.7171 18.897 11.9297 18.3984C11.9761 18.6865 11.9917 18.9833 11.9766 19.2891C11.961 19.2891 11.9453 19.2891 11.9297 19.2891C11.1744 19.4846 10.4088 19.5237 9.63281 19.4063C8.80308 19.2416 8.09995 18.8588 7.52344 18.2578Z" fill="#F92D55"/>
</g>
</g>
<defs>
<clipPath id="clip0_834_9625">
<rect width="24" height="24" fill="white"/>
</clipPath>
</defs>
</svg>
