<svg width="24" height="24" viewBox="0 0 24 24" fill="none" xmlns="http://www.w3.org/2000/svg">
<g clip-path="url(#clip0_1561_10185)">
<path opacity="0.997" fill-rule="evenodd" clip-rule="evenodd" d="M10.8984 -0.0234375C11.6172 -0.0234375 12.336 -0.0234375 13.0547 -0.0234375C17.2568 0.486933 20.4208 2.56506 22.5469 6.21094C23.3295 7.68614 23.806 9.24862 23.9766 10.8984C23.9766 11.6172 23.9766 12.336 23.9766 13.0547C23.4662 17.2568 21.3881 20.4208 17.7422 22.5469C16.267 23.3295 14.7045 23.806 13.0547 23.9766C12.336 23.9766 11.6172 23.9766 10.8984 23.9766C6.69637 23.4662 3.53232 21.3881 1.40625 17.7422C0.623686 16.267 0.147122 14.7045 -0.0234375 13.0547C-0.0234375 12.336 -0.0234375 11.6172 -0.0234375 10.8984C0.486914 6.69642 2.56504 3.53237 6.21094 1.40625C7.68614 0.623686 9.24862 0.147122 10.8984 -0.0234375Z" fill="#D80027"/>
<path fill-rule="evenodd" clip-rule="evenodd" d="M6.96087 7.80463C8.24408 7.70895 9.36908 8.07613 10.3359 8.90619C8.67955 8.24413 7.26552 8.58008 6.09369 9.914C5.18998 11.2852 5.18998 12.6602 6.09369 14.039C7.29472 15.3948 8.72441 15.7151 10.3827 14.9999C9.15003 16.0737 7.74378 16.3862 6.164 15.9374C3.92986 14.9618 3.03142 13.2665 3.46869 10.8515C4.03612 9.14338 5.2002 8.12774 6.96087 7.80463Z" fill="#EFEEEE"/>
<path fill-rule="evenodd" clip-rule="evenodd" d="M11.5547 9.86719C11.5234 10.3984 11.4922 10.9297 11.4609 11.4609C11.4531 10.8982 11.4609 10.3357 11.4844 9.77344C11.518 9.79894 11.5414 9.8302 11.5547 9.86719Z" fill="#E37387"/>
<path fill-rule="evenodd" clip-rule="evenodd" d="M11.5547 9.86719C11.8559 10.2978 12.1684 10.7197 12.4922 11.1328C12.9996 10.9559 13.5074 10.784 14.0156 10.6172C14.0469 10.6485 14.0469 10.6797 14.0156 10.7109C13.6922 11.1123 13.3875 11.5264 13.1016 11.9531C13.386 12.4174 13.6985 12.8627 14.0391 13.2891C13.5273 13.1721 13.0117 13.0158 12.4922 12.8203C12.1454 13.2475 11.8095 13.6851 11.4844 14.1328C11.4688 13.5859 11.4531 13.0391 11.4375 12.4922C10.9409 12.3345 10.4487 12.1626 9.96094 11.9766C10.4553 11.7857 10.9553 11.6138 11.4609 11.4609C11.4922 10.9297 11.5234 10.3984 11.5547 9.86719Z" fill="#EFEBEC"/>
</g>
<defs>
<clipPath id="clip0_1561_10185">
<rect width="24" height="24" fill="white"/>
</clipPath>
</defs>
</svg>
