<svg width="24" height="24" viewBox="0 0 24 24" fill="none" xmlns="http://www.w3.org/2000/svg">
<path fill-rule="evenodd" clip-rule="evenodd" d="M19.9261 2.94844C16.9009 3.00192 13.8666 3.01976 10.8232 3.00197C10.8232 2.02057 10.8232 1.03915 10.8232 0.057746C14.2727 -0.255836 17.3069 0.70773 19.9261 2.94844Z" fill="#FBF9F9"/>
<path fill-rule="evenodd" clip-rule="evenodd" d="M10.3949 0.111206C10.5198 0.111206 10.6448 0.111206 10.7697 0.111206C10.7697 4.07253 10.7697 8.03386 10.7697 11.9952C7.18214 11.9952 3.59454 11.9952 0.00693824 11.9952C-0.0267906 11.1233 0.062455 10.2668 0.27467 9.42567C0.471613 9.48868 0.632252 9.60468 0.756586 9.77363C0.677616 10.0284 0.58837 10.2782 0.488855 10.5231C0.524554 10.5588 0.560248 10.5588 0.595947 10.5231C0.786711 10.35 0.99197 10.1983 1.21173 10.068C1.42382 10.1996 1.62907 10.3423 1.82751 10.4963C1.84536 10.4695 1.86321 10.4428 1.88106 10.416C1.784 10.1794 1.72153 9.93856 1.69365 9.69333C1.91398 9.56228 2.11924 9.41063 2.30943 9.23831C2.02441 9.2116 1.73882 9.20266 1.45269 9.21155C1.38898 8.94009 1.30866 8.67243 1.21173 8.40858C1.09322 8.66574 1.0129 8.9334 0.970771 9.21155C0.756586 9.21155 0.542401 9.21155 0.328216 9.21155C0.530878 8.24643 0.870002 7.33639 1.34559 6.48144C1.341 6.53476 1.35885 6.57935 1.39914 6.61527C1.53351 6.69134 1.65845 6.78058 1.77396 6.88293C1.82663 6.91457 1.86232 6.89669 1.88106 6.8294C1.784 6.59284 1.72153 6.35195 1.69365 6.10672C1.90368 5.9616 2.10893 5.80989 2.30943 5.65171C2.14977 5.62505 1.98914 5.61611 1.82751 5.62494C2.48536 4.54436 3.3064 3.59865 4.29064 2.78778C4.23222 2.93617 4.17867 3.08784 4.13 3.24279C4.14783 3.26956 4.16572 3.29633 4.18355 3.32309C4.38199 3.16912 4.58723 3.02637 4.79933 2.89484C5.02181 3.02399 5.236 3.16674 5.44188 3.32309C5.43032 3.06441 5.36783 2.81459 5.25447 2.57365C5.45682 2.39183 5.67101 2.22232 5.89703 2.0651C5.70828 2.05554 5.52975 2.02877 5.36157 1.98481C6.88378 0.959856 8.56154 0.335321 10.3949 0.111206Z" fill="#2C2FAF"/>
<path fill-rule="evenodd" clip-rule="evenodd" d="M10.3945 0.111303C10.5256 0.0592119 10.6684 0.0413699 10.8229 0.0577719C10.8229 1.03918 10.8229 2.02059 10.8229 3.002C10.8229 4.00127 10.8229 5.00049 10.8229 5.99976C10.8229 6.99903 10.8229 7.99825 10.8229 8.99752C10.8229 9.99679 10.8229 10.996 10.8229 11.9953C10.8051 11.9953 10.7872 11.9953 10.7694 11.9953C10.7694 8.03395 10.7694 4.07263 10.7694 0.111303C10.6444 0.111303 10.5195 0.111303 10.3945 0.111303Z" fill="#7C5FAA"/>
<path fill-rule="evenodd" clip-rule="evenodd" d="M8.35999 1.23535C8.49658 1.46473 8.60368 1.71454 8.68127 1.98479C8.94723 2.02917 9.21496 2.05593 9.48446 2.06509C9.25844 2.2223 9.04426 2.39182 8.8419 2.57364C8.95526 2.81458 9.01775 3.06439 9.02932 3.32308C8.84185 3.14017 8.62767 2.99741 8.38676 2.89483C8.17466 3.02635 7.96942 3.1691 7.77098 3.32308C7.75315 3.30523 7.73526 3.28739 7.71743 3.26955C7.81446 3.02421 7.87695 2.7744 7.90484 2.52011C7.7139 2.34884 7.5086 2.19717 7.28906 2.06509C7.57409 2.03835 7.85965 2.02944 8.1458 2.03832C8.21718 1.77067 8.28861 1.50301 8.35999 1.23535Z" fill="#F3F3F8"/>
<path fill-rule="evenodd" clip-rule="evenodd" d="M5.36145 1.98486C5.52964 2.02883 5.70816 2.05559 5.89691 2.06516C5.67089 2.22238 5.45671 2.39189 5.25435 2.57371C5.36771 2.81465 5.4302 3.06446 5.44177 3.32315C5.23588 3.1668 5.0217 3.02405 4.79921 2.8949C4.58711 3.02642 4.38187 3.16918 4.18343 3.32315C4.1656 3.29638 4.14771 3.26962 4.12988 3.24285C4.17856 3.0879 4.2321 2.93623 4.29052 2.78783C4.61592 2.48067 4.97292 2.21301 5.36145 1.98486Z" fill="#F0EEF5"/>
<path opacity="0.998" fill-rule="evenodd" clip-rule="evenodd" d="M19.9261 2.94836C20.9397 3.81809 21.7608 4.83519 22.3892 5.99965C18.5339 5.99965 14.6786 5.99965 10.8232 5.99965C10.8232 5.00038 10.8232 4.00117 10.8232 3.0019C13.8666 3.01968 16.9008 3.00184 19.9261 2.94836Z" fill="#E92A2A"/>
<path fill-rule="evenodd" clip-rule="evenodd" d="M4.7721 4.82202C4.91346 5.06746 5.00267 5.33512 5.03983 5.62499C5.32598 5.61611 5.61154 5.62505 5.89657 5.65176C5.70637 5.82408 5.50113 5.97573 5.28079 6.10678C5.35597 6.36849 5.40951 6.63615 5.44143 6.90975C5.2267 6.76618 5.01252 6.62346 4.79887 6.4815C4.56884 6.63096 4.34576 6.79155 4.12954 6.96328C4.16713 6.71366 4.23856 6.45489 4.34373 6.18707C4.15455 5.98451 3.94036 5.80604 3.70117 5.65176C3.9862 5.62505 4.27176 5.61611 4.55791 5.62499C4.62094 5.35503 4.69237 5.08738 4.7721 4.82202Z" fill="#F3F2F8"/>
<path fill-rule="evenodd" clip-rule="evenodd" d="M8.35999 4.82202C8.49658 5.0514 8.60368 5.30123 8.68127 5.57146C8.96517 5.61584 9.25078 5.6426 9.53801 5.65176C9.29844 5.81091 9.06642 5.98044 8.8419 6.16031C8.95114 6.42497 9.03146 6.69262 9.08286 6.96328C8.87392 6.78298 8.6508 6.62239 8.41353 6.4815C8.16802 6.61099 7.9449 6.77158 7.74421 6.96328C7.80868 6.68042 7.86222 6.39488 7.90484 6.10678C7.7139 5.93553 7.5086 5.78382 7.28906 5.65176C7.57409 5.62505 7.85965 5.61611 8.1458 5.62499C8.21718 5.35734 8.28861 5.08968 8.35999 4.82202Z" fill="#F2F2F7"/>
<path fill-rule="evenodd" clip-rule="evenodd" d="M10.8232 5.99976C14.6786 5.99976 18.5339 5.99976 22.3892 5.99976C22.9754 6.92248 23.3858 7.92175 23.6208 8.99752C19.3549 8.99752 15.0891 8.99752 10.8232 8.99752C10.8232 7.99824 10.8232 6.99903 10.8232 5.99976Z" fill="#FBFAFA"/>
<path fill-rule="evenodd" clip-rule="evenodd" d="M1.82637 5.62488C1.988 5.61604 2.14863 5.62498 2.30829 5.65164C2.10779 5.80983 1.90254 5.96153 1.69251 6.10666C1.72039 6.35189 1.78287 6.59278 1.87992 6.82933C1.86118 6.89662 1.82549 6.9145 1.77283 6.88286C1.65732 6.78051 1.53237 6.69127 1.398 6.61521C1.35771 6.57929 1.33986 6.5347 1.34446 6.48138C1.46264 6.16822 1.62328 5.88268 1.82637 5.62488Z" fill="#EAE7F2"/>
<path fill-rule="evenodd" clip-rule="evenodd" d="M0.274323 9.42567C0.259983 9.34007 0.27783 9.26871 0.327869 9.21154C0.542054 9.21154 0.756239 9.21154 0.970424 9.21154C1.01255 8.93339 1.09287 8.66573 1.21138 8.40857C1.30831 8.67243 1.38863 8.94008 1.45234 9.21154C1.73848 9.20265 2.02406 9.21159 2.30908 9.23831C2.11889 9.41062 1.91364 9.56228 1.6933 9.69332C1.72119 9.93855 1.78366 10.1794 1.88071 10.416C1.86286 10.4428 1.84501 10.4695 1.82716 10.4963C1.62873 10.3423 1.42347 10.1996 1.21138 10.068C0.991623 10.1983 0.786364 10.35 0.5956 10.5231C0.559901 10.5588 0.524207 10.5588 0.488508 10.5231C0.588023 10.2782 0.677269 10.0284 0.756239 9.77362C0.631905 9.60468 0.471266 9.48867 0.274323 9.42567Z" fill="#F1F1F7"/>
<path fill-rule="evenodd" clip-rule="evenodd" d="M4.7721 8.40857C4.91346 8.65401 5.00267 8.92167 5.03983 9.21154C5.32598 9.20265 5.61154 9.21159 5.89657 9.23831C5.68067 9.41721 5.46649 9.59563 5.25401 9.77362C5.32539 9.98775 5.39682 10.2019 5.4682 10.416C5.44946 10.4833 5.41374 10.5012 5.36111 10.4695C5.19019 10.3254 5.01172 10.1916 4.82564 10.068C4.58838 10.2089 4.36525 10.3695 4.15632 10.5498C4.19894 10.2617 4.25248 9.97618 4.31695 9.69332C4.10695 9.5482 3.90165 9.39649 3.70117 9.23831C3.9862 9.21159 4.27176 9.20265 4.55791 9.21154C4.62929 8.94388 4.70072 8.67623 4.7721 8.40857Z" fill="#F1F1F7"/>
<path fill-rule="evenodd" clip-rule="evenodd" d="M8.35999 8.40857C8.39303 8.41451 8.4198 8.43234 8.44031 8.4621C8.51677 8.70583 8.59709 8.94672 8.68127 9.18477C8.96683 9.2026 9.25244 9.22048 9.53801 9.23831C9.28966 9.39756 9.05764 9.57604 8.8419 9.77362C8.97068 10.0057 9.02423 10.2466 9.00254 10.4963C8.80619 10.3535 8.60989 10.2108 8.41353 10.068C8.17627 10.2089 7.95314 10.3695 7.74421 10.5498C7.80868 10.267 7.86222 9.98143 7.90484 9.69332C7.69484 9.5482 7.48954 9.39649 7.28906 9.23831C7.57409 9.21159 7.85965 9.20265 8.1458 9.21154C8.21718 8.94388 8.28861 8.67623 8.35999 8.40857Z" fill="#F0F0F7"/>
<path opacity="0.999" fill-rule="evenodd" clip-rule="evenodd" d="M10.8232 8.99744C15.0891 8.99744 19.3549 8.99744 23.6208 8.99744C23.9015 9.97005 24.0265 10.9693 23.9956 11.9952C19.6048 11.9952 15.214 11.9952 10.8232 11.9952C10.8232 10.9959 10.8232 9.99671 10.8232 8.99744Z" fill="#E82B2B"/>
<path fill-rule="evenodd" clip-rule="evenodd" d="M0.00694085 11.9952C3.59454 11.9952 7.18214 11.9952 10.7697 11.9952C10.7876 11.9952 10.8055 11.9952 10.8233 11.9952C15.2141 11.9952 19.6049 11.9952 23.9957 11.9952C24.0265 13.0213 23.9016 14.0205 23.6208 14.993C15.8745 14.993 8.12814 14.993 0.381765 14.993C0.0995438 14.0206 -0.0254011 13.0214 0.00694085 11.9952Z" fill="#FBFAFA"/>
<path opacity="0.999" fill-rule="evenodd" clip-rule="evenodd" d="M0.381836 14.9929C8.12821 14.9929 15.8745 14.9929 23.6209 14.9929C23.386 16.0687 22.9755 17.068 22.3894 17.9907C15.4641 17.9907 8.5387 17.9907 1.6134 17.9907C1.0273 17.068 0.616781 16.0687 0.381836 14.9929Z" fill="#E92B2B"/>
<path fill-rule="evenodd" clip-rule="evenodd" d="M1.61328 17.9907C8.53858 17.9907 15.4639 17.9907 22.3892 17.9907C21.7659 19.1274 20.9627 20.1266 19.9797 20.9885C14.6607 20.9885 9.34177 20.9885 4.02286 20.9885C3.0398 20.1266 2.2366 19.1274 1.61328 17.9907Z" fill="#FBFAFA"/>
<path opacity="0.993" fill-rule="evenodd" clip-rule="evenodd" d="M4.02344 20.9885C9.34235 20.9885 14.6613 20.9885 19.9802 20.9885C17.1088 23.4406 13.7889 24.3953 10.0206 23.8525C7.7419 23.4537 5.74286 22.4991 4.02344 20.9885Z" fill="#E92B2B"/>
</svg>
