<svg width="48" height="48" viewBox="0 0 48 48" fill="none" xmlns="http://www.w3.org/2000/svg">
<path d="M45.4362 45.436V9.33344L24.0004 2.56421L2.56445 9.33344V45.436L6.51317 43.1796V12.7181H41.4875V43.1796L45.4362 45.436Z" fill="#027DDB"/>
<path d="M13.8467 33.0256H20.6159V39.7949H13.8467V33.0256Z" fill="#FF7C00"/>
<path d="M17.2314 26.2566H24.0007V33.0258H17.2314V26.2566Z" fill="#FF7C00"/>
<path d="M20.6162 33.0256H27.3854V39.7949H20.6162V33.0256Z" fill="#FF7C00"/>
<path d="M24 26.2566H30.7692V33.0258H24V26.2566Z" fill="#FF7C00"/>
<path d="M20.6162 19.4873H27.3854V26.2565H20.6162V19.4873Z" fill="#FF7C00"/>
<path d="M27.3848 33.0256H34.154V39.7949H27.3848V33.0256Z" fill="#FF7C00"/>
<path fill-rule="evenodd" clip-rule="evenodd" d="M23.4186 4.36606C23.5124 4.66315 23.3477 4.98004 23.0506 5.07385L4.67996 10.8751V43.1796C4.67996 43.4912 4.42741 43.7437 4.11586 43.7437C3.80432 43.7437 3.55176 43.4912 3.55176 43.1796V10.4617C3.55176 10.2156 3.71131 9.99787 3.94599 9.92376L22.7108 3.99802C23.0079 3.9042 23.3248 4.06898 23.4186 4.36606Z" fill="#AED5F3"/>
<path fill-rule="evenodd" clip-rule="evenodd" d="M20.8975 20.2628C20.8975 19.9513 21.15 19.6987 21.4616 19.6987H25.9744C26.2859 19.6987 26.5385 19.9513 26.5385 20.2628C26.5385 20.5744 26.2859 20.8269 25.9744 20.8269H22.0257V24.7757C22.0257 25.0872 21.7731 25.3398 21.4616 25.3398C21.15 25.3398 20.8975 25.0872 20.8975 24.7757V20.2628Z" fill="#AED5F3"/>
<path fill-rule="evenodd" clip-rule="evenodd" d="M17.6006 27.1737C17.6006 26.8622 17.8531 26.6096 18.1647 26.6096H22.6775C22.9891 26.6096 23.2416 26.8622 23.2416 27.1737C23.2416 27.4853 22.9891 27.7378 22.6775 27.7378H18.7288V31.6865C18.7288 31.9981 18.4762 32.2506 18.1647 32.2506C17.8531 32.2506 17.6006 31.9981 17.6006 31.6865V27.1737Z" fill="#AED5F3"/>
<path fill-rule="evenodd" clip-rule="evenodd" d="M24.2656 27.1737C24.2656 26.8622 24.5182 26.6096 24.8297 26.6096H29.3425C29.6541 26.6096 29.9067 26.8622 29.9067 27.1737C29.9067 27.4853 29.6541 27.7378 29.3425 27.7378H25.3938V31.6865C25.3938 31.9981 25.1413 32.2506 24.8297 32.2506C24.5182 32.2506 24.2656 31.9981 24.2656 31.6865V27.1737Z" fill="#AED5F3"/>
<path fill-rule="evenodd" clip-rule="evenodd" d="M20.6875 33.7335C20.6875 33.422 20.9401 33.1694 21.2516 33.1694H25.7644C26.076 33.1694 26.3285 33.422 26.3285 33.7335C26.3285 34.0451 26.076 34.2976 25.7644 34.2976H21.8157V38.2464C21.8157 38.5579 21.5631 38.8105 21.2516 38.8105C20.9401 38.8105 20.6875 38.5579 20.6875 38.2464V33.7335Z" fill="#AED5F3"/>
<path fill-rule="evenodd" clip-rule="evenodd" d="M27.4561 33.7335C27.4561 33.422 27.7086 33.1694 28.0202 33.1694H32.533C32.8445 33.1694 33.0971 33.422 33.0971 33.7335C33.0971 34.0451 32.8445 34.2976 32.533 34.2976H28.5843V38.2464C28.5843 38.5579 28.3317 38.8105 28.0202 38.8105C27.7086 38.8105 27.4561 38.5579 27.4561 38.2464V33.7335Z" fill="#AED5F3"/>
<path fill-rule="evenodd" clip-rule="evenodd" d="M14.0908 33.7335C14.0908 33.422 14.3434 33.1694 14.6549 33.1694H19.1677C19.4793 33.1694 19.7318 33.422 19.7318 33.7335C19.7318 34.0451 19.4793 34.2976 19.1677 34.2976H15.219V38.2464C15.219 38.5579 14.9665 38.8105 14.6549 38.8105C14.3434 38.8105 14.0908 38.5579 14.0908 38.2464V33.7335Z" fill="#AED5F3"/>
<path fill-rule="evenodd" clip-rule="evenodd" d="M23.8301 2.02618C23.9407 1.99127 24.0593 1.99127 24.1699 2.02618L45.6058 8.79542C45.8405 8.86953 46 9.08723 46 9.33333V45.4359C46 45.7474 45.7474 46 45.4359 46C45.1244 46 44.8718 45.7474 44.8718 45.4359V9.74676L24 3.15566L3.12821 9.74676V45.4359C3.12821 45.7474 2.87565 46 2.5641 46C2.25256 46 2 45.7474 2 45.4359V9.33333C2 9.08723 2.15955 8.86953 2.39423 8.79542L23.8301 2.02618Z" fill="#0040A0"/>
<path fill-rule="evenodd" clip-rule="evenodd" d="M5.94824 12.7179C5.94824 12.4064 6.2008 12.1538 6.51234 12.1538H41.4867C41.7983 12.1538 42.0508 12.4064 42.0508 12.7179V43.1794C42.0508 43.491 41.7983 43.7435 41.4867 43.7435C41.1752 43.7435 40.9226 43.491 40.9226 43.1794V13.282H7.07645V43.1794C7.07645 43.491 6.82389 43.7435 6.51234 43.7435C6.2008 43.7435 5.94824 43.491 5.94824 43.1794V12.7179Z" fill="#0040A0"/>
<path fill-rule="evenodd" clip-rule="evenodd" d="M13.2822 33.0258C13.2822 32.7142 13.5348 32.4617 13.8463 32.4617H20.6156C20.9271 32.4617 21.1797 32.7142 21.1797 33.0258V39.795C21.1797 40.1065 20.9271 40.3591 20.6156 40.3591H13.8463C13.5348 40.3591 13.2822 40.1065 13.2822 39.795V33.0258ZM14.4104 33.5899V39.2309H20.0515V33.5899H14.4104Z" fill="#0040A0"/>
<path fill-rule="evenodd" clip-rule="evenodd" d="M16.667 26.2567C16.667 25.9452 16.9195 25.6926 17.2311 25.6926H24.0003C24.3119 25.6926 24.5644 25.9452 24.5644 26.2567V33.026C24.5644 33.3375 24.3119 33.5901 24.0003 33.5901H17.2311C16.9195 33.5901 16.667 33.3375 16.667 33.026V26.2567ZM17.7952 26.8208V32.4619H23.4362V26.8208H17.7952Z" fill="#0040A0"/>
<path fill-rule="evenodd" clip-rule="evenodd" d="M20.0518 33.0258C20.0518 32.7142 20.3043 32.4617 20.6159 32.4617H27.3851C27.6966 32.4617 27.9492 32.7142 27.9492 33.0258V39.795C27.9492 40.1065 27.6966 40.3591 27.3851 40.3591H20.6159C20.3043 40.3591 20.0518 40.1065 20.0518 39.795V33.0258ZM21.18 33.5899V39.2309H26.821V33.5899H21.18Z" fill="#0040A0"/>
<path fill-rule="evenodd" clip-rule="evenodd" d="M23.4355 26.2567C23.4355 25.9452 23.6881 25.6926 23.9996 25.6926H30.7689C31.0804 25.6926 31.333 25.9452 31.333 26.2567V33.026C31.333 33.3375 31.0804 33.5901 30.7689 33.5901H23.9996C23.6881 33.5901 23.4355 33.3375 23.4355 33.026V26.2567ZM24.5638 26.8208V32.4619H30.2048V26.8208H24.5638Z" fill="#0040A0"/>
<path fill-rule="evenodd" clip-rule="evenodd" d="M20.0518 19.4874C20.0518 19.1759 20.3043 18.9233 20.6159 18.9233H27.3851C27.6966 18.9233 27.9492 19.1759 27.9492 19.4874V26.2567C27.9492 26.5682 27.6966 26.8208 27.3851 26.8208H20.6159C20.3043 26.8208 20.0518 26.5682 20.0518 26.2567V19.4874ZM21.18 20.0515V25.6926H26.821V20.0515H21.18Z" fill="#0040A0"/>
<path fill-rule="evenodd" clip-rule="evenodd" d="M26.8203 33.0258C26.8203 32.7142 27.0729 32.4617 27.3844 32.4617H34.1536C34.4652 32.4617 34.7177 32.7142 34.7177 33.0258V39.795C34.7177 40.1065 34.4652 40.3591 34.1536 40.3591H27.3844C27.0729 40.3591 26.8203 40.1065 26.8203 39.795V33.0258ZM27.9485 33.5899V39.2309H33.5895V33.5899H27.9485Z" fill="#0040A0"/>
<path fill-rule="evenodd" clip-rule="evenodd" d="M11.0254 39.7948C11.0254 39.4833 11.2779 39.2307 11.5895 39.2307H36.41C36.7215 39.2307 36.9741 39.4833 36.9741 39.7948C36.9741 40.1064 36.7215 40.3589 36.41 40.3589H11.5895C11.2779 40.3589 11.0254 40.1064 11.0254 39.7948Z" fill="#0040A0"/>
</svg>
