<svg width="24" height="24" viewBox="0 0 24 24" fill="none" xmlns="http://www.w3.org/2000/svg">
<g id="youtube (1)" clip-path="url(#clip0_834_9618)">
<g id="Group">
<path id="Vector" opacity="0.994" fill-rule="evenodd" clip-rule="evenodd" d="M10.8984 -0.0234375C11.6172 -0.0234375 12.336 -0.0234375 13.0547 -0.0234375C17.2568 0.486933 20.4208 2.56506 22.5469 6.21094C23.3295 7.68614 23.806 9.24862 23.9766 10.8984C23.9766 11.6172 23.9766 12.336 23.9766 13.0547C23.4662 17.2568 21.3881 20.4208 17.7422 22.5469C16.267 23.3295 14.7045 23.806 13.0547 23.9766C12.336 23.9766 11.6172 23.9766 10.8984 23.9766C6.69637 23.4662 3.53232 21.3881 1.40625 17.7422C0.623686 16.267 0.147122 14.7045 -0.0234375 13.0547C-0.0234375 12.336 -0.0234375 11.6172 -0.0234375 10.8984C0.486914 6.69642 2.56504 3.53237 6.21094 1.40625C7.68614 0.623686 9.24862 0.147122 10.8984 -0.0234375Z" fill="#FF0000"/>
</g>
<g id="Group_2">
<path id="Vector_2" fill-rule="evenodd" clip-rule="evenodd" d="M7.57032 7.47657C10.4766 7.46874 13.3829 7.47657 16.2891 7.50001C17.4099 7.73391 18.0739 8.4136 18.2813 9.53907C18.2891 10.3438 18.2969 11.1484 18.3047 11.9531C18.3107 12.8532 18.2873 13.7517 18.2344 14.6484C17.9585 15.65 17.3101 16.2515 16.2891 16.4531C13.3828 16.4844 10.4766 16.4844 7.57032 16.4531C6.50289 16.1548 5.87007 15.4594 5.67189 14.3672C5.64062 12.7578 5.64062 11.1484 5.67189 9.53907C5.88859 8.46291 6.5214 7.7754 7.57032 7.47657Z" fill="#FFFEFE"/>
</g>
<g id="Group_3">
<path id="Vector_3" fill-rule="evenodd" clip-rule="evenodd" d="M10.2891 10.0547C11.4089 10.674 12.5183 11.3146 13.6172 11.9766C12.5234 12.6172 11.4297 13.2578 10.3359 13.8984C10.2891 12.6176 10.2734 11.3363 10.2891 10.0547Z" fill="#FF1108"/>
</g>
</g>
<defs>
<clipPath id="clip0_834_9618">
<rect width="24" height="24" fill="white"/>
</clipPath>
</defs>
</svg>
