<?xml version="1.0" encoding="UTF-8"?>
<!DOCTYPE svg PUBLIC "-//W3C//DTD SVG 1.1//EN" "http://www.w3.org/Graphics/SVG/1.1/DTD/svg11.dtd">
<svg xmlns="http://www.w3.org/2000/svg" version="1.1" width="3867px" height="3867px" style="shape-rendering:geometricPrecision; text-rendering:geometricPrecision; image-rendering:optimizeQuality; fill-rule:evenodd; clip-rule:evenodd" xmlns:xlink="http://www.w3.org/1999/xlink">
<g><path style="opacity:1" fill="#027ddb" d="M 12.5,-0.5 C 1293.17,-0.5 2573.83,-0.5 3854.5,-0.5C 3860.43,1.09788 3864.43,4.76454 3866.5,10.5C 3866.5,1292.5 3866.5,2574.5 3866.5,3856.5C 3864.17,3860.83 3860.83,3864.17 3856.5,3866.5C 2574.5,3866.5 1292.5,3866.5 10.5,3866.5C 4.76454,3864.43 1.09788,3860.43 -0.5,3854.5C -0.5,2573.83 -0.5,1293.17 -0.5,12.5C 1.5,5.83333 5.83333,1.5 12.5,-0.5 Z"/></g>
<g><path style="opacity:1" fill="#fefefe" d="M 1201.5,1454.5 C 1252.17,1451.12 1297.83,1464.28 1338.5,1494C 1374.1,1524.02 1395.6,1562.18 1403,1608.5C 1407.4,1644.75 1406.06,1680.75 1399,1716.5C 1377.26,1792.97 1327.09,1837.47 1248.5,1850C 1193.8,1857.91 1144.14,1845.91 1099.5,1814C 1060.14,1781.13 1037.64,1738.96 1032,1687.5C 1026.34,1643.82 1031.34,1601.49 1047,1560.5C 1069.16,1511.34 1105.99,1478.84 1157.5,1463C 1172.08,1458.96 1186.74,1456.13 1201.5,1454.5 Z"/></g>
<g><path style="opacity:1" fill="#6db3ea" d="M 1649.5,1460.5 C 1664.83,1459.83 1680.33,1459.5 1696,1459.5C 1711.85,1459.5 1727.35,1460.17 1742.5,1461.5C 1711.57,1460.51 1680.57,1460.17 1649.5,1460.5 Z"/></g>
<g><path style="opacity:1" fill="#6db4eb" d="M 1860.5,1460.5 C 1899.33,1459.5 1938.33,1459.17 1977.5,1459.5C 1977.74,1460.79 1977.4,1461.79 1976.5,1462.5C 1938.18,1460.51 1899.51,1459.84 1860.5,1460.5 Z"/></g>
<g><path style="opacity:1" fill="#6cb3ea" d="M 2450.5,1460.5 C 2411.66,1460.17 2373,1460.5 2334.5,1461.5C 2333.96,1461.44 2333.62,1461.11 2333.5,1460.5C 2372.66,1459.17 2411.66,1459.17 2450.5,1460.5 Z"/></g>
<g><path style="opacity:1" fill="#fefefe" d="M 1649.5,1460.5 C 1680.57,1460.17 1711.57,1460.51 1742.5,1461.5C 1763.32,1540.46 1783.99,1619.46 1804.5,1698.5C 1805.82,1698.67 1806.99,1698.34 1808,1697.5C 1825.07,1618.39 1842.57,1539.39 1860.5,1460.5C 1899.51,1459.84 1938.18,1460.51 1976.5,1462.5C 1938.83,1590.52 1901.16,1718.52 1863.5,1846.5C 1829.83,1846.5 1796.17,1846.5 1762.5,1846.5C 1742.47,1778.05 1721.97,1709.72 1701,1641.5C 1700.09,1637.4 1698.42,1633.73 1696,1630.5C 1695.23,1630.64 1694.56,1630.98 1694,1631.5C 1672.13,1702.77 1650.46,1774.11 1629,1845.5C 1595.57,1846.83 1562.07,1846.83 1528.5,1845.5C 1490.59,1717.27 1452.59,1589.1 1414.5,1461C 1453.5,1460.5 1492.5,1460.33 1531.5,1460.5C 1549.16,1539.48 1566.49,1618.48 1583.5,1697.5C 1585.45,1697.77 1586.95,1697.11 1588,1695.5C 1608.44,1617.13 1628.94,1538.8 1649.5,1460.5 Z"/></g>
<g><path style="opacity:1" fill="#fefefe" d="M 2080.5,1460.5 C 2128.74,1460.17 2176.91,1460.5 2225,1461.5C 2267.48,1589.76 2309.64,1718.09 2351.5,1846.5C 2313.83,1846.5 2276.17,1846.5 2238.5,1846.5C 2231.58,1822.06 2224.24,1797.73 2216.5,1773.5C 2173.83,1772.17 2131.17,1772.17 2088.5,1773.5C 2081.17,1797.5 2073.83,1821.5 2066.5,1845.5C 2028.84,1846.5 1991.17,1846.83 1953.5,1846.5C 1995.43,1717.71 2037.76,1589.04 2080.5,1460.5 Z"/></g>
<g><path style="opacity:1" fill="#fefefe" d="M 2450.5,1460.5 C 2475.89,1512.29 2501.06,1564.29 2526,1616.5C 2526.56,1617.02 2527.23,1617.36 2528,1617.5C 2531.16,1613.19 2533.83,1608.52 2536,1603.5C 2558.71,1555.92 2581.54,1508.42 2604.5,1461C 2643.5,1460.33 2682.5,1460.33 2721.5,1461C 2674.33,1548.83 2627.17,1636.67 2580,1724.5C 2579.5,1765.17 2579.33,1805.83 2579.5,1846.5C 2544.83,1846.5 2510.17,1846.5 2475.5,1846.5C 2475.67,1805.5 2475.5,1764.5 2475,1723.5C 2427.9,1636.3 2381.07,1548.97 2334.5,1461.5C 2373,1460.5 2411.66,1460.17 2450.5,1460.5 Z"/></g>
<g><path style="opacity:1" fill="#047ddb" d="M 1202.5,1546.5 C 1249.68,1541.16 1279.85,1561.16 1293,1606.5C 1300.57,1638.92 1300.24,1671.26 1292,1703.5C 1278.52,1745.62 1249.69,1764.45 1205.5,1760C 1178.82,1755.65 1159.99,1741.15 1149,1716.5C 1144.59,1705.2 1141.59,1693.53 1140,1681.5C 1138.51,1663.86 1138.18,1646.19 1139,1628.5C 1141.04,1601.92 1151.54,1579.42 1170.5,1561C 1180.14,1553.74 1190.81,1548.9 1202.5,1546.5 Z"/></g>
<g><path style="opacity:1" fill="#0b7edb" d="M 2191.5,1691.5 C 2178.85,1692.83 2165.85,1693.5 2152.5,1693.5C 2139.15,1693.5 2126.15,1692.83 2113.5,1691.5C 2125.68,1649.79 2138.01,1608.12 2150.5,1566.5C 2151.83,1566.5 2153.17,1566.5 2154.5,1566.5C 2166.99,1608.12 2179.32,1649.79 2191.5,1691.5 Z"/></g>
<g><path style="opacity:1" fill="#71b6eb" d="M 2113.5,1691.5 C 2126.15,1692.83 2139.15,1693.5 2152.5,1693.5C 2165.85,1693.5 2178.85,1692.83 2191.5,1691.5C 2192.4,1692.21 2192.74,1693.21 2192.5,1694.5C 2165.83,1694.5 2139.17,1694.5 2112.5,1694.5C 2112.26,1693.21 2112.6,1692.21 2113.5,1691.5 Z"/></g>
<g><path style="opacity:1" fill="#fefefe" d="M 1686.5,1911.5 C 1729.95,1908.16 1771.95,1914.33 1812.5,1930C 1872.31,1957.66 1902.98,2004.49 1904.5,2070.5C 1862.17,2070.5 1819.83,2070.5 1777.5,2070.5C 1775.81,2046.32 1763.48,2030.48 1740.5,2023C 1720.06,2018.03 1699.73,2018.36 1679.5,2024C 1660.66,2030.5 1651.83,2043.66 1653,2063.5C 1654.68,2071.85 1658.85,2078.68 1665.5,2084C 1680.56,2093.47 1696.89,2099.8 1714.5,2103C 1736.25,2107.35 1757.92,2112.01 1779.5,2117C 1813.11,2125.14 1843.11,2140.14 1869.5,2162C 1900.88,2192.45 1914.71,2229.61 1911,2273.5C 1904.77,2334.79 1872.61,2375.63 1814.5,2396C 1763.46,2411.92 1711.46,2415.92 1658.5,2408C 1618.77,2402.88 1583.44,2387.88 1552.5,2363C 1523.92,2335.67 1507.75,2302.17 1504,2262.5C 1503.08,2253.19 1502.58,2243.85 1502.5,2234.5C 1544.5,2234.5 1586.5,2234.5 1628.5,2234.5C 1631.81,2275.64 1654.14,2298.14 1695.5,2302C 1713.55,2303.81 1731.22,2302.15 1748.5,2297C 1768.16,2289.51 1776.99,2275.34 1775,2254.5C 1772.1,2244.94 1766.27,2237.77 1757.5,2233C 1746.38,2226.96 1734.71,2222.29 1722.5,2219C 1691.77,2212.21 1661.1,2205.21 1630.5,2198C 1596.9,2189.01 1567.73,2172.51 1543,2148.5C 1525.44,2127.83 1516.1,2103.83 1515,2076.5C 1512.1,2023.46 1531.94,1981.3 1574.5,1950C 1608.43,1927.08 1645.76,1914.25 1686.5,1911.5 Z"/></g>
<g><path style="opacity:1" fill="#587c8f" d="M 2541.5,1914.5 C 2484.33,1914.17 2427.33,1914.5 2370.5,1915.5C 2369.96,1915.44 2369.62,1915.11 2369.5,1914.5C 2427,1913.17 2484.33,1913.17 2541.5,1914.5 Z"/></g>
<g><path style="opacity:1" fill="#fe7c00" d="M 2541.5,1914.5 C 2567.08,1916.54 2588.24,1927.2 2605,1946.5C 2681.42,2055.01 2758.09,2163.34 2835,2271.5C 2834.85,2275.16 2833.52,2278.49 2831,2281.5C 2807,2314.83 2783,2348.17 2759,2381.5C 2742.89,2397.6 2723.39,2406.27 2700.5,2407.5C 2643.33,2407.83 2586.33,2407.5 2529.5,2406.5C 2561.06,2362.41 2592.39,2318.08 2623.5,2273.5C 2539.16,2154.14 2454.82,2034.8 2370.5,1915.5C 2427.33,1914.5 2484.33,1914.17 2541.5,1914.5 Z"/></g>
<g><path style="opacity:1" fill="#fefefe" d="M 1030.5,1917.5 C 1074.5,1917.5 1118.5,1917.5 1162.5,1917.5C 1162.33,2020.17 1162.5,2122.83 1163,2225.5C 1169.07,2270.73 1194.9,2294.73 1240.5,2297.5C 1285.71,2295.45 1311.88,2272.12 1319,2227.5C 1319.5,2124.17 1319.67,2020.83 1319.5,1917.5C 1363.5,1917.5 1407.5,1917.5 1451.5,1917.5C 1451.67,2026.5 1451.5,2135.5 1451,2244.5C 1444.24,2319.18 1405.74,2369.68 1335.5,2396C 1282.99,2413.01 1229.66,2416.01 1175.5,2405C 1126.49,2394.77 1087.32,2369.6 1058,2329.5C 1042.84,2305.68 1033.84,2279.68 1031,2251.5C 1030.5,2140.17 1030.33,2028.83 1030.5,1917.5 Z"/></g>
<g><path style="opacity:1" fill="#fefefe" d="M 2069.5,2405.5 C 2021.82,2406.16 1974.49,2405.5 1927.5,2403.5C 1980.43,2241.72 2033.76,2080.05 2087.5,1918.5C 2148.07,1917.17 2208.57,1917.17 2269,1918.5C 2322.8,2080.75 2376.3,2243.08 2429.5,2405.5C 2381.83,2405.5 2334.17,2405.5 2286.5,2405.5C 2277.34,2374.54 2268.34,2343.54 2259.5,2312.5C 2205.5,2312.17 2151.5,2312.5 2097.5,2313.5C 2087.96,2344.12 2078.63,2374.79 2069.5,2405.5 Z"/></g>
<g><path style="opacity:1" fill="#097edb" d="M 2227.5,2210.5 C 2211.35,2211.83 2194.85,2212.5 2178,2212.5C 2161.33,2212.5 2144.83,2212.17 2128.5,2211.5C 2144.01,2158.45 2159.68,2105.45 2175.5,2052.5C 2179.42,2051.93 2181.59,2053.6 2182,2057.5C 2197.64,2108.39 2212.8,2159.39 2227.5,2210.5 Z"/></g>
<g><path style="opacity:1" fill="#429ee4" d="M 2227.5,2210.5 C 2228.4,2211.21 2228.74,2212.21 2228.5,2213.5C 2194.83,2213.83 2161.16,2213.5 2127.5,2212.5C 2127.62,2211.89 2127.96,2211.56 2128.5,2211.5C 2144.83,2212.17 2161.33,2212.5 2178,2212.5C 2194.85,2212.5 2211.35,2211.83 2227.5,2210.5 Z"/></g>
<g><path style="opacity:1" fill="#69b2ea" d="M 1927.5,2403.5 C 1974.49,2405.5 2021.82,2406.16 2069.5,2405.5C 2022,2406.5 1974.34,2406.83 1926.5,2406.5C 1926.26,2405.21 1926.6,2404.21 1927.5,2403.5 Z"/></g>
<g><path style="opacity:1" fill="#507c96" d="M 2529.5,2406.5 C 2586.33,2407.5 2643.33,2407.83 2700.5,2407.5C 2643.33,2408.83 2586,2408.83 2528.5,2407.5C 2528.62,2406.89 2528.96,2406.56 2529.5,2406.5 Z"/></g>
</svg>
