<svg width="20" height="20" viewBox="0 0 20 20" fill="none" xmlns="http://www.w3.org/2000/svg">
<rect width="20" height="20" rx="10" fill="#E7EFFF"/>
<path fill-rule="evenodd" clip-rule="evenodd" d="M6.22407 6.22481C6.46815 5.98073 6.86388 5.98073 7.10796 6.22481L9.99935 9.1162L12.8907 6.22481C13.1348 5.98073 13.5305 5.98073 13.7746 6.22481C14.0187 6.46888 14.0187 6.86461 13.7746 7.10869L10.8832 10.0001L13.7746 12.8915C14.0187 13.1356 14.0187 13.5313 13.7746 13.7754C13.5305 14.0194 13.1348 14.0194 12.8907 13.7754L9.99935 10.884L7.10796 13.7754C6.86388 14.0194 6.46815 14.0194 6.22407 13.7754C5.98 13.5313 5.98 13.1356 6.22407 12.8915L9.11547 10.0001L6.22407 7.10869C5.98 6.86461 5.98 6.46888 6.22407 6.22481Z" fill="#027DDB"/>
</svg>
