<svg width="48" height="48" viewBox="0 0 48 48" fill="none" xmlns="http://www.w3.org/2000/svg">
<rect x="1" y="1" width="46" height="46" rx="23" fill="white"/>
<rect x="1" y="1" width="46" height="46" rx="23" stroke="#027DDB" stroke-width="2"/>
<path fill-rule="evenodd" clip-rule="evenodd" d="M14.9393 14.9393C15.5251 14.3536 16.4749 14.3536 17.0607 14.9393L24 21.8787L30.9393 14.9393C31.5251 14.3536 32.4749 14.3536 33.0607 14.9393C33.6464 15.5251 33.6464 16.4749 33.0607 17.0607L26.1213 24L33.0607 30.9393C33.6464 31.5251 33.6464 32.4749 33.0607 33.0607C32.4749 33.6464 31.5251 33.6464 30.9393 33.0607L24 26.1213L17.0607 33.0607C16.4749 33.6464 15.5251 33.6464 14.9393 33.0607C14.3536 32.4749 14.3536 31.5251 14.9393 30.9393L21.8787 24L14.9393 17.0607C14.3536 16.4749 14.3536 15.5251 14.9393 14.9393Z" fill="#027DDB"/>
</svg>
