<svg width="400" height="48" viewBox="0 0 400 48" fill="none" xmlns="http://www.w3.org/2000/svg">
<path d="M0 24H64" stroke="#027DDB"/>
<rect x="64" width="48" height="48" rx="24" fill="#027DDB"/>
<path d="M89.2979 29H87.3018V22.1641H84.9707V20.8379C85.5859 20.8105 86.0166 20.7695 86.2627 20.7148C86.6546 20.6283 86.9736 20.4551 87.2197 20.1953C87.3883 20.0176 87.516 19.7806 87.6025 19.4844C87.6527 19.3066 87.6777 19.1745 87.6777 19.0879H89.2979V29Z" fill="white"/>
<path d="M112 24H176" stroke="#027DDB"/>
<rect x="176" width="48" height="48" rx="24" fill="#027DDB"/>
<path d="M200.867 21.1045C200.635 20.8265 200.302 20.6875 199.869 20.6875C199.277 20.6875 198.873 20.9085 198.659 21.3506C198.536 21.6058 198.463 22.0114 198.44 22.5674H196.547C196.579 21.7243 196.731 21.043 197.005 20.5234C197.524 19.5345 198.447 19.04 199.773 19.04C200.822 19.04 201.656 19.3317 202.275 19.915C202.895 20.4938 203.205 21.2617 203.205 22.2188C203.205 22.9525 202.986 23.6042 202.549 24.1738C202.262 24.5521 201.79 24.9736 201.134 25.4385L200.354 25.9922C199.867 26.3385 199.532 26.5892 199.35 26.7441C199.172 26.8991 199.021 27.0791 198.898 27.2842H203.226V29H196.438C196.456 28.2891 196.608 27.6396 196.896 27.0518C197.174 26.391 197.83 25.6914 198.864 24.9531C199.762 24.3105 200.343 23.8503 200.607 23.5723C201.013 23.1393 201.216 22.6654 201.216 22.1504C201.216 21.7311 201.1 21.3825 200.867 21.1045Z" fill="white"/>
<path d="M224 24H288" stroke="#027DDB"/>
<rect x="288" width="48" height="48" rx="24" fill="#027DDB"/>
<path d="M310.68 21.0635C310.461 21.3551 310.356 21.7448 310.365 22.2324H308.547C308.565 21.7402 308.649 21.2731 308.8 20.8311C308.959 20.4437 309.21 20.0859 309.552 19.7578C309.807 19.5254 310.11 19.3477 310.461 19.2246C310.812 19.1016 311.243 19.04 311.753 19.04C312.701 19.04 313.464 19.2861 314.043 19.7783C314.626 20.266 314.918 20.9222 314.918 21.7471C314.918 22.3304 314.745 22.8226 314.398 23.2236C314.18 23.4743 313.952 23.6452 313.715 23.7363C313.893 23.7363 314.148 23.889 314.48 24.1943C314.977 24.6546 315.226 25.2835 315.226 26.0811C315.226 26.9196 314.934 27.6579 314.351 28.2959C313.772 28.9294 312.913 29.2461 311.773 29.2461C310.37 29.2461 309.395 28.7881 308.848 27.8721C308.561 27.3844 308.401 26.7464 308.369 25.958H310.283C310.283 26.3545 310.347 26.6826 310.475 26.9424C310.712 27.4209 311.142 27.6602 311.767 27.6602C312.149 27.6602 312.482 27.5303 312.765 27.2705C313.052 27.0062 313.195 26.6279 313.195 26.1357C313.195 25.484 312.931 25.0488 312.402 24.8301C312.102 24.707 311.628 24.6455 310.98 24.6455V23.251C311.614 23.2419 312.056 23.1803 312.307 23.0664C312.74 22.875 312.956 22.4876 312.956 21.9043C312.956 21.526 312.844 21.2184 312.621 20.9814C312.402 20.7445 312.092 20.626 311.691 20.626C311.231 20.626 310.894 20.7718 310.68 21.0635Z" fill="white"/>
<path d="M336 24H400" stroke="#027DDB"/>
</svg>
