<svg width="400" height="48" viewBox="0 0 400 48" fill="none" xmlns="http://www.w3.org/2000/svg">
<path d="M0 24H64" stroke="#027DDB"/>
<rect x="64" width="48" height="48" rx="24" fill="#027DDB"/>
<path d="M89.2979 29H87.3018V22.1641H84.9707V20.8379C85.5859 20.8105 86.0166 20.7695 86.2627 20.7148C86.6546 20.6283 86.9736 20.4551 87.2197 20.1953C87.3883 20.0176 87.516 19.7806 87.6025 19.4844C87.6527 19.3066 87.6777 19.1745 87.6777 19.0879H89.2979V29Z" fill="white"/>
<path d="M112 24H176" stroke="#027DDB"/>
<rect x="176" width="48" height="48" rx="24" fill="#027DDB"/>
<path d="M200.867 21.1045C200.635 20.8265 200.302 20.6875 199.869 20.6875C199.277 20.6875 198.873 20.9085 198.659 21.3506C198.536 21.6058 198.463 22.0114 198.44 22.5674H196.547C196.579 21.7243 196.731 21.043 197.005 20.5234C197.524 19.5345 198.447 19.04 199.773 19.04C200.822 19.04 201.656 19.3317 202.275 19.915C202.895 20.4938 203.205 21.2617 203.205 22.2188C203.205 22.9525 202.986 23.6042 202.549 24.1738C202.262 24.5521 201.79 24.9736 201.134 25.4385L200.354 25.9922C199.867 26.3385 199.532 26.5892 199.35 26.7441C199.172 26.8991 199.021 27.0791 198.898 27.2842H203.226V29H196.438C196.456 28.2891 196.608 27.6396 196.896 27.0518C197.174 26.391 197.83 25.6914 198.864 24.9531C199.762 24.3105 200.343 23.8503 200.607 23.5723C201.013 23.1393 201.216 22.6654 201.216 22.1504C201.216 21.7311 201.1 21.3825 200.867 21.1045Z" fill="white"/>
<path d="M224 24H288" stroke="#027DDB"/>
<rect x="288.5" y="0.5" width="47" height="47" rx="23.5" stroke="#027DDB"/>
<path d="M311.637 29.2666C310.479 29.2666 309.638 28.9499 309.114 28.3164C308.595 27.6784 308.335 26.9036 308.335 25.9922H309.62C309.675 26.6257 309.793 27.0859 309.976 27.373C310.295 27.888 310.871 28.1455 311.705 28.1455C312.352 28.1455 312.872 27.9723 313.264 27.626C313.656 27.2796 313.852 26.833 313.852 26.2861C313.852 25.6117 313.644 25.14 313.229 24.8711C312.819 24.6022 312.247 24.4678 311.514 24.4678C311.432 24.4678 311.347 24.4701 311.261 24.4746C311.179 24.4746 311.094 24.4769 311.008 24.4814V23.3945C311.135 23.4082 311.243 23.4173 311.329 23.4219C311.416 23.4264 311.509 23.4287 311.609 23.4287C312.07 23.4287 312.448 23.3558 312.744 23.21C313.264 22.9548 313.523 22.499 313.523 21.8428C313.523 21.3551 313.35 20.9792 313.004 20.7148C312.658 20.4505 312.254 20.3184 311.794 20.3184C310.974 20.3184 310.406 20.5918 310.092 21.1387C309.919 21.4395 309.821 21.8678 309.798 22.4238H308.581C308.581 21.6947 308.727 21.0749 309.019 20.5645C309.52 19.653 310.402 19.1973 311.664 19.1973C312.662 19.1973 313.435 19.4206 313.981 19.8672C314.528 20.3092 314.802 20.9518 314.802 21.7949C314.802 22.3965 314.64 22.8841 314.316 23.2578C314.116 23.4902 313.856 23.6725 313.537 23.8047C314.052 23.946 314.453 24.2194 314.74 24.625C315.032 25.026 315.178 25.5182 315.178 26.1016C315.178 27.0358 314.87 27.7969 314.255 28.3848C313.64 28.9727 312.767 29.2666 311.637 29.2666Z" fill="#001526"/>
<path d="M336 24H400" stroke="#027DDB"/>
</svg>
