<svg width="48" height="48" viewBox="0 0 48 48" fill="none" xmlns="http://www.w3.org/2000/svg">
<g clip-path="url(#clip0_705_7411)">
<path d="M45.3713 25.3858C45.3713 37.1889 35.803 46.7573 23.9998 46.7573C12.1967 46.7573 2.62842 37.1889 2.62842 25.3858C2.62842 13.5827 12.1967 4.0144 23.9998 4.0144C35.803 4.0144 45.3713 13.5827 45.3713 25.3858Z" fill="#027DDB"/>
<path fill-rule="evenodd" clip-rule="evenodd" d="M20.8542 6.21558C20.9204 6.55636 20.6979 6.88629 20.3571 6.95251C11.7099 8.63276 5.18195 16.2476 5.18195 25.3858C5.18195 30.049 6.88085 34.3138 9.69426 37.5974C9.92013 37.861 9.88953 38.2578 9.62591 38.4837C9.36229 38.7095 8.96548 38.6789 8.7396 38.4153C5.73838 34.9125 3.9248 30.3601 3.9248 25.3858C3.9248 15.6344 10.8905 7.51131 20.1173 5.71845C20.4581 5.65223 20.788 5.8748 20.8542 6.21558Z" fill="#F7F9FC"/>
<path d="M12.6855 14.0716C12.6855 13.3773 13.2484 12.8145 13.9427 12.8145H34.057C34.7513 12.8145 35.3141 13.3773 35.3141 14.0716V34.1859C35.3141 34.8802 34.7513 35.443 34.057 35.443H13.9427C13.2484 35.443 12.6855 34.8802 12.6855 34.1859V14.0716Z" fill="#FF7C00"/>
<path fill-rule="evenodd" clip-rule="evenodd" d="M13.9033 14.6215C13.9033 14.2743 14.1847 13.9929 14.5319 13.9929H30.8748C31.2219 13.9929 31.5033 14.2743 31.5033 14.6215C31.5033 14.9686 31.2219 15.2501 30.8748 15.2501H15.1605V28.4501C15.1605 28.7972 14.879 29.0786 14.5319 29.0786C14.1847 29.0786 13.9033 28.7972 13.9033 28.4501V14.6215Z" fill="#E7EFFF"/>
<path d="M20.2285 12.8145H27.7714V16.5859L25.8857 15.6879L23.9999 16.5859L22.1142 15.6879L20.2285 16.5859V12.8145Z" fill="#FF7C00"/>
<path fill-rule="evenodd" clip-rule="evenodd" d="M21.4463 14.6215C21.4463 14.2743 21.7277 13.9929 22.0749 13.9929H25.8463C26.1934 13.9929 26.4749 14.2743 26.4749 14.6215C26.4749 14.9686 26.1934 15.2501 25.8463 15.2501H22.0749C21.7277 15.2501 21.4463 14.9686 21.4463 14.6215Z" fill="#E7EFFF"/>
<path fill-rule="evenodd" clip-rule="evenodd" d="M24 4.64289C12.544 4.64289 3.25714 13.9298 3.25714 25.3857C3.25714 36.8417 12.544 46.1286 24 46.1286C35.456 46.1286 44.7429 36.8417 44.7429 25.3857C44.7429 25.0386 45.0243 24.7572 45.3714 24.7572C45.7186 24.7572 46 25.0386 46 25.3857C46 37.536 36.1503 47.3857 24 47.3857C11.8497 47.3857 2 37.536 2 25.3857C2 13.2355 11.8497 3.38574 24 3.38574C24.3472 3.38574 24.6286 3.66716 24.6286 4.01431C24.6286 4.36146 24.3472 4.64289 24 4.64289Z" fill="#0040A0"/>
<path fill-rule="evenodd" clip-rule="evenodd" d="M21.041 -0.201638C21.2865 -0.44711 21.6845 -0.44711 21.93 -0.201638L25.7014 3.56979C25.9469 3.81526 25.9469 4.21325 25.7014 4.45872L21.93 8.23015C21.6845 8.47563 21.2865 8.47563 21.041 8.23015C20.7956 7.98468 20.7956 7.58669 21.041 7.34122L24.368 4.01426L21.041 0.687296C20.7956 0.441824 20.7956 0.0438345 21.041 -0.201638Z" fill="#0040A0"/>
<path fill-rule="evenodd" clip-rule="evenodd" d="M12.0571 14.0715C12.0571 13.0301 12.9014 12.1858 13.9428 12.1858H34.0571C35.0986 12.1858 35.9428 13.0301 35.9428 14.0715V34.1858C35.9428 35.2272 35.0986 36.0715 34.0571 36.0715H13.9428C12.9014 36.0715 12.0571 35.2272 12.0571 34.1858V14.0715ZM13.9428 13.4429C13.5957 13.4429 13.3143 13.7244 13.3143 14.0715V34.1858C13.3143 34.5329 13.5957 34.8144 13.9428 34.8144H34.0571C34.4043 34.8144 34.6857 34.5329 34.6857 34.1858V14.0715C34.6857 13.7244 34.4043 13.4429 34.0571 13.4429H13.9428Z" fill="#0040A0"/>
<path fill-rule="evenodd" clip-rule="evenodd" d="M19.6001 12.8144C19.6001 12.4672 19.8815 12.1858 20.2287 12.1858H27.7715C28.1187 12.1858 28.4001 12.4672 28.4001 12.8144V16.9001C28.4001 17.1179 28.2873 17.3202 28.102 17.4348C27.9167 17.5493 27.6853 17.5597 27.4904 17.4623L25.8858 16.66L24.2812 17.4623C24.1042 17.5508 23.896 17.5508 23.719 17.4623L22.1144 16.66L20.5098 17.4623C20.3149 17.5597 20.0835 17.5493 19.8982 17.4348C19.7129 17.3202 19.6001 17.1179 19.6001 16.9001V12.8144ZM20.8572 13.4429V15.883L21.8333 15.395C22.0102 15.3065 22.2185 15.3065 22.3955 15.395L24.0001 16.1973L25.6047 15.395C25.7817 15.3065 25.99 15.3065 26.1669 15.395L27.143 15.883V13.4429H20.8572Z" fill="#0040A0"/>
<path fill-rule="evenodd" clip-rule="evenodd" d="M27.9704 21.0179C28.2271 21.1034 28.4002 21.3437 28.4002 21.6142V29.1571C28.4002 29.5042 28.1188 29.7856 27.7716 29.7856C27.4245 29.7856 27.143 29.5042 27.143 29.1571V23.4999L24.503 27.0199C24.2948 27.2976 23.9008 27.3539 23.623 27.1456C23.3453 26.9373 23.289 26.5434 23.4973 26.2656L27.2688 21.2371C27.4311 21.0206 27.7137 20.9323 27.9704 21.0179Z" fill="#0040A0"/>
<path fill-rule="evenodd" clip-rule="evenodd" d="M23.3716 26.643C23.3716 26.2958 23.653 26.0144 24.0002 26.0144H29.0287C29.3759 26.0144 29.6573 26.2958 29.6573 26.643C29.6573 26.9901 29.3759 27.2715 29.0287 27.2715H24.0002C23.653 27.2715 23.3716 26.9901 23.3716 26.643Z" fill="#0040A0"/>
<path fill-rule="evenodd" clip-rule="evenodd" d="M19.5335 23.1528C19.3781 23.463 19.0007 23.5887 18.6904 23.4335C18.3799 23.2783 18.254 22.9007 18.4093 22.5902L18.9715 22.8713C18.4093 22.5902 18.4094 22.59 18.4095 22.5898L18.4097 22.5893L18.4103 22.5882L18.4115 22.5857L18.4148 22.5794L18.4242 22.5614C18.4319 22.5471 18.4422 22.5282 18.4552 22.5054C18.4812 22.46 18.5182 22.3984 18.5663 22.3262C18.6619 22.1828 18.8053 21.9914 18.9984 21.7983C19.3812 21.4155 20.0031 20.9856 20.8572 20.9856C21.5008 20.9856 22.1358 21.1806 22.6164 21.6232C23.1055 22.0737 23.3715 22.7226 23.3715 23.4999C23.3715 24.2036 23.0126 24.7446 22.6099 25.1697C22.3152 25.4808 21.9384 25.7866 21.5842 26.0742C21.4727 26.1647 21.3634 26.2534 21.2596 26.3399C20.4996 26.9732 19.8659 27.6135 19.6658 28.5285H22.7429C23.0901 28.5285 23.3715 28.8099 23.3715 29.157C23.3715 29.5042 23.0901 29.7856 22.7429 29.7856H18.9715C18.6243 29.7856 18.3429 29.5042 18.3429 29.157C18.3429 27.283 19.4919 26.1766 20.4548 25.3741C20.5924 25.2595 20.723 25.1534 20.8466 25.0529C21.1807 24.7815 21.464 24.5513 21.6973 24.3051C22.0018 23.9837 22.1143 23.7391 22.1143 23.4999C22.1143 23.02 21.9582 22.7261 21.7648 22.548C21.5629 22.362 21.255 22.2427 20.8572 22.2427C20.4541 22.2427 20.1332 22.4414 19.8874 22.6872C19.7662 22.8084 19.6739 22.9312 19.6123 23.0236C19.5819 23.0692 19.56 23.1059 19.5467 23.1292C19.5401 23.1408 19.5357 23.1489 19.5335 23.153C19.5324 23.155 19.5319 23.1561 19.5319 23.156L19.5324 23.1551L19.5329 23.154L19.5333 23.1532L19.5335 23.1528Z" fill="#0040A0"/>
</g>
<defs>
<clipPath id="clip0_705_7411">
<rect width="48" height="48" fill="white"/>
</clipPath>
</defs>
</svg>
