<svg width="48" height="48" viewBox="0 0 48 48" fill="none" xmlns="http://www.w3.org/2000/svg">
<g clip-path="url(#clip0_705_7429)">
<path d="M8.87695 14.4482L27.6356 20.3103V41.4138L8.87695 35.5517V14.4482Z" fill="#FF7C00"/>
<path d="M46.3945 14.4482L27.6359 20.3103V41.4138L46.3945 35.5517V14.4482Z" fill="#FF7C00"/>
<path d="M27.6359 20.3103L8.87729 14.4482L27.6359 8.58617L46.3945 14.4482L27.6359 20.3103Z" fill="#FF7C00"/>
<path fill-rule="evenodd" clip-rule="evenodd" d="M27.8106 18.8547C27.6968 18.8902 27.5748 18.8902 27.4609 18.8547L15.7368 15.1909C15.4278 15.0943 15.2556 14.7655 15.3521 14.4565C15.4487 14.1475 15.7775 13.9753 16.0865 14.0718L27.6358 17.681L39.1851 14.0718C39.4941 13.9753 39.8229 14.1475 39.9194 14.4565C40.016 14.7655 39.8438 15.0943 39.5348 15.1909L27.8106 18.8547Z" fill="#FFE7CB"/>
<path d="M15.2486 25.0569L11.1341 20.8771C10.401 20.1323 9.13361 20.6515 9.13361 21.6965C9.13361 22.3416 8.61065 22.8646 7.96555 22.8646L1.40301 22.8646C0.755501 22.8646 0.230593 23.3895 0.230593 24.037L0.230593 27.7217C0.230593 28.3692 0.755499 28.8941 1.40301 28.8941L7.96555 28.8941C8.61065 28.8941 9.13361 29.4171 9.13361 30.0622C9.13361 31.1073 10.401 31.6264 11.1341 30.8816L15.2486 26.7018C15.6977 26.2455 15.6977 25.5132 15.2486 25.0569Z" fill="#027DDB"/>
<path fill-rule="evenodd" clip-rule="evenodd" d="M7.74121 24.3299C7.74121 24.6536 7.47876 24.9161 7.155 24.9161L2.35544 24.9161L2.35544 27.4179C2.35544 27.7417 2.09298 28.0041 1.76923 28.0041C1.44548 28.0041 1.18302 27.7417 1.18302 27.4179L1.18302 24.3299C1.18302 24.0061 1.44548 23.7437 1.76923 23.7437L7.155 23.7437C7.47876 23.7437 7.74121 24.0061 7.74121 24.3299Z" fill="#F7F9FC"/>
<path fill-rule="evenodd" clip-rule="evenodd" d="M9.41823 16.724C9.51698 16.4156 9.84698 16.2457 10.1553 16.3445L20.9046 19.7872L20.9085 19.7885L25.5942 21.2527C25.9033 21.3493 26.0755 21.6781 25.9789 21.9871C25.8823 22.2961 25.5536 22.4683 25.2445 22.3718L20.5509 20.905L9.7977 17.461C9.48938 17.3623 9.31948 17.0323 9.41823 16.724Z" fill="#FFDAB8"/>
<path d="M33.7715 32.9138L30.713 33.8696V37.3104L33.7715 36.3546V32.9138Z" fill="#FFF6A2"/>
<path fill-rule="evenodd" clip-rule="evenodd" d="M27.8105 20.8698C27.6966 20.9054 27.5746 20.9054 27.4608 20.8698L8.70217 15.0077C8.45744 14.9313 8.29081 14.7046 8.29081 14.4482C8.29081 14.1918 8.45744 13.9652 8.70217 13.8887L27.4608 8.02662C27.5746 7.99104 27.6966 7.99104 27.8105 8.02662L46.5691 13.8887C46.8138 13.9652 46.9805 14.1918 46.9805 14.4482C46.9805 14.7046 46.8138 14.9313 46.5691 15.0077L27.8105 20.8698ZM44.4289 14.4482L27.6356 9.2003L10.8423 14.4482L27.6356 19.6961L44.4289 14.4482Z" fill="#0040A0"/>
<path fill-rule="evenodd" clip-rule="evenodd" d="M46.3943 13.8621C46.0705 13.8621 45.8081 14.1245 45.8081 14.4483V35.1207L28.2218 40.6164V20.3103C28.2218 19.9866 27.9594 19.7241 27.6356 19.7241C27.3119 19.7241 27.0494 19.9866 27.0494 20.3103V41.4138C27.0494 41.6003 27.1382 41.7756 27.2884 41.8861C27.4387 41.9965 27.6325 42.0289 27.8105 41.9733L46.5691 36.1112C46.8138 36.0348 46.9805 35.8081 46.9805 35.5517V14.4483C46.9805 14.1245 46.718 13.8621 46.3943 13.8621Z" fill="#0040A0"/>
<path fill-rule="evenodd" clip-rule="evenodd" d="M27.6355 19.7241C27.9593 19.7241 28.2217 19.9866 28.2217 20.3103V41.4138C28.2217 41.6003 28.133 41.7756 27.9827 41.8861C27.8325 41.9965 27.6387 42.0289 27.4607 41.9733L8.70204 36.1112C8.39302 36.0147 8.2208 35.6859 8.31737 35.3769C8.41394 35.0678 8.74273 34.8956 9.05174 34.9922L27.0493 40.6164V20.3103C27.0493 19.9866 27.3118 19.7241 27.6355 19.7241Z" fill="#0040A0"/>
<path fill-rule="evenodd" clip-rule="evenodd" d="M20.0431 10.7509C20.1425 10.4428 20.4729 10.2736 20.781 10.3729L38.9534 16.235C39.1955 16.3131 39.3596 16.5385 39.3596 16.7929V22.0688C39.3596 22.3925 39.0972 22.655 38.7734 22.655C38.4497 22.655 38.1872 22.3925 38.1872 22.0688V17.2198L20.421 11.4887C20.1129 11.3894 19.9437 11.059 20.0431 10.7509Z" fill="#0040A0"/>
<path fill-rule="evenodd" clip-rule="evenodd" d="M14.8305 26.2906C15.0551 26.0624 15.0551 25.6963 14.8305 25.4681L10.7161 21.2883C10.3509 20.9173 9.71955 21.1759 9.71955 21.6965C9.71955 22.6654 8.93413 23.4508 7.96528 23.4508L1.40274 23.4508C1.07899 23.4508 0.816531 23.7132 0.816531 24.037L0.816531 27.7217C0.816531 28.0455 1.07899 28.3079 1.40274 28.3079L7.96528 28.3079C8.93413 28.3079 9.71955 29.0933 9.71955 30.0622C9.71955 30.5828 10.3509 30.8414 10.7161 30.4704L14.8305 26.2906ZM15.6661 24.6456C16.3398 25.3301 16.3398 26.4286 15.6661 27.113L11.5516 31.2928C10.4505 32.4114 8.54713 31.6317 8.54713 30.0622C8.54713 29.7408 8.28663 29.4803 7.96528 29.4803L1.40274 29.4803C0.431479 29.4803 -0.355883 28.693 -0.355883 27.7217L-0.355883 24.037C-0.355883 23.0657 0.431479 22.2784 1.40274 22.2784L7.96528 22.2784C8.28663 22.2784 8.54713 22.0179 8.54713 21.6965C8.54713 20.127 10.4505 19.3473 11.5516 20.4659L15.6661 24.6456Z" fill="#0040A0"/>
<path fill-rule="evenodd" clip-rule="evenodd" d="M34.1184 32.4415C33.9682 32.3311 33.7744 32.2987 33.5964 32.3543L30.5379 33.3101C30.2932 33.3866 30.1265 33.6132 30.1265 33.8696V37.3104C30.1265 37.4969 30.2153 37.6722 30.3655 37.7827C30.5158 37.8932 30.7096 37.9255 30.8876 37.8699L33.9461 36.9142C34.1908 36.8377 34.3574 36.611 34.3574 36.3546V32.9138C34.3574 32.7274 34.2687 32.552 34.1184 32.4415ZM33.185 33.7112V35.9237L31.299 36.513V34.3006L33.185 33.7112Z" fill="#0040A0"/>
</g>
<defs>
<clipPath id="clip0_705_7429">
<rect width="48" height="48" fill="white"/>
</clipPath>
</defs>
</svg>
