<svg width="48" height="48" viewBox="0 0 48 48" fill="none" xmlns="http://www.w3.org/2000/svg">
<path d="M42.0838 26.33C42.0838 35.5889 34.5779 43.0947 25.319 43.0947C16.06 43.0947 8.5542 35.5889 8.5542 26.33C8.5542 17.071 16.06 9.56519 25.319 9.56519C34.5779 9.56519 42.0838 17.071 42.0838 26.33Z" fill="#027DDB"/>
<path d="M18.2593 27.0108C14.2979 25.3734 15.1122 21.971 16.0145 20.4744C19.7119 14.7964 28.229 18.2296 27.1066 21.2667C26.2086 23.6964 27.2166 24.3919 27.8328 24.4359C28.8672 24.5239 30.4738 25.6507 28.6251 29.4537C26.7764 33.2567 23.5858 31.7464 22.815 30.4441C22.0442 29.1417 22.2208 28.6482 18.2593 27.0108Z" fill="#E7EFFF"/>
<path d="M40.0936 25.3771C39.6088 19.6725 37.1589 17.1052 35.9945 16.5346C33.0619 15.6882 34.435 20.7451 35.4293 22.0606C36.4237 23.376 36.2943 24.3609 36.3147 26.0329C36.3351 27.705 37.2608 30.8113 38.6334 29.7777C40.0061 28.744 40.2322 27.0087 40.0936 25.3771Z" fill="#E7EFFF"/>
<path fill-rule="evenodd" clip-rule="evenodd" d="M25.319 12.2221C17.5275 12.2221 11.2112 18.5384 11.2112 26.33C11.2112 29.3173 12.139 32.0861 13.7222 34.3663C13.9108 34.6379 13.8434 35.011 13.5718 35.1996C13.3002 35.3882 12.9271 35.3209 12.7385 35.0492C11.0206 32.575 10.0137 29.5692 10.0137 26.33C10.0137 17.8771 16.8661 11.0247 25.319 11.0247C25.6497 11.0247 25.9178 11.2927 25.9178 11.6234C25.9178 11.9541 25.6497 12.2221 25.319 12.2221Z" fill="#E7EFFF"/>
<path d="M12.1465 3.57786C12.1465 2.9165 12.6826 2.38037 13.344 2.38037H25.3188C25.9802 2.38037 26.5163 2.9165 26.5163 3.57786V13.1577C26.5163 13.8191 25.9802 14.3552 25.3188 14.3552H13.344C12.6826 14.3552 12.1465 13.8191 12.1465 13.1577V3.57786Z" fill="#FF7C00"/>
<path fill-rule="evenodd" clip-rule="evenodd" d="M12.7456 3.57775C12.7456 3.24707 13.0137 2.979 13.3443 2.979H24.1217C24.4524 2.979 24.7204 3.24707 24.7204 3.57775C24.7204 3.90842 24.4524 4.17649 24.1217 4.17649H13.9431V11.9601C13.9431 12.2908 13.675 12.5589 13.3443 12.5589C13.0137 12.5589 12.7456 12.2908 12.7456 11.9601V3.57775Z" fill="#FFDAB8"/>
<path d="M16.9365 2.38037H21.7265V5.97282L20.529 5.45962L19.3315 5.97282L18.134 5.45962L16.9365 5.97282V2.38037Z" fill="#FFF6A2"/>
<path fill-rule="evenodd" clip-rule="evenodd" d="M29.5352 10.0888C29.6295 9.77182 29.9629 9.59135 30.2798 9.68568C37.4517 11.8201 42.6826 18.4635 42.6826 26.3301C42.6826 35.9197 34.9087 43.6936 25.3191 43.6936C15.7295 43.6936 7.95557 35.9197 7.95557 26.3301C7.95557 22.6417 9.10624 19.2204 11.0682 16.4077C11.2573 16.1364 11.6306 16.0699 11.9018 16.2591C12.173 16.4483 12.2395 16.8215 12.0503 17.0927C10.224 19.711 9.15305 22.8946 9.15305 26.3301C9.15305 35.2583 16.3908 42.4961 25.3191 42.4961C34.2473 42.4961 41.4851 35.2583 41.4851 26.3301C41.4851 19.0077 36.6164 12.8209 29.9382 10.8334C29.6213 10.7391 29.4408 10.4057 29.5352 10.0888Z" fill="#0040A0"/>
<path fill-rule="evenodd" clip-rule="evenodd" d="M40.0556 7.25364C38.3553 7.3988 36.2791 8.04123 33.9593 9.14916C33.6609 9.29168 33.3035 9.16532 33.161 8.86693C33.0185 8.56854 33.1449 8.21111 33.4432 8.0686C35.8357 6.92592 38.0577 6.22237 39.9538 6.06049C41.8463 5.89892 43.5006 6.27311 44.6262 7.39868C46.342 9.11452 46.3246 12.0438 45.2675 15.3319C44.193 18.6745 41.9732 22.634 38.8782 26.6932C38.6777 26.9562 38.302 27.0068 38.0391 26.8063C37.7761 26.6058 37.7255 26.2301 37.926 25.9672C40.9712 21.9731 43.1085 18.1352 44.1275 14.9654C45.1641 11.7411 44.977 9.44295 43.7794 8.24543C42.9999 7.46588 41.7596 7.10817 40.0556 7.25364ZM32.7717 32.8012C33.0055 33.035 33.0055 33.4141 32.7717 33.6479C30.8313 35.5884 28.8515 37.354 26.8896 38.918C26.631 39.1242 26.2543 39.0816 26.0482 38.8231C25.8421 38.5645 25.8846 38.1878 26.1432 37.9817C28.069 36.4464 30.0153 34.7108 31.925 32.8012C32.1588 32.5673 32.5379 32.5673 32.7717 32.8012ZM7.92405 34.1711C8.22311 34.3122 8.35115 34.669 8.21004 34.9681C7.12993 37.2572 6.50776 39.304 6.37342 40.9803C6.23884 42.6596 6.59711 43.8835 7.36923 44.6557C8.4988 45.7852 10.6077 46.0191 13.5711 45.1621C16.49 44.3178 20.0335 42.4665 23.7719 39.7791C24.0404 39.5861 24.4146 39.6473 24.6076 39.9158C24.8006 40.1843 24.7394 40.5585 24.4709 40.7515C20.6675 43.4855 16.9993 45.4171 13.9038 46.3124C10.8529 47.1948 8.14492 47.1248 6.52248 45.5024C5.40771 44.3876 5.02996 42.754 5.17977 40.8846C5.32982 39.0123 6.01244 36.8193 7.12706 34.4571C7.26817 34.158 7.62499 34.03 7.92405 34.1711Z" fill="#0040A0"/>
<path fill-rule="evenodd" clip-rule="evenodd" d="M25.3188 35.0492C25.3188 34.7185 25.5869 34.4504 25.9176 34.4504H30.7075C30.8919 34.4504 31.066 34.5354 31.1795 34.6807C31.2929 34.826 31.3331 35.0155 31.2884 35.1944L30.0909 39.9843C30.0107 40.3051 29.6856 40.5002 29.3648 40.42C29.044 40.3398 28.849 40.0147 28.9292 39.6939L29.9407 35.6479H25.9176C25.5869 35.6479 25.3188 35.3799 25.3188 35.0492Z" fill="#0040A0"/>
<path fill-rule="evenodd" clip-rule="evenodd" d="M0.770508 3.57799C0.770508 3.24731 1.03857 2.97925 1.36925 2.97925H8.55416C8.88483 2.97925 9.1529 3.24731 9.1529 3.57799C9.1529 3.90867 8.88483 4.17673 8.55416 4.17673H1.36925C1.03857 4.17673 0.770508 3.90867 0.770508 3.57799Z" fill="#0040A0"/>
<path fill-rule="evenodd" clip-rule="evenodd" d="M3.16553 7.17052C3.16553 6.83984 3.43359 6.57178 3.76427 6.57178H8.55421C8.88488 6.57178 9.15295 6.83984 9.15295 7.17052C9.15295 7.5012 8.88488 7.76926 8.55421 7.76926H3.76427C3.43359 7.76926 3.16553 7.5012 3.16553 7.17052Z" fill="#0040A0"/>
<path fill-rule="evenodd" clip-rule="evenodd" d="M4.36279 10.763C4.36279 10.4324 4.63086 10.1643 4.96154 10.1643H8.55399C8.88466 10.1643 9.15273 10.4324 9.15273 10.763C9.15273 11.0937 8.88466 11.3618 8.55399 11.3618H4.96154C4.63086 11.3618 4.36279 11.0937 4.36279 10.763Z" fill="#0040A0"/>
<path fill-rule="evenodd" clip-rule="evenodd" d="M11.5479 3.57797C11.5479 2.58594 12.352 1.78174 13.3441 1.78174H25.3189C26.311 1.78174 27.1151 2.58594 27.1151 3.57797V13.1578C27.1151 14.1499 26.311 14.9541 25.3189 14.9541H13.3441C12.352 14.9541 11.5479 14.1499 11.5479 13.1578V3.57797ZM13.3441 2.97922C13.0134 2.97922 12.7453 3.24729 12.7453 3.57797V13.1578C12.7453 13.4885 13.0134 13.7566 13.3441 13.7566H25.3189C25.6496 13.7566 25.9177 13.4885 25.9177 13.1578V3.57797C25.9177 3.24729 25.6496 2.97922 25.3189 2.97922H13.3441Z" fill="#0040A0"/>
<path fill-rule="evenodd" clip-rule="evenodd" d="M16.3379 2.38048C16.3379 2.0498 16.606 1.78174 16.9366 1.78174H21.7266C22.0572 1.78174 22.3253 2.0498 22.3253 2.38048V5.97293C22.3253 6.1742 22.2242 6.36199 22.0562 6.47279C21.8881 6.58358 21.6757 6.60255 21.4907 6.52326L20.5291 6.11114L19.5675 6.52326C19.4168 6.58781 19.2464 6.58781 19.0957 6.52326L18.1341 6.11114L17.1725 6.52326C16.9875 6.60255 16.7751 6.58358 16.607 6.47279C16.439 6.36199 16.3379 6.1742 16.3379 5.97293V2.38048ZM17.5354 2.97922V5.06492L17.8983 4.90939C18.0489 4.84485 18.2194 4.84485 18.37 4.90939L19.3316 5.32152L20.2932 4.90939C20.4438 4.84485 20.6143 4.84485 20.7649 4.90939L21.1278 5.06492V2.97922H17.5354Z" fill="#0040A0"/>
</svg>
