<svg xmlns="http://www.w3.org/2000/svg" width="24" height="24" viewBox="0 0 24 24" fill="none">
  <g clip-path="url(#clip0_1941_5712)">
    <path opacity="0.991" fill-rule="evenodd" clip-rule="evenodd" d="M10.8984 -0.0234375C11.6172 -0.0234375 12.336 -0.0234375 13.0547 -0.0234375C17.2568 0.486933 20.4208 2.56506 22.5469 6.21094C23.3295 7.68614 23.806 9.24862 23.9766 10.8984C23.9766 11.6172 23.9766 12.336 23.9766 13.0547C23.4662 17.2568 21.3881 20.4208 17.7422 22.5469C16.267 23.3295 14.7045 23.806 13.0547 23.9766C12.336 23.9766 11.6172 23.9766 10.8984 23.9766C6.69637 23.4662 3.53232 21.3881 1.40625 17.7422C0.623686 16.267 0.147122 14.7045 -0.0234375 13.0547C-0.0234375 12.336 -0.0234375 11.6172 -0.0234375 10.8984C0.558113 6.36656 2.88623 3.07751 6.96094 1.03125C8.22412 0.473358 9.53662 0.121797 10.8984 -0.0234375ZM17.0859 7.24219C17.6951 7.19259 17.9529 7.47384 17.8594 8.08594C17.2091 11.1966 16.5529 14.306 15.8906 17.4141C15.739 18.1267 15.3562 18.2908 14.7422 17.9062C13.7782 17.1765 12.8017 16.4655 11.8125 15.7734C11.274 16.2807 10.7349 16.7885 10.1953 17.2969C10.0545 17.3904 9.91392 17.4295 9.77344 17.4141C9.85266 16.4142 9.93863 15.4142 10.0312 14.4141C11.9047 12.7439 13.764 11.0564 15.6094 9.35156C15.647 9.22383 15.6001 9.14573 15.4688 9.11719C15.3284 9.15356 15.1956 9.20827 15.0703 9.28125C12.8047 10.7109 10.539 12.1406 8.27344 13.5703C7.25948 13.2454 6.24389 12.925 5.22656 12.6094C4.83558 12.4204 4.80431 12.186 5.13281 11.9062C9.12 10.3457 13.1044 8.79098 17.0859 7.24219Z" fill="white"/>
  </g>
  <defs>
    <clipPath id="clip0_1941_5712">
      <rect width="24" height="24" fill="white"/>
    </clipPath>
  </defs>
</svg>