<svg width="32" height="33" viewBox="0 0 32 33" fill="none" xmlns="http://www.w3.org/2000/svg">
<g clip-path="url(#clip0_705_7500)">
<path d="M26.0002 17.8333C26.0002 22.988 21.8215 27.1667 16.6668 27.1667C11.5122 27.1667 7.3335 22.988 7.3335 17.8333C7.3335 12.6787 11.5122 8.5 16.6668 8.5C21.8215 8.5 26.0002 12.6787 26.0002 17.8333Z" fill="#027DDB"/>
<path d="M12.7362 18.2124C10.5307 17.3008 10.9841 15.4066 11.4864 14.5734C13.5448 11.4123 18.2865 13.3237 17.6616 15.0145C17.1617 16.3672 17.7229 16.7543 18.0659 16.7788C18.6418 16.8279 19.5362 17.4552 18.507 19.5724C17.4778 21.6896 15.7015 20.8488 15.2724 20.1237C14.8433 19.3987 14.9416 19.1239 12.7362 18.2124Z" fill="#AED5F3"/>
<path d="M24.8921 17.3028C24.6222 14.1269 23.2583 12.6977 22.6101 12.38C20.9774 11.9088 21.7419 14.7241 22.2954 15.4565C22.849 16.1888 22.777 16.7371 22.7883 17.668C22.7997 18.5989 23.3151 20.3282 24.0792 19.7527C24.8434 19.1773 24.9693 18.2112 24.8921 17.3028Z" fill="#AED5F3"/>
<path d="M9.3335 5.16667C9.3335 4.79848 9.63197 4.5 10.0002 4.5H16.6668C17.035 4.5 17.3335 4.79848 17.3335 5.16667V10.5C17.3335 10.8682 17.035 11.1667 16.6668 11.1667H10.0002C9.63197 11.1667 9.3335 10.8682 9.3335 10.5V5.16667Z" fill="#AED5F3"/>
<path d="M12 4.5H14.6667V6.5L14 6.21429L13.3333 6.5L12.6667 6.21429L12 6.5V4.5Z" fill="#027DDB"/>
<path fill-rule="evenodd" clip-rule="evenodd" d="M19.0138 8.79156C19.0664 8.61511 19.252 8.51465 19.4284 8.56716C23.4212 9.75547 26.3333 13.454 26.3333 17.8335C26.3333 23.1722 22.0054 27.5001 16.6667 27.5001C11.3279 27.5001 7 23.1722 7 17.8335C7 15.7801 7.6406 13.8753 8.73286 12.3094C8.83818 12.1584 9.04596 12.1214 9.19695 12.2267C9.34794 12.3321 9.38497 12.5398 9.27965 12.6908C8.2629 14.1485 7.66667 15.9209 7.66667 17.8335C7.66667 22.804 11.6961 26.8335 16.6667 26.8335C21.6372 26.8335 25.6667 22.804 25.6667 17.8335C25.6667 13.7569 22.9561 10.3126 19.2383 9.20613C19.0618 9.15361 18.9613 8.96801 19.0138 8.79156Z" fill="#0040A0"/>
<path fill-rule="evenodd" clip-rule="evenodd" d="M24.8711 7.21301C23.9245 7.29382 22.7686 7.65148 21.4772 8.26829C21.3111 8.34763 21.1121 8.27728 21.0327 8.11116C20.9534 7.94504 21.0237 7.74606 21.1899 7.66672C22.5218 7.03056 23.7588 6.63888 24.8144 6.54876C25.868 6.45881 26.789 6.66713 27.4157 7.29376C28.3709 8.24901 28.3612 9.87979 27.7727 11.7104C27.1745 13.5713 25.9387 15.7756 24.2156 18.0355C24.104 18.1819 23.8949 18.2101 23.7485 18.0984C23.6021 17.9868 23.5739 17.7777 23.6855 17.6313C25.3808 15.4077 26.5707 13.271 27.138 11.5063C27.7151 9.7113 27.6109 8.43185 26.9443 7.76516C26.5103 7.33117 25.8197 7.13202 24.8711 7.21301ZM20.816 21.4359C20.9462 21.5661 20.9462 21.7771 20.816 21.9073C19.7357 22.9876 18.6336 23.9706 17.5413 24.8413C17.3974 24.9561 17.1876 24.9324 17.0729 24.7884C16.9581 24.6445 16.9818 24.4348 17.1257 24.32C18.1979 23.4653 19.2815 22.499 20.3446 21.4359C20.4748 21.3057 20.6858 21.3057 20.816 21.4359ZM6.98275 22.1986C7.14924 22.2771 7.22052 22.4758 7.14196 22.6423C6.54064 23.9167 6.19427 25.0562 6.11948 25.9894C6.04455 26.9243 6.24401 27.6057 6.67386 28.0356C7.30272 28.6644 8.47682 28.7946 10.1266 28.3175C11.7516 27.8475 13.7243 26.8168 15.8056 25.3207C15.9551 25.2132 16.1634 25.2473 16.2708 25.3968C16.3783 25.5463 16.3442 25.7546 16.1948 25.862C14.0773 27.3841 12.0351 28.4595 10.3118 28.9579C8.61328 29.4492 7.10571 29.4102 6.20246 28.507C5.58184 27.8863 5.37154 26.9768 5.45494 25.9361C5.53848 24.8937 5.91851 23.6729 6.53904 22.3578C6.6176 22.1913 6.81625 22.12 6.98275 22.1986Z" fill="#0040A0"/>
<path fill-rule="evenodd" clip-rule="evenodd" d="M16.6665 22.6876C16.6665 22.5035 16.8157 22.3542 16.9998 22.3542H19.6665C19.7691 22.3542 19.8661 22.4015 19.9292 22.4824C19.9924 22.5633 20.0148 22.6688 19.9899 22.7684L19.3232 25.4351C19.2786 25.6137 19.0976 25.7223 18.919 25.6776C18.7404 25.633 18.6318 25.452 18.6765 25.2734L19.2396 23.0209H16.9998C16.8157 23.0209 16.6665 22.8717 16.6665 22.6876Z" fill="#0040A0"/>
<path fill-rule="evenodd" clip-rule="evenodd" d="M3 5.16683C3 4.98273 3.14924 4.8335 3.33333 4.8335H7.33333C7.51743 4.8335 7.66667 4.98273 7.66667 5.16683C7.66667 5.35092 7.51743 5.50016 7.33333 5.50016H3.33333C3.14924 5.50016 3 5.35092 3 5.16683Z" fill="#0040A0"/>
<path fill-rule="evenodd" clip-rule="evenodd" d="M4.3335 7.16683C4.3335 6.98273 4.48273 6.8335 4.66683 6.8335H7.3335C7.51759 6.8335 7.66683 6.98273 7.66683 7.16683C7.66683 7.35092 7.51759 7.50016 7.3335 7.50016H4.66683C4.48273 7.50016 4.3335 7.35092 4.3335 7.16683Z" fill="#0040A0"/>
<path fill-rule="evenodd" clip-rule="evenodd" d="M5 9.16683C5 8.98273 5.14924 8.8335 5.33333 8.8335H7.33333C7.51743 8.8335 7.66667 8.98273 7.66667 9.16683C7.66667 9.35092 7.51743 9.50016 7.33333 9.50016H5.33333C5.14924 9.50016 5 9.35092 5 9.16683Z" fill="#0040A0"/>
<path fill-rule="evenodd" clip-rule="evenodd" d="M9 5.16675C9 4.61446 9.44772 4.16675 10 4.16675H16.6667C17.219 4.16675 17.6667 4.61446 17.6667 5.16675V10.5001C17.6667 11.0524 17.219 11.5001 16.6667 11.5001H10C9.44772 11.5001 9 11.0524 9 10.5001V5.16675ZM10 4.83341C9.81591 4.83341 9.66667 4.98265 9.66667 5.16675V10.5001C9.66667 10.6842 9.81591 10.8334 10 10.8334H16.6667C16.8508 10.8334 17 10.6842 17 10.5001V5.16675C17 4.98265 16.8508 4.83341 16.6667 4.83341H10Z" fill="#0040A0"/>
<path fill-rule="evenodd" clip-rule="evenodd" d="M11.6665 4.50008C11.6665 4.31599 11.8157 4.16675 11.9998 4.16675H14.6665C14.8506 4.16675 14.9998 4.31599 14.9998 4.50008V6.50008C14.9998 6.61213 14.9435 6.71668 14.85 6.77836C14.7565 6.84004 14.6382 6.8506 14.5352 6.80646L13.9998 6.57702L13.4645 6.80646C13.3806 6.8424 13.2857 6.8424 13.2019 6.80646L12.6665 6.57702L12.1311 6.80646C12.0282 6.8506 11.9099 6.84004 11.8163 6.77836C11.7228 6.71668 11.6665 6.61213 11.6665 6.50008V4.50008ZM12.3332 4.83341V5.99457L12.5352 5.90799C12.619 5.87205 12.714 5.87205 12.7978 5.90799L13.3332 6.13743L13.8685 5.90799C13.9524 5.87205 14.0473 5.87205 14.1311 5.90799L14.3332 5.99457V4.83341H12.3332Z" fill="#0040A0"/>
</g>
<defs>
<clipPath id="clip0_705_7500">
<rect width="32" height="32" fill="white" transform="translate(0 0.5)"/>
</clipPath>
</defs>
</svg>
