<svg width="24" height="24" viewBox="0 0 24 24" fill="none" xmlns="http://www.w3.org/2000/svg">
<g clip-path="url(#clip0_712_14938)">
<path opacity="0.988" fill-rule="evenodd" clip-rule="evenodd" d="M23.9766 4.05462C23.9766 10.1484 23.9766 16.2421 23.9766 22.3359C21.6484 22.3359 19.3203 22.3359 16.9922 22.3359C16.9922 19.0077 16.9922 15.6796 16.9922 12.3515C17.2724 12.3716 17.4833 12.2622 17.625 12.0234C17.6563 11.4296 17.6563 10.8359 17.625 10.2421C17.5724 10.1426 17.5021 10.0566 17.4141 9.9843C16.8717 9.90823 16.3249 9.89257 15.7734 9.93743C15.6165 10.0118 15.4837 10.1133 15.375 10.2421C14.6189 9.94212 13.8689 9.62965 13.125 9.30462C13.0937 7.58585 13.0937 5.86713 13.125 4.14837C13.1876 3.86707 13.3517 3.67176 13.6172 3.56243C15.1694 2.93475 16.7163 2.29412 18.2578 1.64055C18.4964 1.60185 18.7307 1.61747 18.9609 1.68743C20.5585 2.35016 22.1522 3.02204 23.7422 3.70305C23.8337 3.81675 23.9118 3.93394 23.9766 4.05462ZM15.9141 5.22649C16.3362 5.21871 16.7581 5.22649 17.1797 5.24993C17.3425 5.26488 17.4753 5.33519 17.5781 5.46087C17.6545 6.09705 17.6702 6.73769 17.625 7.38274C17.5882 7.46646 17.5336 7.53677 17.4609 7.59368C16.8873 7.6699 16.3092 7.68551 15.7266 7.64055C15.5381 7.55299 15.4366 7.40454 15.4219 7.19524C15.3906 6.71088 15.3906 6.22648 15.4219 5.74212C15.4694 5.45252 15.6335 5.28063 15.9141 5.22649ZM19.9453 5.22649C20.3675 5.21871 20.7894 5.22649 21.2109 5.24993C21.4424 5.26268 21.5908 5.37987 21.6563 5.60149C21.6875 6.1796 21.6875 6.75776 21.6563 7.33587C21.5977 7.46107 21.5117 7.5626 21.3984 7.64055C20.8516 7.67182 20.3047 7.67182 19.7578 7.64055C19.6065 7.56729 19.5049 7.4501 19.4531 7.28899C19.4219 6.7421 19.4219 6.19526 19.4531 5.64837C19.5414 5.41113 19.7055 5.27051 19.9453 5.22649ZM19.8047 9.91399C20.3206 9.90616 20.8362 9.91399 21.3516 9.93743C21.4511 9.99002 21.5371 10.0603 21.6094 10.1484C21.6857 10.7533 21.7013 11.3627 21.6563 11.9765C21.6028 12.1549 21.4856 12.2721 21.3047 12.3281C20.8203 12.3593 20.3359 12.3593 19.8516 12.3281C19.7051 12.2822 19.5879 12.1962 19.5 12.0702C19.4247 11.4955 19.4091 10.9173 19.4531 10.3359C19.4977 10.1278 19.6149 9.98716 19.8047 9.91399Z" fill="#027DDB"/>
<path opacity="0.991" fill-rule="evenodd" clip-rule="evenodd" d="M-0.0234375 22.3359C-0.0234375 18.6797 -0.0234375 15.0234 -0.0234375 11.3672C0.0927577 11.1495 0.264632 10.9855 0.492188 10.875C1.73194 10.3723 2.96632 9.85666 4.19531 9.3281C4.35324 9.21724 4.4548 9.06879 4.5 8.88279C4.51562 8.36716 4.53125 7.85154 4.54688 7.33591C4.6081 7.13374 4.72528 6.96968 4.89844 6.84373C6.51966 6.16268 8.14467 5.49082 9.77344 4.8281C9.96431 4.79726 10.1518 4.81287 10.3359 4.87498C10.9868 5.16134 11.643 5.43481 12.3047 5.69529C12.3516 6.7886 12.3672 7.88234 12.3516 8.97654C11.9608 8.8332 11.5702 8.68474 11.1797 8.53123C10.9453 8.49996 10.7109 8.49996 10.4766 8.53123C8.70591 9.22029 6.95592 9.95468 5.22656 10.7344C4.86225 11.0489 4.66695 11.4473 4.64062 11.9297C4.61719 15.3984 4.60937 18.8671 4.61719 22.3359C3.07031 22.3359 1.52344 22.3359 -0.0234375 22.3359Z" fill="#027DDB"/>
<path opacity="0.981" fill-rule="evenodd" clip-rule="evenodd" d="M10.7107 9.21094C10.8545 9.21314 10.9951 9.23658 11.1326 9.28125C12.7473 9.94017 14.3567 10.6121 15.9607 11.2969C16.0829 11.3877 16.1688 11.5049 16.2185 11.6484C16.288 15.2095 16.3114 18.772 16.2888 22.3359C12.6482 22.3359 9.00759 22.3359 5.36695 22.3359C5.34394 18.7707 5.36737 15.2082 5.43726 11.6484C5.54189 11.4032 5.72156 11.2392 5.97633 11.1562C7.55911 10.5051 9.1372 9.85659 10.7107 9.21094ZM8.0857 12.8672C8.57034 12.8594 9.0547 12.8672 9.53883 12.8906C9.66079 12.932 9.76237 13.0023 9.84351 13.1016C9.91987 13.7221 9.93548 14.3471 9.89039 14.9766C9.85411 15.0909 9.78379 15.1769 9.67945 15.2344C9.13711 15.3105 8.59026 15.3261 8.03883 15.2812C7.89431 15.2444 7.79278 15.1585 7.73414 15.0234C7.70287 14.4141 7.70287 13.8047 7.73414 13.1953C7.81697 13.0419 7.93415 12.9326 8.0857 12.8672ZM12.117 12.8672C12.6016 12.8594 13.086 12.8672 13.5701 12.8906C13.692 12.932 13.7936 13.0023 13.8748 13.1016C13.9511 13.7221 13.9667 14.3471 13.9216 14.9766C13.869 15.0761 13.7987 15.162 13.7107 15.2344C13.1684 15.3105 12.6215 15.3261 12.0701 15.2812C11.8699 15.2217 11.7527 15.0889 11.7185 14.8828C11.6872 14.3516 11.6872 13.8203 11.7185 13.2891C11.7976 13.0929 11.9304 12.9523 12.117 12.8672ZM7.99195 17.5547C8.53903 17.5469 9.08592 17.5547 9.63258 17.5781C9.71629 17.6149 9.78661 17.6696 9.84351 17.7422C9.91992 18.3784 9.93553 19.019 9.89039 19.6641C9.80283 19.8525 9.65437 19.9541 9.44508 19.9688C9.0232 20 8.60133 20 8.17945 19.9688C8.01665 19.9538 7.88386 19.8835 7.78101 19.7578C7.70461 19.1216 7.689 18.481 7.73414 17.8359C7.79789 17.7177 7.88381 17.6239 7.99195 17.5547ZM12.0232 17.5547C12.5703 17.5469 13.1172 17.5547 13.6638 17.5781C13.7989 17.6368 13.8848 17.7383 13.9216 17.8828C13.9529 18.4609 13.9529 19.0391 13.9216 19.6172C13.8562 19.8388 13.7078 19.956 13.4763 19.9688C13.0545 20 12.6326 20 12.2107 19.9688C11.9428 19.9352 11.7787 19.7868 11.7185 19.5234C11.6872 19.0078 11.6872 18.4922 11.7185 17.9766C11.7594 17.7879 11.861 17.6473 12.0232 17.5547Z" fill="#027DDB"/>
</g>
<defs>
<clipPath id="clip0_712_14938">
<rect width="24" height="24" fill="white"/>
</clipPath>
</defs>
</svg>
