<svg width="25" height="24" viewBox="0 0 25 24" fill="none" xmlns="http://www.w3.org/2000/svg">
<g id="email" clip-path="url(#clip0_746_1094)">
<g id="Group">
<path id="Vector" opacity="0.992" fill-rule="evenodd" clip-rule="evenodd" d="M24.4766 4.71094C24.4766 5.02345 24.4766 5.33592 24.4766 5.64844C24.3412 6.16791 24.06 6.59761 23.6328 6.9375C20.3516 9.12502 17.0703 11.3125 13.7891 13.5C12.914 14.0312 12.0391 14.0312 11.1641 13.5C7.88281 11.3125 4.60156 9.12502 1.32031 6.9375C0.893153 6.59761 0.611903 6.16791 0.476562 5.64844C0.476562 5.33592 0.476562 5.02345 0.476562 4.71094C0.743861 3.7797 1.35324 3.20939 2.30469 3C9.08595 2.96875 15.8672 2.96875 22.6484 3C23.5993 3.20914 24.2087 3.77945 24.4766 4.71094Z" fill="#027DDB"/>
</g>
<g id="Group_2">
<path id="Vector_2" opacity="0.994" fill-rule="evenodd" clip-rule="evenodd" d="M0.476562 7.99219C3.87273 10.2396 7.26336 12.4974 10.6484 14.7656C11.8672 15.4219 13.0859 15.4219 14.3047 14.7656C17.6898 12.4974 21.0804 10.2396 24.4766 7.99219C24.4766 11.7422 24.4766 15.4922 24.4766 19.2422C24.2087 20.1737 23.5993 20.744 22.6484 20.9531C15.8672 20.9844 9.08595 20.9844 2.30469 20.9531C1.35324 20.7437 0.743861 20.1734 0.476562 19.2422C0.476562 15.4922 0.476562 11.7422 0.476562 7.99219Z" fill="#027DDB"/>
</g>
</g>
<defs>
<clipPath id="clip0_746_1094">
<rect width="24" height="24" fill="white" transform="translate(0.5)"/>
</clipPath>
</defs>
</svg>
