<svg width="25" height="24" viewBox="0 0 25 24" fill="none" xmlns="http://www.w3.org/2000/svg">
<g id="zip-code" clip-path="url(#clip0_746_1069)">
<g id="Group">
<path id="Vector" opacity="0.99" fill-rule="evenodd" clip-rule="evenodd" d="M1.41406 2.27342C8.2812 2.21876 15.1562 2.21094 22.0391 2.24998C19.0772 4.77012 16.1241 7.30137 13.1797 9.84373C12.2109 9.875 11.2422 9.875 10.2734 9.84373C7.31886 7.31993 4.36573 4.79647 1.41406 2.27342Z" fill="#027DDB"/>
</g>
<g id="Group_2">
<path id="Vector_2" opacity="0.993" fill-rule="evenodd" clip-rule="evenodd" d="M0.476562 3.25781C3.08437 5.4593 5.67814 7.67808 8.25781 9.91406C7.36109 10.2091 6.82203 10.8185 6.64062 11.7422C6.61719 14.5702 6.60936 17.3984 6.61719 20.2266C4.7265 20.2344 2.83588 20.2266 0.945312 20.2031C0.733439 20.1083 0.577189 19.9599 0.476562 19.7578C0.476562 14.2578 0.476562 8.7578 0.476562 3.25781Z" fill="#027DDB"/>
</g>
<g id="Group_3">
<path id="Vector_3" opacity="0.986" fill-rule="evenodd" clip-rule="evenodd" d="M22.8828 3.25781C22.9763 5.44477 23.0076 7.64789 22.9766 9.86719C20.3984 9.87502 17.8203 9.86719 15.2422 9.84375C17.8119 7.67231 20.3588 5.47697 22.8828 3.25781Z" fill="#027DDB"/>
</g>
<g id="Group_4">
<path id="Vector_4" opacity="0.988" fill-rule="evenodd" clip-rule="evenodd" d="M24.4766 11.6953C24.4766 14.8828 24.4766 18.0703 24.4766 21.2578C24.3771 21.4587 24.2209 21.6071 24.0078 21.7031C18.836 21.7344 13.6641 21.7344 8.4922 21.7031C8.21517 21.6291 8.05111 21.4494 8.00001 21.1641C7.96875 18.0391 7.96875 14.9141 8.00001 11.7891C8.06592 11.5513 8.21432 11.3872 8.44532 11.2969C13.6484 11.2656 18.8516 11.2656 24.0547 11.2969C24.2509 11.376 24.3915 11.5088 24.4766 11.6953ZM11.1641 13.9453C11.9142 13.9375 12.6642 13.9453 13.4141 13.9688C13.8772 14.1723 14.01 14.5083 13.8125 14.9766C13.3672 15.8672 12.9219 16.7578 12.4766 17.6484C12.7722 17.6874 13.0691 17.7108 13.3672 17.7188C13.8128 17.8663 13.9769 18.171 13.8594 18.6328C13.7552 18.8151 13.6068 18.9479 13.4141 19.0313C12.6641 19.0625 11.9141 19.0625 11.1641 19.0313C10.7434 18.8541 10.595 18.5494 10.7188 18.1172C11.1797 17.1953 11.6407 16.2735 12.1016 15.3516C11.7562 15.3212 11.4124 15.2821 11.0703 15.2344C10.7403 15.0349 10.6231 14.7459 10.7188 14.3672C10.8065 14.1565 10.9549 14.0159 11.1641 13.9453ZM15.6641 13.9453C16.1218 13.8808 16.4108 14.0683 16.5313 14.5078C16.5625 15.8359 16.5625 17.1641 16.5313 18.4922C16.4544 18.8434 16.2357 19.0309 15.875 19.0547C15.5519 19.0441 15.3332 18.8878 15.2188 18.5859C15.1875 17.1953 15.1875 15.8047 15.2188 14.4141C15.3135 14.2022 15.462 14.046 15.6641 13.9453ZM18.2891 13.9453C18.8986 13.9375 19.508 13.9453 20.1172 13.9688C21.1726 14.1883 21.7351 14.8367 21.8047 15.9141C21.7527 16.911 21.2527 17.5594 20.3047 17.8594C19.9326 17.9213 19.5576 17.9447 19.1797 17.9297C19.1956 18.1842 19.1722 18.4343 19.1094 18.6797C18.7842 19.1168 18.4092 19.1636 17.9844 18.8203C17.9169 18.7371 17.8701 18.6434 17.8438 18.5391C17.8125 17.1797 17.8125 15.8203 17.8438 14.4609C17.9187 14.2222 18.0672 14.0503 18.2891 13.9453Z" fill="#027DDB"/>
</g>
<g id="Group_5">
<path id="Vector_5" opacity="0.925" fill-rule="evenodd" clip-rule="evenodd" d="M19.1797 15.3047C19.512 15.2867 19.8401 15.3101 20.1641 15.375C20.5182 15.719 20.5339 16.0783 20.2109 16.4531C20.1365 16.4935 20.0584 16.5248 19.9766 16.5469C19.7114 16.5703 19.4457 16.5781 19.1797 16.5703C19.1797 16.1484 19.1797 15.7266 19.1797 15.3047Z" fill="#027DDB"/>
</g>
</g>
<defs>
<clipPath id="clip0_746_1069">
<rect width="24" height="24" fill="white" transform="translate(0.5)"/>
</clipPath>
</defs>
</svg>
