<svg width="24" height="24" viewBox="0 0 24 24" fill="none" xmlns="http://www.w3.org/2000/svg">
<g id="phone-call (1)" clip-path="url(#clip0_746_1084)">
<g id="Group">
<path id="Vector" opacity="0.963" fill-rule="evenodd" clip-rule="evenodd" d="M11.6952 0.726644C15.5987 0.713655 18.7315 2.24491 21.0937 5.32039C22.6003 7.4188 23.3034 9.76255 23.2031 12.3516C23.005 12.7515 22.6847 12.8999 22.2421 12.797C21.9094 12.6714 21.7297 12.4292 21.7031 12.0704C21.5871 8.19364 19.8605 5.29522 16.5234 3.37508C15.0065 2.60916 13.3972 2.21854 11.6952 2.20321C11.2742 1.99353 11.1258 1.6576 11.2499 1.19539C11.3447 0.983519 11.4932 0.827271 11.6952 0.726644Z" fill="#027DDB"/>
</g>
<g id="Group_2">
<path id="Vector_2" opacity="0.989" fill-rule="evenodd" clip-rule="evenodd" d="M4.28906 3.5857C4.86591 3.54368 5.39714 3.67649 5.88281 3.98414C6.81248 4.85133 7.71094 5.74978 8.57813 6.67945C9.13191 7.60875 9.10064 8.51503 8.48438 9.3982C8.06184 9.81295 7.64775 10.2348 7.24219 10.6638C8.80467 13.1326 10.8203 15.1482 13.2891 16.7107C13.7181 16.3051 14.1399 15.891 14.5547 15.4685C15.5603 14.7902 16.5447 14.8215 17.5078 15.5623C18.3451 16.3839 19.1654 17.2199 19.9688 18.0701C20.546 19.0653 20.4835 20.0184 19.7813 20.9295C19.3672 21.3435 18.9531 21.7576 18.5391 22.1716C17.671 22.8622 16.6788 23.2294 15.5625 23.2732C14.1708 23.2633 12.8348 22.9742 11.5547 22.406C9.30656 21.3878 7.31438 20.005 5.57813 18.2576C3.88708 16.5637 2.54333 14.6262 1.54688 12.4451C1.00977 11.1951 0.705084 9.89039 0.632812 8.53101C0.671944 7.33486 1.07038 6.28017 1.82813 5.36695C2.29044 4.88897 2.767 4.42803 3.25781 3.98414C3.58447 3.78962 3.92822 3.65681 4.28906 3.5857Z" fill="#027DDB"/>
</g>
<g id="Group_3">
<path id="Vector_3" opacity="0.96" fill-rule="evenodd" clip-rule="evenodd" d="M12.2108 5.4608C14.574 5.42733 16.3943 6.39605 17.6718 8.36705C18.2845 9.42736 18.5501 10.568 18.4687 11.7889C18.2405 12.2659 17.8733 12.4144 17.3671 12.2342C17.1357 12.1078 17.0029 11.9125 16.9687 11.6483C16.9037 9.55299 15.9116 8.09203 13.9921 7.26549C13.413 7.07522 12.8192 6.96586 12.2108 6.93736C11.7118 6.65213 11.5946 6.25369 11.8593 5.74205C11.9584 5.61919 12.0756 5.52544 12.2108 5.4608Z" fill="#027DDB"/>
</g>
</g>
<defs>
<clipPath id="clip0_746_1084">
<rect width="24" height="24" fill="white"/>
</clipPath>
</defs>
</svg>
