<svg width="25" height="24" viewBox="0 0 25 24" fill="none" xmlns="http://www.w3.org/2000/svg">
<g id="city" clip-path="url(#clip0_746_1048)">
<g id="Group">
<path id="Vector" opacity="0.988" fill-rule="evenodd" clip-rule="evenodd" d="M24.4766 4.05486C24.4766 10.1486 24.4766 16.2424 24.4766 22.3361C22.1484 22.3361 19.8203 22.3361 17.4922 22.3361C17.4922 19.008 17.4922 15.6799 17.4922 12.3517C17.7724 12.3718 17.9833 12.2625 18.125 12.0236C18.1563 11.4298 18.1563 10.8361 18.125 10.2424C18.0724 10.1428 18.0021 10.0569 17.9141 9.98455C17.3717 9.90847 16.8249 9.89281 16.2734 9.93767C16.1165 10.012 15.9837 10.1135 15.875 10.2424C15.1189 9.94236 14.3689 9.62989 13.625 9.30486C13.5937 7.58609 13.5937 5.86738 13.625 4.14861C13.6876 3.86732 13.8517 3.672 14.1172 3.56267C15.6694 2.93499 17.2163 2.29437 18.7578 1.6408C18.9964 1.60209 19.2307 1.61772 19.4609 1.68767C21.0585 2.35041 22.6522 3.02228 24.2422 3.7033C24.3337 3.817 24.4118 3.93419 24.4766 4.05486ZM16.4141 5.22674C16.8362 5.21895 17.2581 5.22674 17.6797 5.25017C17.8425 5.26513 17.9753 5.33544 18.0781 5.46111C18.1545 6.0973 18.1702 6.73794 18.125 7.38299C18.0882 7.4667 18.0336 7.53702 17.9609 7.59392C17.3873 7.67014 16.8092 7.68575 16.2266 7.6408C16.0381 7.55324 15.9366 7.40478 15.9219 7.19549C15.8906 6.71113 15.8906 6.22672 15.9219 5.74236C15.9694 5.45277 16.1335 5.28088 16.4141 5.22674ZM20.4453 5.22674C20.8675 5.21895 21.2894 5.22674 21.7109 5.25017C21.9424 5.26292 22.0908 5.38011 22.1563 5.60174C22.1875 6.17984 22.1875 6.758 22.1563 7.33611C22.0977 7.46131 22.0117 7.56284 21.8984 7.6408C21.3516 7.67206 20.8047 7.67206 20.2578 7.6408C20.1065 7.56753 20.0049 7.45034 19.9531 7.28924C19.9219 6.74234 19.9219 6.1955 19.9531 5.64861C20.0414 5.41138 20.2055 5.27075 20.4453 5.22674ZM20.3047 9.91424C20.8206 9.90641 21.3362 9.91424 21.8516 9.93767C21.9511 9.99027 22.0371 10.0606 22.1094 10.1486C22.1857 10.7535 22.2013 11.3629 22.1563 11.9767C22.1028 12.1552 21.9856 12.2724 21.8047 12.3283C21.3203 12.3596 20.8359 12.3596 20.3516 12.3283C20.2051 12.2824 20.0879 12.1964 20 12.0705C19.9247 11.4957 19.9091 10.9175 19.9531 10.3361C19.9977 10.128 20.1149 9.98741 20.3047 9.91424Z" fill="#027DDB"/>
</g>
<g id="Group_2">
<path id="Vector_2" opacity="0.991" fill-rule="evenodd" clip-rule="evenodd" d="M0.476562 22.3362C0.476562 18.6799 0.476562 15.0237 0.476562 11.3674C0.592758 11.1498 0.764632 10.9857 0.992188 10.8752C2.23194 10.3725 3.46632 9.85691 4.69531 9.32835C4.85324 9.21749 4.9548 9.06903 5 8.88303C5.01562 8.36741 5.03125 7.85178 5.04688 7.33616C5.1081 7.13399 5.22528 6.96992 5.39844 6.84397C7.01966 6.16292 8.64467 5.49106 10.2734 4.82835C10.4643 4.7975 10.6518 4.81311 10.8359 4.87522C11.4868 5.16158 12.143 5.43505 12.8047 5.69553C12.8516 6.78885 12.8672 7.88258 12.8516 8.97678C12.4608 8.83344 12.0702 8.68499 11.6797 8.53147C11.4453 8.50021 11.2109 8.50021 10.9766 8.53147C9.20591 9.22053 7.45592 9.95492 5.72656 10.7346C5.36225 11.0491 5.16695 11.4476 5.14062 11.9299C5.11719 15.3986 5.10937 18.8674 5.11719 22.3362C3.57031 22.3362 2.02344 22.3362 0.476562 22.3362Z" fill="#027DDB"/>
</g>
<g id="Group_3">
<path id="Vector_3" opacity="0.981" fill-rule="evenodd" clip-rule="evenodd" d="M11.2107 9.21094C11.3545 9.21314 11.4951 9.23658 11.6326 9.28125C13.2473 9.94017 14.8567 10.6121 16.4607 11.2969C16.5829 11.3877 16.6688 11.5049 16.7185 11.6484C16.788 15.2095 16.8114 18.772 16.7888 22.3359C13.1482 22.3359 9.50759 22.3359 5.86695 22.3359C5.84394 18.7707 5.86737 15.2082 5.93726 11.6484C6.04189 11.4032 6.22156 11.2392 6.47633 11.1562C8.05911 10.5051 9.6372 9.85659 11.2107 9.21094ZM8.5857 12.8672C9.07034 12.8594 9.5547 12.8672 10.0388 12.8906C10.1608 12.932 10.2624 13.0023 10.3435 13.1016C10.4199 13.7221 10.4355 14.3471 10.3904 14.9766C10.3541 15.0909 10.2838 15.1769 10.1795 15.2344C9.63711 15.3105 9.09026 15.3261 8.53883 15.2812C8.39431 15.2444 8.29278 15.1585 8.23414 15.0234C8.20287 14.4141 8.20287 13.8047 8.23414 13.1953C8.31697 13.0419 8.43415 12.9326 8.5857 12.8672ZM12.617 12.8672C13.1016 12.8594 13.586 12.8672 14.0701 12.8906C14.192 12.932 14.2936 13.0023 14.3748 13.1016C14.4511 13.7221 14.4667 14.3471 14.4216 14.9766C14.369 15.0761 14.2987 15.162 14.2107 15.2344C13.6684 15.3105 13.1215 15.3261 12.5701 15.2812C12.3699 15.2217 12.2527 15.0889 12.2185 14.8828C12.1872 14.3516 12.1872 13.8203 12.2185 13.2891C12.2976 13.0929 12.4304 12.9523 12.617 12.8672ZM8.49195 17.5547C9.03903 17.5469 9.58592 17.5547 10.1326 17.5781C10.2163 17.6149 10.2866 17.6696 10.3435 17.7422C10.4199 18.3784 10.4355 19.019 10.3904 19.6641C10.3028 19.8525 10.1544 19.9541 9.94508 19.9688C9.5232 20 9.10133 20 8.67945 19.9688C8.51665 19.9538 8.38386 19.8835 8.28101 19.7578C8.20461 19.1216 8.189 18.481 8.23414 17.8359C8.29789 17.7177 8.38381 17.6239 8.49195 17.5547ZM12.5232 17.5547C13.0703 17.5469 13.6172 17.5547 14.1638 17.5781C14.2989 17.6368 14.3848 17.7383 14.4216 17.8828C14.4529 18.4609 14.4529 19.0391 14.4216 19.6172C14.3562 19.8388 14.2078 19.956 13.9763 19.9688C13.5545 20 13.1326 20 12.7107 19.9688C12.4428 19.9352 12.2787 19.7868 12.2185 19.5234C12.1872 19.0078 12.1872 18.4922 12.2185 17.9766C12.2594 17.7879 12.361 17.6473 12.5232 17.5547Z" fill="#027DDB"/>
</g>
</g>
<defs>
<clipPath id="clip0_746_1048">
<rect width="24" height="24" fill="white" transform="translate(0.5)"/>
</clipPath>
</defs>
</svg>
