<svg width="24" height="24" viewBox="0 0 24 24" fill="none" xmlns="http://www.w3.org/2000/svg">
<g id="maps-and-flags" clip-path="url(#clip0_746_1042)">
<g id="Group">
<path id="Vector" opacity="0.989" fill-rule="evenodd" clip-rule="evenodd" d="M11.0857 -0.0234375C11.6795 -0.0234375 12.2732 -0.0234375 12.867 -0.0234375C16.2011 0.459198 18.5839 2.22482 20.0154 5.27344C20.6929 6.96103 20.8491 8.69541 20.4842 10.4766C20.0132 12.3425 19.2944 14.1082 18.3279 15.7734C16.7965 18.3984 15.0464 20.8672 13.0779 23.1797C12.8404 23.4876 12.567 23.7532 12.2576 23.9766C12.0701 23.9766 11.8826 23.9766 11.6951 23.9766C11.3857 23.7532 11.1123 23.4876 10.8748 23.1797C8.90628 20.8672 7.15625 18.3984 5.6248 15.7734C4.65827 14.1082 3.93952 12.3425 3.46855 10.4766C2.86187 7.05928 3.85406 4.20773 6.44511 1.92188C7.80725 0.8346 9.35413 0.186162 11.0857 -0.0234375ZM11.4139 4.33594C13.3336 4.21368 14.7945 4.96369 15.7967 6.58594C16.712 8.57161 16.4073 10.345 14.8826 11.9062C13.3342 13.158 11.6623 13.3455 9.86698 12.4688C8.12028 11.3574 7.40933 9.77147 7.73417 7.71094C8.26817 5.82516 9.49475 4.70016 11.4139 4.33594Z" fill="#027DDB"/>
</g>
</g>
<defs>
<clipPath id="clip0_746_1042">
<rect width="24" height="24" fill="white"/>
</clipPath>
</defs>
</svg>
