<svg width="32" height="32" viewBox="0 0 32 32" fill="none" xmlns="http://www.w3.org/2000/svg">
<rect width="32" height="32" rx="16" fill="#027DDB"/>
<path opacity="0.997" fill-rule="evenodd" clip-rule="evenodd" d="M14.3862 9C16.6284 9 18.8706 9 21.1128 9C21.8441 9.19821 22.277 9.67216 22.4116 10.4219C22.4299 12.9739 22.4299 15.526 22.4116 18.0781C22.299 18.7832 21.9025 19.2435 21.2222 19.459C20.0611 19.4905 18.899 19.5042 17.7359 19.5C16.5727 19.5042 15.4106 19.4905 14.2495 19.459C13.67 19.2805 13.2918 18.9023 13.1148 18.3242C13.0695 15.6546 13.0604 12.984 13.0874 10.3125C13.2519 9.60574 13.6848 9.16824 14.3862 9Z" fill="white"/>
<path opacity="0.996" fill-rule="evenodd" clip-rule="evenodd" d="M18.7622 22.9998C16.1372 22.9998 13.5122 22.9998 10.8872 22.9998C10.185 22.8308 9.7521 22.3933 9.58838 21.6873C9.57015 18.8617 9.57015 16.0362 9.58838 13.2107C9.7779 12.4743 10.2473 12.0414 10.9966 11.9119C11.3975 11.8982 11.7986 11.8936 12.1997 11.8982C12.1951 13.8943 12.1997 15.8904 12.2134 17.8865C12.2704 19.0172 12.8219 19.7965 13.8677 20.2244C14.0113 20.2694 14.1572 20.3059 14.3052 20.3337C16.2279 20.3736 18.1511 20.3872 20.0747 20.3748C20.0793 20.8123 20.0747 21.2498 20.061 21.6873C19.8958 22.3947 19.4629 22.8322 18.7622 22.9998Z" fill="white"/>
</svg>
