<svg width="12" height="12" viewBox="0 0 12 12" fill="none" xmlns="http://www.w3.org/2000/svg">
<g id="Iconly/Bold/Delete">
<g id="Delete">
<path id="Delete_2" fill-rule="evenodd" clip-rule="evenodd" d="M10.1436 2.62148C10.3381 2.62148 10.5 2.78298 10.5 2.98848V3.17848C10.5 3.37898 10.3381 3.54547 10.1436 3.54547H1.85693C1.66193 3.54547 1.5 3.37898 1.5 3.17848V2.98848C1.5 2.78298 1.66193 2.62148 1.85693 2.62148H3.31478C3.61092 2.62148 3.86865 2.41099 3.93527 2.11399L4.01162 1.77299C4.13027 1.3085 4.52075 1 4.96764 1H7.03236C7.47439 1 7.86925 1.3085 7.98352 1.74849L8.06522 2.11349C8.13135 2.41099 8.38907 2.62148 8.6857 2.62148H10.1436ZM9.40291 9.56701C9.55512 8.14852 9.8216 4.77855 9.8216 4.74455C9.83132 4.64156 9.79777 4.54406 9.73115 4.46556C9.65967 4.39206 9.56922 4.34856 9.46953 4.34856H2.53426C2.43409 4.34856 2.33878 4.39206 2.27265 4.46556C2.20554 4.54406 2.17247 4.64156 2.17734 4.74455C2.17823 4.7508 2.18779 4.86951 2.20378 5.06796C2.27479 5.94958 2.47259 8.40507 2.6004 9.56701C2.69084 10.423 3.25249 10.961 4.06603 10.9805C4.69381 10.995 5.34056 11 6.0019 11C6.62482 11 7.25746 10.995 7.9047 10.9805C8.74644 10.966 9.3076 10.4375 9.40291 9.56701Z" fill="#FF1414"/>
</g>
</g>
</svg>
