<svg width="24" height="24" viewBox="0 0 24 24" fill="none" xmlns="http://www.w3.org/2000/svg">
<rect width="24" height="24" rx="5" fill="#027DDB"/>
<path fill-rule="evenodd" clip-rule="evenodd" d="M10.2508 17.3515L16.1082 9.77682C16.4265 9.36835 16.5397 8.89609 16.4336 8.41524C16.3416 7.9781 16.0728 7.56246 15.6696 7.24714L14.6863 6.46603C13.8303 5.78523 12.7692 5.8569 12.1608 6.63801L11.5029 7.49151C11.418 7.59829 11.4392 7.75595 11.5453 7.84194C11.5453 7.84194 13.2078 9.17486 13.2431 9.20352C13.3563 9.31102 13.4412 9.45434 13.4624 9.62633C13.4978 9.96314 13.2644 10.2785 12.9177 10.3215C12.755 10.343 12.5994 10.2928 12.4862 10.1996L10.7389 8.80938C10.654 8.7456 10.5267 8.75922 10.4559 8.84521L6.30341 14.2199C6.0346 14.5567 5.94263 14.9938 6.0346 15.4166L6.56516 17.717C6.59345 17.8388 6.69957 17.9248 6.8269 17.9248L9.16136 17.8962C9.58581 17.889 9.98196 17.6955 10.2508 17.3515ZM13.5201 16.6354H17.3267C17.6981 16.6354 18.0002 16.9414 18.0002 17.3176C18.0002 17.6946 17.6981 17.9998 17.3267 17.9998H13.5201C13.1487 17.9998 12.8467 17.6946 12.8467 17.3176C12.8467 16.9414 13.1487 16.6354 13.5201 16.6354Z" fill="white"/>
</svg>
