<svg width="12" height="12" viewBox="0 0 12 12" fill="none" xmlns="http://www.w3.org/2000/svg">
<g id="Edit">
<path id="Edit_2" fill-rule="evenodd" clip-rule="evenodd" d="M4.25078 11.3515L10.1082 3.77682C10.4265 3.36835 10.5397 2.89609 10.4336 2.41524C10.3416 1.9781 10.0728 1.56246 9.66956 1.24714L8.68626 0.466026C7.83029 -0.214766 6.76917 -0.143104 6.16079 0.638015L5.5029 1.49151C5.41801 1.59829 5.43923 1.75595 5.54534 1.84194C5.54534 1.84194 7.20776 3.17486 7.24313 3.20352C7.35632 3.31102 7.44121 3.45434 7.46243 3.62633C7.4978 3.96314 7.26436 4.27846 6.91772 4.32146C6.75502 4.34295 6.59939 4.29279 6.4862 4.19963L4.73889 2.80938C4.654 2.7456 4.52667 2.75922 4.45593 2.84521L0.303415 8.21988C0.0345977 8.55669 -0.057366 8.99383 0.0345977 9.41664L0.565157 11.717C0.593454 11.8388 0.699566 11.9248 0.8269 11.9248L3.16136 11.8962C3.58581 11.889 3.98196 11.6955 4.25078 11.3515ZM7.52014 10.6354H11.3267C11.6981 10.6354 12.0002 10.9414 12.0002 11.3176C12.0002 11.6946 11.6981 11.9998 11.3267 11.9998H7.52014C7.14875 11.9998 6.84668 11.6946 6.84668 11.3176C6.84668 10.9414 7.14875 10.6354 7.52014 10.6354Z" fill="#027DDB"/>
</g>
</svg>
