<svg width="24" height="24" viewBox="0 0 24 24" fill="none" xmlns="http://www.w3.org/2000/svg">
<g id="email" clip-path="url(#clip0_712_14984)">
<g id="Group">
<path id="Vector" opacity="0.992" fill-rule="evenodd" clip-rule="evenodd" d="M23.9766 4.71094C23.9766 5.02345 23.9766 5.33592 23.9766 5.64844C23.8412 6.16791 23.56 6.59761 23.1328 6.9375C19.8516 9.12502 16.5703 11.3125 13.2891 13.5C12.414 14.0312 11.5391 14.0312 10.6641 13.5C7.38281 11.3125 4.10156 9.12502 0.820312 6.9375C0.393153 6.59761 0.111903 6.16791 -0.0234375 5.64844C-0.0234375 5.33592 -0.0234375 5.02345 -0.0234375 4.71094C0.243861 3.7797 0.853238 3.20939 1.80469 3C8.58595 2.96875 15.3672 2.96875 22.1484 3C23.0993 3.20914 23.7087 3.77945 23.9766 4.71094Z" fill="#027DDB"/>
</g>
<g id="Group_2">
<path id="Vector_2" opacity="0.994" fill-rule="evenodd" clip-rule="evenodd" d="M-0.0234375 7.99219C3.37273 10.2396 6.76336 12.4974 10.1484 14.7656C11.3672 15.4219 12.5859 15.4219 13.8047 14.7656C17.1898 12.4974 20.5804 10.2396 23.9766 7.99219C23.9766 11.7422 23.9766 15.4922 23.9766 19.2422C23.7087 20.1737 23.0993 20.744 22.1484 20.9531C15.3672 20.9844 8.58595 20.9844 1.80469 20.9531C0.853238 20.7437 0.243861 20.1734 -0.0234375 19.2422C-0.0234375 15.4922 -0.0234375 11.7422 -0.0234375 7.99219Z" fill="#027DDB"/>
</g>
</g>
<defs>
<clipPath id="clip0_712_14984">
<rect width="24" height="24" fill="white"/>
</clipPath>
</defs>
</svg>
