<svg width="16" height="17" viewBox="0 0 16 17" fill="none" xmlns="http://www.w3.org/2000/svg">
<path opacity="0.961" fill-rule="evenodd" clip-rule="evenodd" d="M3.23414 3.39056C3.40552 3.36948 3.56177 3.40594 3.70289 3.49993C3.95855 3.76081 4.21896 4.01599 4.48414 4.26556C6.75364 3.25477 9.03489 3.22873 11.3279 4.18743C13.0572 4.96884 14.3749 6.19281 15.281 7.85931C15.4035 8.16393 15.4347 8.47643 15.3748 8.79681C15.3002 9.09171 15.1752 9.36252 14.9998 9.60931C14.3234 10.6555 13.464 11.5201 12.4216 12.2031C12.6305 12.4171 12.8336 12.6359 13.031 12.8593C13.1404 13.4166 12.9164 13.6406 12.3591 13.5312C12.0628 13.2608 11.7711 12.9848 11.4841 12.7031C8.83633 13.8495 6.25299 13.7193 3.73414 12.3124C2.4295 11.5182 1.41387 10.4505 0.687269 9.10931C0.502681 8.6924 0.502681 8.27574 0.687269 7.85931C1.37375 6.58418 2.32687 5.55293 3.54664 4.76556C3.37002 4.57331 3.18774 4.38581 2.99977 4.20306C2.79803 3.84518 2.87616 3.57435 3.23414 3.39056ZM7.85914 4.45306C10.6541 4.52446 12.7947 5.73281 14.281 8.07806C14.4083 8.24668 14.45 8.43418 14.406 8.64056C13.756 9.83227 12.8497 10.7802 11.6873 11.4843C11.2445 11.0416 10.8019 10.5989 10.3591 10.1562C11.087 8.98771 11.061 7.83665 10.281 6.70306C9.28889 5.58399 8.09621 5.30796 6.70289 5.87493C6.57008 5.94912 6.43989 6.02724 6.31227 6.10931C5.95289 5.74993 5.59352 5.39056 5.23414 5.03118C6.07496 4.67243 6.94996 4.47974 7.85914 4.45306ZM4.26539 5.48431C4.71742 5.92071 5.16536 6.3634 5.60914 6.81243C4.93327 7.87399 4.90724 8.95212 5.53102 10.0468C6.28777 11.1097 7.3138 11.5316 8.60914 11.3124C8.98717 11.2249 9.33614 11.0738 9.65602 10.8593C10.0154 11.2187 10.3748 11.5781 10.7341 11.9374C8.88261 12.7078 7.02842 12.7078 5.17164 11.9374C3.59086 11.2525 2.38773 10.1536 1.56227 8.64056C1.54143 8.5364 1.54143 8.43221 1.56227 8.32806C2.21315 7.14074 3.11419 6.19284 4.26539 5.48431ZM7.95289 6.54681C9.12599 6.66781 9.78224 7.31365 9.92164 8.48431C9.90524 8.82093 9.81149 9.13343 9.64039 9.42181C8.77624 8.57327 7.91686 7.71912 7.06227 6.85931C7.04077 6.83331 7.04599 6.81249 7.07789 6.79681C7.35686 6.65427 7.64855 6.57093 7.95289 6.54681ZM6.29664 7.54681C7.19027 8.38834 8.06527 9.2529 8.92164 10.1406C8.16989 10.5369 7.45114 10.4796 6.76539 9.96868C6.02989 9.27174 5.87364 8.46443 6.29664 7.54681Z" fill="#A4A4A4"/>
</svg>
