<svg width="24" height="24" viewBox="0 0 24 24" fill="none" xmlns="http://www.w3.org/2000/svg">
<path opacity="0.96" fill-rule="evenodd" clip-rule="evenodd" d="M11.4135 4.47666C15.2832 4.40058 18.541 5.75995 21.187 8.55478C21.869 9.30919 22.4472 10.1373 22.9214 11.0392C23.2362 11.8826 23.1424 12.6795 22.6401 13.4298C20.6789 16.5721 17.8742 18.5174 14.226 19.2657C9.72778 19.9486 5.90746 18.6596 2.7651 15.3985C2.08306 14.6441 1.50493 13.816 1.03073 12.9142C0.735589 12.2124 0.766836 11.5249 1.12448 10.8517C3.44526 6.95972 6.87496 4.83473 11.4135 4.47666ZM11.6948 5.92978C15.5421 5.96663 18.6124 7.5135 20.9057 10.5704C21.1755 10.9377 21.4099 11.3283 21.6089 11.7423C21.6401 11.8985 21.6401 12.0548 21.6089 12.211C20.0314 15.0846 17.6486 16.9206 14.4604 17.7188C10.8535 18.4499 7.63476 17.653 4.80417 15.3282C3.79748 14.4297 2.97717 13.3907 2.34323 12.211C2.31198 12.0548 2.31198 11.8985 2.34323 11.7423C4.41091 8.13342 7.52807 6.19589 11.6948 5.92978Z" fill="#001526"/>
<path opacity="0.96" fill-rule="evenodd" clip-rule="evenodd" d="M11.6484 7.61738C13.5553 7.58981 14.9693 8.40235 15.8906 10.0549C16.6278 11.7988 16.409 13.4081 15.2344 14.883C13.8587 16.2615 12.2415 16.6442 10.3828 16.0314C8.63016 15.2543 7.70827 13.9028 7.61719 11.9768C7.82902 9.46828 9.17278 8.01516 11.6484 7.61738ZM11.8828 9.0705C10.2033 9.31266 9.26578 10.2814 9.07031 11.9768C9.27342 13.7111 10.2422 14.6799 11.9766 14.883C13.7109 14.6799 14.6797 13.7111 14.8828 11.9768C14.6675 10.199 13.6675 9.23021 11.8828 9.0705Z" fill="#001526"/>
</svg>
