<svg width="48" height="48" viewBox="0 0 48 48" fill="none" xmlns="http://www.w3.org/2000/svg">
<path d="M5.35156 3.86483C5.35156 3.1782 5.90818 2.62158 6.59481 2.62158H41.4056C42.0922 2.62158 42.6489 3.1782 42.6489 3.86483V34.9459H5.35156V3.86483Z" fill="#027DDB"/>
<path d="M4.10938 38.6756C4.10938 37.989 4.66599 37.4324 5.35262 37.4324H7.8391C8.52573 37.4324 9.08235 37.989 9.08235 38.6756V43.6486C9.08235 44.3352 8.52573 44.8918 7.8391 44.8918H5.35262C4.66599 44.8918 4.10938 44.3352 4.10938 43.6486V38.6756Z" fill="#027DDB"/>
<path d="M38.9199 38.6756C38.9199 37.989 39.4765 37.4324 40.1632 37.4324H42.6497C43.3363 37.4324 43.8929 37.989 43.8929 38.6756V43.6486C43.8929 44.3352 43.3363 44.8918 42.6497 44.8918H40.1632C39.4765 44.8918 38.9199 44.3352 38.9199 43.6486V38.6756Z" fill="#027DDB"/>
<path d="M2.86523 36.189C2.86523 35.5024 3.42185 34.9458 4.10848 34.9458H43.8923C44.5789 34.9458 45.1355 35.5024 45.1355 36.189C45.1355 36.8757 44.5789 37.4323 43.8923 37.4323H4.10848C3.42185 37.4323 2.86523 36.8757 2.86523 36.189Z" fill="#027DDB"/>
<path d="M18.1502 34.9458H29.8513L36.4332 47.3782H11.5684L18.1502 34.9458Z" fill="#FF7C00"/>
<path d="M35.1895 27.4863H42.6489V34.9458H35.1895V27.4863Z" fill="#FF7C00"/>
<path d="M5.35156 23.7568H17.784V34.946H5.35156V23.7568Z" fill="#FF7C00"/>
<path d="M17.7832 27.4863H25.2427V34.9458H17.7832V27.4863Z" fill="#FF7C00"/>
<path d="M5.35156 17.5405H11.5678V23.7567H5.35156V17.5405Z" fill="#FF7C00"/>
<path d="M11.5684 17.5405H17.7846V23.7567H11.5684V17.5405Z" fill="#FF7C00"/>
<path d="M5.35156 11.3242H11.5678V17.5404H5.35156V11.3242Z" fill="#FF7C00"/>
<path fill-rule="evenodd" clip-rule="evenodd" d="M18.1133 35.8984C18.221 35.6949 18.4324 35.5676 18.6627 35.5676H29.1205C29.4638 35.5676 29.7421 35.8459 29.7421 36.1892C29.7421 36.5326 29.4638 36.8109 29.1205 36.8109H19.0369L14.6047 45.1828C14.4441 45.4862 14.0679 45.602 13.7645 45.4413C13.4611 45.2807 13.3453 44.9045 13.506 44.6011L18.1133 35.8984Z" fill="#FFDAB8"/>
<path fill-rule="evenodd" clip-rule="evenodd" d="M11.7422 18.3953C11.7422 18.052 12.0205 17.7737 12.3638 17.7737H16.0935C16.4369 17.7737 16.7152 18.052 16.7152 18.3953C16.7152 18.7386 16.4369 19.0169 16.0935 19.0169H12.9854V22.125C12.9854 22.4683 12.7071 22.7467 12.3638 22.7467C12.0205 22.7467 11.7422 22.4683 11.7422 22.125V18.3953Z" fill="#FFDAB8"/>
<path fill-rule="evenodd" clip-rule="evenodd" d="M18.1523 28.4578C18.1523 28.1145 18.4307 27.8362 18.774 27.8362H23.7469C24.0903 27.8362 24.3686 28.1145 24.3686 28.4578C24.3686 28.8011 24.0903 29.0794 23.7469 29.0794H19.3956V33.4308C19.3956 33.7741 19.1173 34.0524 18.774 34.0524C18.4307 34.0524 18.1523 33.7741 18.1523 33.4308V28.4578Z" fill="#FFDAB8"/>
<path fill-rule="evenodd" clip-rule="evenodd" d="M35.4414 28.4578C35.4414 28.1145 35.7197 27.8362 36.063 27.8362H41.036C41.3793 27.8362 41.6576 28.1145 41.6576 28.4578C41.6576 28.8011 41.3793 29.0794 41.036 29.0794H36.6846V33.4308C36.6846 33.7741 36.4063 34.0524 36.063 34.0524C35.7197 34.0524 35.4414 33.7741 35.4414 33.4308V28.4578Z" fill="#FFDAB8"/>
<path fill-rule="evenodd" clip-rule="evenodd" d="M5.58398 18.3953C5.58398 18.052 5.86229 17.7737 6.20561 17.7737H9.93534C10.2786 17.7737 10.557 18.052 10.557 18.3953C10.557 18.7386 10.2786 19.0169 9.93534 19.0169H6.82723V22.125C6.82723 22.4683 6.54892 22.7467 6.20561 22.7467C5.86229 22.7467 5.58398 22.4683 5.58398 22.125V18.3953Z" fill="#FFDAB8"/>
<path fill-rule="evenodd" clip-rule="evenodd" d="M5.58398 24.6892C5.58398 24.3459 5.86229 24.0676 6.20561 24.0676H16.1516C16.4949 24.0676 16.7732 24.3459 16.7732 24.6892C16.7732 25.0326 16.4949 25.3109 16.1516 25.3109H6.82723V33.392C6.82723 33.7353 6.54892 34.0136 6.20561 34.0136C5.86229 34.0136 5.58398 33.7353 5.58398 33.392V24.6892Z" fill="#FFDAB8"/>
<path fill-rule="evenodd" clip-rule="evenodd" d="M5.58398 12.1785C5.58398 11.8352 5.86229 11.5569 6.20561 11.5569H9.93534C10.2786 11.5569 10.557 11.8352 10.557 12.1785C10.557 12.5218 10.2786 12.8001 9.93534 12.8001H6.82723V15.9082C6.82723 16.2515 6.54892 16.5299 6.20561 16.5299C5.86229 16.5299 5.58398 16.2515 5.58398 15.9082V12.1785Z" fill="#FFDAB8"/>
<path fill-rule="evenodd" clip-rule="evenodd" d="M4.73047 3.86487C4.73047 2.83493 5.5654 2 6.59533 2H41.4061C42.4361 2 43.271 2.83493 43.271 3.86486V34.9459C43.271 35.2893 42.9927 35.5676 42.6494 35.5676H5.35209C5.00878 35.5676 4.73047 35.2893 4.73047 34.9459V3.86487ZM6.59533 3.24324C6.25202 3.24324 5.97371 3.52155 5.97371 3.86487V34.3243H42.0278V3.86486C42.0278 3.52155 41.7495 3.24324 41.4061 3.24324H6.59533Z" fill="#0040A0"/>
<path fill-rule="evenodd" clip-rule="evenodd" d="M2.24414 36.1891C2.24414 35.1591 3.07907 34.3242 4.10901 34.3242H43.8928C44.9227 34.3242 45.7577 35.1591 45.7577 36.1891C45.7577 37.219 44.9227 38.0539 43.8928 38.0539H31.4604C31.117 38.0539 30.8387 37.7756 30.8387 37.4323C30.8387 37.089 31.117 36.8107 31.4604 36.8107H43.8928C44.2361 36.8107 44.5144 36.5324 44.5144 36.1891C44.5144 35.8458 44.2361 35.5675 43.8928 35.5675H4.10901C3.76569 35.5675 3.48738 35.8458 3.48738 36.1891C3.48738 36.5324 3.76569 36.8107 4.10901 36.8107H16.5414C16.8847 36.8107 17.1631 37.089 17.1631 37.4323C17.1631 37.7756 16.8847 38.0539 16.5414 38.0539H4.10901C3.07907 38.0539 2.24414 37.219 2.24414 36.1891Z" fill="#0040A0"/>
<path fill-rule="evenodd" clip-rule="evenodd" d="M3.48828 38.6757C3.48828 37.6457 4.32321 36.8108 5.35315 36.8108H7.83963C8.86957 36.8108 9.7045 37.6457 9.7045 38.6757V43.6486C9.7045 44.6786 8.86957 45.5135 7.83963 45.5135H5.35315C4.32321 45.5135 3.48828 44.6786 3.48828 43.6486V38.6757ZM5.35315 38.054C5.00983 38.054 4.73152 38.3323 4.73152 38.6757V43.6486C4.73152 43.9919 5.00983 44.2703 5.35315 44.2703H7.83963C8.18294 44.2703 8.46125 43.9919 8.46125 43.6486V38.6757C8.46125 38.3323 8.18294 38.054 7.83963 38.054H5.35315Z" fill="#0040A0"/>
<path fill-rule="evenodd" clip-rule="evenodd" d="M38.2988 38.6757C38.2988 37.6457 39.1338 36.8108 40.1637 36.8108H42.6502C43.6801 36.8108 44.515 37.6457 44.515 38.6757V43.6486C44.515 44.6786 43.6801 45.5135 42.6502 45.5135H40.1637C39.1338 45.5135 38.2988 44.6786 38.2988 43.6486V38.6757ZM40.1637 38.054C39.8204 38.054 39.5421 38.3323 39.5421 38.6757V43.6486C39.5421 43.9919 39.8204 44.2703 40.1637 44.2703H42.6502C42.9935 44.2703 43.2718 43.9919 43.2718 43.6486V38.6757C43.2718 38.3323 42.9935 38.054 42.6502 38.054H40.1637Z" fill="#0040A0"/>
<path fill-rule="evenodd" clip-rule="evenodd" d="M4.73047 23.7566C4.73047 23.4133 5.00878 23.135 5.35209 23.135H17.7845C18.1278 23.135 18.4061 23.4133 18.4061 23.7566V34.9458C18.4061 35.2891 18.1278 35.5674 17.7845 35.5674H5.35209C5.00878 35.5674 4.73047 35.2891 4.73047 34.9458V23.7566ZM5.97371 24.3783V34.3242H17.1629V24.3783H5.97371Z" fill="#0040A0"/>
<path fill-rule="evenodd" clip-rule="evenodd" d="M4.73047 17.5403C4.73047 17.197 5.00878 16.9187 5.35209 16.9187H11.5683C11.9116 16.9187 12.1899 17.197 12.1899 17.5403V23.7565C12.1899 24.0999 11.9116 24.3782 11.5683 24.3782H5.35209C5.00878 24.3782 4.73047 24.0999 4.73047 23.7565V17.5403ZM5.97371 18.1619V23.1349H10.9467V18.1619H5.97371Z" fill="#0040A0"/>
<path fill-rule="evenodd" clip-rule="evenodd" d="M34.5684 27.4864C34.5684 27.1431 34.8467 26.8647 35.19 26.8647H42.6494C42.9928 26.8647 43.2711 27.1431 43.2711 27.4864V34.9458C43.2711 35.2891 42.9928 35.5674 42.6494 35.5674H35.19C34.8467 35.5674 34.5684 35.2891 34.5684 34.9458V27.4864ZM35.8116 28.108V34.3242H42.0278V28.108H35.8116Z" fill="#0040A0"/>
<path fill-rule="evenodd" clip-rule="evenodd" d="M10.9473 17.5403C10.9473 17.197 11.2256 16.9187 11.5689 16.9187H17.7851C18.1284 16.9187 18.4067 17.197 18.4067 17.5403V23.7565C18.4067 24.0999 18.1284 24.3782 17.7851 24.3782H11.5689C11.2256 24.3782 10.9473 24.0999 10.9473 23.7565V17.5403ZM12.1905 18.1619V23.1349H17.1635V18.1619H12.1905Z" fill="#0040A0"/>
<path fill-rule="evenodd" clip-rule="evenodd" d="M4.73047 11.3243C4.73047 10.9809 5.00878 10.7026 5.35209 10.7026H11.5683C11.9116 10.7026 12.1899 10.9809 12.1899 11.3243V17.5405C12.1899 17.8838 11.9116 18.1621 11.5683 18.1621H5.35209C5.00878 18.1621 4.73047 17.8838 4.73047 17.5405V11.3243ZM5.97371 11.9459V16.9189H10.9467V11.9459H5.97371Z" fill="#0040A0"/>
<path fill-rule="evenodd" clip-rule="evenodd" d="M17.1641 27.4864C17.1641 27.1431 17.4424 26.8647 17.7857 26.8647H25.2451C25.5885 26.8647 25.8668 27.1431 25.8668 27.4864V34.9458C25.8668 35.2891 25.5885 35.5674 25.2451 35.5674H17.7857C17.4424 35.5674 17.1641 35.2891 17.1641 34.9458V27.4864ZM18.4073 28.108V34.3242H24.6235V28.108H18.4073Z" fill="#0040A0"/>
<path fill-rule="evenodd" clip-rule="evenodd" d="M17.6014 34.655C17.7091 34.4515 17.9205 34.3242 18.1508 34.3242H29.8519C30.0821 34.3242 30.2935 34.4515 30.4013 34.655L36.9831 47.0874C37.0851 47.2801 37.0788 47.5121 36.9663 47.6989C36.8538 47.8857 36.6518 47.9999 36.4338 47.9999H11.5689C11.3509 47.9999 11.1488 47.8857 11.0363 47.6989C10.9239 47.5121 10.9175 47.2801 11.0195 47.0874L17.6014 34.655ZM18.525 35.5675L12.6013 46.7567H35.4013L29.4776 35.5675H18.525Z" fill="#0040A0"/>
<path fill-rule="evenodd" clip-rule="evenodd" d="M20.8926 38.6756C20.8926 38.3323 21.1709 38.054 21.5142 38.054H26.4872C26.8305 38.054 27.1088 38.3323 27.1088 38.6756C27.1088 39.0189 26.8305 39.2972 26.4872 39.2972H21.5142C21.1709 39.2972 20.8926 39.0189 20.8926 38.6756Z" fill="#0040A0"/>
<path fill-rule="evenodd" clip-rule="evenodd" d="M18.4062 42.4053C18.4062 42.062 18.6846 41.7837 19.0279 41.7837H28.9738C29.3171 41.7837 29.5954 42.062 29.5954 42.4053C29.5954 42.7486 29.3171 43.0269 28.9738 43.0269H19.0279C18.6846 43.0269 18.4062 42.7486 18.4062 42.4053Z" fill="#0040A0"/>
</svg>
