<svg width="20" height="20" viewBox="0 0 20 20" fill="none" xmlns="http://www.w3.org/2000/svg">
<g id="Box received" clip-path="url(#clip0_705_7114)">
<g id="Color">
<path id="Vector" d="M10.0003 19.7395V12.0758L1.66699 9.47168V17.1353L10.0003 19.7395Z" fill="#FF7C00"/>
<path id="Vector_2" d="M10 12.0758L18.3333 9.47168V17.1353L10 19.7395V19.3674V12.0758Z" fill="#FF7C00"/>
<path id="Rectangle 6" d="M18.3335 9.47168L10.0002 12.0758L11.5627 14.68L19.896 12.0758L18.3335 9.47168Z" fill="#FF7C00"/>
<path id="Rectangle 1" d="M1.66698 9.47168L10.0003 12.0758L8.43777 14.68L0.104492 12.0758L1.66698 9.47168Z" fill="#FF7C00"/>
<path id="Rectangle 1 (Stroke)" fill-rule="evenodd" clip-rule="evenodd" d="M2.07218 10.6685C2.19185 10.7483 2.22419 10.91 2.14441 11.0297L1.81508 11.5236L7.99664 13.5017C8.13362 13.5456 8.20913 13.6922 8.1653 13.8291C8.12146 13.9661 7.97489 14.0416 7.83791 13.9978L1.32753 11.9145C1.2497 11.8896 1.18808 11.8296 1.16109 11.7524C1.13411 11.6753 1.14489 11.59 1.19022 11.522L1.71105 10.7407C1.79083 10.6211 1.95251 10.5887 2.07218 10.6685Z" fill="white"/>
<path id="Rectangle 4" d="M1.66694 9.47153L10.0002 12.0757L18.3335 9.47153L10.0002 6.84882L1.66694 9.47153Z" fill="#FF7C00"/>
<path id="Ellipse 551" d="M13.125 4.63523C13.125 6.36111 11.7259 7.76021 9.99998 7.76021C8.2741 7.76021 6.875 6.36111 6.875 4.63523C6.875 2.90935 8.2741 1.51025 9.99998 1.51025C11.7259 1.51025 13.125 2.90935 13.125 4.63523Z" fill="#027DDB"/>
<path id="Ellipse 229 (Stroke)" fill-rule="evenodd" clip-rule="evenodd" d="M9.49535 2.15564C9.54328 2.29124 9.47221 2.44002 9.3366 2.48795C8.48092 2.79039 7.86849 3.60647 7.86849 4.56492C7.86849 4.70874 7.75189 4.82533 7.60807 4.82533C7.46425 4.82533 7.34766 4.70874 7.34766 4.56492C7.34766 3.37888 8.10577 2.37058 9.16304 1.99689C9.29864 1.94896 9.44742 2.02003 9.49535 2.15564Z" fill="#E7EFFF"/>
<path id="Vector 214 (Stroke)" fill-rule="evenodd" clip-rule="evenodd" d="M2.48112 12.6431C2.62494 12.6431 2.74153 12.7597 2.74153 12.9035V16.5493C2.74153 16.6931 2.62494 16.8097 2.48112 16.8097C2.33729 16.8097 2.2207 16.6931 2.2207 16.5493V12.9035C2.2207 12.7597 2.33729 12.6431 2.48112 12.6431Z" fill="white"/>
</g>
<g id="Outline">
<path id="Rectangle 4 (Stroke)" fill-rule="evenodd" clip-rule="evenodd" d="M10.0777 12.3246C10.0272 12.3404 9.97296 12.3404 9.92238 12.3246L1.58911 9.72042C1.48039 9.68645 1.40637 9.58576 1.40637 9.47186C1.40637 9.35796 1.48039 9.25727 1.58911 9.2233L5.75575 7.92123C5.89302 7.87833 6.03908 7.95484 6.08198 8.09211C6.12488 8.22939 6.04837 8.37545 5.9111 8.41835L2.53985 9.47186L10.0001 11.8032L17.4603 9.47186L14.089 8.41835C13.9517 8.37545 13.8752 8.22939 13.9181 8.09211C13.961 7.95484 14.1071 7.87833 14.2444 7.92123L18.411 9.2233C18.5197 9.25727 18.5938 9.35796 18.5938 9.47186C18.5938 9.58576 18.5197 9.68645 18.411 9.72042L10.0777 12.3246Z" fill="#0040A0"/>
<path id="Rectangle 2 (Stroke)" fill-rule="evenodd" clip-rule="evenodd" d="M10.0001 11.8154C9.85624 11.8154 9.73964 11.932 9.73964 12.0758V19.3675C9.73964 19.5113 9.85624 19.6279 10.0001 19.6279C10.1439 19.6279 10.2605 19.5113 10.2605 19.3675V12.0758C10.2605 11.932 10.1439 11.8154 10.0001 11.8154ZM18.3333 12.3363C18.1895 12.3363 18.0729 12.4529 18.0729 12.5967V17.1354C18.0729 17.2792 18.1895 17.3958 18.3333 17.3958C18.4772 17.3958 18.5938 17.2792 18.5938 17.1354V12.5967C18.5938 12.4529 18.4772 12.3363 18.3333 12.3363Z" fill="#0040A0"/>
<path id="Rectangle 5 (Stroke)" fill-rule="evenodd" clip-rule="evenodd" d="M9.99994 11.8154C10.1438 11.8154 10.2604 11.932 10.2604 12.0758V19.7395C10.2604 19.8833 10.1438 19.9999 9.99994 19.9999C9.85612 19.9999 9.73953 19.8833 9.73953 19.7395V12.0758C9.73953 11.932 9.85612 11.8154 9.99994 11.8154ZM1.66666 12.3421C1.81049 12.3421 1.92708 12.4587 1.92708 12.6025V17.1354C1.92708 17.2792 1.81049 17.3958 1.66666 17.3958C1.52284 17.3958 1.40625 17.2792 1.40625 17.1354V12.6025C1.40625 12.4587 1.52284 12.3421 1.66666 12.3421Z" fill="#0040A0"/>
<path id="Rectangle 8 (Stroke)" fill-rule="evenodd" clip-rule="evenodd" d="M18.1994 9.24858C18.076 9.32257 18.036 9.48253 18.11 9.60586L19.5022 11.9262L11.6804 14.3705L10.2234 11.942C10.1494 11.8187 9.98941 11.7787 9.86609 11.8527C9.74276 11.9267 9.70277 12.0867 9.77676 12.21L11.3393 14.8142C11.4011 14.9172 11.5255 14.9646 11.6402 14.9287L19.9735 12.3246C20.0497 12.3008 20.1108 12.2433 20.1392 12.1687C20.1676 12.0941 20.1602 12.0105 20.1191 11.942L18.5566 9.3379C18.4827 9.21457 18.3227 9.17458 18.1994 9.24858Z" fill="#0040A0"/>
<path id="Rectangle 7 (Stroke)" fill-rule="evenodd" clip-rule="evenodd" d="M1.80064 9.24858C1.92396 9.32257 1.96395 9.48253 1.88996 9.60586L0.49776 11.9262L8.31955 14.3705L9.77663 11.942C9.85062 11.8187 10.0106 11.7787 10.1339 11.8527C10.2572 11.9267 10.2972 12.0867 10.2232 12.21L8.66075 14.8142C8.59889 14.9172 8.47451 14.9646 8.35977 14.9287L0.0264902 12.3246C-0.0497256 12.3008 -0.110802 12.2433 -0.139211 12.1687C-0.16762 12.0941 -0.160221 12.0105 -0.119138 11.942L1.44335 9.3379C1.51735 9.21457 1.67731 9.17458 1.80064 9.24858Z" fill="#0040A0"/>
<g id="Group 880">
<path id="Ellipse 228 (Stroke)" fill-rule="evenodd" clip-rule="evenodd" d="M9.26453 1.4237C9.31246 1.55931 9.24138 1.70809 9.10578 1.75602C7.9573 2.16195 7.13509 3.25727 7.13509 4.54395C7.13509 6.17655 8.45857 7.50003 10.0912 7.50003C11.3779 7.50003 12.4732 6.67782 12.8791 5.52933C12.927 5.39373 13.0758 5.32266 13.2114 5.37059C13.347 5.41851 13.4181 5.5673 13.3702 5.7029C12.893 7.05297 11.6054 8.02086 10.0912 8.02086C8.17092 8.02086 6.61426 6.46419 6.61426 4.54395C6.61426 3.02968 7.58215 1.74214 8.93222 1.26496C9.06782 1.21703 9.2166 1.2881 9.26453 1.4237Z" fill="#0040A0"/>
<path id="Vector 327 (Stroke)" fill-rule="evenodd" clip-rule="evenodd" d="M13.0484 2.10752C13.1501 2.20922 13.1501 2.37411 13.0484 2.47581L10.4442 5.07995C10.3425 5.18165 10.1776 5.18165 10.0759 5.07995L9.03428 4.0383C8.93258 3.9366 8.93258 3.77171 9.03428 3.67001C9.13598 3.56831 9.30087 3.56831 9.40256 3.67001L10.2601 4.52753L12.6801 2.10752C12.7818 2.00583 12.9467 2.00583 13.0484 2.10752Z" fill="#E7EFFF"/>
</g>
</g>
</g>
<defs>
<clipPath id="clip0_705_7114">
<rect width="20" height="20" fill="white"/>
</clipPath>
</defs>
</svg>
