<svg width="24" height="24" viewBox="0 0 24 24" fill="none" xmlns="http://www.w3.org/2000/svg">
<g id="instagram (4)" clip-path="url(#clip0_1549_2613)">
<g id="Group">
<path id="Vector" opacity="0.987" fill-rule="evenodd" clip-rule="evenodd" d="M10.8984 -0.0234375C11.6172 -0.0234375 12.336 -0.0234375 13.0547 -0.0234375C17.2568 0.486933 20.4208 2.56506 22.5469 6.21094C23.3295 7.68614 23.806 9.24862 23.9766 10.8984C23.9766 11.6172 23.9766 12.336 23.9766 13.0547C23.4662 17.2568 21.3881 20.4208 17.7422 22.5469C16.267 23.3295 14.7045 23.806 13.0547 23.9766C12.336 23.9766 11.6172 23.9766 10.8984 23.9766C6.69637 23.4662 3.53232 21.3881 1.40625 17.7422C0.623686 16.267 0.147122 14.7045 -0.0234375 13.0547C-0.0234375 12.336 -0.0234375 11.6172 -0.0234375 10.8984C0.486914 6.69642 2.56504 3.53237 6.21094 1.40625C7.68614 0.623686 9.24862 0.147122 10.8984 -0.0234375ZM11.6484 5.08594C12.7262 5.11706 13.8044 5.1405 14.8828 5.15625C16.5578 5.17641 17.7532 5.93419 18.4688 7.42969C18.6622 7.95956 18.7716 8.50641 18.7969 9.07031C18.8281 11.0078 18.8281 12.9453 18.7969 14.8828C18.6172 17.3125 17.3125 18.6172 14.8828 18.7969C13.9137 18.8087 12.9449 18.8321 11.9766 18.8672C11.0082 18.8321 10.0395 18.8087 9.07031 18.7969C7.39528 18.7767 6.19997 18.0189 5.48438 16.5234C5.29092 15.9936 5.18152 15.4467 5.15625 14.8828C5.14791 13.912 5.12447 12.9433 5.08594 11.9766C5.12447 11.0099 5.14791 10.0411 5.15625 9.07031C5.19187 7.19259 6.09028 5.95041 7.85156 5.34375C8.2365 5.24573 8.62711 5.18325 9.02344 5.15625C9.90647 5.14838 10.7814 5.12494 11.6484 5.08594Z" fill="white"/>
</g>
<g id="Group_2">
<path id="Vector_2" opacity="0.977" fill-rule="evenodd" clip-rule="evenodd" d="M9.58592 6.30469C11.1798 6.29687 12.7735 6.30469 14.3672 6.32813C16.6093 6.25782 17.6953 7.34377 17.625 9.58594C17.6667 11.446 17.651 13.3054 17.5781 15.1641C17.4433 16.4547 16.748 17.2438 15.4922 17.5313C15.1189 17.5808 14.7439 17.612 14.3672 17.625C12.5071 17.6667 10.6477 17.651 8.78905 17.5781C7.49258 17.4506 6.70353 16.7553 6.42186 15.4922C6.37311 15.1345 6.34189 14.7751 6.32811 14.4141C6.28606 12.5384 6.30167 10.6634 6.37499 8.78907C6.50249 7.4926 7.19778 6.70355 8.46092 6.42188C8.84267 6.37998 9.21767 6.34093 9.58592 6.30469ZM15.5859 7.47657C15.4845 7.52199 15.3752 7.56104 15.2578 7.59376C14.7026 8.06382 14.7026 8.53257 15.2578 9.00001C15.9238 9.22576 16.33 8.99138 16.4765 8.29688C16.3814 7.80324 16.0845 7.52982 15.5859 7.47657ZM11.6015 8.46094C10.2572 8.68749 9.29628 9.42183 8.71873 10.6641C8.1793 12.2484 8.53086 13.6 9.77342 14.7188C11.0814 15.655 12.4408 15.7331 13.8515 14.9531C15.3367 13.8569 15.7977 12.4272 15.2344 10.6641C14.513 9.13496 13.3021 8.40057 11.6015 8.46094Z" fill="white"/>
</g>
<g id="Group_3">
<path id="Vector_3" opacity="0.977" fill-rule="evenodd" clip-rule="evenodd" d="M11.5078 9.67972C12.6975 9.53614 13.5647 9.98924 14.1094 11.0391C14.5472 12.3988 14.1488 13.4222 12.9141 14.1094C11.5544 14.5472 10.531 14.1488 9.84375 12.9141C9.44864 11.7831 9.70645 10.8378 10.6172 10.0782C10.8962 9.89445 11.1931 9.76166 11.5078 9.67972Z" fill="white"/>
</g>
</g>
<defs>
<clipPath id="clip0_1549_2613">
<rect width="24" height="24" fill="white"/>
</clipPath>
</defs>
</svg>
