<svg width="25" height="24" viewBox="0 0 25 24" fill="none" xmlns="http://www.w3.org/2000/svg">
<g id="exit 1" clip-path="url(#clip0_923_3902)">
<g id="Group">
<path id="Vector" opacity="0.992" fill-rule="evenodd" clip-rule="evenodd" d="M1.22656 -0.0234375C6.75781 -0.0234375 12.2891 -0.0234375 17.8203 -0.0234375C18.2547 0.156746 18.4812 0.48487 18.5 0.960938C18.5313 2.97656 18.5313 4.99219 18.5 7.00781C18.3815 7.7348 17.9518 8.05509 17.2109 7.96875C16.8978 7.87439 16.6712 7.67906 16.5312 7.38281C16.4618 5.58881 16.4383 3.79193 16.4609 1.99219C13.8203 1.98437 11.1796 1.99219 8.53906 2.01562C9.66406 2.35937 10.7891 2.70313 11.9141 3.04688C12.1949 3.1715 12.3746 3.38244 12.4531 3.67969C12.5229 9.10017 12.5463 14.522 12.5234 19.9453C13.8359 19.9453 15.1484 19.9453 16.4609 19.9453C16.4531 18.1952 16.4609 16.4452 16.4844 14.6953C16.8092 13.9828 17.3326 13.7875 18.0547 14.1094C18.2418 14.2495 18.3746 14.4292 18.4531 14.6484C18.5295 16.7565 18.5451 18.8659 18.5 20.9766C18.4672 21.5093 18.1938 21.8452 17.6797 21.9844C15.961 22.0078 14.2423 22.0156 12.5234 22.0078C12.5488 22.4831 12.5098 22.9519 12.4062 23.4141C12.2735 23.6956 12.0625 23.8831 11.7734 23.9766C11.5547 23.9766 11.336 23.9766 11.1172 23.9766C7.84513 23.2987 4.56387 22.6346 1.27344 21.9844C0.89852 21.8827 0.632895 21.6561 0.476562 21.3047C0.476562 14.4297 0.476562 7.5547 0.476562 0.679688C0.604821 0.317098 0.854821 0.0827231 1.22656 -0.0234375Z" fill="#FF1414"/>
</g>
<g id="Group_2">
<path id="Vector_2" opacity="0.976" fill-rule="evenodd" clip-rule="evenodd" d="M24.4765 10.6642C24.4765 10.8673 24.4765 11.0704 24.4765 11.2735C24.42 11.4017 24.3497 11.5267 24.2656 11.6485C23.2265 12.6876 22.1875 13.7266 21.1484 14.7657C20.6541 15.0654 20.1775 15.042 19.7187 14.6954C19.4165 14.2775 19.3853 13.84 19.625 13.3829C20.0859 12.922 20.5469 12.461 21.0078 12.0001C19.0546 11.9845 17.1015 11.9688 15.1484 11.9532C14.4465 11.5818 14.2825 11.0427 14.6562 10.336C14.8095 10.1775 14.9892 10.0603 15.1953 9.98447C17.1172 9.96886 19.039 9.9532 20.9609 9.93759C20.5469 9.52355 20.1328 9.10945 19.7187 8.69541C19.3318 8.12339 19.3865 7.59999 19.8828 7.12509C20.3399 6.88542 20.7774 6.91664 21.1953 7.21884C22.2031 8.22666 23.2109 9.23447 24.2187 10.2423C24.33 10.3718 24.416 10.5124 24.4765 10.6642Z" fill="#FF1414"/>
</g>
</g>
<defs>
<clipPath id="clip0_923_3902">
<rect width="24" height="24" fill="white" transform="translate(0.5)"/>
</clipPath>
</defs>
</svg>
