<svg width="46" height="48" viewBox="0 0 46 48" fill="none" xmlns="http://www.w3.org/2000/svg">
<g id="Group 1000005843">
<g id="Color">
<path id="Ellipse 4" d="M30.4594 12.7897C30.4594 16.8837 27.1197 20.2025 23 20.2025C18.8802 20.2025 15.5405 16.8837 15.5405 12.7897C15.5405 8.69576 18.8802 5.37695 23 5.37695C27.1197 5.37695 30.4594 8.69576 30.4594 12.7897Z" fill="#FFDDB6"/>
<path id="Ellipse 229 (Stroke)" fill-rule="evenodd" clip-rule="evenodd" d="M18.9559 7.10261C19.2168 7.32433 19.2475 7.71427 19.0243 7.97356C17.0616 10.2545 16.654 13.6045 18.249 16.35C18.4207 16.6454 18.3188 17.0232 18.0215 17.1938C17.7242 17.3644 17.344 17.2631 17.1724 16.9677C15.3056 13.7547 15.785 9.83704 18.0794 7.17063C18.3026 6.91134 18.695 6.88088 18.9559 7.10261Z" fill="#FFF0DF"/>
<path id="Vector 851 (Stroke)" fill-rule="evenodd" clip-rule="evenodd" d="M20.5137 13.4072C20.857 13.4072 21.1353 13.6838 21.1353 14.025V15.2604C21.1353 15.6016 20.857 15.8781 20.5137 15.8781C20.1704 15.8781 19.8921 15.6016 19.8921 15.2604V14.025C19.8921 13.6838 20.1704 13.4072 20.5137 13.4072Z" fill="#0040A0"/>
<path id="Vector 852 (Stroke)" fill-rule="evenodd" clip-rule="evenodd" d="M25.4869 13.4072C25.8302 13.4072 26.1085 13.6838 26.1085 14.025V15.2604C26.1085 15.6016 25.8302 15.8781 25.4869 15.8781C25.1435 15.8781 24.8652 15.6016 24.8652 15.2604V14.025C24.8652 13.6838 25.1435 13.4072 25.4869 13.4072Z" fill="#0040A0"/>
<path id="Vector 787" d="M23.4687 20.2021C17.4054 20.2021 13.9792 22.6731 12.1126 23.9085C10.2461 25.3499 7.5096 29.0975 10.8694 32.5568H34.5113C38.4311 29.0975 36.1446 25.3499 34.5113 23.9085C33.1114 22.6731 29.5319 20.2021 23.4687 20.2021Z" fill="#AED5F3"/>
<path id="Rectangle 8" d="M8.08105 33.7922C8.08105 33.1099 8.63767 32.5568 9.3243 32.5568H36.6756C37.3623 32.5568 37.9189 33.1099 37.9189 33.7922V46.1468C37.9189 46.8292 37.3623 47.3823 36.6756 47.3823H9.3243C8.63767 47.3823 8.08105 46.8292 8.08105 46.1468V33.7922Z" fill="#FF7C00"/>
<path id="Rectangle 9 (Stroke)" fill-rule="evenodd" clip-rule="evenodd" d="M9.24658 34.4874C9.24658 34.1462 9.52489 33.8696 9.8682 33.8696H34.7331C35.0764 33.8696 35.3547 34.1462 35.3547 34.4874C35.3547 34.8285 35.0764 35.1051 34.7331 35.1051H10.4898V45.6065C10.4898 45.9477 10.2115 46.2242 9.8682 46.2242C9.52489 46.2242 9.24658 45.9477 9.24658 45.6065V34.4874Z" fill="#AED5F3"/>
<path id="Vector 788" d="M23.715 5.25195C21.492 6.89643 18.6207 7.99274 16.7683 7.99274C16.7683 7.99274 16.0416 9.37803 15.7926 10.3375C15.4865 11.5166 15.54 13.4455 15.54 13.4455C11.5384 7.99274 14.9573 2.71241 18.1576 3.19635C24.2427 -2.75064 30.3618 3.05988 30.6616 5.93715C33.0426 6.41879 31.5967 11.5923 30.5172 13.098C28.5358 8.21406 24.3981 9.00553 23.715 5.25195Z" fill="#0040A0"/>
<path id="Vector 853 (Stroke)" fill-rule="evenodd" clip-rule="evenodd" d="M23.5429 20.5134C23.5629 20.854 23.3013 21.1462 22.9586 21.1661C18.4655 21.4265 14.8529 23.5892 13.2156 24.9261C12.2016 25.7541 11.3093 26.8923 11.0072 28.1343C10.7163 29.3297 10.9499 30.7029 12.3435 32.1256C12.583 32.3701 12.5777 32.7612 12.3317 32.9992C12.0857 33.2371 11.6921 33.2319 11.4526 32.9874C9.78225 31.2821 9.40051 29.4807 9.79876 27.8439C10.1857 26.2536 11.2869 24.902 12.4264 23.9715C14.1995 22.5237 18.055 20.2128 22.8862 19.9327C23.2289 19.9128 23.5229 20.1728 23.5429 20.5134Z" fill="#AED5F3"/>
<path id="Vector 854 (Stroke)" fill-rule="evenodd" clip-rule="evenodd" d="M25.1713 0.864779C27.1597 1.11681 28.831 2.14942 29.9027 3.10178C30.1586 3.32919 30.1806 3.71971 29.9517 3.97402C29.7229 4.22833 29.3299 4.25014 29.074 4.02273C28.1254 3.17981 26.6789 2.30133 25.014 2.09031C23.3825 1.88352 21.474 2.30734 19.5227 4.18121C19.3833 4.31512 19.1889 4.3767 18.9972 4.34771C17.9669 4.19191 16.7842 4.82049 16.015 6.12584C15.2599 7.4074 14.9648 9.27314 15.7305 11.3486C15.8487 11.6689 15.6832 12.0238 15.3608 12.1412C15.0385 12.2587 14.6814 12.0942 14.5632 11.7739C13.675 9.36617 13.992 7.11414 14.9422 5.50155C15.8204 4.01113 17.2971 3.00193 18.8714 3.09359C21.0153 1.13461 23.2143 0.616733 25.1713 0.864779Z" fill="#0040A0"/>
</g>
<g id="Outline">
<path id="Ellipse 4 (Stroke)" fill-rule="evenodd" clip-rule="evenodd" d="M15.5406 12.1719C15.8839 12.1719 16.1622 12.4484 16.1622 12.7896C16.1622 16.5424 19.2236 19.5846 23 19.5846C26.7765 19.5846 29.8379 16.5424 29.8379 12.7896C29.8379 12.4484 30.1162 12.1719 30.4595 12.1719C30.8028 12.1719 31.0811 12.4484 31.0811 12.7896C31.0811 17.2247 27.4631 20.8201 23 20.8201C18.537 20.8201 14.9189 17.2247 14.9189 12.7896C14.9189 12.4484 15.1973 12.1719 15.5406 12.1719Z" fill="#0040A0"/>
<path id="Rectangle 8 (Stroke)" fill-rule="evenodd" clip-rule="evenodd" d="M7.45947 33.7922C7.45947 32.7687 8.2944 31.939 9.32434 31.939H36.6757C37.7056 31.939 38.5405 32.7687 38.5405 33.7922V46.1468C38.5405 47.1702 37.7056 47.9999 36.6757 47.9999H9.32434C8.2944 47.9999 7.45947 47.1702 7.45947 46.1468V33.7922ZM9.32434 33.1744C8.98102 33.1744 8.70272 33.451 8.70272 33.7922V46.1468C8.70272 46.4879 8.98102 46.7645 9.32434 46.7645H36.6757C37.019 46.7645 37.2973 46.4879 37.2973 46.1468V33.7922C37.2973 33.451 37.019 33.1744 36.6757 33.1744H9.32434Z" fill="#0040A0"/>
<path id="Vector 840 (Stroke)" fill-rule="evenodd" clip-rule="evenodd" d="M14.7484 27.6387C15.0785 27.5449 15.4225 27.7349 15.5168 28.0629L16.7601 32.387C16.8544 32.7151 16.6633 33.057 16.3332 33.1507C16.0031 33.2444 15.659 33.0545 15.5647 32.7265L14.3214 28.4023C14.2271 28.0743 14.4183 27.7324 14.7484 27.6387Z" fill="#0040A0"/>
<path id="Vector 841 (Stroke)" fill-rule="evenodd" clip-rule="evenodd" d="M30.63 27.6387C30.2999 27.5449 29.9559 27.7349 29.8616 28.0629L28.6183 32.387C28.524 32.7151 28.7152 33.057 29.0453 33.1507C29.3754 33.2444 29.7194 33.0545 29.8137 32.7265L31.057 28.4023C31.1513 28.0743 30.9601 27.7324 30.63 27.6387Z" fill="#0040A0"/>
<path id="Vector 839 (Stroke)" fill-rule="evenodd" clip-rule="evenodd" d="M45.8559 25.984C45.6361 25.7219 45.2442 25.6865 44.9804 25.9049L37.521 32.0822C37.2572 32.3006 37.2216 32.6901 37.4414 32.9522C37.6611 33.2143 38.0531 33.2497 38.3169 33.0313L45.7763 26.854C46.0401 26.6356 46.0757 26.2461 45.8559 25.984Z" fill="#0040A0"/>
<path id="Vector 838 (Stroke)" fill-rule="evenodd" clip-rule="evenodd" d="M0.144094 25.984C0.363877 25.7219 0.75585 25.6865 1.01959 25.9049L8.47904 32.0822C8.74278 32.3006 8.77842 32.6901 8.55863 32.9522C8.33885 33.2143 7.94688 33.2497 7.68314 33.0313L0.223685 26.854C-0.040055 26.6356 -0.0756888 26.2461 0.144094 25.984Z" fill="#0040A0"/>
<path id="Vector 787 (Stroke)" fill-rule="evenodd" clip-rule="evenodd" d="M12.4769 24.4098C12.5533 24.3592 12.6321 24.3067 12.7134 24.2525C14.6081 22.9898 17.8639 20.8199 23.4689 20.8199C29.3474 20.8199 32.7856 23.2115 34.0988 24.3705C34.8439 25.028 35.7285 26.2103 35.9825 27.5874C36.2269 28.9119 35.906 30.5001 34.0988 32.0949L34.9244 33.0187C37.037 31.1542 37.5327 29.139 37.2054 27.3646C36.8878 25.6427 35.8125 24.2305 34.9244 23.4467C33.4378 22.1347 29.7171 19.5845 23.4689 19.5845C17.4844 19.5845 13.968 21.9285 12.0269 23.2225C11.9374 23.2822 11.8512 23.3396 11.7683 23.3945L11.7494 23.407L11.7315 23.4208C10.7297 24.1944 9.48513 25.5878 8.9392 27.2882C8.37729 29.0384 8.57254 31.0812 10.4224 32.9858L11.3169 32.1278C9.80701 30.5732 9.6906 29.0125 10.1236 27.6637C10.5696 26.2746 11.6154 25.0802 12.4769 24.4098Z" fill="#0040A0"/>
<path id="Vector 788 (Stroke)" fill-rule="evenodd" clip-rule="evenodd" d="M31.2102 5.4641C31.8272 5.73094 32.1991 6.2627 32.389 6.86271C32.6103 7.56187 32.6087 8.40311 32.5043 9.21263C32.2965 10.8248 31.639 12.5994 31.0242 13.457C30.8924 13.6408 30.6703 13.7386 30.4448 13.712C30.2193 13.6855 30.0263 13.5388 29.9414 13.3296C29.0252 11.0713 27.6338 10.1354 26.2916 9.26986C26.2498 9.24292 26.2079 9.21597 26.166 9.18898C25.06 8.47742 23.9113 7.73839 23.3503 6.25956C22.3844 6.88954 21.3428 7.419 20.3309 7.81447C19.2196 8.24879 18.1122 8.53401 17.1599 8.59758C17.0972 8.72557 17.0212 8.88451 16.9406 9.06105C16.7305 9.52148 16.5055 10.0672 16.3952 10.4924C16.2596 11.0147 16.1979 11.7366 16.1733 12.3585C16.1613 12.6631 16.1585 12.9325 16.1587 13.1255C16.1588 13.2219 16.1597 13.2988 16.1605 13.3512L16.1616 13.4106L16.162 13.4252L16.162 13.4285C16.162 13.4284 16.162 13.4285 16.162 13.4285C16.1695 13.6989 15.9991 13.9433 15.7414 14.0307C15.4838 14.1181 15.1989 14.0286 15.0384 13.81C12.9247 10.9297 12.7314 8.02725 13.5689 5.87265C14.3428 3.88163 16.065 2.44507 17.9352 2.55318C19.464 1.12425 21.0234 0.362257 22.5311 0.102994C24.1071 -0.168013 25.5795 0.118408 26.8406 0.697472C28.0974 1.2746 29.1532 2.14566 29.9173 3.06626C30.5569 3.83678 31.0264 4.68414 31.2102 5.4641ZM15.001 11.3074C14.1512 9.40005 14.2137 7.64252 14.7286 6.31783C15.4203 4.53843 16.8546 3.62463 18.0648 3.80763C18.2584 3.83691 18.4546 3.77382 18.5942 3.63736C20.0401 2.22429 21.4526 1.54227 22.7431 1.32036C24.0352 1.09816 25.2523 1.32914 26.3191 1.81899C27.3901 2.31078 28.3006 3.06015 28.9583 3.85242C29.6264 4.65735 29.9863 5.44803 30.044 6.00135C30.072 6.26985 30.2721 6.4892 30.5383 6.54305C30.8529 6.60669 31.0682 6.80748 31.203 7.23341C31.3465 7.6868 31.3656 8.32334 31.2712 9.05562C31.1501 9.99502 30.8596 10.9726 30.5444 11.7254C29.506 9.89438 28.1398 8.98888 26.9683 8.23348L26.9394 8.21486C25.5666 7.32963 24.6136 6.71514 24.3273 5.14259C24.2891 4.9322 24.144 4.75645 23.9439 4.67795C23.7438 4.59945 23.517 4.62936 23.3445 4.75703C22.2799 5.54457 21.0552 6.20383 19.8759 6.66474C18.6884 7.12881 17.5886 7.37559 16.769 7.37559C16.5373 7.37559 16.3248 7.50362 16.2178 7.70778L16.215 7.71304L16.2082 7.72614L16.1833 7.77457C16.1619 7.81627 16.1314 7.87633 16.0942 7.95116C16.0199 8.10063 15.9182 8.31007 15.8084 8.55075C15.5929 9.02283 15.33 9.64949 15.1913 10.1838C15.102 10.5279 15.0417 10.9202 15.001 11.3074Z" fill="#0040A0"/>
</g>
</g>
</svg>
