<svg width="48" height="43" viewBox="0 0 48 43" fill="none" xmlns="http://www.w3.org/2000/svg">
<g id="Group 1000005844">
<g id="Color">
<path id="Rectangle 8" d="M40 0.614258H12.9231C12.2434 0.614258 11.6924 1.16431 11.6924 1.84283V26.4143C11.6924 27.0928 12.2434 27.6429 12.9231 27.6429H40C40.6797 27.6429 41.2307 27.0928 41.2307 26.4143V1.84283C41.2307 1.16431 40.6797 0.614258 40 0.614258Z" fill="#FF7C00"/>
<path id="Rectangle 10 (Stroke)" fill-rule="evenodd" clip-rule="evenodd" d="M13.1538 2.76419C13.1538 2.42493 13.4293 2.1499 13.7692 2.1499H39.6152C39.9551 2.1499 40.2306 2.42493 40.2306 2.76419C40.2306 3.10345 39.9551 3.37848 39.6152 3.37848H14.3846V28.5642C14.3846 28.9035 14.1091 29.1785 13.7692 29.1785C13.4293 29.1785 13.1538 28.9035 13.1538 28.5642V2.76419Z" fill="#AED5F3"/>
<path id="Rectangle 9" d="M21.5386 0.614258H31.3847V9.21427L28.9232 7.9857L26.4616 9.21427L24.0001 7.9857L21.5386 9.21427V0.614258Z" fill="#FF7C00"/>
<path id="Rectangle 7" d="M0.74594 31.6434C0.513164 31.1862 0.597554 30.639 0.958383 30.2659L4.30074 26.8093C4.88943 26.2005 5.92532 26.3118 6.35847 27.0305L13.9806 39.6769C14.4331 40.4276 13.9564 41.3793 13.0619 41.511L7.21474 42.3714C6.65792 42.4533 6.11023 42.1787 5.86326 41.6937L0.74594 31.6434Z" fill="#027DDB"/>
<path id="Vector 209" d="M24.7521 36.6004C20.4227 36.909 17.1354 36.8268 12.846 37.7783L7.11523 28.2568C10.9281 21.7865 18.3973 22.0104 21.4159 22.3276C23.3223 22.8034 25.4702 23.9568 28.9229 23.9568C32.6152 23.9568 33.0382 26.8747 31.8075 28.1032C31.8075 28.1032 35.8844 28.0264 39.1921 26.5291C42.4997 25.0318 46.0634 23.4835 47.1526 25.6579C48.1058 27.561 45.8816 28.1953 44.7696 28.9882C42.0056 30.4095 38.7119 32.4414 35.2374 33.7458C32.1214 34.9156 27.9069 36.3754 24.7521 36.6004Z" fill="#FFDDB6"/>
<path id="Rectangle 11 (Stroke)" fill-rule="evenodd" clip-rule="evenodd" d="M23 2.76419C23 2.42493 23.2755 2.1499 23.6154 2.1499H29.7692C30.1091 2.1499 30.3846 2.42493 30.3846 2.76419C30.3846 3.10345 30.1091 3.37848 29.7692 3.37848H23.6154C23.2755 3.37848 23 3.10345 23 2.76419Z" fill="#E7EFFF"/>
<path id="Rectangle 12 (Stroke)" fill-rule="evenodd" clip-rule="evenodd" d="M5.09524 28.518C5.33978 28.7536 5.34667 29.1425 5.11064 29.3866L3.43946 31.1149C3.25802 31.3025 3.22076 31.5674 3.33283 31.7875L7.17083 39.3252C7.32482 39.6276 7.20404 39.9974 6.90107 40.1511C6.59809 40.3048 6.22764 40.1843 6.07365 39.8818L2.23565 32.3441C1.88217 31.6499 2.01369 30.8204 2.55392 30.2617L4.2251 28.5334C4.46113 28.2893 4.85071 28.2824 5.09524 28.518Z" fill="#F7F9FC"/>
<path id="Vector 210 (Stroke)" fill-rule="evenodd" clip-rule="evenodd" d="M7.58506 29.4931C11.4318 22.9653 18.9407 23.2333 21.8249 23.5363C21.8535 23.5393 21.8818 23.5443 21.9097 23.5513C22.4727 23.6918 23.0243 23.8767 23.5991 24.0694C25.0441 24.5539 26.6355 25.0874 28.9233 25.0874C29.2632 25.0874 29.5387 25.3625 29.5387 25.7017C29.5387 26.041 29.2632 26.316 28.9233 26.316C26.4174 26.316 24.5283 25.6832 23.0431 25.1858C22.5352 25.0157 22.0745 24.8614 21.6526 24.7536C18.7525 24.4545 12.0581 24.3256 8.6459 30.116C8.47358 30.4084 8.09641 30.506 7.80347 30.334C7.51053 30.162 7.41274 29.7855 7.58506 29.4931ZM41.9131 26.1781C43.0089 25.8136 44.1214 25.5725 45.057 25.7342C45.3918 25.7921 45.6163 26.11 45.5583 26.4443C45.5003 26.7786 45.1818 27.0026 44.8469 26.9447C44.2295 26.838 43.3645 26.9903 42.3022 27.3437C41.2583 27.691 40.1174 28.1988 38.9759 28.7156C37.3232 29.4637 35.4977 29.8499 34.1031 30.0508C33.4022 30.1518 32.8022 30.207 32.3762 30.237C32.163 30.2521 31.993 30.2608 31.8752 30.2659C31.8163 30.2684 31.7705 30.2699 31.7388 30.2709L31.702 30.2719L31.6918 30.2721L31.6888 30.2722L31.6875 30.2722C31.6874 30.2722 31.6873 30.2722 31.6757 29.6581L31.6875 30.2722C31.3477 30.2786 31.0668 30.0089 31.0604 29.6696C31.054 29.3305 31.3242 29.0504 31.6639 29.0439L31.6652 29.0439L31.6719 29.0437L31.7015 29.0429C31.7283 29.0421 31.7691 29.0407 31.8227 29.0384C31.93 29.0338 32.0886 29.0257 32.2894 29.0115C32.6914 28.9832 33.2612 28.9308 33.9273 28.8349C35.2666 28.6419 36.9641 28.2772 38.4675 27.5967C39.6012 27.0835 40.7989 26.5488 41.9131 26.1781Z" fill="#FFF0DF"/>
</g>
<g id="Outline">
<g id="Group 850">
<path id="Rectangle 8 (Stroke)" fill-rule="evenodd" clip-rule="evenodd" d="M11.0767 1.84286C11.0767 0.825077 11.9032 0 12.9228 0H39.9996C41.0192 0 41.8458 0.825076 41.8458 1.84286V25.4929C41.8458 25.8322 41.5702 26.1072 41.2304 26.1072C40.8905 26.1072 40.615 25.8322 40.615 25.4929V1.84286C40.615 1.5036 40.3395 1.22857 39.9996 1.22857H12.9228C12.5829 1.22857 12.3074 1.5036 12.3074 1.84286V23.6884C12.3074 24.0277 12.0319 24.3027 11.692 24.3027C11.3522 24.3027 11.0767 24.0277 11.0767 23.6884V1.84286Z" fill="#0040A0"/>
<path id="Rectangle 9 (Stroke)" fill-rule="evenodd" clip-rule="evenodd" d="M20.9229 0.614287C20.9229 0.275026 21.1984 0 21.5382 0H31.3843C31.7242 0 31.9997 0.275026 31.9997 0.614287V9.2143C31.9997 9.4272 31.8893 9.62492 31.7079 9.73685C31.5264 9.84877 31.2999 9.85895 31.1091 9.76374L28.9228 8.67252L26.7365 9.76374C26.5632 9.85021 26.3593 9.85021 26.1861 9.76374L23.9998 8.67252L21.8134 9.76374C21.6227 9.85895 21.3961 9.84877 21.2147 9.73685C21.0333 9.62492 20.9229 9.4272 20.9229 9.2143V0.614287ZM22.1536 1.22857V8.22036L23.7246 7.43629C23.8978 7.34982 24.1017 7.34982 24.275 7.43629L26.4613 8.52751L28.6476 7.43629C28.8209 7.34982 29.0248 7.34982 29.198 7.43629L30.769 8.22036V1.22857H22.1536Z" fill="#0040A0"/>
</g>
<path id="Vector 209 (Stroke)" fill-rule="evenodd" clip-rule="evenodd" d="M14.4265 22.078C17.2608 21.3109 19.9766 21.4504 21.523 21.723C22.3903 21.8759 23.2079 22.1474 24.0106 22.4139C24.3134 22.5145 24.6142 22.6144 24.9146 22.7069C26.0367 23.0524 27.2775 23.3429 28.923 23.3429C30.9374 23.3429 32.2275 24.1531 32.769 25.3095C33.088 25.9909 33.1199 26.7489 32.9118 27.4182C33.2696 27.3856 33.6973 27.3384 34.1716 27.27C35.5766 27.0677 37.3588 26.6849 38.938 25.97C40.5758 25.2286 42.3583 24.4348 43.8778 24.1158C44.6393 23.9559 45.3968 23.9007 46.0667 24.0713C46.7665 24.2495 47.3455 24.6696 47.7032 25.3836C47.9927 25.9616 48.0727 26.5137 47.933 27.0301C47.797 27.5329 47.476 27.9137 47.1375 28.205C46.8009 28.4946 46.4027 28.7327 46.0518 28.934C45.9813 28.9744 45.9132 29.0131 45.8474 29.0505C45.5657 29.2106 45.3265 29.3465 45.1274 29.4884C45.1033 29.5057 45.0779 29.5211 45.0515 29.5347C44.3048 29.9186 43.5068 30.3549 42.6687 30.8131C40.4724 32.0138 38.0005 33.3652 35.4542 34.3211C32.3506 35.4863 28.0541 36.9811 24.7961 37.2134C23.6632 37.2942 22.6097 37.3484 21.5974 37.4004C18.6879 37.55 16.1179 37.6821 12.9796 38.3783C12.7212 38.4356 12.455 38.3215 12.3186 38.095L6.58788 28.5735C6.47176 28.3805 6.47064 28.1397 6.58496 27.9457C8.59062 24.5421 11.5793 22.8485 14.4265 22.078ZM31.8076 28.1036L31.8192 28.7178C31.5683 28.7225 31.3396 28.5746 31.2413 28.344C31.1431 28.1134 31.195 27.8464 31.3725 27.6692C31.8003 27.2421 31.9605 26.4844 31.654 25.8298C31.3685 25.2202 30.6009 24.5714 28.923 24.5714C27.1159 24.5714 25.7478 24.2491 24.5519 23.8809C24.1925 23.7703 23.8587 23.6594 23.5386 23.5531C22.7707 23.298 22.0817 23.0691 21.309 22.9329C19.9009 22.6847 17.3728 22.5536 14.7486 23.2637C12.2267 23.9462 9.63668 25.3979 7.83443 28.259L13.1468 37.0854C16.2033 36.4461 18.7973 36.313 21.6055 36.1689C22.6027 36.1177 23.6269 36.0651 24.7084 35.988C27.76 35.7704 31.8926 34.3457 35.021 33.1712C37.4799 32.2481 39.8262 30.9652 41.9982 29.7777C42.843 29.3158 43.6614 28.8684 44.4498 28.4621C44.6981 28.2891 44.9911 28.1229 45.2616 27.9695C45.322 27.9352 45.3813 27.9016 45.4387 27.8687C45.7878 27.6685 46.0946 27.4804 46.3339 27.2745C46.5714 27.0701 46.6972 26.886 46.7448 26.7098C46.7888 26.5473 46.7894 26.3065 46.6023 25.933C46.4154 25.5597 46.1405 25.358 45.7625 25.2617C45.3545 25.1578 44.8101 25.1755 44.1311 25.3181C42.7695 25.604 41.1162 26.333 39.4464 27.0889C37.7179 27.8714 35.8078 28.2757 34.3474 28.486C33.6137 28.5917 32.9856 28.6495 32.5397 28.6809C32.3166 28.6967 32.1387 28.7058 32.0155 28.7111C31.9539 28.7137 31.906 28.7154 31.8729 28.7164L31.8345 28.7174L31.8239 28.7177L31.8208 28.7177L31.8192 28.7178C31.8191 28.7178 31.8192 28.7178 31.8076 28.1036Z" fill="#0040A0"/>
<path id="Ellipse 3" d="M6.76914 31.3287C6.76914 32.0072 6.21811 32.5572 5.53838 32.5572C4.85865 32.5572 4.30762 32.0072 4.30762 31.3287C4.30762 30.6501 4.85865 30.1001 5.53838 30.1001C6.21811 30.1001 6.76914 30.6501 6.76914 31.3287Z" fill="#AED5F3"/>
<path id="Vector 210 (Stroke)_2" fill-rule="evenodd" clip-rule="evenodd" d="M32.4226 26.2222C32.7625 26.2222 33.038 26.4972 33.038 26.8365C33.038 27.6671 32.6312 28.2567 32.034 28.6247C31.4775 28.9675 30.7685 29.1143 30.0957 29.1781C29.4105 29.2432 28.69 29.228 28.0672 29.1989C27.8165 29.1872 27.5889 29.1738 27.3844 29.1619C27.0572 29.1427 26.789 29.1269 26.5798 29.1269C26.5537 29.1269 26.5277 29.1253 26.5019 29.122L22.9063 28.6639C21.786 29.0328 20.5896 29.3774 19.5084 29.6337C18.399 29.8966 17.3621 30.0785 16.6496 30.0785C16.3097 30.0785 16.0342 29.8034 16.0342 29.4642C16.0342 29.1249 16.3097 28.8499 16.6496 28.8499C17.208 28.8499 18.1252 28.6987 19.2241 28.4383C20.308 28.1815 21.5216 27.8299 22.6508 27.4541C22.7385 27.425 22.8317 27.4159 22.9233 27.4276L26.6202 27.8985C26.8582 27.9005 27.1741 27.9188 27.5153 27.9386C27.7133 27.9501 27.9199 27.9621 28.1247 27.9717C28.7314 28 29.3823 28.0117 29.9791 27.9551C30.5883 27.8972 31.0719 27.7736 31.3875 27.5792C31.6625 27.4098 31.8072 27.1952 31.8072 26.8365C31.8072 26.4972 32.0828 26.2222 32.4226 26.2222Z" fill="#0040A0"/>
<path id="Rectangle 7 (Stroke)" fill-rule="evenodd" clip-rule="evenodd" d="M5.83089 27.3472C5.61028 26.9812 5.05637 26.9121 4.74324 27.2359L1.40088 30.6925C1.21945 30.8801 1.18219 31.145 1.29426 31.3651L6.41158 41.4153C6.5335 41.6548 6.81784 41.8089 7.12472 41.7637L12.9719 40.9033C13.4646 40.8308 13.6622 40.3407 13.4531 39.9936L5.83089 27.3472ZM3.8577 26.3827C4.72195 25.4889 6.23981 25.6425 6.8855 26.7138L14.5077 39.3603C15.2034 40.5146 14.4476 41.928 13.1514 42.1187L7.30422 42.9791C6.49746 43.0979 5.68641 42.7026 5.31441 41.972L0.197081 31.9217C-0.1564 31.2275 -0.0248824 30.398 0.515343 29.8393L3.8577 26.3827Z" fill="#0040A0"/>
</g>
</g>
</svg>
