<svg width="24" height="24" viewBox="0 0 24 24" fill="none" xmlns="http://www.w3.org/2000/svg">
<g id="module" clip-path="url(#clip0_746_1147)">
<g id="Group">
<path id="Vector" opacity="0.986" fill-rule="evenodd" clip-rule="evenodd" d="M11.8828 1.80469C11.9966 1.80577 12.1059 1.8292 12.2109 1.875C15.9091 3.25087 19.5967 4.64932 23.2734 6.07031C19.5119 7.50127 15.7463 8.92313 11.9766 10.3359C8.20683 8.92313 4.44122 7.50127 0.679688 6.07031C4.41347 4.63835 8.14786 3.21648 11.8828 1.80469Z" fill="#027DDB"/>
</g>
<g id="Group_2">
<path id="Vector_2" opacity="0.975" fill-rule="evenodd" clip-rule="evenodd" d="M-0.0234375 7.28906C3.7307 8.67384 7.48069 10.0723 11.2266 11.4844C11.2809 12.3325 11.2887 13.1841 11.25 14.0391C7.49958 12.6131 3.74179 11.2068 -0.0234375 9.82031C-0.0234375 8.97656 -0.0234375 8.13281 -0.0234375 7.28906Z" fill="#027DDB"/>
</g>
<g id="Group_3">
<path id="Vector_3" opacity="0.977" fill-rule="evenodd" clip-rule="evenodd" d="M23.9765 7.28906C23.9765 8.13281 23.9765 8.97656 23.9765 9.82031C20.2113 11.2068 16.4535 12.6131 12.7031 14.0391C12.6641 13.1949 12.6719 12.3511 12.7265 11.5078C16.474 10.092 20.224 8.6858 23.9765 7.28906Z" fill="#027DDB"/>
</g>
<g id="Group_4">
<path id="Vector_4" opacity="0.976" fill-rule="evenodd" clip-rule="evenodd" d="M-0.0234375 11.2734C3.73034 12.6576 7.48036 14.056 11.2266 15.4688C11.2731 16.3011 11.2887 17.137 11.2734 17.9766C7.50089 16.5888 3.73526 15.1826 -0.0234375 13.7578C-0.0234375 12.9297 -0.0234375 12.1016 -0.0234375 11.2734Z" fill="#027DDB"/>
</g>
<g id="Group_5">
<path id="Vector_5" opacity="0.976" fill-rule="evenodd" clip-rule="evenodd" d="M23.9764 11.2734C23.9764 12.1016 23.9764 12.9297 23.9764 13.7578C20.2177 15.1826 16.452 16.5888 12.6795 17.9766C12.6642 17.137 12.6799 16.3011 12.7264 15.4688C16.4726 14.056 20.2226 12.6576 23.9764 11.2734Z" fill="#027DDB"/>
</g>
<g id="Group_6">
<path id="Vector_6" opacity="0.977" fill-rule="evenodd" clip-rule="evenodd" d="M-0.0234375 15.2109C3.73526 16.6357 7.50089 18.042 11.2734 19.4297C11.289 20.3365 11.2734 21.2427 11.2266 22.1484C7.47909 20.7327 3.72909 19.3264 -0.0234375 17.9297C-0.0234375 17.0235 -0.0234375 16.1172 -0.0234375 15.2109Z" fill="#027DDB"/>
</g>
<g id="Group_7">
<path id="Vector_7" opacity="0.977" fill-rule="evenodd" clip-rule="evenodd" d="M23.9766 15.2109C23.9766 16.1172 23.9766 17.0235 23.9766 17.9297C20.224 19.3264 16.474 20.7327 12.7266 22.1484C12.6797 21.2427 12.6641 20.3365 12.6797 19.4297C16.4522 18.042 20.2179 16.6357 23.9766 15.2109Z" fill="#027DDB"/>
</g>
</g>
<defs>
<clipPath id="clip0_746_1147">
<rect width="24" height="24" fill="white"/>
</clipPath>
</defs>
</svg>
