<svg xmlns="http://www.w3.org/2000/svg" width="24" height="24" viewBox="0 0 24 24" fill="none">
  <g clip-path="url(#clip0_1927_14023)">
    <path opacity="0.993" fill-rule="evenodd" clip-rule="evenodd" d="M23.9766 3.25792C23.9766 4.0548 23.9766 4.85167 23.9766 5.64855C17.3828 5.64855 10.7891 5.64855 4.19531 5.64855C4.1875 4.92963 4.19532 4.21088 4.21875 3.4923C4.25801 3.20231 4.40644 2.99137 4.66406 2.85949C5.91398 2.83605 7.16395 2.82824 8.41406 2.83605C8.38912 2.46792 8.42822 2.10854 8.53125 1.75792C8.67267 1.51922 8.88361 1.40984 9.16406 1.4298C9.44451 1.40984 9.65545 1.51922 9.79687 1.75792C9.864 2.11203 9.88744 2.4714 9.86719 2.83605C11.0235 2.83605 12.1797 2.83605 13.3359 2.83605C13.314 2.46839 13.3531 2.10901 13.4531 1.75792C13.5945 1.51922 13.8055 1.40984 14.0859 1.4298C14.3664 1.40984 14.5773 1.51922 14.7187 1.75792C14.7859 2.11203 14.8093 2.4714 14.7891 2.83605C15.9609 2.83605 17.1328 2.83605 18.3047 2.83605C18.2828 2.46839 18.3218 2.10901 18.4219 1.75792C18.5633 1.51922 18.7742 1.40984 19.0547 1.4298C19.3351 1.40984 19.5461 1.51922 19.6875 1.75792C19.7546 2.11203 19.7781 2.4714 19.7578 2.83605C21.0235 2.82824 22.2892 2.83605 23.5547 2.85949C23.7509 2.9386 23.8915 3.07142 23.9766 3.25792Z" fill="#027DDB"/>
    <path opacity="0.997" fill-rule="evenodd" clip-rule="evenodd" d="M23.9766 7.05469C23.9766 7.21092 23.9766 7.3672 23.9766 7.52344C23.8135 10.6765 22.8839 13.5828 21.1875 16.2422C20.7188 16.9301 20.1797 17.5629 19.5703 18.1406C19.4922 18.1875 19.4141 18.2344 19.3359 18.2812C13.0234 18.3125 6.71095 18.3125 0.398438 18.2812C0.202257 18.2021 0.0616317 18.0693 -0.0234375 17.8828C-0.0234375 17.6953 -0.0234375 17.5078 -0.0234375 17.3203C2.34696 14.8909 3.71415 11.969 4.07812 8.55469C4.13034 8.05552 4.16941 7.5555 4.19531 7.05469C10.7891 7.05469 17.3828 7.05469 23.9766 7.05469Z" fill="#027DDB"/>
    <path opacity="0.994" fill-rule="evenodd" clip-rule="evenodd" d="M23.9766 13.8984C23.9766 16.6328 23.9766 19.3672 23.9766 22.1016C23.8915 22.2881 23.7509 22.4209 23.5547 22.5C17.2578 22.5313 10.9609 22.5313 4.66406 22.5C4.40644 22.3681 4.25801 22.1572 4.21875 21.8672C4.19532 21.1486 4.1875 20.4299 4.19531 19.7109C9.14845 19.7188 14.1016 19.7109 19.0547 19.6875C19.521 19.6779 19.9429 19.5373 20.3203 19.2656C21.9289 17.7443 23.1476 15.9553 23.9766 13.8984Z" fill="#027DDB"/>
  </g>
  <defs>
    <clipPath id="clip0_1927_14023">
      <rect width="24" height="24" fill="white"/>
    </clipPath>
  </defs>
</svg>