<svg width="92" height="49" viewBox="0 0 92 49" fill="none" xmlns="http://www.w3.org/2000/svg">
<path d="M19.0479 10.0653C19.0479 12.2213 18.6327 14.0487 17.8024 15.5477C16.9721 17.0466 15.848 18.1852 14.4301 18.9634C13.0186 19.7416 11.4346 20.1306 9.67824 20.1306C7.91544 20.1306 6.32829 19.7384 4.91677 18.9538C3.50525 18.1692 2.38435 17.0307 1.55404 15.5381C0.730126 14.0391 0.318168 12.2149 0.318168 10.0653C0.318168 7.90938 0.730126 6.08193 1.55404 4.58297C2.38435 3.08402 3.50525 1.94545 4.91677 1.16727C6.32829 0.38909 7.91544 0 9.67824 0C11.4346 0 13.0186 0.38909 14.4301 1.16727C15.848 1.94545 16.9721 3.08402 17.8024 4.58297C18.6327 6.08193 19.0479 7.90938 19.0479 10.0653ZM14.2002 10.0653C14.2002 8.78962 14.0182 7.71164 13.6541 6.83141C13.2964 5.95117 12.7791 5.28461 12.1021 4.83174C11.4315 4.37886 10.6235 4.15242 9.67824 4.15242C8.73936 4.15242 7.93141 4.37886 7.25439 4.83174C6.57738 5.28461 6.05684 5.95117 5.69278 6.83141C5.33511 7.71164 5.15628 8.78962 5.15628 10.0653C5.15628 11.341 5.33511 12.419 5.69278 13.2992C6.05684 14.1795 6.57738 14.846 7.25439 15.2989C7.93141 15.7518 8.73936 15.9782 9.67824 15.9782C10.6235 15.9782 11.4315 15.7518 12.1021 15.2989C12.7791 14.846 13.2964 14.1795 13.6541 13.2992C14.0182 12.419 14.2002 11.341 14.2002 10.0653Z" fill="#001526"/>
<path d="M26.0854 19.8627L20.3754 0.267898H25.6159L28.5763 13.1079H28.7392L32.121 0.267898H36.3939L39.7758 13.1366H39.9387L42.9086 0.267898H48.1395L42.4392 19.8627H37.8693L34.3341 7.97954H34.1808L30.6457 19.8627H26.0854Z" fill="#001526"/>
<path d="M52.7484 19.8627H47.6516L54.2716 0.267898H60.5851L67.2052 19.8627H62.1084L57.5003 5.20488H57.347L52.7484 19.8627ZM52.0681 12.1511H62.7216V15.7486H52.0681V12.1511Z" fill="#001526"/>
<path d="M66.8778 0.267898H72.1757L76.3241 8.4675H76.4965L80.6448 0.267898H85.9428L78.7671 13.3184V19.8627H74.0535V13.3184L66.8778 0.267898Z" fill="#001526"/>
<path d="M15.0233 23.3431H21.0133V39.3396C21.0133 41.1883 20.5727 42.7989 19.6916 44.1713C18.8105 45.5356 17.5818 46.5932 16.0055 47.3439C14.4292 48.0867 12.5983 48.458 10.5127 48.458C8.40288 48.458 6.55982 48.0867 4.98353 47.3439C3.40723 46.5932 2.18257 45.5356 1.30954 44.1713C0.436513 42.7989 0 41.1883 0 39.3396V23.3431H6.00206V38.8189C6.00206 39.6747 6.18798 40.4376 6.55982 41.1076C6.93975 41.7777 7.46923 42.3024 8.14825 42.6818C8.82727 43.0613 9.61542 43.251 10.5127 43.251C11.41 43.251 12.1941 43.0613 12.865 42.6818C13.544 42.3024 14.0735 41.7777 14.4534 41.1076C14.8334 40.4376 15.0233 39.6747 15.0233 38.8189V23.3431Z" fill="#001526"/>
<path d="M38.8808 30.7783C38.8 29.8903 38.4403 29.2 37.8017 28.7076C37.1712 28.2071 36.2698 27.9568 35.0977 27.9568C34.3217 27.9568 33.675 28.0577 33.1577 28.2595C32.6403 28.4614 32.2523 28.7399 31.9936 29.0951C31.735 29.4422 31.6016 29.8418 31.5935 30.2939C31.5773 30.6653 31.6501 30.9922 31.8118 31.2748C31.9815 31.5573 32.224 31.8076 32.5393 32.0256C32.8626 32.2355 33.2506 32.4211 33.7033 32.5826C34.156 32.7441 34.6653 32.8853 35.2311 33.0064L37.3652 33.4908C38.5939 33.7572 39.6771 34.1124 40.6148 34.5564C41.5605 35.0004 42.3527 35.5292 42.9913 36.1428C43.638 36.7563 44.1271 37.4627 44.4585 38.2619C44.7899 39.0611 44.9597 39.9572 44.9678 40.9502C44.9597 42.5163 44.5636 43.8605 43.7795 44.9826C42.9954 46.1047 41.8677 46.9645 40.3965 47.5619C38.9334 48.1593 37.1671 48.458 35.0977 48.458C33.0202 48.458 31.2095 48.1472 29.6656 47.5256C28.1216 46.904 26.9212 45.9594 26.0643 44.692C25.2075 43.4245 24.7669 41.8221 24.7427 39.8846H30.4901C30.5386 40.6838 30.7528 41.3498 31.1327 41.8826C31.5127 42.4154 32.034 42.8191 32.6969 43.0935C33.3678 43.368 34.1439 43.5053 35.025 43.5053C35.8333 43.5053 36.5204 43.3963 37.0863 43.1783C37.6602 42.9603 38.1008 42.6576 38.408 42.2701C38.7151 41.8826 38.8728 41.4386 38.8808 40.9381C38.8728 40.4698 38.7273 40.0702 38.4443 39.7392C38.1614 39.4002 37.7249 39.1096 37.1348 38.8674C36.5528 38.6171 35.8091 38.387 34.9037 38.1771L32.3089 37.5717C30.1587 37.0792 28.4652 36.284 27.2284 35.1861C25.9916 34.0801 25.3772 32.5866 25.3853 30.7056C25.3772 29.1718 25.7895 27.8276 26.6221 26.6732C27.4547 25.5188 28.6066 24.6187 30.0778 23.9728C31.549 23.327 33.2264 23.0041 35.1099 23.0041C37.0337 23.0041 38.703 23.331 40.1176 23.9849C41.5403 24.6308 42.6437 25.539 43.4279 26.7095C44.212 27.8801 44.6121 29.2364 44.6283 30.7783H38.8808Z" fill="#001526"/>
<path d="M53.2866 48.1432H46.8359L55.2146 23.3431H63.2052L71.5838 48.1432H65.1331L59.3008 29.5916H59.1068L53.2866 48.1432ZM52.4257 38.383H65.9091V42.9361H52.4257V38.383Z" fill="#001526"/>
<path d="M78.149 23.2441H68.6071H68.2993L81.227 41.5342L76.4561 48.4506H86.7674L92 41.0731L78.149 23.2441Z" fill="#FF7C00"/>
</svg>
