<svg width="24" height="24" viewBox="0 0 24 24" fill="none" xmlns="http://www.w3.org/2000/svg">
<g id="phone-call (1)" clip-path="url(#clip0_712_14974)">
<g id="Group">
<path id="Vector" opacity="0.963" fill-rule="evenodd" clip-rule="evenodd" d="M11.6957 0.726644C15.5992 0.713655 18.732 2.24491 21.0942 5.32039C22.6008 7.4188 23.3039 9.76255 23.2036 12.3516C23.0055 12.7515 22.6852 12.8999 22.2426 12.797C21.9099 12.6714 21.7302 12.4292 21.7036 12.0704C21.5876 8.19364 19.861 5.29522 16.5239 3.37508C15.007 2.60916 13.3977 2.21854 11.6957 2.20321C11.2747 1.99353 11.1263 1.6576 11.2504 1.19539C11.3452 0.983519 11.4937 0.827271 11.6957 0.726644Z" fill="#027DDB"/>
</g>
<g id="Group_2">
<path id="Vector_2" opacity="0.989" fill-rule="evenodd" clip-rule="evenodd" d="M4.28906 3.58594C4.86591 3.54392 5.39714 3.67674 5.88281 3.98438C6.81248 4.85157 7.71094 5.75002 8.57813 6.67969C9.13191 7.60899 9.10064 8.51527 8.48438 9.39844C8.06184 9.81319 7.64775 10.2351 7.24219 10.6641C8.80467 13.1328 10.8203 15.1485 13.2891 16.7109C13.7181 16.3054 14.1399 15.8913 14.5547 15.4688C15.5603 14.7905 16.5447 14.8217 17.5078 15.5625C18.3451 16.3841 19.1654 17.2201 19.9688 18.0703C20.546 19.0656 20.4835 20.0187 19.7813 20.9297C19.3672 21.3437 18.9531 21.7578 18.5391 22.1719C17.671 22.8624 16.6788 23.2296 15.5625 23.2734C14.1708 23.2636 12.8348 22.9745 11.5547 22.4063C9.30656 21.388 7.31438 20.0052 5.57813 18.2578C3.88708 16.5639 2.54333 14.6264 1.54688 12.4453C1.00977 11.1953 0.705084 9.89063 0.632812 8.53126C0.671944 7.3351 1.07038 6.28041 1.82813 5.36719C2.29044 4.88921 2.767 4.42828 3.25781 3.98438C3.58447 3.78986 3.92822 3.65705 4.28906 3.58594Z" fill="#027DDB"/>
</g>
<g id="Group_3">
<path id="Vector_3" opacity="0.96" fill-rule="evenodd" clip-rule="evenodd" d="M12.2108 5.46104C14.574 5.42757 16.3943 6.39629 17.6718 8.36729C18.2845 9.42761 18.5501 10.5682 18.4687 11.7892C18.2405 12.2662 17.8733 12.4146 17.3671 12.2345C17.1357 12.1081 17.0029 11.9127 16.9687 11.6485C16.9037 9.55323 15.9116 8.09228 13.9921 7.26573C13.413 7.07547 12.8192 6.96611 12.2108 6.93761C11.7118 6.65237 11.5946 6.25393 11.8593 5.74229C11.9584 5.61943 12.0756 5.52568 12.2108 5.46104Z" fill="#027DDB"/>
</g>
</g>
<defs>
<clipPath id="clip0_712_14974">
<rect width="24" height="24" fill="white"/>
</clipPath>
</defs>
</svg>
