<svg width="17" height="16" viewBox="0 0 17 16" fill="none" xmlns="http://www.w3.org/2000/svg">
<circle cx="8.5" cy="8" r="8" fill="#A4A4A4"/>
<path d="M9.97754 9.45996C9.92285 9.63314 9.89323 9.90202 9.88867 10.2666H8.04297C8.07031 9.49642 8.14323 8.96549 8.26172 8.67383C8.38021 8.3776 8.68555 8.03809 9.17773 7.65527L9.67676 7.26562C9.84082 7.14258 9.97298 7.00814 10.0732 6.8623C10.2555 6.61165 10.3467 6.33594 10.3467 6.03516C10.3467 5.6888 10.2441 5.37435 10.0391 5.0918C9.83854 4.80469 9.4694 4.66113 8.93164 4.66113C8.40299 4.66113 8.02702 4.83659 7.80371 5.1875C7.58496 5.53841 7.47559 5.90299 7.47559 6.28125H5.5C5.55469 4.98242 6.00814 4.06185 6.86035 3.51953C7.39811 3.17318 8.05892 3 8.84277 3C9.87272 3 10.7272 3.24609 11.4062 3.73828C12.0898 4.23047 12.4316 4.95964 12.4316 5.92578C12.4316 6.51823 12.2835 7.01725 11.9873 7.42285C11.8141 7.66895 11.4814 7.9834 10.9893 8.36621L10.5039 8.74219C10.2396 8.94727 10.0641 9.18652 9.97754 9.45996ZM10.0322 13.1787H7.99512V11.2031H10.0322V13.1787Z" fill="white"/>
</svg>
