<svg width="24" height="24" viewBox="0 0 24 24" fill="none" xmlns="http://www.w3.org/2000/svg">
<g id="united-states-of-america" clip-path="url(#clip0_712_14949)">
<g id="Group">
<path id="Vector" opacity="0.977" fill-rule="evenodd" clip-rule="evenodd" d="M11.5074 -0.0234375C11.82 -0.0234375 12.1324 -0.0234375 12.4449 -0.0234375C14.3723 0.301937 15.5988 1.41131 16.1246 3.30469C16.3615 4.49289 16.1583 5.60227 15.5153 6.63281C14.3084 8.40567 13.1365 10.2026 11.9996 12.0234C10.9096 10.2962 9.78455 8.59308 8.62463 6.91406C7.61546 5.40577 7.49044 3.82765 8.24963 2.17969C8.98374 0.925847 10.0697 0.191474 11.5074 -0.0234375ZM11.6949 2.13281C13.1026 2.13288 13.8995 2.82819 14.0856 4.21875C13.9495 5.48766 13.2464 6.18295 11.9762 6.30469C10.5538 6.10917 9.87413 5.29669 9.93713 3.86719C10.1714 2.927 10.7573 2.34888 11.6949 2.13281Z" fill="#027DDB"/>
</g>
<g id="Group_2">
<path id="Vector_2" opacity="0.923" fill-rule="evenodd" clip-rule="evenodd" d="M11.7896 3.49226C12.3172 3.44197 12.6297 3.67634 12.7271 4.19538C12.603 4.8589 12.228 5.06984 11.6021 4.8282C11.2547 4.53911 11.1843 4.18755 11.3911 3.77351C11.5 3.63779 11.6328 3.54404 11.7896 3.49226Z" fill="#027DDB"/>
</g>
<g id="Group_3">
<path id="Vector_3" opacity="0.99" fill-rule="evenodd" clip-rule="evenodd" d="M23.9766 9.16406C23.9766 9.44531 23.9766 9.72656 23.9766 10.0078C23.6871 10.7894 23.3824 11.5707 23.0625 12.3516C22.7969 12.6484 22.5313 12.9453 22.2656 13.2422C21.975 13.6674 21.7875 14.1362 21.7031 14.6484C21.679 15.3739 21.6008 16.0927 21.4688 16.8047C21.1717 17.5707 20.8123 18.3051 20.3906 19.0078C20.3217 19.2858 20.3061 19.5671 20.3438 19.8516C20.4593 20.2451 20.5843 20.6357 20.7188 21.0234C20.8383 21.5843 20.7914 22.1312 20.5781 22.6641C20.3583 23.109 20.1317 23.5465 19.8984 23.9766C19.8672 23.9766 19.836 23.9766 19.8047 23.9766C19.1849 22.9888 18.4817 22.0591 17.6953 21.1875C17.2447 20.8755 16.7603 20.813 16.2422 21C15.0493 21.3089 13.8462 21.5667 12.6328 21.7734C12.4683 22.4785 12.2964 23.1817 12.1172 23.8828C11.6959 23.6892 11.2896 23.4626 10.8984 23.2031C10.4621 22.7823 10.0402 22.3448 9.63281 21.8906C9.41405 21.7344 9.19533 21.5781 8.97656 21.4219C7.44675 20.6726 5.91553 19.9226 4.38281 19.1719C3.21034 18.5742 2.14003 17.832 1.17188 16.9453C0.506883 16.2248 0.108443 15.381 -0.0234375 14.4141C-0.0234375 13.8672 -0.0234375 13.3203 -0.0234375 12.7734C0.305764 10.845 0.618263 8.90747 0.914062 6.96094C3.18249 7.2765 5.44809 7.61245 7.71094 7.96875C9.20878 10.1279 10.6306 12.3389 11.9766 14.6016C13.0175 12.8963 14.0878 11.2088 15.1875 9.53906C15.2224 9.46922 15.2771 9.42234 15.3516 9.39844C15.6988 9.5063 16.0269 9.6547 16.3359 9.84375C16.1077 10.2535 15.9045 10.6754 15.7266 11.1094C15.7532 11.3097 15.847 11.3566 16.0078 11.25C17.2872 10.192 18.1544 10.4655 18.6094 12.0703C18.7953 11.9314 18.9672 11.7751 19.125 11.6016C19.584 11.0331 20.0606 10.4784 20.5547 9.9375C21.1522 9.60548 21.6444 9.16017 22.0312 8.60156C22.282 8.06887 22.532 7.53764 22.7812 7.00781C23.2918 7.67002 23.6903 8.3888 23.9766 9.16406Z" fill="#027DDB"/>
</g>
</g>
<defs>
<clipPath id="clip0_712_14949">
<rect width="24" height="24" fill="white"/>
</clipPath>
</defs>
</svg>
