<svg width="64" height="64" viewBox="0 0 64 64" fill="none" xmlns="http://www.w3.org/2000/svg">
<g clip-path="url(#clip0_631_7452)">
<path d="M5.13623 14.8642C5.13623 13.0096 6.63967 11.5062 8.49426 11.5062H55.5066C57.3612 11.5062 58.8647 13.0096 58.8647 14.8642V45.0864C58.8647 46.941 57.3612 48.4445 55.5066 48.4445H8.49426C6.63967 48.4445 5.13623 46.941 5.13623 45.0864V14.8642Z" fill="#027DDB"/>
<path d="M4.15241 49.428C4.78216 48.7982 5.63629 48.4445 6.52689 48.4445H57.4735C58.3641 48.4445 59.2182 48.7982 59.8479 49.428L62.7142 52.2943C63.7719 53.352 63.0228 55.1605 61.527 55.1605H2.4734C0.977555 55.1605 0.228433 53.352 1.28615 52.2943L4.15241 49.428Z" fill="#027DDB"/>
<path fill-rule="evenodd" clip-rule="evenodd" d="M6.74845 49.4024C7.05978 49.746 7.03365 50.2769 6.69007 50.5882L4.59726 52.4846H61.4742C61.9378 52.4846 62.3137 52.8605 62.3137 53.3241C62.3137 53.7878 61.9378 54.1636 61.4742 54.1636H2.4206C2.07352 54.1636 1.76222 53.9501 1.63733 53.6262C1.51243 53.3024 1.59969 52.9351 1.85688 52.702L5.56264 49.344C5.90621 49.0327 6.43712 49.0588 6.74845 49.4024Z" fill="#E7EFFF"/>
<path d="M30.3213 23.2593C30.3213 22.332 31.073 21.5803 32.0003 21.5803H47.1114C48.0387 21.5803 48.7904 22.332 48.7904 23.2593V36.0618C48.7904 36.989 48.0387 37.7408 47.1114 37.7408H32.0003C31.073 37.7408 30.3213 36.989 30.3213 36.0618V23.2593Z" fill="#FF7C00"/>
<path fill-rule="evenodd" clip-rule="evenodd" d="M31.1606 23.2593C31.1606 22.7956 31.5365 22.4198 32.0002 22.4198H47.1113C47.5749 22.4198 47.9508 22.7956 47.9508 23.2593C47.9508 23.7229 47.5749 24.0988 47.1113 24.0988H32.8397V35.0124C32.8397 35.476 32.4638 35.8519 32.0002 35.8519C31.5365 35.8519 31.1606 35.476 31.1606 35.0124V23.2593Z" fill="#E7EFFF"/>
<path d="M36.0928 21.5803H43.0187V26.1975L41.2872 25.5379L39.5557 26.1975L37.8243 25.5379L36.0928 26.1975V21.5803Z" fill="#E7EFFF"/>
<path fill-rule="evenodd" clip-rule="evenodd" d="M6.81494 15.5988C6.81494 14.2078 7.94252 13.0802 9.33346 13.0802H54.6668C55.1305 13.0802 55.5063 13.4561 55.5063 13.9197C55.5063 14.3834 55.1305 14.7592 54.6668 14.7592H9.33346C8.86982 14.7592 8.49396 15.1351 8.49396 15.5988V44.142C8.49396 44.6056 8.1181 44.9815 7.65445 44.9815C7.1908 44.9815 6.81494 44.6056 6.81494 44.142V15.5988Z" fill="#E7EFFF"/>
<path fill-rule="evenodd" clip-rule="evenodd" d="M6.52677 49.2839C5.85882 49.2839 5.21823 49.5493 4.74591 50.0216L1.87966 52.8878C1.3508 53.4167 1.72536 54.321 2.47328 54.321H61.5268C62.2748 54.321 62.6493 53.4167 62.1205 52.8878L59.2542 50.0216C58.7819 49.5493 58.1413 49.2839 57.4733 49.2839H6.52677ZM3.55867 48.8343C4.34586 48.0472 5.41352 47.6049 6.52677 47.6049H57.4733C58.5866 47.6049 59.6543 48.0472 60.4414 48.8343L63.3077 51.7006C64.8943 53.2872 63.7706 56 61.5268 56H2.47328C0.229516 56 -0.894167 53.2872 0.692413 51.7006L3.55867 48.8343Z" fill="#0040A0"/>
<path fill-rule="evenodd" clip-rule="evenodd" d="M4.29639 14.8642C4.29639 12.5459 6.17569 10.6666 8.49392 10.6666H55.5063C57.8245 10.6666 59.7038 12.5459 59.7038 14.8642V45.0864C59.7038 47.4046 57.8245 49.2839 55.5063 49.2839H8.49392C6.17569 49.2839 4.29639 47.4046 4.29639 45.0864V14.8642ZM8.49392 12.3456C7.10298 12.3456 5.9754 13.4732 5.9754 14.8642V45.0864C5.9754 46.4773 7.10298 47.6049 8.49392 47.6049H55.5063C56.8972 47.6049 58.0248 46.4774 58.0248 45.0864V14.8642C58.0248 13.4732 56.8972 12.3456 55.5063 12.3456H8.49392Z" fill="#0040A0"/>
<path fill-rule="evenodd" clip-rule="evenodd" d="M29.4814 23.2592C29.4814 21.8683 30.609 20.7407 32 20.7407H47.1111C48.502 20.7407 49.6296 21.8683 49.6296 23.2592V36.0617C49.6296 37.4527 48.502 38.5802 47.1111 38.5802H32C30.609 38.5802 29.4814 37.4527 29.4814 36.0617V23.2592ZM32 22.4197C31.5363 22.4197 31.1605 22.7956 31.1605 23.2592V36.0617C31.1605 36.5254 31.5363 36.9012 32 36.9012H47.1111C47.5747 36.9012 47.9506 36.5254 47.9506 36.0617V23.2592C47.9506 22.7956 47.5747 22.4197 47.1111 22.4197H32Z" fill="#0040A0"/>
<path fill-rule="evenodd" clip-rule="evenodd" d="M35.2534 21.5802C35.2534 21.1166 35.6293 20.7407 36.0929 20.7407H43.0189C43.4825 20.7407 43.8584 21.1166 43.8584 21.5802V26.1975C43.8584 26.4736 43.7226 26.7321 43.4952 26.8888C43.2679 27.0455 42.978 27.0803 42.72 26.982L41.2874 26.4363L39.8548 26.982C39.6623 27.0554 39.4495 27.0554 39.257 26.982L37.8244 26.4363L36.3918 26.982C36.1338 27.0803 35.8439 27.0455 35.6165 26.8888C35.3892 26.7321 35.2534 26.4736 35.2534 26.1975V21.5802ZM36.9324 22.4197V24.9793L37.5255 24.7534C37.718 24.6801 37.9308 24.6801 38.1233 24.7534L39.5559 25.2992L40.9885 24.7534C41.181 24.6801 41.3937 24.6801 41.5862 24.7534L42.1793 24.9793V22.4197H36.9324Z" fill="#0040A0"/>
<path fill-rule="evenodd" clip-rule="evenodd" d="M14.3701 24.9383C14.3701 24.4746 14.746 24.0988 15.2096 24.0988H25.2837C25.7474 24.0988 26.1232 24.4746 26.1232 24.9383C26.1232 25.4019 25.7474 25.7778 25.2837 25.7778H15.2096C14.746 25.7778 14.3701 25.4019 14.3701 24.9383Z" fill="#E7EFFF"/>
<path fill-rule="evenodd" clip-rule="evenodd" d="M17.728 29.9753C17.728 29.5117 18.1039 29.1358 18.5675 29.1358H25.2836C25.7472 29.1358 26.1231 29.5117 26.1231 29.9753C26.1231 30.439 25.7472 30.8148 25.2836 30.8148H18.5675C18.1039 30.8148 17.728 30.439 17.728 29.9753Z" fill="#E7EFFF"/>
<path fill-rule="evenodd" clip-rule="evenodd" d="M19.4072 35.0124C19.4072 34.5487 19.7831 34.1729 20.2467 34.1729H25.2838C25.7474 34.1729 26.1233 34.5487 26.1233 35.0124C26.1233 35.476 25.7474 35.8519 25.2838 35.8519H20.2467C19.7831 35.8519 19.4072 35.476 19.4072 35.0124Z" fill="#E7EFFF"/>
</g>
<defs>
<clipPath id="clip0_631_7452">
<rect width="64" height="64" fill="white"/>
</clipPath>
</defs>
</svg>
