<svg width="64" height="64" viewBox="0 0 64 64" fill="none" xmlns="http://www.w3.org/2000/svg">
<g id="Truck delivery">
<g id="Color">
<path id="Subtract" fill-rule="evenodd" clip-rule="evenodd" d="M47.8021 21.6049H52.3714C53.4611 21.6049 54.474 22.1662 55.0515 23.0903L61.5439 33.4782C61.8579 33.9805 62.0243 34.5609 62.0243 35.1533V43.7284C62.0243 45.4739 60.6093 46.8889 58.8638 46.8889H57.2836H57.1255C56.3935 43.2823 53.2049 40.5679 49.3824 40.5679C47.6036 40.5679 45.9622 41.1556 44.6416 42.1475V24.7654C44.6416 23.0199 46.0566 21.6049 47.8021 21.6049Z" fill="#FF7C00"/>
<path id="Vector 789" d="M51.4316 29.5308V24.79C51.4316 24.79 53.2058 25.5176 54.0983 26.3209C55.2076 27.3194 56.1724 29.5308 56.1724 29.5308H51.4316Z" fill="#F7F9FC"/>
<path id="Subtract_2" fill-rule="evenodd" clip-rule="evenodd" d="M6.71582 15.2838C6.71582 13.5383 8.13082 12.1233 9.87632 12.1233H41.4813C43.2268 12.1233 44.6418 13.5383 44.6418 15.2838V42.1475C43.1255 43.2864 42.0323 44.9582 41.6402 46.8849C41.5876 46.8875 41.5346 46.8888 41.4813 46.8888H28.6813C27.9492 43.2823 24.7606 40.5678 20.9381 40.5678C17.1155 40.5678 13.927 43.2823 13.1949 46.8888H9.87632C8.13082 46.8888 6.71582 45.4738 6.71582 43.7283V15.2838Z" fill="#027DDB"/>
<path id="Subtract (Stroke)" fill-rule="evenodd" clip-rule="evenodd" d="M6.41943 15.6791C6.41943 13.4973 8.18819 11.7285 10.3701 11.7285H40.9874C41.4238 11.7285 41.7775 12.0823 41.7775 12.5186C41.7775 12.955 41.4238 13.3088 40.9874 13.3088H10.3701C9.06094 13.3088 7.99968 14.37 7.99968 15.6791V44.1236C7.99968 44.56 7.64593 44.9138 7.20956 44.9138C6.77318 44.9138 6.41943 44.56 6.41943 44.1236V15.6791Z" fill="#E7EFFF"/>
<path id="Ellipse 1" d="M25.6788 48.4691C25.6788 51.0874 23.5563 53.2099 20.938 53.2099C18.3198 53.2099 16.1973 51.0874 16.1973 48.4691C16.1973 45.8509 18.3198 43.7284 20.938 43.7284C23.5563 43.7284 25.6788 45.8509 25.6788 48.4691Z" fill="#027DDB"/>
<path id="Ellipse 2" d="M54.1231 48.4691C54.1231 51.0874 52.0006 53.2099 49.3824 53.2099C46.7641 53.2099 44.6416 51.0874 44.6416 48.4691C44.6416 45.8509 46.7641 43.7284 49.3824 43.7284C52.0006 43.7284 54.1231 45.8509 54.1231 48.4691Z" fill="#027DDB"/>
<path id="Ellipse 400 (Stroke)" fill-rule="evenodd" clip-rule="evenodd" d="M22.0997 45.0422C22.0997 45.4786 21.7459 45.8323 21.3095 45.8323C19.7172 45.8323 18.4264 47.1231 18.4264 48.7154C18.4264 49.1518 18.0727 49.5055 17.6363 49.5055C17.1999 49.5055 16.8462 49.1518 16.8462 48.7154C16.8462 46.2504 18.8445 44.2521 21.3095 44.2521C21.7459 44.2521 22.0997 44.6058 22.0997 45.0422Z" fill="#E7EFFF"/>
<path id="Ellipse 401 (Stroke)" fill-rule="evenodd" clip-rule="evenodd" d="M50.5933 45.0422C50.5933 45.4786 50.2396 45.8323 49.8032 45.8323C48.2109 45.8323 46.9201 47.1231 46.9201 48.7154C46.9201 49.1518 46.5663 49.5055 46.13 49.5055C45.6936 49.5055 45.3398 49.1518 45.3398 48.7154C45.3398 46.2504 47.3381 44.2521 49.8032 44.2521C50.2396 44.2521 50.5933 44.6058 50.5933 45.0422Z" fill="#E7EFFF"/>
</g>
<g id="Outline">
<path id="Rectangle 9 (Stroke)" fill-rule="evenodd" clip-rule="evenodd" d="M12.2468 12.1234C12.2468 11.687 12.6005 11.3333 13.0369 11.3333H41.4814C43.6633 11.3333 45.432 13.102 45.432 15.2839V41.358C45.432 41.7944 45.0783 42.1481 44.6419 42.1481C44.2055 42.1481 43.8518 41.7944 43.8518 41.358V15.2839C43.8518 13.9748 42.7905 12.9135 41.4814 12.9135H13.0369C12.6005 12.9135 12.2468 12.5598 12.2468 12.1234ZM5.92578 46.8889C5.92578 46.4525 6.27953 46.0988 6.71591 46.0988H13.0369C13.4733 46.0988 13.827 46.4525 13.827 46.8889C13.827 47.3252 13.4733 47.679 13.0369 47.679H6.71591C6.27953 47.679 5.92578 47.3252 5.92578 46.8889ZM28.0493 46.8889C28.0493 46.4525 28.403 46.0988 28.8394 46.0988H41.4814C41.9178 46.0988 42.2715 46.4525 42.2715 46.8889C42.2715 47.3252 41.9178 47.679 41.4814 47.679H28.8394C28.403 47.679 28.0493 47.3252 28.0493 46.8889Z" fill="#0040A0"/>
<path id="Vector 212 (Stroke)" fill-rule="evenodd" clip-rule="evenodd" d="M1.18506 35.8271C1.18506 35.3907 1.53881 35.037 1.97518 35.037H27.2592C27.6956 35.037 28.0493 35.3907 28.0493 35.8271C28.0493 36.2635 27.6956 36.6172 27.2592 36.6172H1.97518C1.53881 36.6172 1.18506 36.2635 1.18506 35.8271Z" fill="#0040A0"/>
<path id="Vector 213 (Stroke)" fill-rule="evenodd" clip-rule="evenodd" d="M7.50635 31.0864C7.50635 30.65 7.8601 30.2963 8.29647 30.2963H30.42C30.8563 30.2963 31.2101 30.65 31.2101 31.0864C31.2101 31.5228 30.8563 31.8765 30.42 31.8765H8.29647C7.8601 31.8765 7.50635 31.5228 7.50635 31.0864Z" fill="#0040A0"/>
<path id="Vector 215 (Stroke)" fill-rule="evenodd" clip-rule="evenodd" d="M4.34521 26.3457C4.34521 25.9093 4.69897 25.5555 5.13534 25.5555H27.2588C27.6952 25.5555 28.049 25.9093 28.049 26.3457C28.049 26.782 27.6952 27.1358 27.2588 27.1358H5.13534C4.69897 27.1358 4.34521 26.782 4.34521 26.3457Z" fill="#0040A0"/>
<path id="Vector 211 (Stroke)" fill-rule="evenodd" clip-rule="evenodd" d="M12.2471 21.6048C12.2471 21.1684 12.6008 20.8147 13.0372 20.8147H28.8397C29.2761 20.8147 29.6298 21.1684 29.6298 21.6048C29.6298 22.0412 29.2761 22.3949 28.8397 22.3949H13.0372C12.6008 22.3949 12.2471 22.0412 12.2471 21.6048Z" fill="#0040A0"/>
<path id="Rectangle 10 (Stroke)" fill-rule="evenodd" clip-rule="evenodd" d="M43.8516 21.6048C43.8516 21.1684 44.2053 20.8147 44.6417 20.8147H52.3715C53.7336 20.8147 54.9997 21.5164 55.7216 22.6715L62.2141 33.0594C62.6065 33.6873 62.8146 34.4128 62.8146 35.1532V43.7283C62.8146 45.9102 61.0458 47.6789 58.8639 47.6789H57.2837C56.8473 47.6789 56.4936 47.3252 56.4936 46.8888C56.4936 46.4524 56.8473 46.0987 57.2837 46.0987H58.8639C60.1731 46.0987 61.2343 45.0374 61.2343 43.7283V35.1532C61.2343 34.709 61.1095 34.2737 60.874 33.8969L54.3816 23.509C53.9484 22.816 53.1888 22.3949 52.3715 22.3949H44.6417C44.2053 22.3949 43.8516 22.0412 43.8516 21.6048Z" fill="#0040A0"/>
<path id="Ellipse 1 (Stroke)" fill-rule="evenodd" clip-rule="evenodd" d="M20.9381 44.5185C18.7562 44.5185 16.9875 46.2872 16.9875 48.4691C16.9875 50.651 18.7562 52.4197 20.9381 52.4197C23.12 52.4197 24.8887 50.651 24.8887 48.4691C24.8887 46.2872 23.12 44.5185 20.9381 44.5185ZM15.4072 48.4691C15.4072 45.4145 17.8835 42.9382 20.9381 42.9382C23.9927 42.9382 26.469 45.4145 26.469 48.4691C26.469 51.5237 23.9927 54 20.9381 54C17.8835 54 15.4072 51.5237 15.4072 48.4691Z" fill="#0040A0"/>
<path id="Ellipse 2 (Stroke)" fill-rule="evenodd" clip-rule="evenodd" d="M49.3824 44.5185C47.2006 44.5185 45.4318 46.2872 45.4318 48.4691C45.4318 50.651 47.2006 52.4197 49.3824 52.4197C51.5643 52.4197 53.3331 50.651 53.3331 48.4691C53.3331 46.2872 51.5643 44.5185 49.3824 44.5185ZM43.8516 48.4691C43.8516 45.4145 46.3278 42.9382 49.3824 42.9382C52.4371 42.9382 54.9133 45.4145 54.9133 48.4691C54.9133 51.5237 52.4371 54 49.3824 54C46.3278 54 43.8516 51.5237 43.8516 48.4691Z" fill="#0040A0"/>
<path id="Vector 789 (Stroke)" fill-rule="evenodd" clip-rule="evenodd" d="M51.4317 24C51.8681 24 52.2219 24.3538 52.2219 24.7901V27.9506C52.2219 28.387 52.5756 28.7408 53.012 28.7408H56.1725C56.6088 28.7408 56.9626 29.0945 56.9626 29.5309C56.9626 29.9672 56.6088 30.321 56.1725 30.321H53.012C51.7029 30.321 50.6416 29.2597 50.6416 27.9506V24.7901C50.6416 24.3538 50.9954 24 51.4317 24Z" fill="#0040A0"/>
<path id="Vector 887 (Stroke)" fill-rule="evenodd" clip-rule="evenodd" d="M1.18506 53.2098C1.18506 52.7734 1.53881 52.4197 1.97518 52.4197H62.0247C62.4611 52.4197 62.8148 52.7734 62.8148 53.2098C62.8148 53.6462 62.4611 53.9999 62.0247 53.9999H1.97518C1.53881 53.9999 1.18506 53.6462 1.18506 53.2098Z" fill="#0040A0"/>
</g>
</g>
</svg>
