<svg width="64" height="64" viewBox="0 0 64 64" fill="none" xmlns="http://www.w3.org/2000/svg">
<g id="Movers" clip-path="url(#clip0_631_7610)">
<g id="Color">
<path id="Rectangle 8" d="M19.312 22.4635C19.312 21.6328 19.9854 20.9595 20.816 20.9595H41.8719C42.7025 20.9595 43.3759 21.6328 43.3759 22.4635V40.5114C43.3759 41.342 42.7025 42.0153 41.8719 42.0153H20.816C19.9854 42.0153 19.312 41.342 19.312 40.5114V22.4635Z" fill="#FF7C00"/>
<path id="Rectangle 2676 (Stroke)" fill-rule="evenodd" clip-rule="evenodd" d="M20.8154 23.2155C20.8154 22.8002 21.1521 22.4635 21.5674 22.4635H41.1193C41.5346 22.4635 41.8713 22.8002 41.8713 23.2155C41.8713 23.6308 41.5346 23.9675 41.1193 23.9675H22.3194V39.7594C22.3194 40.1747 21.9827 40.5114 21.5674 40.5114C21.1521 40.5114 20.8154 40.1747 20.8154 39.7594V23.2155Z" fill="#E7EFFF"/>
<path id="Rectangle 9" d="M26.8315 20.9595H35.8555V26.9754L33.5995 26.116L31.3435 26.9754L29.0875 26.116L26.8315 26.9754V20.9595Z" fill="#FF7C00"/>
<path id="Rectangle 2675 (Stroke)" fill-rule="evenodd" clip-rule="evenodd" d="M28.3359 23.2155C28.3359 22.8002 28.6726 22.4635 29.0879 22.4635H33.5999C34.0152 22.4635 34.3519 22.8002 34.3519 23.2155C34.3519 23.6308 34.0152 23.9675 33.5999 23.9675H29.0879C28.6726 23.9675 28.3359 23.6308 28.3359 23.2155Z" fill="#E7EFFF"/>
<g id="Group 966">
<path id="Rectangle 15" d="M3.6549 40.7725L4.28846 57.4312C5.15315 58.366 7.74946 59.9177 11.2172 58.6455L10.0949 28.7926C10.0149 26.8793 8.39904 25.3931 6.48571 25.4731C4.57239 25.553 3.08618 27.1689 3.16617 29.0823L3.6549 40.7725Z" fill="#027DDB"/>
<path id="Union" d="M5.64302 25.7991C4.36306 26.5028 3.89593 28.1109 4.59964 29.3909L9.88475 39.0037C10.1145 39.4216 10.4407 39.7529 10.8203 39.985C11.0145 40.1396 11.234 40.2693 11.4757 40.3672L19.9768 43.8116C21.3306 44.3601 22.8727 43.7074 23.4212 42.3536C23.9697 40.9999 23.3169 39.4578 21.9631 38.9093L14.1224 35.7324L9.23477 26.8425C8.53106 25.5625 6.92298 25.0954 5.64302 25.7991Z" fill="#027DDB"/>
<path id="Ellipse 5" d="M12.3324 19.3529C11.456 22.0396 8.56743 23.5071 5.88071 22.6307C3.194 21.7542 1.7265 18.8657 2.60296 16.1789C3.47943 13.4922 6.36796 12.0247 9.05467 12.9012C11.7414 13.7777 13.2089 16.6662 12.3324 19.3529Z" fill="#FFDDB6"/>
<path id="Ellipse 399 (Stroke)" fill-rule="evenodd" clip-rule="evenodd" d="M9.05197 13.7093C9.05197 14.1246 8.71529 14.4612 8.29997 14.4612C6.3137 14.4612 4.70352 16.0714 4.70352 18.0577C4.70352 18.473 4.36684 18.8097 3.95152 18.8097C3.53621 18.8097 3.19953 18.473 3.19953 18.0577C3.19953 15.2408 5.48307 12.9573 8.29997 12.9573C8.71529 12.9573 9.05197 13.2939 9.05197 13.7093Z" fill="#FFF0DF"/>
<path id="Union (Stroke)" fill-rule="evenodd" clip-rule="evenodd" d="M7.90324 25.6248C8.10334 25.9888 7.97051 26.446 7.60657 26.6461C6.69056 27.1497 6.35624 28.3006 6.85987 29.2166L12.145 38.8294C12.3451 39.1934 12.2122 39.6506 11.8483 39.8507C11.4844 40.0508 11.0271 39.918 10.827 39.554L5.54193 29.9412C4.63813 28.2973 5.23809 26.232 6.88198 25.3282C7.24592 25.1281 7.70315 25.2609 7.90324 25.6248Z" fill="#E7EFFF"/>
</g>
<path id="Rectangle 15 (Stroke)" fill-rule="evenodd" clip-rule="evenodd" d="M4.40175 27.9169C4.8167 27.8996 5.16715 28.2219 5.1845 28.6369L5.67335 40.33L6.3069 56.9886C6.32268 57.4036 5.99904 57.7528 5.58403 57.7686C5.16901 57.7844 4.81978 57.4608 4.804 57.0458L4.17055 40.3899L4.17044 40.3871L3.68182 28.6997C3.66447 28.2847 3.9868 27.9343 4.40175 27.9169Z" fill="#E7EFFF"/>
<path id="Vector" d="M48.0625 59.0713L48.2656 45.8L50.6685 29.251C50.951 27.3569 52.7154 26.0505 54.6094 26.333C56.5035 26.6154 57.8099 28.3798 57.5274 30.2739L55.1996 45.9061L54.9965 59.1774C52.9717 60.3488 49.5302 59.5947 48.0625 59.0713Z" fill="#FF7C00"/>
<path id="Union_2" fill-rule="evenodd" clip-rule="evenodd" d="M55.2777 26.1179C56.5774 26.8324 57.0517 28.4653 56.3372 29.765L50.5674 40.2594C50.2674 40.8051 49.8054 41.2053 49.2742 41.4331C48.9797 41.7994 48.5839 42.0934 48.1063 42.267L39.698 45.3241C38.4068 45.7936 36.9699 45.2074 36.3755 43.9687C35.6919 42.5442 36.3868 40.8408 37.8717 40.3009L46.0502 37.3274L51.6306 27.1773C52.3452 25.8777 53.978 25.4033 55.2777 26.1179Z" fill="#FF7C00"/>
<path id="Ellipse 5_2" d="M49.065 20.0984C49.9415 22.7851 52.83 24.2526 55.5167 23.3761C58.2035 22.4997 59.671 19.6111 58.7945 16.9244C57.918 14.2377 55.0295 12.7702 52.3428 13.6467C49.6561 14.5231 48.1886 17.4117 49.065 20.0984Z" fill="#FFDDB6"/>
<path id="Ellipse 4" d="M52.3428 13.6467C55.0295 12.7702 57.918 14.2377 58.7945 16.9244C59.1445 17.9972 59.1207 19.1022 58.7949 20.0984L50.5757 14.6451C51.0771 14.2098 51.6719 13.8655 52.3428 13.6467Z" fill="#FF7C00"/>
<path id="Union (Stroke)_2" fill-rule="evenodd" clip-rule="evenodd" d="M51.5356 28.0243C52.4502 26.3607 54.5403 25.7535 56.2039 26.6682C56.5679 26.8683 56.7007 27.3255 56.5006 27.6895C56.3005 28.0534 55.8433 28.1862 55.4793 27.9861C54.546 27.473 53.3741 27.8114 52.8575 28.7417L47.5211 39.0247C47.433 39.1944 47.2836 39.3242 47.1033 39.3877L38.6903 42.3487C38.2986 42.4865 37.8692 42.2807 37.7313 41.889C37.5935 41.4972 37.7993 41.0679 38.191 40.93L46.3232 38.0678L51.5356 28.0243Z" fill="#FFDBB9"/>
</g>
<g id="Outline">
<path id="Rectangle 8 (Stroke)" fill-rule="evenodd" clip-rule="evenodd" d="M18.5596 22.4635C18.5596 21.2176 19.5696 20.2075 20.8156 20.2075H41.8714C43.1174 20.2075 44.1274 21.2176 44.1274 22.4635V38.0439C44.1274 38.4592 43.7907 38.7959 43.3754 38.7959C42.9601 38.7959 42.6234 38.4592 42.6234 38.0439V22.4635C42.6234 22.0482 42.2867 21.7115 41.8714 21.7115H20.8156C20.4002 21.7115 20.0636 22.0482 20.0636 22.4635V37.5034C20.0636 37.9187 19.7269 38.2554 19.3116 38.2554C18.8963 38.2554 18.5596 37.9187 18.5596 37.5034V22.4635ZM23.0715 42.0154C23.0715 41.6001 23.4082 41.2634 23.8235 41.2634H36.6075C37.0228 41.2634 37.3595 41.6001 37.3595 42.0154C37.3595 42.4307 37.0228 42.7674 36.6075 42.7674H23.8235C23.4082 42.7674 23.0715 42.4307 23.0715 42.0154Z" fill="#0040A0"/>
<path id="Rectangle 9 (Stroke)" fill-rule="evenodd" clip-rule="evenodd" d="M26.0791 20.9595C26.0791 20.5442 26.4158 20.2075 26.8311 20.2075H35.855C36.2704 20.2075 36.607 20.5442 36.607 20.9595V26.9755C36.607 27.2228 36.4854 27.4543 36.2818 27.5947C36.0781 27.735 35.8185 27.7663 35.5873 27.6782L33.5991 26.9208L31.6108 27.6782C31.4383 27.7439 31.2478 27.7439 31.0754 27.6782L29.0871 26.9208L27.0988 27.6782C26.8677 27.7663 26.608 27.735 26.4044 27.5947C26.2007 27.4543 26.0791 27.2228 26.0791 26.9755V20.9595ZM27.5831 21.7115V25.8843L28.8194 25.4133C28.9918 25.3476 29.1824 25.3476 29.3548 25.4133L31.3431 26.1708L33.3313 25.4133C33.5038 25.3476 33.6943 25.3476 33.8668 25.4133L35.103 25.8843V21.7115H27.5831Z" fill="#0040A0"/>
<g id="Group 6">
<path id="Ellipse 4 (Stroke)" fill-rule="evenodd" clip-rule="evenodd" d="M52.5758 14.3616C54.8676 13.6139 57.3317 14.8658 58.0793 17.1577C58.827 19.4495 57.5752 21.9136 55.2833 22.6612C52.9914 23.4089 50.5274 22.1571 49.7797 19.8652C49.032 17.5733 50.2839 15.1093 52.5758 14.3616ZM59.5092 16.6912C58.5039 13.6097 55.1909 11.9265 52.1093 12.9318C49.0278 13.937 47.3446 17.2501 48.3499 20.3316C49.3551 23.4132 52.6682 25.0963 55.7497 24.0911C58.8313 23.0858 60.5144 19.7728 59.5092 16.6912Z" fill="#0040A0"/>
<path id="Vector 849 (Stroke)" fill-rule="evenodd" clip-rule="evenodd" d="M45.3693 11.6318C45.5889 11.2794 46.0527 11.1717 46.4052 11.3914L59.3771 19.4753C59.7296 19.695 59.8373 20.1588 59.6176 20.5112C59.3979 20.8637 58.9341 20.9714 58.5817 20.7517L45.6097 12.6678C45.2573 12.4481 45.1496 11.9843 45.3693 11.6318Z" fill="#0040A0"/>
<path id="Vector (Stroke)" fill-rule="evenodd" clip-rule="evenodd" d="M54.1626 25.6775C54.3084 25.2886 54.7419 25.0916 55.1308 25.2374C57.1111 25.98 58.6121 28.0957 58.2708 30.3847C58.2708 30.3848 58.2708 30.3846 58.2708 30.3847L55.9503 45.9676L55.748 59.189C55.7416 59.6043 55.3998 59.9357 54.9845 59.9294C54.5693 59.923 54.2378 59.5812 54.2441 59.166L54.4472 45.8946C54.4477 45.8614 54.4505 45.8283 54.4554 45.7954L56.7832 30.1632C57.0068 28.6642 56.0063 27.172 54.6027 26.6456C54.2138 26.4998 54.0168 26.0664 54.1626 25.6775ZM48.8149 41.7393C49.227 41.7909 49.5193 42.1668 49.4677 42.5789L49.3098 43.8395L49.0163 45.8601L48.814 59.0829C48.8076 59.4981 48.4658 59.8296 48.0505 59.8233C47.6353 59.8169 47.3038 59.4751 47.3101 59.0599L47.5132 45.7885C47.5137 45.7562 47.5163 45.724 47.521 45.692L47.8203 43.6307L47.9754 42.392C48.0269 41.9799 48.4028 41.6877 48.8149 41.7393Z" fill="#0040A0"/>
<path id="Union (Stroke)_3" fill-rule="evenodd" clip-rule="evenodd" d="M52.2893 27.5397C52.8038 26.6039 53.9794 26.2624 54.9152 26.7769C55.8509 27.2913 56.1924 28.467 55.6779 29.4027L49.4676 40.6984C49.2166 41.155 48.8096 41.4695 48.3478 41.6131C48.3291 41.6189 48.3107 41.6254 48.2926 41.6326C48.2739 41.6401 48.2549 41.6473 48.2358 41.6543L39.8275 44.7114C38.8996 45.0487 37.867 44.6275 37.4399 43.7374C36.9487 42.7137 37.448 41.4897 38.5151 41.1017L46.1457 38.3273C46.317 38.2651 46.4599 38.1427 46.5477 37.9829L52.2893 27.5397ZM55.6398 25.4589C53.9761 24.5443 51.886 25.1514 50.9714 26.8151L45.366 37.0105L38.0012 39.6882C36.0984 40.38 35.208 42.5627 36.0839 44.388C36.8456 45.9753 38.6868 46.7264 40.3414 46.1248L48.7497 43.0677C48.774 43.0589 48.7983 43.0498 48.8223 43.0404C49.6294 42.7819 50.3447 42.2248 50.7856 41.423L56.9959 30.1273C57.9105 28.4637 57.3034 26.3736 55.6398 25.4589Z" fill="#0040A0"/>
</g>
<g id="Outline_2">
<path id="Ellipse 4 (Stroke)_2" fill-rule="evenodd" clip-rule="evenodd" d="M9.06975 13.492C6.77787 12.7443 4.31383 13.9962 3.56617 16.288C2.81851 18.5799 4.07035 21.0439 6.36223 21.7916C8.65411 22.5393 11.1181 21.2874 11.8658 18.9956C12.6135 16.7037 11.3616 14.2396 9.06975 13.492ZM2.13634 15.8216C3.14161 12.74 6.45464 11.0569 9.53619 12.0621C12.6177 13.0674 14.3009 16.3804 13.2956 19.462C12.2904 22.5435 8.97735 24.2267 5.89579 23.2214C2.81424 22.2162 1.13107 18.9031 2.13634 15.8216Z" fill="#0040A0"/>
<path id="Rectangle 15 (Stroke)_2" fill-rule="evenodd" clip-rule="evenodd" d="M2.66284 28.9895C2.5655 26.6612 4.37403 24.6948 6.70231 24.5975L7.01622 24.5844C9.17113 24.4943 10.9911 26.1682 11.0811 28.3231L9.57847 28.3859C9.52308 27.0609 8.40404 26.0317 7.07904 26.0871L6.76513 26.1002C5.26676 26.1628 4.10288 27.4283 4.16552 28.9266L4.65424 40.6169L4.65436 40.6197L5.28792 57.2784C5.3037 57.6934 4.98006 58.0426 4.56505 58.0584C4.15003 58.0742 3.8008 57.7506 3.78501 57.3355L3.15157 40.6797L2.66284 28.9895ZM10.6945 38.8367C11.1095 38.8205 11.4591 39.1437 11.4754 39.5587L12.2166 58.4919C12.2329 58.9069 11.9096 59.2565 11.4946 59.2727C11.0796 59.289 10.73 58.9657 10.7138 58.5507L9.97252 39.6175C9.95627 39.2025 10.2795 38.853 10.6945 38.8367Z" fill="#0040A0"/>
<path id="Union (Stroke)_4" fill-rule="evenodd" clip-rule="evenodd" d="M8.82404 27.0806C8.32041 26.1646 7.16957 25.8302 6.25355 26.3339C5.33753 26.8375 5.00322 27.9883 5.50684 28.9044L10.7919 38.5172C10.957 38.8174 11.1899 39.0536 11.4608 39.2192C11.4873 39.2354 11.5127 39.2532 11.5369 39.2725C11.6753 39.3826 11.8322 39.4755 12.0063 39.5461L20.5074 42.9905C21.4763 43.383 22.5799 42.9159 22.9724 41.947C23.365 40.9782 22.8978 39.8746 21.929 39.482L14.0883 36.3052C13.928 36.2403 13.795 36.1221 13.7117 35.9705L8.82404 27.0806ZM5.52895 25.0159C7.17285 24.1121 9.23817 24.7121 10.142 26.356L14.9008 35.0117L22.4937 38.0881C24.2324 38.7926 25.0708 40.7731 24.3664 42.5118C23.6619 44.2505 21.6813 45.0889 19.9427 44.3844L11.4416 40.94C11.1472 40.8207 10.8777 40.6643 10.6368 40.4779C10.1653 40.1806 9.76052 39.7629 9.47401 39.2418L4.1889 29.6289C3.2851 27.9851 3.88506 25.9197 5.52895 25.0159Z" fill="#0040A0"/>
</g>
</g>
</g>
<defs>
<clipPath id="clip0_631_7610">
<rect width="64" height="64" fill="white"/>
</clipPath>
</defs>
</svg>
