<svg width="64" height="64" viewBox="0 0 64 64" fill="none" xmlns="http://www.w3.org/2000/svg">
<g id="Warehouse" clip-path="url(#clip0_631_7355)">
<g id="Color">
<path id="Vector" d="M63.1793 63.1795V10.6667L31.9998 0.820557L0.820312 10.6667V63.1795L6.5639 59.8975V15.5898H57.4357V59.8975L63.1793 63.1795Z" fill="#027DDB"/>
<path id="Rectangle 20" d="M17.231 45.1282H27.0771V54.9744H17.231V45.1282Z" fill="#FF7C00"/>
<path id="Rectangle 25" d="M22.1538 35.2821H32V45.1283H22.1538V35.2821Z" fill="#FF7C00"/>
<path id="Rectangle 20_2" d="M27.0771 45.1282H36.9233V54.9744H27.0771V45.1282Z" fill="#FF7C00"/>
<path id="Rectangle 26" d="M32 35.2821H41.8462V45.1283H32V35.2821Z" fill="#FF7C00"/>
<path id="Rectangle 27" d="M27.0771 25.4359H36.9233V35.2821H27.0771V25.4359Z" fill="#FF7C00"/>
<path id="Rectangle 20_3" d="M36.9229 45.1282H46.769V54.9744H36.9229V45.1282Z" fill="#FF7C00"/>
<path id="Rectangle 18 (Stroke)" fill-rule="evenodd" clip-rule="evenodd" d="M31.1531 3.44139C31.2896 3.87351 31.0499 4.33444 30.6178 4.4709L3.89688 12.9091V59.8975C3.89688 60.3506 3.52953 60.718 3.07637 60.718C2.62322 60.718 2.25586 60.3506 2.25586 59.8975V12.3077C2.25586 11.9498 2.48793 11.6331 2.82929 11.5253L30.1236 2.90604C30.5557 2.76958 31.0167 3.00927 31.1531 3.44139Z" fill="#E7EFFF"/>
<path id="Rectangle 28 (Stroke)" fill-rule="evenodd" clip-rule="evenodd" d="M27.4868 26.5642C27.4868 26.111 27.8542 25.7437 28.3073 25.7437H34.8714C35.3246 25.7437 35.6919 26.111 35.6919 26.5642C35.6919 27.0173 35.3246 27.3847 34.8714 27.3847H29.1278V33.1283C29.1278 33.5814 28.7605 33.9488 28.3073 33.9488C27.8542 33.9488 27.4868 33.5814 27.4868 33.1283V26.5642Z" fill="#E7EFFF"/>
<path id="Rectangle 29 (Stroke)" fill-rule="evenodd" clip-rule="evenodd" d="M22.6904 36.6162C22.6904 36.1631 23.0578 35.7957 23.5109 35.7957H30.075C30.5282 35.7957 30.8956 36.1631 30.8956 36.6162C30.8956 37.0694 30.5282 37.4367 30.075 37.4367H24.3315V43.1803C24.3315 43.6335 23.9641 44.0008 23.5109 44.0008C23.0578 44.0008 22.6904 43.6335 22.6904 43.1803V36.6162Z" fill="#E7EFFF"/>
<path id="Rectangle 30 (Stroke)" fill-rule="evenodd" clip-rule="evenodd" d="M32.3853 36.6162C32.3853 36.1631 32.7526 35.7957 33.2058 35.7957H39.7699C40.223 35.7957 40.5904 36.1631 40.5904 36.6162C40.5904 37.0694 40.223 37.4367 39.7699 37.4367H34.0263V43.1803C34.0263 43.6335 33.6589 44.0008 33.2058 44.0008C32.7526 44.0008 32.3853 43.6335 32.3853 43.1803V36.6162Z" fill="#E7EFFF"/>
<path id="Rectangle 31 (Stroke)" fill-rule="evenodd" clip-rule="evenodd" d="M27.1807 46.158C27.1807 45.7048 27.548 45.3375 28.0012 45.3375H34.5653C35.0184 45.3375 35.3858 45.7048 35.3858 46.158C35.3858 46.6111 35.0184 46.9785 34.5653 46.9785H28.8217V52.7221C28.8217 53.1752 28.4543 53.5426 28.0012 53.5426C27.548 53.5426 27.1807 53.1752 27.1807 52.7221V46.158Z" fill="#E7EFFF"/>
<path id="Rectangle 32 (Stroke)" fill-rule="evenodd" clip-rule="evenodd" d="M37.0264 46.158C37.0264 45.7048 37.3937 45.3375 37.8469 45.3375H44.411C44.8641 45.3375 45.2315 45.7048 45.2315 46.158C45.2315 46.6111 44.8641 46.9785 44.411 46.9785H38.6674V52.7221C38.6674 53.1752 38.3 53.5426 37.8469 53.5426C37.3937 53.5426 37.0264 53.1752 37.0264 52.7221V46.158Z" fill="#E7EFFF"/>
<path id="Rectangle 33 (Stroke)" fill-rule="evenodd" clip-rule="evenodd" d="M17.5854 46.158C17.5854 45.7048 17.9528 45.3375 18.406 45.3375H24.9701C25.4232 45.3375 25.7906 45.7048 25.7906 46.158C25.7906 46.6111 25.4232 46.9785 24.9701 46.9785H19.2265V52.7221C19.2265 53.1752 18.8591 53.5426 18.406 53.5426C17.9528 53.5426 17.5854 53.1752 17.5854 52.7221V46.158Z" fill="#E7EFFF"/>
</g>
<g id="Outline">
<path id="Rectangle 18 (Stroke)_2" fill-rule="evenodd" clip-rule="evenodd" d="M31.7529 0.038086C31.9137 -0.0126953 32.0863 -0.0126953 32.2471 0.038086L63.4266 9.88424C63.7679 9.99204 64 10.3087 64 10.6667V63.1795C64 63.6326 63.6326 64 63.1795 64C62.7263 64 62.359 63.6326 62.359 63.1795V11.268L32 1.68097L1.64103 11.268V63.1795C1.64103 63.6326 1.27367 64 0.820513 64C0.367356 64 0 63.6326 0 63.1795V10.6667C0 10.3087 0.232074 9.99204 0.573431 9.88424L31.7529 0.038086Z" fill="#0040A0"/>
<path id="Rectangle 24 (Stroke)" fill-rule="evenodd" clip-rule="evenodd" d="M5.74316 15.5897C5.74316 15.1366 6.11052 14.7692 6.56368 14.7692H57.4355C57.8886 14.7692 58.256 15.1366 58.256 15.5897V59.8974C58.256 60.3506 57.8886 60.7179 57.4355 60.7179C56.9823 60.7179 56.615 60.3506 56.615 59.8974V16.4103H7.38419V59.8974C7.38419 60.3506 7.01683 60.7179 6.56368 60.7179C6.11052 60.7179 5.74316 60.3506 5.74316 59.8974V15.5897Z" fill="#0040A0"/>
<g id="Group 848">
<path id="Rectangle 20 (Stroke)" fill-rule="evenodd" clip-rule="evenodd" d="M16.4106 45.1282C16.4106 44.675 16.778 44.3077 17.2312 44.3077H27.0773C27.5305 44.3077 27.8978 44.675 27.8978 45.1282V54.9743C27.8978 55.4275 27.5305 55.7949 27.0773 55.7949H17.2312C16.778 55.7949 16.4106 55.4275 16.4106 54.9743V45.1282ZM18.0517 45.9487V54.1538H26.2568V45.9487H18.0517Z" fill="#0040A0"/>
<path id="Rectangle 25 (Stroke)" fill-rule="evenodd" clip-rule="evenodd" d="M21.3335 35.2821C21.3335 34.8289 21.7009 34.4615 22.154 34.4615H32.0002C32.4533 34.4615 32.8207 34.8289 32.8207 35.2821V45.1282C32.8207 45.5814 32.4533 45.9487 32.0002 45.9487H22.154C21.7009 45.9487 21.3335 45.5814 21.3335 45.1282V35.2821ZM22.9745 36.1026V44.3077H31.1796V36.1026H22.9745Z" fill="#0040A0"/>
<path id="Rectangle 20 (Stroke)_2" fill-rule="evenodd" clip-rule="evenodd" d="M26.2568 45.1282C26.2568 44.675 26.6242 44.3077 27.0773 44.3077H36.9235C37.3767 44.3077 37.744 44.675 37.744 45.1282V54.9743C37.744 55.4275 37.3767 55.7949 36.9235 55.7949H27.0773C26.6242 55.7949 26.2568 55.4275 26.2568 54.9743V45.1282ZM27.8979 45.9487V54.1538H36.103V45.9487H27.8979Z" fill="#0040A0"/>
<path id="Rectangle 26 (Stroke)" fill-rule="evenodd" clip-rule="evenodd" d="M31.1797 35.2821C31.1797 34.8289 31.547 34.4615 32.0002 34.4615H41.8464C42.2995 34.4615 42.6669 34.8289 42.6669 35.2821V45.1282C42.6669 45.5814 42.2995 45.9487 41.8464 45.9487H32.0002C31.547 45.9487 31.1797 45.5814 31.1797 45.1282V35.2821ZM32.8207 36.1026V44.3077H41.0258V36.1026H32.8207Z" fill="#0040A0"/>
<path id="Rectangle 27 (Stroke)" fill-rule="evenodd" clip-rule="evenodd" d="M26.2568 25.4359C26.2568 24.9827 26.6242 24.6154 27.0773 24.6154H36.9235C37.3767 24.6154 37.744 24.9827 37.744 25.4359V35.282C37.744 35.7352 37.3767 36.1025 36.9235 36.1025H27.0773C26.6242 36.1025 26.2568 35.7352 26.2568 35.282V25.4359ZM27.8979 26.2564V34.4615H36.103V26.2564H27.8979Z" fill="#0040A0"/>
<path id="Rectangle 20 (Stroke)_3" fill-rule="evenodd" clip-rule="evenodd" d="M36.1025 45.1282C36.1025 44.675 36.4699 44.3077 36.9231 44.3077H46.7692C47.2224 44.3077 47.5897 44.675 47.5897 45.1282V54.9743C47.5897 55.4275 47.2224 55.7949 46.7692 55.7949H36.9231C36.4699 55.7949 36.1025 55.4275 36.1025 54.9743V45.1282ZM37.7436 45.9487V54.1538H45.9487V45.9487H37.7436Z" fill="#0040A0"/>
</g>
<path id="Vector 402 (Stroke)" fill-rule="evenodd" clip-rule="evenodd" d="M13.1279 54.9744C13.1279 54.5212 13.4953 54.1539 13.9484 54.1539H50.051C50.5042 54.1539 50.8715 54.5212 50.8715 54.9744C50.8715 55.4275 50.5042 55.7949 50.051 55.7949H13.9484C13.4953 55.7949 13.1279 55.4275 13.1279 54.9744Z" fill="#0040A0"/>
</g>
</g>
<defs>
<clipPath id="clip0_631_7355">
<rect width="64" height="64" fill="white"/>
</clipPath>
</defs>
</svg>
