<svg width="64" height="64" viewBox="0 0 64 64" fill="none" xmlns="http://www.w3.org/2000/svg">
<g id="Parcel address" clip-path="url(#clip0_631_7191)">
<g id="Color">
<path id="Ellipse 543" d="M61.2279 60.1754C61.2279 62.5493 52.7606 64.4737 42.3156 64.4737C31.8706 64.4737 23.4033 62.5493 23.4033 60.1754C23.4033 57.8016 31.8706 55.8772 42.3156 55.8772C52.7606 55.8772 61.2279 57.8016 61.2279 60.1754Z" fill="#027DDB"/>
<path id="Subtract" fill-rule="evenodd" clip-rule="evenodd" d="M42.316 59.3158C42.316 59.3158 59.509 45.2488 59.509 26.4928C59.509 17.1148 54.1362 7.73684 42.316 7.73684C30.4959 7.73684 25.123 17.1148 25.123 26.4928C25.123 45.2488 42.316 59.3158 42.316 59.3158ZM42.316 30.0877C45.1647 30.0877 47.4739 27.7784 47.4739 24.9298C47.4739 22.0812 45.1647 19.7719 42.316 19.7719C39.4674 19.7719 37.1581 22.0812 37.1581 24.9298C37.1581 27.7784 39.4674 30.0877 42.316 30.0877Z" fill="#027DDB"/>
<path id="Ellipse 108 (Stroke)" fill-rule="evenodd" clip-rule="evenodd" d="M31.2602 15.2691C28.8688 18.2506 27.7017 22.2681 27.7017 26.3365C27.7017 32.6877 29.9637 38.4539 32.7686 43.1586C33.0117 43.5664 32.8782 44.094 32.4704 44.3372C32.0626 44.5803 31.535 44.4468 31.2918 44.039C28.3874 39.1673 25.9824 33.0958 25.9824 26.3365C25.9824 21.9648 27.2331 17.5421 29.919 14.1934C32.6249 10.8199 36.7424 8.59649 42.3158 8.59649C42.7905 8.59649 43.1754 8.98137 43.1754 9.45614C43.1754 9.93091 42.7905 10.3158 42.3158 10.3158C37.2509 10.3158 33.6316 12.3125 31.2602 15.2691Z" fill="#AED5F3"/>
<path id="Rectangle 10" d="M4.49121 16.3333C4.49121 15.3838 5.26097 14.614 6.21051 14.614H26.8421C27.7916 14.614 28.5614 15.3838 28.5614 16.3333V35.2456C28.5614 36.1952 27.7916 36.9649 26.8421 36.9649H6.21051C5.26097 36.9649 4.49121 36.1952 4.49121 35.2456V16.3333Z" fill="#FF7C00"/>
<path id="Rectangle 8" d="M2.77197 14.614C2.77197 13.6645 3.54173 12.8947 4.49127 12.8947H28.5614C29.511 12.8947 30.2807 13.6645 30.2807 14.614V16.3333C30.2807 17.2829 29.511 18.0526 28.5614 18.0526H4.49127C3.54173 18.0526 2.77197 17.2829 2.77197 16.3333V14.614Z" fill="#FF7C00"/>
<path id="Rectangle 9" d="M13.0879 18.0526H19.9651V23.2105L18.2458 22.1789L16.5265 23.2105L14.8072 22.1789L13.0879 23.2105V18.0526Z" fill="#FF7C00"/>
<path id="Rectangle 11 (Stroke)" fill-rule="evenodd" clip-rule="evenodd" d="M6.21072 18.9123C6.68549 18.9123 7.07037 19.2972 7.07037 19.7719V33.5263C7.07037 34.0011 6.68549 34.386 6.21072 34.386C5.73595 34.386 5.35107 34.0011 5.35107 33.5263V19.7719C5.35107 19.2972 5.73595 18.9123 6.21072 18.9123Z" fill="#F7F9FC"/>
<path id="Rectangle 12 (Stroke)" fill-rule="evenodd" clip-rule="evenodd" d="M3.63184 14.614C3.63184 14.1393 4.01671 13.7544 4.49149 13.7544H25.6603C26.1351 13.7544 26.52 14.1393 26.52 14.614C26.52 15.0888 26.1351 15.4737 25.6603 15.4737H4.49149C4.01671 15.4737 3.63184 15.0888 3.63184 14.614Z" fill="#F7F9FC"/>
<path id="Ellipse 544 (Stroke)" fill-rule="evenodd" clip-rule="evenodd" d="M25.3372 59.373C25.3184 58.9149 24.941 58.5493 24.4783 58.5493C24.0035 58.5493 23.6187 58.9342 23.6187 59.409C23.6187 59.9675 23.9128 60.4091 24.2442 60.7245C24.5752 61.0396 25.0162 61.3026 25.5057 61.528C26.4897 61.9811 27.8591 62.3674 29.4834 62.6838C32.7462 63.3193 37.2163 63.7066 42.128 63.7066C47.0397 63.7066 51.5098 63.3193 54.7725 62.6838C56.3968 62.3674 57.7663 61.9811 58.7502 61.528C59.2397 61.3026 59.6807 61.0396 60.0118 60.7245C60.3431 60.4091 60.6373 59.9675 60.6373 59.409C60.6373 58.9342 60.2524 58.5493 59.7776 58.5493C59.3149 58.5493 58.9376 58.9149 58.9187 59.373C58.9079 59.3908 58.8821 59.4261 58.8264 59.4792C58.6872 59.6117 58.4347 59.7805 58.0311 59.9663C57.2288 60.3358 56.0135 60.6904 54.4438 60.9962C51.3187 61.6049 46.9639 61.9873 42.128 61.9873C37.292 61.9873 32.9373 61.6049 29.8121 60.9962C28.2425 60.6904 27.0272 60.3358 26.2249 59.9663C25.8213 59.7805 25.5688 59.6117 25.4296 59.4792C25.3738 59.4261 25.3481 59.3908 25.3372 59.373ZM58.9257 59.3594C58.9258 59.3594 58.9254 59.3608 58.9239 59.3638C58.9248 59.3609 58.9256 59.3594 58.9257 59.3594ZM25.3321 59.3638C25.3306 59.3608 25.3301 59.3594 25.3302 59.3594C25.3304 59.3594 25.3311 59.3609 25.3321 59.3638Z" fill="#AED5F3"/>
</g>
<g id="Outline">
<path id="Ellipse 543 (Stroke)" fill-rule="evenodd" clip-rule="evenodd" d="M34.5728 56.2467C34.6276 56.7183 34.2897 57.145 33.8181 57.1998C30.7891 57.5517 28.2837 58.0814 26.5585 58.7089C25.6912 59.0244 25.0705 59.3472 24.683 59.6499C24.2818 59.9633 24.2628 60.1453 24.2628 60.1754C24.2628 60.1984 24.2692 60.2921 24.4262 60.4665C24.5877 60.6459 24.8662 60.8602 25.2962 61.0913C26.155 61.5527 27.4543 61.995 29.1329 62.3765C32.4762 63.1363 37.1374 63.614 42.3154 63.614C47.4934 63.614 52.1546 63.1363 55.4979 62.3765C57.1765 61.995 58.4758 61.5527 59.3345 61.0913C59.7645 60.8602 60.043 60.6459 60.2046 60.4665C60.3616 60.2921 60.368 60.1984 60.368 60.1754C60.368 60.1453 60.349 59.9633 59.9478 59.6499C59.5602 59.3472 58.9396 59.0244 58.0723 58.7089C56.347 58.0814 53.8417 57.5517 50.8127 57.1998C50.3411 57.145 50.0032 56.7183 50.058 56.2467C50.1128 55.7751 50.5395 55.4372 51.0111 55.492C54.1056 55.8515 56.7582 56.4014 58.66 57.0932C59.6061 57.4374 60.4163 57.8342 61.0061 58.295C61.5824 58.7451 62.0873 59.3704 62.0873 60.1754C62.0873 60.7459 61.8292 61.2316 61.4823 61.6169C61.14 61.9971 60.6754 62.3226 60.1483 62.6058C59.0931 63.1728 57.6228 63.6567 55.8789 64.053C52.3773 64.8488 47.5823 65.3333 42.3154 65.3333C37.0484 65.3333 32.2534 64.8488 28.7519 64.053C27.008 63.6567 25.5377 63.1728 24.4824 62.6058C23.9554 62.3226 23.4908 61.9971 23.1485 61.6169C22.8016 61.2316 22.5435 60.7459 22.5435 60.1754C22.5435 59.3704 23.0484 58.7451 23.6246 58.295C24.2145 57.8342 25.0246 57.4374 25.9708 57.0932C27.8726 56.4014 30.5251 55.8515 33.6197 55.492C34.0913 55.4372 34.518 55.7751 34.5728 56.2467Z" fill="#0040A0"/>
<g id="Group 886">
<path id="Ellipse 108 (Stroke)_2" fill-rule="evenodd" clip-rule="evenodd" d="M42.3159 8.59649C39.0637 8.59649 36.3535 9.3345 34.1397 10.5752C33.7255 10.8073 33.2016 10.6597 32.9695 10.2455C32.7374 9.83138 32.885 9.30747 33.2991 9.07536C35.7917 7.67845 38.7957 6.87719 42.3159 6.87719C48.4802 6.87719 53.0276 9.33501 56.0155 13.0602C58.9836 16.7606 60.3685 21.6522 60.3685 26.4928C60.3685 36.1295 55.9563 44.5134 51.6056 50.4462C49.4251 53.4196 47.2455 55.7972 45.6102 57.4326C44.792 58.2507 44.1089 58.8843 43.6284 59.3149C43.388 59.5303 43.1983 59.695 43.0675 59.8068C43.0021 59.8627 42.9514 59.9053 42.9165 59.9345L42.8762 59.968L42.8651 59.9771L42.8619 59.9798C42.8616 59.9801 42.8603 59.9811 42.3159 59.3158C41.7715 59.9811 41.7714 59.981 41.7711 59.9808L41.7687 59.9788L41.7627 59.9739L41.7414 59.9562L41.6622 59.8899C41.5936 59.832 41.4938 59.7469 41.3659 59.6354C41.11 59.4124 40.7415 59.0837 40.2848 58.656C39.3715 57.8008 38.1042 56.5483 36.6789 54.9516C33.8319 51.7621 30.3363 47.179 27.7806 41.6273C27.5821 41.196 27.7708 40.6854 28.202 40.4869C28.6333 40.2884 29.1439 40.4771 29.3424 40.9083C31.8042 46.2562 35.1858 50.697 37.9616 53.8067C39.3477 55.3595 40.5782 56.5754 41.46 57.4011C41.8016 57.721 42.0907 57.9822 42.3159 58.1815C42.3676 58.1358 42.4227 58.0867 42.481 58.0345C42.9406 57.6226 43.6007 57.0106 44.3944 56.2169C45.9827 54.6286 48.1015 52.3172 50.2192 49.4294C54.4649 43.6397 58.6492 35.6122 58.6492 26.4928C58.6492 21.9555 57.3478 17.4691 54.6744 14.136C52.0208 10.8277 47.9718 8.59649 42.3159 8.59649ZM42.3159 59.3158L41.7711 59.9808C42.0878 60.2399 42.5436 60.2402 42.8603 59.9811L42.3159 59.3158Z" fill="#0040A0"/>
<path id="Ellipse 368 (Stroke)" fill-rule="evenodd" clip-rule="evenodd" d="M42.3154 20.6316C39.9415 20.6316 38.0171 22.556 38.0171 24.9298C38.0171 27.3037 39.9415 29.2281 42.3154 29.2281C44.6893 29.2281 46.6136 27.3037 46.6136 24.9298C46.6136 22.556 44.6893 20.6316 42.3154 20.6316ZM36.2979 24.9298C36.2979 21.6064 38.992 18.9123 42.3154 18.9123C45.6388 18.9123 48.3329 21.6064 48.3329 24.9298C48.3329 28.2532 45.6388 30.9474 42.3154 30.9474C38.992 30.9474 36.2979 28.2532 36.2979 24.9298Z" fill="#0040A0"/>
</g>
<g id="Group 4">
<path id="Rectangle 10 (Stroke)" fill-rule="evenodd" clip-rule="evenodd" d="M4.491 17.193C4.96577 17.193 5.35065 17.5779 5.35065 18.0526V35.2456C5.35065 35.7204 5.73552 36.1053 6.2103 36.1053H26.8419C27.3166 36.1053 27.7015 35.7204 27.7015 35.2456V18.0526C27.7015 17.5779 28.0864 17.193 28.5612 17.193C29.0359 17.193 29.4208 17.5779 29.4208 18.0526V35.2456C29.4208 36.6699 28.2662 37.8246 26.8419 37.8246H6.2103C4.78598 37.8246 3.63135 36.6699 3.63135 35.2456V18.0526C3.63135 17.5779 4.01623 17.193 4.491 17.193Z" fill="#0040A0"/>
<path id="Rectangle 8 (Stroke)" fill-rule="evenodd" clip-rule="evenodd" d="M1.91211 14.614C1.91211 13.1897 3.06674 12.0351 4.49106 12.0351H28.5612C29.9855 12.0351 31.1402 13.1897 31.1402 14.614V16.3333C31.1402 17.7576 29.9855 18.9123 28.5612 18.9123H4.49106C3.06674 18.9123 1.91211 17.7576 1.91211 16.3333V14.614ZM4.49106 13.7544C4.01629 13.7544 3.63141 14.1393 3.63141 14.614V16.3333C3.63141 16.8081 4.01629 17.193 4.49106 17.193H28.5612C29.036 17.193 29.4209 16.8081 29.4209 16.3333V14.614C29.4209 14.1393 29.036 13.7544 28.5612 13.7544H4.49106Z" fill="#0040A0"/>
<path id="Rectangle 9 (Stroke)" fill-rule="evenodd" clip-rule="evenodd" d="M12.228 18.0526C12.228 17.5779 12.6129 17.193 13.0877 17.193H19.9649C20.4396 17.193 20.8245 17.5779 20.8245 18.0526V23.2105C20.8245 23.5202 20.6579 23.806 20.3884 23.9586C20.1189 24.1112 19.7882 24.107 19.5226 23.9477L18.2456 23.1815L16.9686 23.9477C16.6963 24.111 16.3562 24.111 16.084 23.9477L14.807 23.1815L13.53 23.9477C13.2644 24.107 12.9336 24.1112 12.6641 23.9586C12.3946 23.806 12.228 23.5202 12.228 23.2105V18.0526ZM13.9473 18.9123V21.6922L14.3647 21.4418C14.6369 21.2785 14.977 21.2785 15.2493 21.4418L16.5263 22.208L17.8033 21.4418C18.0755 21.2785 18.4156 21.2785 18.6879 21.4418L19.1052 21.6922V18.9123H13.9473Z" fill="#0040A0"/>
</g>
<path id="Vector 212 (Stroke)" fill-rule="evenodd" clip-rule="evenodd" d="M13.0876 -3.75765e-08C13.5624 -1.68236e-08 13.9473 0.384878 13.9473 0.859649L13.9473 6.01754C13.9473 6.49231 13.5624 6.87719 13.0876 6.87719C12.6128 6.87719 12.228 6.49231 12.228 6.01754L12.228 0.859649C12.228 0.384878 12.6128 -5.83294e-08 13.0876 -3.75765e-08Z" fill="#0040A0"/>
<path id="Vector 213 (Stroke)" fill-rule="evenodd" clip-rule="evenodd" d="M16.5261 1.7193C17.0009 1.7193 17.3857 2.10418 17.3857 2.57895L17.3857 9.45614C17.3857 9.93091 17.0009 10.3158 16.5261 10.3158C16.0513 10.3158 15.6664 9.93091 15.6664 9.45614L15.6664 2.57895C15.6664 2.10418 16.0513 1.7193 16.5261 1.7193Z" fill="#0040A0"/>
<path id="Vector 215 (Stroke)" fill-rule="evenodd" clip-rule="evenodd" d="M19.9646 -3.75765e-08C20.4393 -1.68236e-08 20.8242 0.384878 20.8242 0.859649L20.8242 7.73684C20.8242 8.21161 20.4393 8.59649 19.9646 8.59649C19.4898 8.59649 19.1049 8.21161 19.1049 7.73684L19.1049 0.859649C19.1049 0.384878 19.4898 -5.83294e-08 19.9646 -3.75765e-08Z" fill="#0040A0"/>
</g>
</g>
<defs>
<clipPath id="clip0_631_7191">
<rect width="64" height="64" fill="white"/>
</clipPath>
</defs>
</svg>
