<svg width="64" height="64" viewBox="0 0 64 64" fill="none" xmlns="http://www.w3.org/2000/svg">
<g id="Download to box" clip-path="url(#clip0_631_7246)">
<g id="Color">
<path id="Vector" d="M31.9996 63.1795V39.0329L5.74316 30.8278V54.9744L31.9996 63.1795Z" fill="#FF7C00"/>
<path id="Vector_2" d="M32 39.0329L58.2564 30.8278V54.9744L32 63.1795V62.0072V39.0329Z" fill="#FF7C00"/>
<path id="Rectangle 6" d="M58.2561 30.8278L31.9997 39.0329L36.9228 47.238L63.1792 39.0329L58.2561 30.8278Z" fill="#FF7C00"/>
<path id="Rectangle 1" d="M5.74339 30.8278L31.9998 39.0329L27.0767 47.238L0.820312 39.0329L5.74339 30.8278Z" fill="#FF7C00"/>
<path id="Vector 214 (Stroke)" fill-rule="evenodd" clip-rule="evenodd" d="M8.30733 40.8205C8.76049 40.8205 9.12784 41.1879 9.12784 41.641V53.1282C9.12784 53.5814 8.76049 53.9487 8.30733 53.9487C7.85417 53.9487 7.48682 53.5814 7.48682 53.1282V41.641C7.48682 41.1879 7.85417 40.8205 8.30733 40.8205Z" fill="#AED5F3"/>
<path id="Rectangle 1 (Stroke)" fill-rule="evenodd" clip-rule="evenodd" d="M7.01873 34.5993C7.39578 34.8507 7.49767 35.3601 7.2463 35.7372L6.20867 37.2936L25.6855 43.5262C26.1171 43.6643 26.355 44.1261 26.2169 44.5577C26.0788 44.9893 25.6169 45.2273 25.1853 45.0891L4.6725 38.525C4.42728 38.4466 4.23311 38.2575 4.14808 38.0145C4.06306 37.7715 4.09704 37.5027 4.23986 37.2884L5.88089 34.8269C6.13225 34.4498 6.64168 34.348 7.01873 34.5993Z" fill="#AED5F3"/>
<path id="Rectangle 4" d="M5.74304 30.8277L31.9995 39.0328L58.2559 30.8277L31.9995 22.5641L5.74304 30.8277Z" fill="#FF7C00"/>
<path id="Vector 208" d="M33.1511 29.2258L42.273 20.2464C43.3193 19.2164 42.59 17.4359 41.1218 17.4359L39.2673 17.4359C38.361 17.4359 37.6263 16.7012 37.6263 15.7949L37.6263 2.46156C37.6263 1.55524 36.8916 0.820529 35.9853 0.820529L28.0146 0.820529C27.1083 0.820529 26.3735 1.55524 26.3735 2.46155L26.3735 15.7949C26.3735 16.7012 25.6388 17.4359 24.7325 17.4359L22.878 17.4359C21.4098 17.4359 20.6805 19.2164 21.7268 20.2464L30.8487 29.2258C31.4874 29.8545 32.5124 29.8545 33.1511 29.2258Z" fill="#027DDB"/>
<path id="Vector 207 (Stroke)" fill-rule="evenodd" clip-rule="evenodd" d="M28.7181 14.7692C28.2649 14.7692 27.8975 14.4019 27.8975 13.9487L27.8975 4.10258C27.8975 3.64942 28.2649 3.28206 28.7181 3.28206C29.1712 3.28206 29.5386 3.64942 29.5386 4.10258L29.5386 13.9487C29.5386 14.4019 29.1712 14.7692 28.7181 14.7692Z" fill="#AED5F3"/>
<path id="Vector 216 (Stroke)" fill-rule="evenodd" clip-rule="evenodd" d="M31.7597 26.8366C31.4392 27.157 30.9197 27.157 30.5993 26.8366L24.8557 21.093C24.5353 20.7726 24.5353 20.2531 24.8557 19.9326C25.1761 19.6122 25.6957 19.6122 26.0161 19.9326L31.7597 25.6762C32.0801 25.9967 32.0801 26.5162 31.7597 26.8366Z" fill="#AED5F3"/>
</g>
<g id="Outline">
<path id="Rectangle 4 (Stroke)" fill-rule="evenodd" clip-rule="evenodd" d="M32.245 39.816C32.0856 39.8658 31.9148 39.8658 31.7555 39.816L5.49908 31.6109C5.15653 31.5039 4.9233 31.1866 4.9233 30.8278C4.9233 30.4689 5.15653 30.1516 5.49908 30.0446L18.6273 25.942C19.0598 25.8069 19.52 26.0479 19.6552 26.4804C19.7903 26.913 19.5493 27.3732 19.1168 27.5084L8.49467 30.8278L32.0002 38.1732L55.5058 30.8278L44.8837 27.5084C44.4512 27.3732 44.2101 26.913 44.3453 26.4804C44.4804 26.0479 44.9406 25.8069 45.3732 25.942L58.5014 30.0446C58.8439 30.1516 59.0771 30.4689 59.0771 30.8278C59.0771 31.1866 58.8439 31.5039 58.5014 31.6109L32.245 39.816Z" fill="#0040A0"/>
<path id="Rectangle 2 (Stroke)" fill-rule="evenodd" clip-rule="evenodd" d="M32.0002 38.2124C31.5471 38.2124 31.1797 38.5797 31.1797 39.0329V62.0072C31.1797 62.4604 31.5471 62.8278 32.0002 62.8278C32.4534 62.8278 32.8207 62.4604 32.8207 62.0072V39.0329C32.8207 38.5797 32.4534 38.2124 32.0002 38.2124ZM58.2566 39.8534C57.8035 39.8534 57.4361 40.2208 57.4361 40.6739V54.9744C57.4361 55.4275 57.8035 55.7949 58.2566 55.7949C58.7098 55.7949 59.0771 55.4275 59.0771 54.9744V40.6739C59.0771 40.2208 58.7098 39.8534 58.2566 39.8534Z" fill="#0040A0"/>
<path id="Rectangle 5 (Stroke)" fill-rule="evenodd" clip-rule="evenodd" d="M31.9998 38.2124C32.4529 38.2124 32.8203 38.5797 32.8203 39.0329V63.1795C32.8203 63.6327 32.4529 64 31.9998 64C31.5466 64 31.1793 63.6327 31.1793 63.1795V39.0329C31.1793 38.5797 31.5466 38.2124 31.9998 38.2124ZM5.74336 39.8718C6.19652 39.8718 6.56388 40.2392 6.56388 40.6923V54.9744C6.56388 55.4275 6.19652 55.7949 5.74336 55.7949C5.29021 55.7949 4.92285 55.4275 4.92285 54.9744V40.6923C4.92285 40.2392 5.29021 39.8718 5.74336 39.8718Z" fill="#0040A0"/>
<path id="Rectangle 8 (Stroke)" fill-rule="evenodd" clip-rule="evenodd" d="M57.8343 30.1241C57.4457 30.3573 57.3197 30.8613 57.5528 31.2499L61.9393 38.5608L37.2945 46.2623L32.7036 38.6107C32.4704 38.2221 31.9664 38.0961 31.5778 38.3293C31.1893 38.5624 31.0633 39.0664 31.2964 39.455L36.2195 47.6601C36.4144 47.9849 36.8063 48.1341 37.1678 48.0212L63.4242 39.816C63.6644 39.741 63.8568 39.5599 63.9463 39.3248C64.0358 39.0896 64.0125 38.8264 63.8831 38.6107L58.96 30.4056C58.7268 30.017 58.2228 29.891 57.8343 30.1241Z" fill="#0040A0"/>
<path id="Rectangle 7 (Stroke)" fill-rule="evenodd" clip-rule="evenodd" d="M6.16574 30.1241C6.55432 30.3573 6.68032 30.8613 6.44718 31.2499L2.06065 38.5608L26.7055 46.2623L31.2964 38.6107C31.5296 38.2221 32.0336 38.0961 32.4222 38.3293C32.8107 38.5624 32.9367 39.0664 32.7036 39.455L27.7805 47.6601C27.5856 47.9849 27.1937 48.1341 26.8322 48.0212L0.575776 39.816C0.335636 39.741 0.143199 39.5599 0.0536876 39.3248C-0.0358235 39.0896 -0.0125126 38.8264 0.116931 38.6107L5.04001 30.4056C5.27316 30.017 5.77716 29.891 6.16574 30.1241Z" fill="#0040A0"/>
<path id="Vector 215 (Stroke)" fill-rule="evenodd" clip-rule="evenodd" d="M31.4244 28.641C31.7438 28.9554 32.2563 28.9554 32.5756 28.641L41.6975 19.6617C42.2207 19.1467 41.856 18.2564 41.1219 18.2564L39.2674 18.2564C37.9079 18.2564 36.8059 17.1543 36.8059 15.7949L36.8059 2.46153C36.8059 2.00838 36.4385 1.64102 35.9854 1.64102L28.0147 1.64102C27.5615 1.64102 27.1942 2.00838 27.1942 2.46153L27.1942 15.7949C27.1942 17.1543 26.0921 18.2564 24.7326 18.2564L22.8781 18.2564C22.144 18.2564 21.7794 19.1467 22.3025 19.6617L31.4244 28.641ZM33.7268 29.8105C32.7688 30.7536 31.2313 30.7536 30.2732 29.8105L21.1513 20.8311C19.5818 19.2861 20.6758 16.6154 22.8781 16.6154L24.7326 16.6154C25.1858 16.6154 25.5531 16.248 25.5531 15.7949L25.5531 2.46153C25.5531 1.10206 26.6552 -5.29504e-06 28.0147 -5.17619e-06L35.9854 -4.47937e-06C37.3448 -4.36053e-06 38.4469 1.10207 38.4469 2.46153L38.4469 15.7949C38.4469 16.248 38.8143 16.6154 39.2674 16.6154L41.1219 16.6154C43.3242 16.6154 44.4182 19.2861 42.8487 20.8311L33.7268 29.8105Z" fill="#0040A0"/>
</g>
</g>
<defs>
<clipPath id="clip0_631_7246">
<rect width="64" height="64" fill="white"/>
</clipPath>
</defs>
</svg>
