<svg width="20" height="20" viewBox="0 0 20 20" fill="none" xmlns="http://www.w3.org/2000/svg">
<g id="telegram" clip-path="url(#clip0_803_8112)">
<g id="Group">
<path id="Vector" opacity="0.987" fill-rule="evenodd" clip-rule="evenodd" d="M19.9805 2.32426C19.9805 2.57165 19.9805 2.81905 19.9805 3.06645C18.9357 7.91895 17.8875 12.7757 16.8359 17.6368C16.4937 18.3624 15.9664 18.5252 15.2539 18.125C13.7136 17.013 12.1836 15.8868 10.6641 14.7461C9.83844 15.5066 9.02465 16.2814 8.22266 17.0704C8.00445 17.2407 7.75707 17.3123 7.48047 17.2852C7.58559 15.7225 7.69625 14.16 7.8125 12.5977C10.7154 10.0332 13.593 7.44211 16.4453 4.82426C16.4714 4.7852 16.4714 4.74613 16.4453 4.70707C16.384 4.67356 16.3189 4.6475 16.25 4.62895C16.0898 4.66024 15.94 4.71883 15.8008 4.80473C12.2754 7.00688 8.75324 9.21391 5.23438 11.4258C3.68184 10.93 2.12585 10.4418 0.566406 9.96098C0.330697 9.87391 0.135384 9.73719 -0.0195312 9.55082C-0.0195312 9.42063 -0.0195312 9.29039 -0.0195312 9.1602C0.0913758 8.96715 0.247626 8.81738 0.449219 8.71098C6.49777 6.36492 12.5525 4.03418 18.6133 1.71879C19.2793 1.47934 19.7351 1.68116 19.9805 2.32426Z" fill="#027DDB"/>
</g>
</g>
<defs>
<clipPath id="clip0_803_8112">
<rect width="20" height="20" fill="white"/>
</clipPath>
</defs>
</svg>