<svg width="24" height="24" viewBox="0 0 24 24" fill="none" xmlns="http://www.w3.org/2000/svg">
<g id="tiktok" clip-path="url(#clip0_1549_2625)">
<g id="Group">
<path id="Vector" opacity="0.991" fill-rule="evenodd" clip-rule="evenodd" d="M10.8984 -0.0234375C11.6172 -0.0234375 12.336 -0.0234375 13.0547 -0.0234375C17.2568 0.486933 20.4208 2.56506 22.5469 6.21094C23.3295 7.68614 23.806 9.24862 23.9766 10.8984C23.9766 11.6172 23.9766 12.336 23.9766 13.0547C23.4662 17.2568 21.3881 20.4208 17.7422 22.5469C16.267 23.3295 14.7045 23.806 13.0547 23.9766C12.336 23.9766 11.6172 23.9766 10.8984 23.9766C6.69637 23.4662 3.53232 21.3881 1.40625 17.7422C0.623686 16.267 0.147122 14.7045 -0.0234375 13.0547C-0.0234375 12.336 -0.0234375 11.6172 -0.0234375 10.8984C0.486914 6.69642 2.56504 3.53237 6.21094 1.40625C7.68614 0.623686 9.24862 0.147122 10.8984 -0.0234375ZM12.3047 5.13281C13.0391 5.13281 13.7734 5.13281 14.5078 5.13281C14.5888 6.65789 15.3231 7.72823 16.7109 8.34375C17.1184 8.50181 17.5403 8.57213 17.9766 8.55469C17.9766 9.28908 17.9766 10.0234 17.9766 10.7578C16.7081 10.7309 15.5674 10.3402 14.5547 9.58594C14.5294 11.5246 14.4903 13.4621 14.4375 15.3984C13.9973 17.1355 12.9114 18.237 11.1797 18.7031C8.91609 19.0441 7.2833 18.1926 6.28125 16.1484C5.58652 13.9355 6.20367 12.1934 8.13281 10.9219C8.97797 10.4516 9.87638 10.2876 10.8281 10.4297C10.8594 11.1641 10.8594 11.8984 10.8281 12.6328C9.69994 12.3923 8.87184 12.7829 8.34375 13.8047C7.98666 15.02 8.36948 15.9185 9.49219 16.5C10.7319 16.8529 11.6304 16.4545 12.1875 15.3047C12.2188 15.1797 12.25 15.0547 12.2812 14.9297C12.3047 11.6641 12.3125 8.39845 12.3047 5.13281Z" fill="white"/>
</g>
</g>
<defs>
<clipPath id="clip0_1549_2625">
<rect width="24" height="24" fill="white"/>
</clipPath>
</defs>
</svg>
