<svg width="17" height="16" viewBox="0 0 17 16" fill="none" xmlns="http://www.w3.org/2000/svg">
<g clip-path="url(#clip0_347_7609)">
<path opacity="0.997" fill-rule="evenodd" clip-rule="evenodd" d="M8.09961 -0.015625C8.57877 -0.015625 9.05795 -0.015625 9.53711 -0.015625C12.3385 0.324622 14.4479 1.71004 15.8652 4.14062C16.387 5.12409 16.7046 6.16575 16.8184 7.26562C16.8184 7.74478 16.8184 8.22397 16.8184 8.70312C16.4781 11.5045 15.0927 13.6139 12.6621 15.0312C11.6786 15.553 10.637 15.8707 9.53711 15.9844C9.05795 15.9844 8.57877 15.9844 8.09961 15.9844C5.29823 15.6441 3.18887 14.2587 1.77148 11.8281C1.24977 10.8447 0.932066 9.803 0.818359 8.70312C0.818359 8.22397 0.818359 7.74478 0.818359 7.26562C1.15859 4.46428 2.54401 2.35492 4.97461 0.9375C5.95808 0.415791 6.99973 0.0980813 8.09961 -0.015625Z" fill="#D80027"/>
<path fill-rule="evenodd" clip-rule="evenodd" d="M5.47489 5.20313C6.33036 5.13934 7.08036 5.38413 7.72489 5.9375C6.62067 5.49613 5.67799 5.72009 4.89677 6.60938C4.2943 7.52353 4.2943 8.44019 4.89677 9.35938C5.69746 10.2632 6.65058 10.4768 7.75614 10C6.93433 10.7158 5.99683 10.9242 4.94364 10.625C3.45422 9.97456 2.85526 8.84434 3.14677 7.23438C3.52506 6.09563 4.30111 5.41853 5.47489 5.20313Z" fill="#EFEEEE"/>
<path fill-rule="evenodd" clip-rule="evenodd" d="M8.53711 6.57812C8.51627 6.93228 8.49546 7.28647 8.47461 7.64062C8.4694 7.26547 8.47461 6.89047 8.49024 6.51562C8.51265 6.53263 8.52827 6.55347 8.53711 6.57812Z" fill="#E37387"/>
<path fill-rule="evenodd" clip-rule="evenodd" d="M8.53711 6.57812C8.73789 6.86522 8.94623 7.14647 9.16211 7.42188C9.50036 7.30394 9.83889 7.18934 10.1777 7.07812C10.1986 7.09897 10.1986 7.11978 10.1777 7.14062C9.96211 7.40822 9.75898 7.68425 9.56836 7.96875C9.75798 8.27828 9.96633 8.57516 10.1934 8.85938C9.85217 8.78137 9.50842 8.67722 9.16211 8.54688C8.93092 8.83169 8.70698 9.12337 8.49023 9.42188C8.47983 9.05728 8.46939 8.69272 8.45898 8.32812C8.12789 8.22297 7.79977 8.10837 7.47461 7.98438C7.8042 7.85716 8.13755 7.74256 8.47461 7.64062C8.49545 7.28647 8.51627 6.93228 8.53711 6.57812Z" fill="#EFEBEC"/>
</g>
<defs>
<clipPath id="clip0_347_7609">
<rect width="16" height="16" fill="white" transform="translate(0.833984)"/>
</clipPath>
</defs>
</svg>
