<svg width="20" height="21" viewBox="0 0 20 21" fill="none" xmlns="http://www.w3.org/2000/svg">
<g clip-path="url(#clip0_634_4364)">
<path opacity="0.991" fill-rule="evenodd" clip-rule="evenodd" d="M9.23827 0.209473C9.6419 0.209473 10.0456 0.209473 10.4492 0.209473C12.4139 0.552828 13.7485 1.6596 14.4531 3.52979C15.0687 6.00744 14.307 7.92799 12.168 9.2915C10.7776 9.97088 9.35835 10.036 7.91014 9.48682C5.83179 8.44736 4.87475 6.76115 5.03905 4.42822C5.29221 2.79512 6.13206 1.56465 7.55858 0.736816C8.09218 0.461213 8.65206 0.285431 9.23827 0.209473Z" fill="#027DDB"/>
<path opacity="0.994" fill-rule="evenodd" clip-rule="evenodd" d="M15.3712 20.2097C11.7644 20.2097 8.15762 20.2097 4.55086 20.2097C3.30293 20.0494 2.411 19.3983 1.87508 18.2566C1.75698 17.9674 1.67885 17.6679 1.6407 17.3581C1.53579 15.8544 1.70506 14.3831 2.14851 12.9441C2.43969 12.0288 2.941 11.254 3.65242 10.6199C4.45367 10.0143 5.35211 9.7799 6.34773 9.91674C6.77754 10.1576 7.19422 10.418 7.59773 10.698C9.08742 11.5624 10.5979 11.6015 12.129 10.8152C12.6042 10.5059 13.086 10.2064 13.5743 9.91674C15.176 9.75732 16.3935 10.3628 17.2266 11.7331C17.8517 12.9179 18.2032 14.181 18.2813 15.5222C18.3375 16.1479 18.3375 16.7729 18.2813 17.3972C17.9681 19.0153 16.998 19.9528 15.3712 20.2097Z" fill="#027DDB"/>
</g>
<defs>
<clipPath id="clip0_634_4364">
<rect width="20" height="20" fill="white" transform="translate(0 0.229004)"/>
</clipPath>
</defs>
</svg>
