<svg width="64" height="43" viewBox="0 0 64 43" fill="none" xmlns="http://www.w3.org/2000/svg">
<g clip-path="url(#clip0_347_2331)">
<path d="M0 5.33333C0 2.38781 2.38781 0 5.33333 0H58.6667C61.6122 0 64 2.38781 64 5.33333V37.3333C64 40.2789 61.6122 42.6667 58.6667 42.6667H5.33333C2.38781 42.6667 0 40.2789 0 37.3333V5.33333Z" fill="#D8E3F3"/>
<path d="M55.0801 13.3801H51.7272C50.7136 13.3801 49.9339 13.692 49.466 14.7057L43.0723 29.2866H47.5947C47.5947 29.2866 48.3744 27.3372 48.5304 26.8694C48.9982 26.8694 53.4426 26.8694 54.0664 26.8694C54.2224 27.4152 54.6122 29.2086 54.6122 29.2086H58.6668L55.0801 13.3801ZM49.7779 23.5946C50.1678 22.6589 51.4933 19.1501 51.4933 19.1501C51.4933 19.2281 51.8832 18.2144 52.0391 17.6686L52.351 19.0721C52.351 19.0721 53.2087 22.8928 53.3647 23.6725H49.7779V23.5946Z" fill="#3362AB"/>
<path d="M43.384 24.0624C43.384 27.3373 40.421 29.5205 35.8206 29.5205C33.8713 29.5205 32 29.1306 30.9863 28.6628L31.6101 25.0761L32.1559 25.31C33.5594 25.9338 34.4951 26.1677 36.2105 26.1677C37.4581 26.1677 38.7836 25.6998 38.7836 24.6082C38.7836 23.9065 38.2378 23.4386 36.5224 22.6589C34.885 21.8792 32.7017 20.6316 32.7017 18.3704C32.7017 15.2515 35.7427 13.1462 40.0312 13.1462C41.6686 13.1462 43.0721 13.4581 43.9298 13.848L43.306 17.2788L42.9941 16.9669C42.2144 16.655 41.2008 16.3431 39.7193 16.3431C38.0818 16.4211 37.3021 17.1228 37.3021 17.7466C37.3021 18.4484 38.2378 18.9942 39.7193 19.6959C42.2144 20.8655 43.384 22.1911 43.384 24.0624Z" fill="#3362AB"/>
<path d="M5.3335 13.5363L5.41147 13.2244H12.1171C13.0528 13.2244 13.7545 13.5363 13.9885 14.5499L15.4699 21.5674C13.9885 17.8248 10.5577 14.7838 5.3335 13.5363Z" fill="#F9B50B"/>
<path d="M24.9047 13.3802L18.1211 29.2087H13.5207L9.62207 15.9533C12.4291 17.7467 14.7683 20.5537 15.626 22.503L16.0938 24.1405L20.3043 13.3022H24.9047V13.3802Z" fill="#3362AB"/>
<path d="M26.6978 13.3022H30.9863L28.2572 29.2087H23.9688L26.6978 13.3022Z" fill="#3362AB"/>
</g>
<defs>
<clipPath id="clip0_347_2331">
<rect width="64" height="42.6667" fill="white"/>
</clipPath>
</defs>
</svg>
