<svg width="21" height="20" viewBox="0 0 21 20" fill="none" xmlns="http://www.w3.org/2000/svg">
<g id="whatsapp" clip-path="url(#clip0_803_8125)">
<g id="Group">
<path id="Vector" opacity="0.991" fill-rule="evenodd" clip-rule="evenodd" d="M9.62109 -0.0195312C10.194 -0.0195312 10.7669 -0.0195312 11.3398 -0.0195312C15.2565 0.470344 18.0495 2.50159 19.7188 6.07422C20.1209 7.05797 20.3748 8.07359 20.4805 9.12109C20.4805 9.69402 20.4805 10.2669 20.4805 10.8398C19.9906 14.7565 17.9593 17.5495 14.3867 19.2188C13.403 19.6209 12.3873 19.8748 11.3398 19.9805C10.7669 19.9805 10.194 19.9805 9.62109 19.9805C8.0027 19.8225 6.50527 19.3082 5.12891 18.4375C5.06898 18.4014 5.00387 18.3819 4.93359 18.3789C3.66819 18.7746 2.40517 19.1783 1.14453 19.5898C1.52518 18.35 1.92883 17.1065 2.35547 15.8594C1.29453 14.3498 0.669527 12.6766 0.480469 10.8398C0.480469 10.2669 0.480469 9.69402 0.480469 9.12109C0.970344 5.20445 3.00159 2.41148 6.57422 0.742188C7.55797 0.339997 8.57359 0.086091 9.62109 -0.0195312ZM6.37891 4.58984C6.66566 4.58336 6.95211 4.58984 7.23828 4.60938C7.33727 4.62953 7.42188 4.67512 7.49219 4.74609C7.92555 5.65816 8.30965 6.58914 8.64453 7.53906C8.59477 7.76238 8.49711 7.96418 8.35156 8.14453C8.1602 8.33238 7.97793 8.5277 7.80469 8.73047C7.68023 8.87883 7.64117 9.04813 7.6875 9.23828C8.63754 10.9434 10.0243 12.1479 11.8477 12.8516C12.0262 12.8862 12.1955 12.8602 12.3555 12.7734C12.6523 12.4507 12.9192 12.1057 13.1562 11.7383C13.286 11.5495 13.4618 11.4323 13.6836 11.3867C14.6397 11.7509 15.5577 12.1936 16.4375 12.7148C16.5906 13.9777 16.0763 14.8436 14.8945 15.3125C14.354 15.546 13.7941 15.6111 13.2148 15.5078C11.0105 15.0603 9.12895 14.0381 7.57031 12.4414C6.81789 11.6388 6.14082 10.7794 5.53906 9.86328C5.12012 9.21867 4.84668 8.51555 4.71875 7.75391C4.60016 6.62504 4.9452 5.66801 5.75391 4.88281C5.95086 4.75168 6.15922 4.65402 6.37891 4.58984Z" fill="#4CAF50"/>
</g>
</g>
<defs>
<clipPath id="clip0_803_8125">
<rect width="20" height="20" fill="white" transform="translate(0.5)"/>
</clipPath>
</defs>
</svg>
