<svg width="24" height="24" viewBox="0 0 24 24" fill="none" xmlns="http://www.w3.org/2000/svg">
<g id="youtube (1)" clip-path="url(#clip0_1549_2620)">
<g id="Group">
<path id="Vector" opacity="0.991" fill-rule="evenodd" clip-rule="evenodd" d="M10.9453 -0.0234375C11.6484 -0.0234375 12.3516 -0.0234375 13.0547 -0.0234375C17.2568 0.486933 20.4208 2.56506 22.5469 6.21094C23.3295 7.68614 23.806 9.24862 23.9766 10.8984C23.9766 11.6016 23.9766 12.3047 23.9766 13.0078C23.3914 17.7097 20.9539 21.0613 16.6641 23.0625C15.4836 23.5451 14.2648 23.8498 13.0078 23.9766C12.3047 23.9766 11.6016 23.9766 10.8984 23.9766C6.11409 23.3543 2.74691 20.8387 0.796875 16.4297C0.376448 15.3341 0.103011 14.2091 -0.0234375 13.0547C-0.0234375 12.336 -0.0234375 11.6172 -0.0234375 10.8984C0.436265 6.94884 2.32689 3.89416 5.64844 1.73438C7.28541 0.748613 9.051 0.162675 10.9453 -0.0234375ZM7.80469 7.47656C10.586 7.46873 13.3673 7.47656 16.1484 7.5C17.3012 7.68398 17.9965 8.34806 18.2344 9.49219C18.2656 11.1484 18.2656 12.8047 18.2344 14.4609C17.9965 15.6051 17.3012 16.2691 16.1484 16.4531C13.3672 16.4844 10.5859 16.4844 7.80469 16.4531C6.65152 16.2687 5.95617 15.6046 5.71875 14.4609C5.68748 12.8047 5.68748 11.1484 5.71875 9.49219C5.96484 8.34755 6.66019 7.67564 7.80469 7.47656Z" fill="white"/>
</g>
<g id="Group_2">
<path id="Vector_2" opacity="0.953" fill-rule="evenodd" clip-rule="evenodd" d="M10.2891 10.0078C11.4254 10.644 12.5504 11.3003 13.6641 11.9766C12.5584 12.6505 11.4413 13.3068 10.3125 13.9453C10.2891 12.6329 10.2812 11.3204 10.2891 10.0078Z" fill="white"/>
</g>
</g>
<defs>
<clipPath id="clip0_1549_2620">
<rect width="24" height="24" fill="white"/>
</clipPath>
</defs>
</svg>
