<svg width="24" height="24" viewBox="0 0 24 24" fill="none" xmlns="http://www.w3.org/2000/svg">
<g id="zip-code" clip-path="url(#clip0_712_14959)">
<g id="Group">
<path id="Vector" opacity="0.99" fill-rule="evenodd" clip-rule="evenodd" d="M0.914062 2.27342C7.7812 2.21876 14.6562 2.21094 21.5391 2.24998C18.5772 4.77012 15.6241 7.30137 12.6797 9.84373C11.7109 9.875 10.7422 9.875 9.77344 9.84373C6.81886 7.31993 3.86573 4.79647 0.914062 2.27342Z" fill="#027DDB"/>
</g>
<g id="Group_2">
<path id="Vector_2" opacity="0.993" fill-rule="evenodd" clip-rule="evenodd" d="M-0.0234375 3.25781C2.58437 5.4593 5.17814 7.67808 7.75781 9.91406C6.86109 10.2091 6.32203 10.8185 6.14062 11.7422C6.11719 14.5702 6.10936 17.3984 6.11719 20.2266C4.2265 20.2344 2.33588 20.2266 0.445312 20.2031C0.233439 20.1083 0.0771891 19.9599 -0.0234375 19.7578C-0.0234375 14.2578 -0.0234375 8.7578 -0.0234375 3.25781Z" fill="#027DDB"/>
</g>
<g id="Group_3">
<path id="Vector_3" opacity="0.986" fill-rule="evenodd" clip-rule="evenodd" d="M22.3828 3.25781C22.4763 5.44477 22.5076 7.64789 22.4766 9.86719C19.8984 9.87502 17.3203 9.86719 14.7422 9.84375C17.3119 7.67231 19.8588 5.47697 22.3828 3.25781Z" fill="#027DDB"/>
</g>
<g id="Group_4">
<path id="Vector_4" opacity="0.988" fill-rule="evenodd" clip-rule="evenodd" d="M23.9766 11.6953C23.9766 14.8828 23.9766 18.0703 23.9766 21.2578C23.8771 21.4587 23.7209 21.6071 23.5078 21.7031C18.336 21.7344 13.1641 21.7344 7.9922 21.7031C7.71517 21.6291 7.55111 21.4494 7.50001 21.1641C7.46875 18.0391 7.46875 14.9141 7.50001 11.7891C7.56592 11.5513 7.71432 11.3872 7.94532 11.2969C13.1484 11.2656 18.3516 11.2656 23.5547 11.2969C23.7509 11.376 23.8915 11.5088 23.9766 11.6953ZM10.6641 13.9453C11.4142 13.9375 12.1642 13.9453 12.9141 13.9688C13.3772 14.1723 13.51 14.5083 13.3125 14.9766C12.8672 15.8672 12.4219 16.7578 11.9766 17.6484C12.2722 17.6874 12.5691 17.7108 12.8672 17.7188C13.3128 17.8663 13.4769 18.171 13.3594 18.6328C13.2552 18.8151 13.1068 18.9479 12.9141 19.0313C12.1641 19.0625 11.4141 19.0625 10.6641 19.0313C10.2434 18.8541 10.095 18.5494 10.2188 18.1172C10.6797 17.1953 11.1407 16.2735 11.6016 15.3516C11.2562 15.3212 10.9124 15.2821 10.5703 15.2344C10.2403 15.0349 10.1231 14.7459 10.2188 14.3672C10.3065 14.1565 10.4549 14.0159 10.6641 13.9453ZM15.1641 13.9453C15.6218 13.8808 15.9108 14.0683 16.0313 14.5078C16.0625 15.8359 16.0625 17.1641 16.0313 18.4922C15.9544 18.8434 15.7357 19.0309 15.375 19.0547C15.0519 19.0441 14.8332 18.8878 14.7188 18.5859C14.6875 17.1953 14.6875 15.8047 14.7188 14.4141C14.8135 14.2022 14.962 14.046 15.1641 13.9453ZM17.7891 13.9453C18.3986 13.9375 19.008 13.9453 19.6172 13.9688C20.6726 14.1883 21.2351 14.8367 21.3047 15.9141C21.2527 16.911 20.7527 17.5594 19.8047 17.8594C19.4326 17.9213 19.0576 17.9447 18.6797 17.9297C18.6956 18.1842 18.6722 18.4343 18.6094 18.6797C18.2842 19.1168 17.9092 19.1636 17.4844 18.8203C17.4169 18.7371 17.3701 18.6434 17.3438 18.5391C17.3125 17.1797 17.3125 15.8203 17.3438 14.4609C17.4187 14.2222 17.5672 14.0503 17.7891 13.9453Z" fill="#027DDB"/>
</g>
<g id="Group_5">
<path id="Vector_5" opacity="0.925" fill-rule="evenodd" clip-rule="evenodd" d="M18.6797 15.3047C19.012 15.2867 19.3401 15.3101 19.6641 15.375C20.0182 15.719 20.0339 16.0783 19.7109 16.4531C19.6365 16.4935 19.5584 16.5248 19.4766 16.5469C19.2114 16.5703 18.9457 16.5781 18.6797 16.5703C18.6797 16.1484 18.6797 15.7266 18.6797 15.3047Z" fill="#027DDB"/>
</g>
</g>
<defs>
<clipPath id="clip0_712_14959">
<rect width="24" height="24" fill="white"/>
</clipPath>
</defs>
</svg>
