<svg width="48" height="48" viewBox="0 0 48 48" fill="none" xmlns="http://www.w3.org/2000/svg">
<path fill-rule="evenodd" clip-rule="evenodd" d="M35.8508 15.7036H39.2778C40.0951 15.7036 40.8547 16.1246 41.2879 16.8177L46.1572 24.6086C46.3927 24.9853 46.5175 25.4207 46.5175 25.8649V32.2962C46.5175 33.6053 45.4563 34.6666 44.1471 34.6666H42.962H42.8434C42.2943 31.9617 39.9029 29.9258 37.036 29.9258C35.702 29.9258 34.4709 30.3667 33.4805 31.1106V18.074C33.4805 16.7649 34.5417 15.7036 35.8508 15.7036Z" fill="#FF7C00"/>
<path d="M38.5742 21.6481V18.0925C38.5742 18.0925 39.9048 18.6382 40.5742 19.2407C41.4062 19.9895 42.1298 21.6481 42.1298 21.6481H38.5742Z" fill="#027DDB"/>
<path fill-rule="evenodd" clip-rule="evenodd" d="M5.03711 10.9629C5.03711 9.65378 6.09836 8.59253 7.40748 8.59253H31.1112C32.4203 8.59253 33.4816 9.65378 33.4816 10.9629V31.1106C32.3443 31.9648 31.5244 33.2187 31.2303 34.6637C31.1909 34.6656 31.1511 34.6666 31.1112 34.6666H21.5112C20.9621 31.9617 18.5707 29.9259 15.7038 29.9259C12.8369 29.9259 10.4455 31.9617 9.89639 34.6666H7.40748C6.09836 34.6666 5.03711 33.6054 5.03711 32.2962V10.9629Z" fill="#027DDB"/>
<path fill-rule="evenodd" clip-rule="evenodd" d="M4.81445 11.2593C4.81445 9.62295 6.14102 8.29639 7.77742 8.29639H30.7404C31.0677 8.29639 31.333 8.5617 31.333 8.88898C31.333 9.21626 31.0677 9.48157 30.7404 9.48157H7.77742C6.79558 9.48157 5.99964 10.2775 5.99964 11.2593V32.5927C5.99964 32.92 5.73433 33.1853 5.40705 33.1853C5.07977 33.1853 4.81445 32.92 4.81445 32.5927V11.2593Z" fill="#E7EFFF"/>
<path d="M19.2595 35.8517C19.2595 37.8154 17.6677 39.4073 15.704 39.4073C13.7403 39.4073 12.1484 37.8154 12.1484 35.8517C12.1484 33.888 13.7403 32.2961 15.704 32.2961C17.6677 32.2961 19.2595 33.888 19.2595 35.8517Z" fill="#027DDB"/>
<path d="M40.5916 35.8517C40.5916 37.8154 38.9997 39.4073 37.036 39.4073C35.0723 39.4073 33.4805 37.8154 33.4805 35.8517C33.4805 33.888 35.0723 32.2961 37.036 32.2961C38.9997 32.2961 40.5916 33.888 40.5916 35.8517Z" fill="#027DDB"/>
<path fill-rule="evenodd" clip-rule="evenodd" d="M16.5751 33.2815C16.5751 33.6088 16.3098 33.8741 15.9825 33.8741C14.7883 33.8741 13.8202 34.8422 13.8202 36.0365C13.8202 36.3637 13.5549 36.6291 13.2276 36.6291C12.9003 36.6291 12.635 36.3637 12.635 36.0365C12.635 34.1877 14.1337 32.689 15.9825 32.689C16.3098 32.689 16.5751 32.9543 16.5751 33.2815Z" fill="#E7EFFF"/>
<path fill-rule="evenodd" clip-rule="evenodd" d="M37.9443 33.2815C37.9443 33.6088 37.6789 33.8741 37.3517 33.8741C36.1574 33.8741 35.1893 34.8422 35.1893 36.0365C35.1893 36.3637 34.924 36.6291 34.5967 36.6291C34.2695 36.6291 34.0042 36.3637 34.0042 36.0365C34.0042 34.1877 35.5029 32.689 37.3517 32.689C37.6789 32.689 37.9443 32.9543 37.9443 33.2815Z" fill="#E7EFFF"/>
<path fill-rule="evenodd" clip-rule="evenodd" d="M9.1841 8.59259C9.1841 8.26531 9.44941 8 9.77669 8H31.11C32.7464 8 34.073 9.32656 34.073 10.963V30.5185C34.073 30.8458 33.8077 31.1111 33.4804 31.1111C33.1531 31.1111 32.8878 30.8458 32.8878 30.5185V10.963C32.8878 9.98112 32.0919 9.18519 31.11 9.18519H9.77669C9.44941 9.18519 9.1841 8.91987 9.1841 8.59259ZM4.44336 34.6667C4.44336 34.3394 4.70867 34.0741 5.03595 34.0741H9.77669C10.104 34.0741 10.3693 34.3394 10.3693 34.6667C10.3693 34.9939 10.104 35.2593 9.77669 35.2593H5.03595C4.70867 35.2593 4.44336 34.9939 4.44336 34.6667ZM21.036 34.6667C21.036 34.3394 21.3013 34.0741 21.6285 34.0741H31.11C31.4373 34.0741 31.7026 34.3394 31.7026 34.6667C31.7026 34.9939 31.4373 35.2593 31.11 35.2593H21.6285C21.3013 35.2593 21.036 34.9939 21.036 34.6667Z" fill="#0040A0"/>
<path fill-rule="evenodd" clip-rule="evenodd" d="M0.888672 26.3704C0.888672 26.0431 1.15398 25.7778 1.48126 25.7778H20.4442C20.7715 25.7778 21.0368 26.0431 21.0368 26.3704C21.0368 26.6977 20.7715 26.963 20.4442 26.963H1.48126C1.15398 26.963 0.888672 26.6977 0.888672 26.3704Z" fill="#0040A0"/>
<path fill-rule="evenodd" clip-rule="evenodd" d="M5.62891 22.8148C5.62891 22.4875 5.89422 22.2222 6.2215 22.2222H22.8141C23.1414 22.2222 23.4067 22.4875 23.4067 22.8148C23.4067 23.142 23.1414 23.4074 22.8141 23.4074H6.2215C5.89422 23.4074 5.62891 23.142 5.62891 22.8148Z" fill="#0040A0"/>
<path fill-rule="evenodd" clip-rule="evenodd" d="M3.25977 19.2593C3.25977 18.9321 3.52508 18.6667 3.85236 18.6667H20.445C20.7722 18.6667 21.0375 18.9321 21.0375 19.2593C21.0375 19.5866 20.7722 19.8519 20.445 19.8519H3.85236C3.52508 19.8519 3.25977 19.5866 3.25977 19.2593Z" fill="#0040A0"/>
<path fill-rule="evenodd" clip-rule="evenodd" d="M9.18555 15.7037C9.18555 15.3764 9.45086 15.1111 9.77814 15.1111H21.63C21.9573 15.1111 22.2226 15.3764 22.2226 15.7037C22.2226 16.031 21.9573 16.2963 21.63 16.2963H9.77814C9.45086 16.2963 9.18555 16.031 9.18555 15.7037Z" fill="#0040A0"/>
<path fill-rule="evenodd" clip-rule="evenodd" d="M32.8887 15.7037C32.8887 15.3764 33.154 15.1111 33.4813 15.1111H39.2786C40.3002 15.1111 41.2497 15.6374 41.7912 16.5037L46.6605 24.2946C46.9548 24.7655 47.1109 25.3097 47.1109 25.865V32.2963C47.1109 33.9327 45.7843 35.2592 44.1479 35.2592H42.9627C42.6355 35.2592 42.3702 34.9939 42.3702 34.6666C42.3702 34.3394 42.6355 34.074 42.9627 34.074H44.1479C45.1298 34.074 45.9257 33.2781 45.9257 32.2963V25.865C45.9257 25.5318 45.8321 25.2053 45.6555 24.9228L40.7862 17.1318C40.4613 16.612 39.8916 16.2963 39.2786 16.2963H33.4813C33.154 16.2963 32.8887 16.031 32.8887 15.7037Z" fill="#0040A0"/>
<path fill-rule="evenodd" clip-rule="evenodd" d="M15.7028 32.8888C14.0664 32.8888 12.7399 34.2154 12.7399 35.8518C12.7399 37.4882 14.0664 38.8147 15.7028 38.8147C17.3392 38.8147 18.6658 37.4882 18.6658 35.8518C18.6658 34.2154 17.3392 32.8888 15.7028 32.8888ZM11.5547 35.8518C11.5547 33.5608 13.4119 31.7036 15.7028 31.7036C17.9938 31.7036 19.851 33.5608 19.851 35.8518C19.851 38.1427 17.9938 39.9999 15.7028 39.9999C13.4119 39.9999 11.5547 38.1427 11.5547 35.8518Z" fill="#0040A0"/>
<path fill-rule="evenodd" clip-rule="evenodd" d="M37.0368 32.8888C35.4004 32.8888 34.0739 34.2154 34.0739 35.8518C34.0739 37.4882 35.4004 38.8147 37.0368 38.8147C38.6732 38.8147 39.9998 37.4882 39.9998 35.8518C39.9998 34.2154 38.6732 32.8888 37.0368 32.8888ZM32.8887 35.8518C32.8887 33.5608 34.7459 31.7036 37.0368 31.7036C39.3278 31.7036 41.185 33.5608 41.185 35.8518C41.185 38.1427 39.3278 39.9999 37.0368 39.9999C34.7459 39.9999 32.8887 38.1427 32.8887 35.8518Z" fill="#0040A0"/>
<path fill-rule="evenodd" clip-rule="evenodd" d="M38.5731 17.5C38.9003 17.5 39.1657 17.7653 39.1657 18.0926V20.463C39.1657 20.7902 39.431 21.0556 39.7582 21.0556H42.1286C42.4559 21.0556 42.7212 21.3209 42.7212 21.6481C42.7212 21.9754 42.4559 22.2407 42.1286 22.2407H39.7582C38.7764 22.2407 37.9805 21.4448 37.9805 20.463V18.0926C37.9805 17.7653 38.2458 17.5 38.5731 17.5Z" fill="#0040A0"/>
<path fill-rule="evenodd" clip-rule="evenodd" d="M0.888672 39.4073C0.888672 39.08 1.15398 38.8147 1.48126 38.8147H46.5183C46.8456 38.8147 47.1109 39.08 47.1109 39.4073C47.1109 39.7346 46.8456 39.9999 46.5183 39.9999H1.48126C1.15398 39.9999 0.888672 39.7346 0.888672 39.4073Z" fill="#0040A0"/>
</svg>
