<svg width="24" height="24" viewBox="0 0 24 24" fill="none" xmlns="http://www.w3.org/2000/svg">
<g clip-path="url(#clip0_876_891)">
<path opacity="0.987" fill-rule="evenodd" clip-rule="evenodd" d="M23.9766 13.0546C23.9766 13.3515 23.9766 13.6484 23.9766 13.9452C23.7255 14.704 23.2098 15.1806 22.4297 15.3749C21.8066 15.4918 21.1815 15.5933 20.5547 15.6796C20.5625 13.8514 20.5547 12.0233 20.5312 10.1952C20.3472 8.9017 19.6519 8.0033 18.4453 7.4999C18.1706 7.4078 17.8893 7.34531 17.6016 7.3124C12.7422 7.28897 7.88283 7.28114 3.02344 7.28897C2.93973 6.84689 2.87723 6.40158 2.83594 5.95303C2.87876 5.03948 3.33189 4.43011 4.19531 4.1249C9.45877 3.19096 14.7244 2.26909 19.9922 1.35928C20.9849 1.24226 21.6802 1.6407 22.0781 2.55459C22.7092 6.06126 23.3421 9.56128 23.9766 13.0546Z" fill="#027DDB"/>
<path opacity="0.972" fill-rule="evenodd" clip-rule="evenodd" d="M-0.0234375 10.4766C-0.0234375 10.3516 -0.0234375 10.2266 -0.0234375 10.1016C0.233132 9.32171 0.764381 8.84514 1.57031 8.67189C6.89845 8.64062 12.2265 8.64062 17.5547 8.67189C18.5519 8.8644 19.0988 9.46595 19.1953 10.4766C12.789 10.4766 6.38283 10.4766 -0.0234375 10.4766Z" fill="#027DDB"/>
<path opacity="0.984" fill-rule="evenodd" clip-rule="evenodd" d="M-0.0234375 11.8359C6.38283 11.8359 12.789 11.8359 19.1953 11.8359C19.1953 12.9141 19.1953 13.9922 19.1953 15.0703C12.789 15.0703 6.38283 15.0703 -0.0234375 15.0703C-0.0234375 13.9922 -0.0234375 12.9141 -0.0234375 11.8359Z" fill="#027DDB"/>
<path opacity="0.992" fill-rule="evenodd" clip-rule="evenodd" d="M-0.0234375 16.4297C6.38283 16.4297 12.789 16.4297 19.1953 16.4297C19.2172 18.041 19.1937 19.6503 19.125 21.2578C18.9055 21.9502 18.4446 22.3955 17.7422 22.5938C12.3047 22.625 6.86719 22.625 1.42969 22.5938C0.671184 22.3899 0.186808 21.9133 -0.0234375 21.1641C-0.0234375 19.5859 -0.0234375 18.0078 -0.0234375 16.4297ZM2.36719 19.5234C3.50987 19.5023 4.65049 19.5258 5.78906 19.5938C6.2558 19.8826 6.33394 20.2576 6.02344 20.7188C5.88863 20.833 5.73234 20.8955 5.55469 20.9062C4.41211 20.9508 3.27149 20.9352 2.13281 20.8594C1.66607 20.5705 1.58794 20.1955 1.89844 19.7344C2.04204 19.6233 2.19829 19.553 2.36719 19.5234Z" fill="#027DDB"/>
</g>
<defs>
<clipPath id="clip0_876_891">
<rect width="24" height="24" fill="white"/>
</clipPath>
</defs>
</svg>
