<svg width="20" height="20" viewBox="0 0 20 20" fill="none" xmlns="http://www.w3.org/2000/svg">
<g clip-path="url(#clip0_2696_26154)">
<path opacity="0.988" fill-rule="evenodd" clip-rule="evenodd" d="M19.9805 3.37881C19.9805 8.45693 19.9805 13.5351 19.9805 18.6132C18.0404 18.6132 16.1003 18.6132 14.1602 18.6132C14.1602 15.8397 14.1602 13.0663 14.1602 10.2929C14.3936 10.3096 14.5694 10.2185 14.6875 10.0194C14.7136 9.52463 14.7136 9.02986 14.6875 8.53506C14.6437 8.45209 14.5851 8.38049 14.5117 8.32021C14.0598 8.25681 13.6041 8.24377 13.1445 8.28115C13.0137 8.3431 12.9031 8.42771 12.8125 8.53506C12.1824 8.28506 11.5574 8.02467 10.9375 7.75381C10.9115 6.3215 10.9115 4.88924 10.9375 3.45693C10.9897 3.22252 11.1264 3.05976 11.3477 2.96865C12.6412 2.44558 13.9302 1.91173 15.2149 1.36709C15.4136 1.33483 15.609 1.34785 15.8008 1.40615C17.1321 1.95843 18.4602 2.51833 19.7852 3.08584C19.8614 3.18059 19.9265 3.27824 19.9805 3.37881ZM13.2617 4.35537C13.6135 4.34888 13.9651 4.35537 14.3164 4.3749C14.4521 4.38736 14.5627 4.44595 14.6484 4.55068C14.7121 5.08084 14.7251 5.6147 14.6875 6.15224C14.6568 6.22201 14.6113 6.2806 14.5508 6.32802C14.0728 6.39154 13.591 6.40455 13.1055 6.36709C12.9484 6.29412 12.8638 6.17041 12.8516 5.99599C12.8255 5.59236 12.8255 5.18869 12.8516 4.78506C12.8912 4.54373 13.0279 4.40049 13.2617 4.35537ZM16.6211 4.35537C16.9729 4.34888 17.3245 4.35537 17.6758 4.3749C17.8687 4.38552 17.9924 4.48318 18.0469 4.66787C18.0729 5.14963 18.0729 5.63142 18.0469 6.11318C17.9981 6.21752 17.9265 6.30213 17.832 6.36709C17.3763 6.39314 16.9206 6.39314 16.4649 6.36709C16.3388 6.30603 16.2541 6.20838 16.2109 6.07412C16.1849 5.61838 16.1849 5.16267 16.2109 4.70693C16.2845 4.50924 16.4213 4.39205 16.6211 4.35537ZM16.5039 8.26162C16.9338 8.2551 17.3635 8.26162 17.793 8.28115C17.8759 8.32498 17.9475 8.38357 18.0078 8.45693C18.0714 8.96103 18.0844 9.46884 18.0469 9.98037C18.0024 10.1291 17.9047 10.2267 17.7539 10.2733C17.3503 10.2994 16.9466 10.2994 16.543 10.2733C16.4209 10.2351 16.3233 10.1635 16.25 10.0585C16.1873 9.57951 16.1743 9.09771 16.2109 8.61318C16.2481 8.43978 16.3458 8.32259 16.5039 8.26162Z" fill="#027DDB"/>
<path opacity="0.991" fill-rule="evenodd" clip-rule="evenodd" d="M-0.0195312 18.6134C-0.0195312 15.5665 -0.0195312 12.5196 -0.0195312 9.47276C0.077298 9.29139 0.220527 9.15467 0.410156 9.0626C1.44328 8.6437 2.47193 8.21401 3.49609 7.77354C3.6277 7.68116 3.71233 7.55745 3.75 7.40245C3.76302 6.97276 3.77604 6.54307 3.78906 6.11338C3.84009 5.94491 3.93773 5.80819 4.08203 5.70323C5.43305 5.13569 6.78723 4.57581 8.14453 4.02354C8.30359 3.99784 8.45984 4.01085 8.61328 4.0626C9.15566 4.30124 9.70254 4.52913 10.2539 4.7462C10.293 5.65729 10.306 6.56874 10.293 7.48057C9.9673 7.36112 9.6418 7.23741 9.31641 7.10948C9.12109 7.08342 8.92578 7.08342 8.73047 7.10948C7.25492 7.6837 5.7966 8.29569 4.35547 8.94542C4.05187 9.20752 3.88913 9.53956 3.86719 9.94151C3.84766 12.8321 3.84114 15.7227 3.84766 18.6134C2.55859 18.6134 1.26953 18.6134 -0.0195312 18.6134Z" fill="#027DDB"/>
<path opacity="0.981" fill-rule="evenodd" clip-rule="evenodd" d="M8.9251 7.67578C9.04494 7.67762 9.16213 7.69715 9.27666 7.73438C10.6223 8.28348 11.9634 8.8434 13.3001 9.41406C13.4019 9.48977 13.4735 9.58742 13.5149 9.70703C13.5728 12.6746 13.5924 15.6433 13.5735 18.6133C10.5397 18.6133 7.50584 18.6133 4.47197 18.6133C4.45279 15.6423 4.47232 12.6735 4.53056 9.70703C4.61775 9.5027 4.76748 9.36598 4.97978 9.29688C6.29877 8.75422 7.61385 8.21383 8.9251 7.67578ZM6.7376 10.7227C7.14146 10.7162 7.5451 10.7227 7.94853 10.7422C8.05017 10.7767 8.13482 10.8353 8.20244 10.918C8.26607 11.4351 8.27908 11.9559 8.2415 12.4805C8.21127 12.5757 8.15267 12.6474 8.06572 12.6953C7.61377 12.7587 7.15806 12.7718 6.69853 12.7344C6.5781 12.7037 6.49349 12.6321 6.44463 12.5195C6.41857 12.0117 6.41857 11.5039 6.44463 10.9961C6.51365 10.8683 6.61131 10.7771 6.7376 10.7227ZM10.097 10.7227C10.5008 10.7162 10.9045 10.7227 11.3079 10.7422C11.4095 10.7767 11.4942 10.8353 11.5618 10.918C11.6254 11.4351 11.6385 11.9559 11.6009 12.4805C11.557 12.5634 11.4985 12.635 11.4251 12.6953C10.9731 12.7587 10.5174 12.7718 10.0579 12.7344C9.89111 12.6848 9.79346 12.5741 9.76494 12.4023C9.73889 11.9596 9.73889 11.5169 9.76494 11.0742C9.83088 10.9107 9.94154 10.7936 10.097 10.7227ZM6.65947 14.6289C7.11537 14.6224 7.57111 14.6289 8.02666 14.6484C8.09642 14.6791 8.15502 14.7246 8.20244 14.7852C8.26611 15.3153 8.27912 15.8492 8.2415 16.3867C8.16853 16.5438 8.04482 16.6284 7.87041 16.6406C7.51885 16.6667 7.16728 16.6667 6.81572 16.6406C6.68006 16.6282 6.56939 16.5696 6.48369 16.4648C6.42002 15.9347 6.40701 15.4008 6.44463 14.8633C6.49775 14.7647 6.56935 14.6866 6.65947 14.6289ZM10.0188 14.6289C10.4747 14.6224 10.9305 14.6289 11.386 14.6484C11.4986 14.6973 11.5702 14.7819 11.6009 14.9023C11.6269 15.3841 11.6269 15.8659 11.6009 16.3477C11.5463 16.5323 11.4227 16.63 11.2298 16.6406C10.8782 16.6667 10.5267 16.6667 10.1751 16.6406C9.95185 16.6127 9.81514 16.489 9.76494 16.2695C9.73889 15.8398 9.73889 15.4102 9.76494 14.9805C9.79904 14.8232 9.88365 14.7061 10.0188 14.6289Z" fill="#027DDB"/>
</g>
<defs>
<clipPath id="clip0_2696_26154">
<rect width="20" height="20" fill="white"/>
</clipPath>
</defs>
</svg>
