<svg width="20" height="20" viewBox="0 0 20 20" fill="none" xmlns="http://www.w3.org/2000/svg">
<g clip-path="url(#clip0_2696_26181)">
<path opacity="0.992" fill-rule="evenodd" clip-rule="evenodd" d="M19.9805 3.92578C19.9805 4.18621 19.9805 4.4466 19.9805 4.70703C19.8677 5.13992 19.6333 5.49801 19.2773 5.78125C16.543 7.60418 13.8086 9.42707 11.0742 11.25C10.345 11.6927 9.6159 11.6927 8.88672 11.25C6.15234 9.42707 3.41797 7.60418 0.683594 5.78125C0.327627 5.49801 0.0932523 5.13992 -0.0195312 4.70703C-0.0195312 4.4466 -0.0195312 4.18621 -0.0195312 3.92578C0.203217 3.14975 0.711031 2.67449 1.50391 2.5C7.15496 2.47396 12.806 2.47396 18.457 2.5C19.2495 2.67428 19.7573 3.14954 19.9805 3.92578Z" fill="#027DDB"/>
<path opacity="0.994" fill-rule="evenodd" clip-rule="evenodd" d="M-0.0195312 6.66016C2.81061 8.53301 5.63613 10.4145 8.45703 12.3047C9.47266 12.8516 10.4883 12.8516 11.5039 12.3047C14.3248 10.4145 17.1503 8.53301 19.9805 6.66016C19.9805 9.78516 19.9805 12.9102 19.9805 16.0352C19.7573 16.8114 19.2495 17.2866 18.457 17.4609C12.806 17.487 7.15496 17.487 1.50391 17.4609C0.711031 17.2864 0.203217 16.8112 -0.0195312 16.0352C-0.0195312 12.9102 -0.0195312 9.78516 -0.0195312 6.66016Z" fill="#027DDB"/>
</g>
<defs>
<clipPath id="clip0_2696_26181">
<rect width="20" height="20" fill="white"/>
</clipPath>
</defs>
</svg>
