<svg width="20" height="20" viewBox="0 0 20 20" fill="none" xmlns="http://www.w3.org/2000/svg">
<g clip-path="url(#clip0_2696_26151)">
<path opacity="0.989" fill-rule="evenodd" clip-rule="evenodd" d="M9.23762 -0.0195312C9.73243 -0.0195312 10.2272 -0.0195312 10.722 -0.0195312C13.5004 0.382665 15.4861 1.85402 16.679 4.39453C17.2436 5.80086 17.3738 7.24617 17.0697 8.73047C16.6772 10.2854 16.0782 11.7568 15.2728 13.1445C13.9966 15.332 12.5382 17.3893 10.8978 19.3164C10.6998 19.573 10.472 19.7943 10.2142 19.9805C10.0579 19.9805 9.90169 19.9805 9.74544 19.9805C9.48762 19.7943 9.25977 19.573 9.06184 19.3164C7.42141 17.3893 5.96305 15.332 4.68684 13.1445C3.8814 11.7568 3.28245 10.2854 2.88997 8.73047C2.3844 5.88273 3.21123 3.50644 5.37044 1.60156C6.50555 0.6955 7.79462 0.155135 9.23762 -0.0195312ZM9.51106 3.61328C11.1109 3.5114 12.3283 4.13641 13.1634 5.48828C13.9262 7.14301 13.6723 8.62086 12.4017 9.92188C11.1113 10.965 9.71809 11.1212 8.222 10.3906C6.76641 9.46449 6.17395 8.14289 6.44465 6.42578C6.88965 4.8543 7.9118 3.9168 9.51106 3.61328Z" fill="#027DDB"/>
</g>
<defs>
<clipPath id="clip0_2696_26151">
<rect width="20" height="20" fill="white"/>
</clipPath>
</defs>
</svg>
