<svg width="20" height="20" viewBox="0 0 20 20" fill="none" xmlns="http://www.w3.org/2000/svg">
<g clip-path="url(#clip0_2696_26171)">
<path opacity="0.963" fill-rule="evenodd" clip-rule="evenodd" d="M9.74629 0.605537C12.9992 0.594713 15.6098 1.87076 17.5783 4.43366C18.8338 6.18233 19.4198 8.13546 19.3361 10.293C19.1711 10.6262 18.9041 10.75 18.5353 10.6641C18.2581 10.5595 18.1084 10.3577 18.0861 10.0587C17.9895 6.82804 16.5507 4.41269 13.7697 2.81257C12.5057 2.1743 11.1646 1.84878 9.74629 1.83601C9.39543 1.66128 9.27172 1.38133 9.37519 0.996162C9.45418 0.8196 9.57789 0.689392 9.74629 0.605537Z" fill="#027DDB"/>
<path opacity="0.989" fill-rule="evenodd" clip-rule="evenodd" d="M3.57422 2.98825C4.05492 2.95323 4.49762 3.06391 4.90234 3.32028C5.67707 4.04293 6.42578 4.79164 7.14844 5.56637C7.60992 6.34079 7.58387 7.09602 7.07031 7.832C6.7182 8.17762 6.37313 8.52918 6.03516 8.88668C7.33723 10.944 9.01692 12.6237 11.0742 13.9257C11.4317 13.5878 11.7833 13.2427 12.1289 12.8906C12.9669 12.3254 13.7872 12.3514 14.5898 12.9687C15.2876 13.6534 15.9712 14.35 16.6406 15.0586C17.1216 15.8879 17.0696 16.6822 16.4844 17.4414C16.1393 17.7864 15.7943 18.1315 15.4492 18.4765C14.7259 19.052 13.899 19.358 12.9688 19.3945C11.809 19.3863 10.6957 19.1454 9.62891 18.6718C7.75547 17.8233 6.09531 16.671 4.64844 15.2148C3.23923 13.8032 2.11944 12.1886 1.28906 10.3711C0.841477 9.32938 0.58757 8.24215 0.527344 7.10934C0.559953 6.11254 0.891984 5.23364 1.52344 4.47262C1.9087 4.0743 2.30584 3.69019 2.71484 3.32028C2.98706 3.15818 3.27352 3.0475 3.57422 2.98825Z" fill="#027DDB"/>
<path opacity="0.96" fill-rule="evenodd" clip-rule="evenodd" d="M10.1752 4.55075C12.1445 4.52286 13.6614 5.33012 14.726 6.97262C15.2366 7.85622 15.458 8.80672 15.3901 9.82418C15.1999 10.2217 14.894 10.3454 14.4721 10.1953C14.2793 10.0899 14.1686 9.92715 14.1401 9.707C14.086 7.9609 13.2592 6.74344 11.6596 6.05465C11.177 5.8961 10.6822 5.80497 10.1752 5.78122C9.75932 5.54352 9.66166 5.21149 9.88225 4.78512C9.96483 4.68274 10.0625 4.60461 10.1752 4.55075Z" fill="#027DDB"/>
</g>
<defs>
<clipPath id="clip0_2696_26171">
<rect width="20" height="20" fill="white"/>
</clipPath>
</defs>
</svg>
