<svg width="20" height="20" viewBox="0 0 20 20" fill="none" xmlns="http://www.w3.org/2000/svg">
<g clip-path="url(#clip0_2696_26114)">
<path opacity="0.991" fill-rule="evenodd" clip-rule="evenodd" d="M9.23876 -0.0195312C9.64239 -0.0195312 10.0461 -0.0195312 10.4497 -0.0195312C12.4144 0.323824 13.749 1.43059 14.4536 3.30078C15.0692 5.77844 14.3075 7.69898 12.1684 9.0625C10.7781 9.74187 9.35884 9.80699 7.91063 9.25781C5.83227 8.21836 4.87524 6.53215 5.03954 4.19922C5.2927 2.56611 6.13255 1.33564 7.55907 0.507812C8.09266 0.232209 8.65255 0.0564273 9.23876 -0.0195312Z" fill="#027DDB"/>
<path opacity="0.994" fill-rule="evenodd" clip-rule="evenodd" d="M15.3719 19.9805C11.7651 19.9805 8.15835 19.9805 4.55159 19.9805C3.30366 19.8201 2.41174 19.1691 1.87581 18.0273C1.75771 17.7382 1.67959 17.4387 1.64143 17.1289C1.53652 15.6251 1.70579 14.1538 2.14925 12.7148C2.44043 11.7995 2.94173 11.0248 3.65315 10.3906C4.4544 9.78503 5.35284 9.55065 6.34847 9.68749C6.77827 9.92835 7.19495 10.1888 7.59847 10.4687C9.08815 11.3332 10.5986 11.3723 12.1297 10.5859C12.6049 10.2767 13.0867 9.97718 13.575 9.68749C15.1767 9.52807 16.3942 10.1335 17.2274 11.5039C17.8524 12.6887 18.204 13.9517 18.2821 15.293C18.3383 15.9186 18.3383 16.5436 18.2821 17.168C17.9688 18.786 16.9987 19.7235 15.3719 19.9805Z" fill="#027DDB"/>
</g>
<defs>
<clipPath id="clip0_2696_26114">
<rect width="20" height="20" fill="white"/>
</clipPath>
</defs>
</svg>
