<svg width="24" height="24" viewBox="0 0 24 24" fill="none" xmlns="http://www.w3.org/2000/svg">
<path opacity="0.97" fill-rule="evenodd" clip-rule="evenodd" d="M14.0859 0.679668C17.7052 0.500189 20.3536 2.00019 22.0312 5.17967C23.0291 7.39756 22.9979 9.60068 21.9375 11.789C21.3716 12.9686 20.6997 14.0779 19.9218 15.1172C18.4152 17.0695 16.8293 18.9602 15.164 20.789C15.0117 20.8993 14.8555 20.9071 14.6953 20.8125C13.0702 19.0316 11.5155 17.1956 10.0312 15.3047C9.02996 13.9733 8.20187 12.5358 7.54684 10.9922C6.61023 8.13017 7.11024 5.55204 9.04684 3.25779C10.4176 1.79506 12.0973 0.935681 14.0859 0.679668ZM14.6015 2.08592C17.4893 2.12654 19.5595 3.43904 20.8125 6.02342C21.7338 8.49523 21.3588 10.7452 19.6875 12.7734C17.7321 14.779 15.4118 15.3649 12.7265 14.5312C10.0676 13.4098 8.66134 11.402 8.50777 8.50779C8.63138 5.87604 9.85013 3.94634 12.164 2.71873C12.9446 2.36138 13.7571 2.15044 14.6015 2.08592Z" fill="#027DDB"/>
<path opacity="0.976" fill-rule="evenodd" clip-rule="evenodd" d="M14.7891 3.67978C14.9057 3.6703 15.0151 3.69374 15.1172 3.75009C16.4453 4.52353 17.7735 5.29697 19.1016 6.07041C19.1563 7.7108 19.164 9.35142 19.125 10.9923C17.7264 11.8166 16.3201 12.6291 14.9062 13.4298C13.5 12.6173 12.0937 11.8048 10.6875 10.9923C10.6485 9.35142 10.6562 7.7108 10.7109 6.07041C11.1975 5.77903 11.6897 5.49778 12.1875 5.22666C13.6006 6.027 15.0069 6.83948 16.4062 7.66416C16.4297 8.27334 16.4375 8.88272 16.4297 9.49228C16.8151 9.31509 17.1901 9.11194 17.5547 8.88291C17.6172 8.24227 17.6172 7.60167 17.5547 6.96103C16.197 6.18914 14.8455 5.40787 13.5 4.61728C13.4667 4.52978 13.4901 4.45946 13.5703 4.40634C13.9873 4.17473 14.3935 3.93255 14.7891 3.67978Z" fill="#027DDB"/>
<path opacity="0.966" fill-rule="evenodd" clip-rule="evenodd" d="M2.41406 7.1484C3.43501 7.01031 4.37251 7.22124 5.22656 7.78121C6.20667 8.61099 6.46448 9.61881 6 10.8046C5.92406 10.8863 5.85375 10.9722 5.78906 11.0625C5.24962 11.3555 4.734 11.6836 4.24219 12.0468C3.88227 12.3439 3.59321 12.6954 3.375 13.1015C3.28125 13.3515 3.28125 13.6015 3.375 13.8515C3.45613 13.9508 3.5577 14.0211 3.67969 14.0625C4.38281 14.1718 5.08594 14.2812 5.78906 14.3906C6.5655 14.67 6.83892 15.209 6.60937 16.0078C6.37425 16.6332 6.07734 17.2269 5.71875 17.789C5.26144 18.6907 5.4255 19.4485 6.21094 20.0625C6.5318 20.258 6.8677 20.4221 7.21875 20.5546C7.78865 20.0357 8.45273 19.6842 9.21094 19.5C10.1781 19.219 11.1625 19.0471 12.1641 18.9843C12.8672 19.7812 13.5703 20.5781 14.2734 21.375C14.6971 21.6558 15.119 21.6558 15.5391 21.375C16.262 20.6079 16.9573 19.8189 17.625 19.0078C19.0803 19.0584 20.4787 19.3786 21.8203 19.9687C22.1921 20.1349 22.4812 20.3927 22.6875 20.7421C22.7926 21.0224 22.7613 21.288 22.5937 21.539C21.9861 22.0968 21.2752 22.464 20.4609 22.6406C18.1337 23.2008 15.7743 23.4039 13.3828 23.25C12.0173 23.1891 10.6736 22.9859 9.35156 22.6406C8.67455 22.4673 8.04956 22.1861 7.47656 21.7968C7.32511 21.669 7.20014 21.5206 7.10156 21.3515C6.2535 21.1271 5.5582 20.6739 5.01562 19.9921C4.58234 19.2135 4.55109 18.4166 4.92187 17.6015C5.20312 17.0703 5.48437 16.539 5.76562 16.0078C5.85759 15.7966 5.88886 15.5778 5.85937 15.3515C5.68931 15.2114 5.49398 15.1254 5.27344 15.0937C4.75659 15.0405 4.24099 14.978 3.72656 14.9062C2.907 14.7819 2.50075 14.3054 2.50781 13.4765C2.52448 12.9184 2.71979 12.434 3.09375 12.0234C3.35491 11.7308 3.64397 11.473 3.96094 11.25C4.42187 10.9453 4.88283 10.6406 5.34375 10.3359C5.55886 9.32082 5.19169 8.59426 4.24219 8.15621C3.85979 7.99534 3.46135 7.92502 3.04687 7.94527C2.48893 7.98831 1.93425 8.04301 1.38281 8.10934C1.13281 7.87496 1.13281 7.64059 1.38281 7.40621C1.72883 7.30407 2.07258 7.21815 2.41406 7.1484Z" fill="#027DDB"/>
</svg>
