<svg width="24" height="24" viewBox="0 0 24 24" fill="none" xmlns="http://www.w3.org/2000/svg">
<g clip-path="url(#clip0_876_929)">
<path opacity="0.991" fill-rule="evenodd" clip-rule="evenodd" d="M9.35136 -0.0234375C11.1013 -0.0234375 12.8514 -0.0234375 14.6014 -0.0234375C14.9599 0.108585 15.2021 0.358585 15.3279 0.726562C15.4773 1.67837 15.6179 2.63149 15.7498 3.58594C15.7642 3.62382 15.7877 3.65506 15.8201 3.67969C16.3505 3.91344 16.8505 4.19469 17.3201 4.52344C18.2089 4.16728 19.0995 3.81572 19.992 3.46875C20.4742 3.35867 20.8727 3.49148 21.1873 3.86719C22.0116 5.28145 22.8242 6.70331 23.6248 8.13281C23.7302 8.49647 23.6833 8.84025 23.4842 9.16406C22.7477 9.79383 21.9899 10.3954 21.2107 10.9688C21.1346 11.0211 21.0877 11.0914 21.0701 11.1797C21.1227 11.7428 21.1304 12.3053 21.0935 12.8672C21.8045 13.4219 22.5154 13.9766 23.2264 14.5312C23.7781 15.0662 23.8327 15.6521 23.3904 16.2891C22.738 17.3908 22.0973 18.5002 21.4685 19.6172C21.325 19.8858 21.1453 20.128 20.9295 20.3438C20.5259 20.5802 20.1197 20.5959 19.7107 20.3906C18.9087 20.0638 18.104 19.7435 17.2967 19.4297C16.8396 19.764 16.3474 20.0452 15.8201 20.2734C15.7877 20.298 15.7642 20.3293 15.7498 20.3672C15.6179 21.3217 15.4773 22.2748 15.3279 23.2266C15.2021 23.5945 14.9599 23.8446 14.6014 23.9766C12.8514 23.9766 11.1013 23.9766 9.35136 23.9766C8.99286 23.8446 8.75065 23.5945 8.62479 23.2266C8.48483 22.2465 8.33637 21.27 8.17948 20.2969C7.63662 20.0609 7.12878 19.7718 6.65604 19.4297C5.75759 19.7812 4.85918 20.1328 3.96073 20.4844C3.3541 20.6068 2.90879 20.3958 2.62479 19.8516C1.85917 18.5078 1.09354 17.1641 0.327919 15.8203C0.185834 15.3056 0.318646 14.8759 0.726357 14.5312C1.4373 13.9766 2.14823 13.4219 2.85917 12.8672C2.82792 12.2734 2.82792 11.6797 2.85917 11.0859C2.06229 10.4453 1.26542 9.8047 0.468544 9.16406C0.171665 8.64689 0.202915 8.14692 0.562294 7.66406C1.30851 6.40613 2.04288 5.1405 2.76542 3.86719C3.08002 3.49148 3.47846 3.35867 3.96073 3.46875C4.85918 3.82031 5.75759 4.17188 6.65604 4.52344C7.13928 4.19764 7.64708 3.90857 8.17948 3.65625C8.33637 2.68314 8.48483 1.70658 8.62479 0.726562C8.75065 0.358585 8.99286 0.108585 9.35136 -0.0234375ZM11.6482 7.99219C13.8131 7.99397 15.2115 9.02522 15.8435 11.0859C16.1505 12.7591 15.6427 14.1263 14.3201 15.1875C12.6626 16.2544 11.0376 16.2075 9.44511 15.0469C8.07415 13.7739 7.69133 12.2505 8.29667 10.4766C8.95648 9.02723 10.0737 8.19909 11.6482 7.99219Z" fill="#027DDB"/>
</g>
<defs>
<clipPath id="clip0_876_929">
<rect width="24" height="24" fill="white"/>
</clipPath>
</defs>
</svg>
