<svg width="24" height="24" viewBox="0 0 24 24" fill="none" xmlns="http://www.w3.org/2000/svg">
<g clip-path="url(#clip0_876_1850)">
<path opacity="0.995" fill-rule="evenodd" clip-rule="evenodd" d="M11.6953 -0.0234375C11.8828 -0.0234375 12.0703 -0.0234375 12.2578 -0.0234375C16.0829 2.60831 19.911 5.24114 23.7422 7.875C23.8156 7.98403 23.8937 8.08556 23.9766 8.17969C23.9766 13.2266 23.9766 18.2734 23.9766 23.3203C23.8319 23.6369 23.5975 23.8557 23.2734 23.9766C22.5078 23.9766 21.7422 23.9766 20.9766 23.9766C20.9844 19.9765 20.9766 15.9765 20.9531 11.9766C20.8994 11.4696 20.6259 11.1493 20.1328 11.0156C14.6953 10.9844 9.25781 10.9844 3.82031 11.0156C3.32721 11.1493 3.05377 11.4696 3 11.9766C2.97656 15.9765 2.96875 19.9765 2.97656 23.9766C2.21094 23.9766 1.44531 23.9766 0.679688 23.9766C0.335938 23.8515 0.101563 23.6172 -0.0234375 23.2734C-0.0234375 18.2422 -0.0234375 13.2109 -0.0234375 8.17969C0.166327 7.92703 0.400702 7.71609 0.679688 7.54688C4.35993 5.02987 8.0318 2.50642 11.6953 -0.0234375Z" fill="#027DDB"/>
<path opacity="0.993" fill-rule="evenodd" clip-rule="evenodd" d="M9.30469 12.9609C9.94533 12.9609 10.5859 12.9609 11.2266 12.9609C11.2035 13.3433 11.2426 13.7183 11.3437 14.0859C11.7656 14.586 12.1875 14.586 12.6094 14.0859C12.7105 13.7183 12.7496 13.3433 12.7266 12.9609C13.3674 12.9531 14.008 12.9609 14.6484 12.9844C14.793 13.0212 14.8945 13.1071 14.9531 13.2422C14.9844 14.7266 14.9844 16.2109 14.9531 17.6953C14.8984 17.8125 14.8125 17.8984 14.6953 17.9531C12.8828 17.9844 11.0703 17.9844 9.25781 17.9531C9.17409 17.9163 9.10378 17.8617 9.04687 17.7891C8.96944 16.2774 8.95383 14.7618 9 13.2422C9.07003 13.1103 9.17156 13.0165 9.30469 12.9609Z" fill="#027DDB"/>
<path opacity="0.985" fill-rule="evenodd" clip-rule="evenodd" d="M11.2266 23.9766C9.39845 23.9766 7.57032 23.9766 5.7422 23.9766C5.61564 23.9041 5.52971 23.7947 5.48439 23.6484C5.45312 22.1953 5.45312 20.7422 5.48439 19.2891C5.5547 19.1563 5.65628 19.0547 5.78907 18.9844C6.44514 18.9609 7.10139 18.9531 7.75782 18.9609C7.75004 19.2894 7.75782 19.6176 7.78126 19.9453C8.10953 20.5287 8.5314 20.6068 9.04689 20.1797C9.10665 20.0758 9.15353 19.9664 9.18751 19.8516C9.21095 19.5551 9.21873 19.2582 9.21095 18.9609C9.86739 18.9531 10.5236 18.9609 11.1797 18.9844C11.331 19.0576 11.4326 19.1748 11.4844 19.3359C11.5157 20.7578 11.5157 22.1797 11.4844 23.6016C11.4261 23.7458 11.3402 23.8708 11.2266 23.9766Z" fill="#027DDB"/>
<path opacity="0.985" fill-rule="evenodd" clip-rule="evenodd" d="M18.2109 23.9766C16.3828 23.9766 14.5547 23.9766 12.7266 23.9766C12.613 23.8708 12.527 23.7458 12.4688 23.6016C12.4375 22.1797 12.4375 20.7578 12.4688 19.3359C12.5206 19.1748 12.6221 19.0576 12.7734 18.9844C13.4295 18.9609 14.0858 18.9531 14.7422 18.9609C14.7239 19.3088 14.7473 19.6525 14.8125 19.9922C15.057 20.4279 15.4085 20.545 15.8672 20.3438C15.9707 20.256 16.0567 20.1544 16.125 20.0391C16.1904 19.6838 16.2139 19.3244 16.1953 18.9609C16.8518 18.9531 17.508 18.9609 18.1641 18.9844C18.2969 19.0547 18.3984 19.1563 18.4688 19.2891C18.5 20.7422 18.5 22.1953 18.4688 23.6484C18.4234 23.7947 18.3375 23.9041 18.2109 23.9766Z" fill="#027DDB"/>
</g>
<defs>
<clipPath id="clip0_876_1850">
<rect width="24" height="24" fill="white"/>
</clipPath>
</defs>
</svg>
